M48
;Layer_Color=9474304
;FILE_FORMAT=2:4
INCH,TZ
;TYPE=PLATED
T1F00S00C0.0118
T3F00S00C0.0984
;TYPE=NON_PLATED
T4F00S00C0.0236
T6F00S00C0.0670
T7F00S00C0.1181
T8F00S00C0.1570
T9F00S00C0.2362
%
T01
X2906Y4002
X5050Y4200
X5550Y5350
X6557Y6485
X8919
X10600Y7650
X10100Y8847
X7738
X4195Y6485
X6850Y300
X11000Y2000
X11050Y3800
X11400Y4750
X14450Y4050
X14950Y5350
X16006Y6485
X13644
X14825Y8847
X12463
X16350Y3400
X16200Y300
X20000Y5000
X21250Y4750
X20250Y6650
X22750Y7650
X21911Y8847
X24274
X24350Y5350
X23800Y4050
X26650Y6100
X25550Y300
X30650Y2750
X30600Y3300
X31300
X31900Y3373
Y2300
X33350Y2400
X33950Y2700
X34400
X34768Y2432
X35488Y3352
X35150Y4150
X34600
X34150
X33700
X33914Y4438
X34372Y4528
X34950Y4550
X33400Y4500
X32777Y5022
X32541Y6485
X31300Y6700
X31650Y7150
X31050Y6150
X30179Y6485
X30250Y7650
X27817Y6485
X37750Y7650
X37400Y4100
X36200Y1900
X39200Y2450
X39950Y1875
X41800Y3300
X34150Y300
X42900Y2900
X43550Y3600
X45150
X46500Y4200
X46450Y5250
X46100Y5650
X45300Y7650
X43171Y8847
X42850Y5200
X46950Y2550
X46500Y1400
X49300Y4800
X51950Y4050
X52450Y5350
X52800Y7650
X53650Y7250
X54000Y7000
X57344Y8847
X50258
X53750Y300
X60700Y5750
X60300Y7650
X59707Y8847
X68800Y8700
X69155Y8847
X67800Y7650
X69900Y6600
X70337Y6485
X72699
X67300Y3700
X75061Y6485
X75300Y7650
X76250Y7300
X76242Y8847
X77423Y6485
X77400Y4750
X80100Y4050
X80600Y5350
X79785Y6485
X82148
X82800Y7650
X83329Y8847
X80966
X84510Y6485
X86872
X86800Y4750
X89234Y6485
X88053Y8847
X84900Y1050
X81850Y300
X91250
X89450Y4050
X89950Y5350
X90350Y7650
X91596Y6485
X92778Y8847
X95900Y7400
X96321Y6485
X96200Y4750
X95350Y4050
X98850
X99350Y5350
X98683Y6485
X97502Y8847
X102226
X104350Y7650
X100600Y300
X109450Y600
X108200Y4050
X108132Y6485
X110494
X109313Y8847
X106951
X105770Y6485
X105600Y4750
X105770Y11209
X106950Y11550
X106951Y13571
X106250Y15050
X105770Y15933
X108132
X109313Y18296
X107550Y19050
X108132Y20658
X105770
X106951Y23020
X109050Y22500
X110350Y26550
X109313Y13571
X110494Y11209
X103407
X104589Y13571
X102226
X100400Y13550
X99950Y12250
X98683Y11209
X96321
X93959
X91596
Y15933
X94050Y15050
X95350Y13550
X97400Y14100
X99000
X98683Y15933
X96321
X97502Y18296
X99864
X102226
X101800Y19750
X104450Y19050
X104589Y18296
X103407Y15933
X102226Y23020
X99700Y22500
X97502Y23020
X96321Y20658
X98683
X93959
X92700Y20350
X92250Y19050
X89650Y19750
X90415Y23020
X92200Y22500
X92778Y23020
X93959Y25382
X95140Y18296
X103407Y25382
X89234Y20658
X86872
X85250Y20350
X84750Y19050
X82150Y19750
X82148Y20658
X79785
X77700Y20350
X77250Y19050
X77423Y15933
X79785
X79050Y15050
X78850Y13550
X78350Y12250
X77423Y11209
X75061
X74000Y12850
X81450
X82148Y11209
X84510
X85900Y12250
X86350Y13550
X86550Y15050
X86872Y15933
X84510
X88800Y14450
X88950Y12850
X89234Y11209
X88053Y18296
X85691Y23020
X84700Y22500
X83329Y23020
X84510Y25382
X77423
X77250Y22500
X76242Y23020
X78604
X80966Y18296
X74650Y19750
X71518Y18296
X69750Y19050
X70200Y20350
X70337Y20658
X69700Y22500
X69155Y23020
X66793
X65612Y25382
X67974
X70337
X67150Y19750
X65612Y20658
X63250
X62700Y20350
X62250Y19050
X64431Y18296
X63250Y15933
X64050Y15100
X63850Y13550
X63350Y12250
X63250Y11209
X60888
X58526
X59000Y12850
X59707Y18296
X59650Y19700
X59707Y23020
X62200Y22500
X65612Y15933
X66500Y12850
X67974Y11209
X70900Y12250
X71350Y13550
X71550Y15050
X72699Y15933
X70337
X56163
X56550Y15100
X56350Y13550
X55850Y12250
X56163Y11209
X51439
X51500Y12850
X51150Y13850
X49900Y14768
X49050Y15100
X48850Y13550
X48350Y12250
X49077Y11209
X44352
X43950Y12850
X46100Y14200
X46450Y13850
X46500Y15950
X47250Y19050
X47750Y20350
X49077Y20658
X51439
X52150Y19750
X52620Y18296
X54982
X54750Y19050
X55150Y20300
X56163Y20658
X54700Y22500
X54982Y23020
X52620
X47896
X47200Y22500
X45533Y23020
X44352Y20658
X44600Y19750
X43171Y18296
X42850Y16950
X50300Y17050
X53801Y15933
X54050Y16150
X53650Y14768
X54000Y14100
X57344Y18296
X56163Y25382
X49077
X39628
X39750Y22500
X40809Y23020
X42300Y22500
X41990Y20658
X40200Y20350
X39750Y19050
X39628Y15933
X39300Y15700
X38650Y15100
X41550
X41990Y15933
X42300Y14200
X41350Y13550
X40550Y12250
X39628Y11209
X38950Y11500
X37266Y11209
X36500Y12850
X33800Y13550
X33350Y12250
X32541Y11209
X30179
X29000Y12850
X30450Y14000
X31500Y14150
X31550Y15800
X32541Y15933
X34050Y15100
X34903Y15933
X35350Y17000
X36085Y18296
X33722
X32250Y19050
X32700Y20350
X34903Y20658
X37266
X37100Y19750
X38447Y23020
X33722
X32200Y22500
X31360Y23020
X28998
X29650Y19750
X27800Y17050
X27817Y15933
X32541Y25382
X25455
X23092
X24200Y26500
X24274Y23020
X24750Y22500
X25455Y20658
X25250Y20350
X24750Y19050
X26636Y18296
X26550Y15100
X26350Y13550
X25850Y12250
X25455Y11209
X23092
X20730
X18368
X18350Y12250
X18850Y13550
X19050Y15100
X18368Y15933
X16006
X17187Y18296
X17300Y19050
X17750Y20350
X18368Y20658
X17200Y22550
X14825Y23020
X14650Y19750
X14825Y18296
X12463
X12100Y19050
X11281Y20658
X13644
X11281Y15933
X12100Y13550
X11600Y11900
X11281Y11209
X13644
X16006
X21500Y12850
X25455Y15933
X22150Y19750
X21911Y23020
X20730Y25382
X19549Y18296
X10100
X8919Y20658
X7400Y20350
X6950Y19050
X4800Y19150
X4195Y20658
X5376Y23020
X7800Y22550
X10100Y23020
X8919Y25382
X3850Y26700
X4200Y14000
X5376Y13571
X6650Y13550
X6150Y12250
X6557Y11209
X8919
X9300Y12850
X8750Y15100
X6557Y15933
X6550Y27850
X5900Y30050
X3850Y28550
X4150Y34100
X4650Y35350
X9000Y34750
X7738Y32469
X8100Y31900
X10950Y30850
X13800Y30600
X14400Y30400
X13400Y30050
X13800Y28850
X14400
X13200Y28550
X12600Y27250
X15800Y27850
X20250Y27250
X20700Y28550
X20950Y30050
X21911Y32469
X24274
X24000Y34750
X26650Y34100
X19150
X19700Y35350
X17187Y32469
X15450Y33500
X13600
X12100Y34750
X24200Y28900
X23350Y27850
X27750Y27250
X28241Y28541
X28450Y30050
X30850Y27850
X35300Y27250
X35750Y28550
X35950Y30050
X38300Y27850
X38447Y32469
X39050Y34750
X41650Y34100
X42100Y35300
X34650Y35350
X34150Y34100
X31500Y34750
X31360Y32469
X27100Y35350
X46550Y34750
X49150Y34100
X49600Y35350
X54050Y34750
X56650Y34100
X57050Y35350
X52620Y32469
X50950Y30050
X50750Y28550
X50250Y27250
X53300Y27850
X57800Y27250
X45850Y27850
X43250Y28550
X43450Y30050
X42600Y27200
X45500Y31900
X45533Y32469
X48200Y31050
X47750Y30050
X58450
X58250Y28550
X60850Y27850
X65300Y27250
X65700Y28550
X65950Y30050
X66793Y32469
X69155
X69050Y34800
X71600Y34100
X72100Y35350
X73450Y30050
X73250Y28550
X72800Y27250
X68350Y27850
X64150Y34100
X64550Y35350
X61550Y34750
X62069Y32469
X59707
X76242
X76550Y34750
X79100Y34100
X79600Y35350
X84050Y34750
X83329Y32469
X83400Y27850
X80700Y28550
X80950Y30050
X80250Y27250
X75850Y27850
X87700Y27250
X88250Y28550
X88450Y30050
X86650Y34100
X87100Y35350
X91500Y34750
X94150Y34100
X94600Y35350
X98100Y34100
X97502Y32469
X99864
X102226
X102800Y34750
X104600Y27250
X99864Y27744
X98350Y27850
X98050Y28550
X95700
X95950Y30050
X95250Y27250
X90850Y27850
X90415Y32469
X105400Y34100
X105900Y35350
X108000
X110494Y34831
X109313Y32469
X110494Y30107
X109900Y28550
X109313Y27744
X107200Y30050
X105133Y28533
T03
X8231Y5417
X103068Y5397
X101452Y24330
X57422Y20660
X9586Y24324
T04
X13350Y34528
T06
X1999Y3061
X5999
X5749Y10561
X9749
X17936
X21936
X25436
X24749Y3061
X20749
X15374
X11374
X29436Y10561
X32936
X36936
X40436
X44436
X47936
X51936
X55436
X52874Y3061
X48874
X59436Y10561
X62936
X66936
X70436
X74436
X77936
X81936
X85436
X86374Y3061
X80999
X76999
X90374
X95749
X99749
X99499Y10561
X103499
X89436
X105124Y3061
X109124
X105374Y18061
X108186Y25561
X104186
X98811
X94811
X91311
X93186Y18061
X101374
X89186
X85686
X81686
X78186
X74186
X76311Y25561
X79811
X83811
X87311
X72311
X68811
X64811
X61311
X63186Y18061
X66686
X70686
X59186
X55686
X51686
X48186
X44186
X46311Y25561
X49811
X53811
X57311
X42311
X38811
X34811
X31311
X27311
X29186Y18061
X33186
X36686
X40686
X25686
X21686
X18186
X14186
X12311Y25561
X16311
X19811
X23811
X6936
X2936
X3874Y18061
X7874
X8561Y33061
X5061
X1061
X12561
X16061
X20061
X23561
X27561
X31061
X35061
X38561
X42561
X46061
X50061
X53561
X57561
X61061
X65061
X68561
X72561
X76061
X80061
X83561
X87561
X91061
X95061
X102311
X106311
T07
X2999Y1061
X5499Y2061
X6749Y8561
X9249Y9561
X18936Y8561
X21436Y9561
X26436Y8561
X24249Y2061
X21749Y1061
X14874Y2061
X12374Y1061
X28936Y9561
X33936Y8561
X36436Y9561
X41436Y8561
X43936Y9561
X48936Y8561
X51436Y9561
X56436Y8561
X52374Y2061
X49874Y1061
X58936Y9561
X63936Y8561
X66436Y9561
X71436Y8561
X73936Y9561
X78936Y8561
X81436Y9561
X86436Y8561
X88936Y9561
X87374Y1061
X80499Y2061
X77999Y1061
X89874Y2061
X96749Y1061
X99249Y2061
X100499Y8561
X102999Y9561
X106124Y1061
X108624Y2061
X107686Y24561
X105186Y23561
X104874Y17061
X102374Y16061
X92686Y17061
X90186Y16061
X90811Y24561
X95811Y23561
X98311Y24561
X88311Y23561
X83311Y24561
X80811Y23561
X75811Y24561
X75186Y16061
X77686Y17061
X82686Y16061
X85186Y17061
X70186
X67686Y16061
X62686Y17061
X60186Y16061
X60811Y24561
X58311Y23561
X65811
X68311Y24561
X73311Y23561
X53311Y24561
X50811Y23561
X45811Y24561
X43311Y23561
X45186Y16061
X47686Y17061
X52686Y16061
X55186Y17061
X40186
X37686Y16061
X32686Y17061
X30186Y16061
X30811Y24561
X28311Y23561
X35811
X38311Y24561
X23311
X20811Y23561
X15811Y24561
X13311Y23561
X15186Y16061
X17686Y17061
X22686Y16061
X25186Y17061
X7374
X4874Y16061
X3936Y23561
X6436Y24561
X4561Y32061
X2061Y31061
X9561
X12061Y32061
X17061Y31061
X19561Y32061
X24561Y31061
X27061Y32061
X32061Y31061
X34561Y32061
X39561Y31061
X42061Y32061
X47061Y31061
X49561Y32061
X54561Y31061
X57061Y32061
X62061Y31061
X64561Y32061
X69561Y31061
X72061Y32061
X77061Y31061
X79561Y32061
X84561Y31061
X87061Y32061
X92061Y31061
X94561Y32061
X103311Y31061
X105811Y32061
T08
X3999Y3061
X7749Y10561
X19936
X22749Y3061
X13374
X27436Y10561
X34936
X42436
X49936
X57436
X50874Y3061
X64936Y10561
X72436
X79936
X87436
X88374Y3061
X78999
X97749
X101499Y10561
X107124Y3061
X106186Y25561
X96811
X89311
X91186Y18061
X103374
X83686
X76186
X74311Y25561
X81811
X66811
X59311
X61186Y18061
X68686
X53686
X46186
X44311Y25561
X51811
X36811
X29311
X31186Y18061
X38686
X23686
X16186
X14311Y25561
X21811
X4936
X5874Y18061
X3061Y33061
X10561
X18061
X25561
X33061
X40561
X48061
X55561
X63061
X70561
X78061
X85561
X93061
X104311
T09
X18114Y5986
X93118Y5992
X9615Y28483
X101452Y28480
M30
