M48
;Layer_Color=9474304
;FILE_FORMAT=2:4
INCH,TZ
;TYPE=PLATED
T1F00S00C0.0118
T3F00S00C0.0984
;TYPE=NON_PLATED
T4F00S00C0.0236
T6F00S00C0.0670
T7F00S00C0.1181
T8F00S00C0.1570
T9F00S00C0.2362
%
T01
X2906Y4002
X5100Y4150
X5750Y5350
X5770Y5697
X6800Y300
X11000Y2000
X10550Y7650
X11700Y4750
X11250Y3800
X14350Y4050
X14950Y5350
X15218Y5697
X16350Y3400
X16150Y300
X20000Y5000
X21100Y4750
X20200Y6400
X19943Y8847
X23092
X22700Y7650
X24200Y5350
X24667Y5697
X26650Y6100
X23750Y4100
X25500Y300
X16793Y8847
X13644
X29392
X30200Y7650
X31450Y7150
X31200Y6700
X30950Y6150
X32777Y5022
X33400Y4500
X33914Y4438
X33700Y4150
X34150
X34600
X35150
X34950Y4550
X34372Y4528
X34400Y2700
X34050
X34768Y2432
X33350Y2400
X31900Y2300
Y3368
X31250Y3200
X30900Y3000
X30450Y2750
X35488Y3352
X36200Y1900
X35950Y1550
X35350Y1200
X34150Y300
X38550Y1200
X38282Y1500
X38800Y2400
X39950Y1875
X41900Y3300
X37350Y4100
X37700Y7650
X35691Y8847
X45150Y7650
X46000Y5650
X46250Y5250
X46714Y5697
X46500Y4200
X45150Y3600
X43550
X42850Y2700
Y5245
X48950Y4800
X51800Y4150
X52350Y5350
X53014Y5697
X53350Y7250
X53750Y7000
X52650Y7650
X56163Y5697
X57738Y8847
X53550Y300
X46500Y1400
X47400Y2350
X59313Y5697
X60100Y7650
X60888Y8847
X62350Y5750
X65612Y5697
X68762
X69900Y6600
X71911Y5697
X68450Y3750
X67600Y7650
X67187Y8847
X75050Y7650
X76100Y7300
X76636Y8847
X79785
X82935
X82550Y7650
X81360Y5697
X80450Y5350
X79850Y4150
X77100Y4750
X75061Y5697
X84510
X86400Y4750
X89200Y4150
X89234Y8847
X84800Y1050
X81600Y300
X90959Y309
X90809Y5697
X89800Y5350
X90000Y7650
X92384Y8847
X95900Y7400
X95850Y4700
X95300Y4150
X98550
X99150Y5350
X100258Y5697
X101833Y8847
X104050Y7650
X100300Y300
X109250Y550
X107950Y4100
X109707Y5697
X108132Y8847
X104982
X105200Y4750
X106557Y11996
X107250Y11500
X109707Y11996
X108132Y15146
X105900Y15050
X106557Y18296
X107600Y19150
X108132Y21445
X108750Y22500
X106557Y24595
X104982Y21445
X109707Y18296
X110000Y26500
X103407Y24595
X101833Y21445
X101450Y19700
X100258Y18296
X97108
X93959
X92000Y19100
X92600Y20300
X92384Y21445
X91900Y22500
X93959Y24595
X97108
X99400Y22500
X98683Y21445
X95533
X94800Y14450
X95300Y13550
X97400Y14100
X97108Y11996
X99600Y12200
X100150Y13500
X100050Y14150
X103407Y11996
X104200Y19100
X93750Y15050
X93959Y11996
X90809
X89300Y19700
X89234Y21445
X86085
X85100Y20350
X84550Y19100
X84510Y18296
X81850Y19700
X82935Y21445
X84400Y22500
X87659Y24595
X86300Y15050
X86150Y13550
X85550Y12200
X84510Y11996
X81360
X81300Y12850
X78650Y13550
X78800Y15050
X78100Y12200
X75061Y11996
X73800Y12850
X74450Y19700
X77100Y19100
X77550Y20300
X76636Y21445
X76950Y22500
X88650Y14450
X88900Y12850
X71150Y13550
X71300Y15050
X70550Y12250
X68450Y11500
X66400Y12850
X63700Y13550
X63850Y15050
X63050Y12200
X62463Y11996
X59313
X58900Y12850
X59600Y19400
X62150Y19050
X62463Y18296
X62650Y20300
X64037Y21445
X61950Y22500
X60888Y21445
X67187
X67000Y19700
X65612Y18296
X69600Y19050
X70100Y20300
X70337Y21445
X69450Y22500
X71911Y24595
X73486Y21445
X71911Y18296
X65612Y24595
X56163
X54500Y22500
X54589Y21445
X55150Y20300
X54650Y19050
X56163Y18296
X56350Y15050
X56200Y13550
X55600Y12150
X53014Y11996
X51400Y12850
X51150Y13850
X49600Y14750
X48900Y15050
X48750Y13550
X48250Y12250
X46250Y13850
X46000Y14200
X46500Y15950
X47150Y19050
X47650Y20350
X48289Y21445
X47000Y22500
X45140Y21445
X44400Y19750
X43565Y18296
X42800Y16850
X43950Y12850
X50250Y16907
X49864Y18296
X51950Y19700
X51439Y21445
X49864Y24595
X43565
X54050Y16150
X53350Y14750
X53750Y14100
X42300Y14200
X41250Y13550
X41400Y15050
X38550
X39000Y15900
X39650Y19050
X40250Y20300
X38840Y21445
X39550Y22500
X42300
X41990Y21445
X40415Y24595
X37266
X34116
X32050Y22500
X32541Y21445
X32800Y20300
X32200Y19050
X34116Y18296
X35250Y16900
X33950Y15050
X33750Y13550
X33150Y12200
X36450Y12850
X37266Y11996
X38782Y11500
X40550Y12250
X37266Y18296
X37050Y19700
X35691Y21445
X29392
X29500Y19700
X27800Y16900
X31550Y15800
X31200Y14500
X30924Y14024
X29050Y12850
X27817Y24595
X26242Y21445
X25200Y20300
X24700Y19050
X24667Y18296
X22050Y19700
X23092Y21445
X24600Y22500
X24200Y26500
X17100Y22550
X16793Y21445
X17750Y20300
X17200Y19050
X14550Y19700
X13644Y21445
X12100Y19050
Y13550
X11600Y11900
X15218Y11996
X18300Y12250
X18750Y13550
X18950Y15050
X21400Y12850
X21518Y11996
X25750Y12250
X26300Y13550
X26450Y15050
X8700Y15100
X7344Y15146
X6650Y13550
X6050Y12250
X4200Y14000
X4800Y19150
X6900Y19050
X7450Y20300
X7344Y21445
X7750Y22550
X10494Y21445
X8919Y18296
X9250Y12800
X3800Y26600
X3850Y28500
X6500Y27800
X5850Y30050
X8100Y31900
X8900Y34650
X4700Y35300
X4200Y34000
X10950Y30850
X12069Y30894
X13800Y30600
X14400Y30400
X13350Y30050
X13800Y28850
X14400
X13200Y28500
X12700Y27150
X15750Y27800
X20100Y27200
X20650Y28500
X20800Y30050
X21518Y30894
X18368
X19100Y34000
X19700Y35250
X16793Y34044
X15500Y33500
X13650
X12250Y34850
X23800Y34650
X26550Y34050
X24200Y28900
X23350Y27750
X27500Y27200
X28150Y28500
X28300Y30050
X27817Y30894
X27250Y35250
X31350Y34700
X34050Y34050
X34550Y35250
X38750Y34700
X41500Y34050
X42100Y35300
X40415Y30894
X37266
X35800Y30050
X35650Y28500
X35100Y27200
X38300Y27800
X34116Y30894
X30900Y27750
X42600Y27200
X43100Y28500
X43300Y30050
X43565Y30894
X45500Y31900
X48200Y31050
X47750Y30050
X49864Y30894
X50750Y30050
X50650Y28500
X50000Y27200
X53300Y27800
X57550Y27200
X56163Y30894
X56550Y34000
X57050Y35300
X53700Y34700
X49600Y35250
X49050Y34050
X46250Y34700
X45850Y27800
X58050Y28500
X58250Y30050
X59313Y30894
X60850Y27800
X64950Y27200
X65550Y28500
X65700Y30050
X68450Y27800
X72500Y27200
X73000Y28500
X73200Y30050
X71911Y30894
X71450Y34050
X72000Y35300
X68700Y34700
X64500Y35300
X64050Y34050
X61300Y34650
X76150
X78950Y34050
X79550Y35300
X83700Y34700
X86400Y34100
X87050Y35250
X87659Y30894
X88150Y30050
X88000Y28500
X87400Y27200
X83300Y27750
X80500Y28500
X80700Y30050
X81360Y30894
X78211
X75850Y27800
X80000Y27200
X90950Y27800
X94950Y27200
X95450Y28500
X95650Y30050
X97108Y30894
X100258
X98100Y28500
X98250Y27800
X98150Y34050
X93900
X94550Y35300
X91250Y34650
X93959Y30894
X102450Y34650
X104850Y28450
X104250Y27200
X108132Y27744
X109500Y28450
X109707Y30894
X106557
X106850Y30050
X108132Y34044
X107750Y35250
X105750Y35272
X105150Y34050
T03
X8186Y5441
X102731
X101214Y24276
X57294Y20606
X9488Y24276
T04
X13421Y34449
T06
X1986Y3051
X5986
X5726Y10532
X9726
X17882
X21882
X25362
X24687Y3051
X20687
X15337
X11337
X29362Y10532
X32843
X36843
X40323
X44323
X47803
X51803
X55283
X52738Y3051
X48738
X59283Y10532
X62764
X66764
X70244
X74244
X77724
X81724
X85205
X89205
X86140Y3051
X80789
X76789
X90140
X95490
X99490
X104841
X103230Y10532
X99230
X108841Y3051
X105100Y18012
X107906Y25492
X103906
X98555
X94555
X91075
X92945Y18012
X101100
X88945
X85465
X81465
X77984
X73984
X76114Y25492
X79594
X83594
X87075
X72114
X68634
X64634
X61154
X63024Y18012
X66504
X70504
X59024
X55543
X51543
X48063
X44063
X46193Y25492
X49673
X53673
X57154
X42193
X38713
X34713
X31232
X27232
X29102Y18012
X33102
X36583
X40583
X25622
X21622
X18142
X14142
X12272Y25492
X16272
X19752
X23752
X6921
X2921
X3856Y18012
X7856
X8532Y32972
X5051
X1051
X12531
X16012
X20012
X23492
X27492
X30972
X34972
X38453
X42453
X45933
X49933
X53413
X57413
X60894
X64894
X68374
X72374
X75854
X79854
X83335
X87335
X90815
X94815
X102035
X106035
T07
X2986Y1051
X5486Y2051
X6726Y8532
X9226Y9531
X18882Y8532
X21382Y9531
X26362Y8532
X24187Y2051
X21687Y1051
X14837Y2051
X12337Y1051
X28862Y9531
X33843Y8532
X36343Y9531
X41323Y8532
X43823Y9531
X48803Y8532
X51303Y9531
X56283Y8532
X52238Y2051
X49738Y1051
X58783Y9531
X63764Y8532
X66264Y9531
X71244Y8532
X73744Y9531
X78724Y8532
X81224Y9531
X86205Y8532
X88705Y9531
X87140Y1051
X80289Y2051
X77789Y1051
X89640Y2051
X96490Y1051
X98990Y2051
X100230Y8532
X102730Y9531
X105841Y1051
X108341Y2051
X107406Y24492
X104906Y23492
X104600Y17012
X102100Y16012
X92445Y17012
X89945Y16012
X90575Y24492
X95555Y23492
X98055Y24492
X88075Y23492
X83094Y24492
X80594Y23492
X75614Y24492
X74984Y16012
X77484Y17012
X82465Y16012
X84965Y17012
X70004
X67504Y16012
X62524Y17012
X60024Y16012
X60654Y24492
X58154Y23492
X65634
X68134Y24492
X73114Y23492
X53173Y24492
X50673Y23492
X45693Y24492
X43193Y23492
X45063Y16012
X47563Y17012
X52543Y16012
X55043Y17012
X40083
X37583Y16012
X32602Y17012
X30102Y16012
X30732Y24492
X28232Y23492
X35713
X38213Y24492
X23252
X20752Y23492
X15772Y24492
X13272Y23492
X15142Y16012
X17642Y17012
X22622Y16012
X25122Y17012
X7356
X4856Y16012
X3921Y23492
X6421Y24492
X4551Y31972
X2051Y30972
X9531
X12032Y31972
X17012Y30972
X19512Y31972
X24492Y30972
X26992Y31972
X31972Y30972
X34472Y31972
X39453Y30972
X41953Y31972
X46933Y30972
X49433Y31972
X54413Y30972
X56913Y31972
X61894Y30972
X64394Y31972
X69374Y30972
X71874Y31972
X76854Y30972
X79354Y31972
X84335Y30972
X86835Y31972
X91815Y30972
X94315Y31972
X103035Y30972
X105535Y31972
T08
X3986Y3051
X7726Y10532
X19882
X22687Y3051
X13337
X27362Y10532
X34843
X42323
X49803
X57283
X50738Y3051
X64764Y10532
X72244
X79724
X87205
X88140Y3051
X78789
X97490
X101230Y10532
X106841Y3051
X105906Y25492
X96555
X90945Y18012
X103100
X83465
X75984
X74114Y25492
X81594
X89075
X66634
X59154
X61024Y18012
X68504
X53543
X46063
X44193Y25492
X51673
X36713
X29232
X31102Y18012
X38583
X23622
X16142
X14272Y25492
X21752
X4921
X5856Y18012
X3051Y32972
X10532
X18012
X25492
X32972
X40453
X47933
X55413
X62894
X70374
X77854
X85335
X92815
X104035
T09
X18032Y6008
X92795Y6005
X9549Y28521
X101237Y28464
M30
