G04*
G04 #@! TF.GenerationSoftware,Altium Limited,Altium Designer,23.0.1 (38)*
G04*
G04 Layer_Color=16711935*
%FSLAX25Y25*%
%MOIN*%
G70*
G04*
G04 #@! TF.SameCoordinates,C9061E24-21D4-42B5-84E4-063FA9BFFD9C*
G04*
G04*
G04 #@! TF.FilePolarity,Negative*
G04*
G01*
G75*
G04:AMPARAMS|DCode=12|XSize=51.18mil|YSize=90.55mil|CornerRadius=25.59mil|HoleSize=0mil|Usage=FLASHONLY|Rotation=0.000|XOffset=0mil|YOffset=0mil|HoleType=Round|Shape=RoundedRectangle|*
%AMROUNDEDRECTD12*
21,1,0.05118,0.03937,0,0,0.0*
21,1,0.00000,0.09055,0,0,0.0*
1,1,0.05118,0.00000,-0.01968*
1,1,0.05118,0.00000,-0.01968*
1,1,0.05118,0.00000,0.01968*
1,1,0.05118,0.00000,0.01968*
%
%ADD12ROUNDEDRECTD12*%
G04:AMPARAMS|DCode=13|XSize=51.18mil|YSize=102.36mil|CornerRadius=25.59mil|HoleSize=0mil|Usage=FLASHONLY|Rotation=0.000|XOffset=0mil|YOffset=0mil|HoleType=Round|Shape=RoundedRectangle|*
%AMROUNDEDRECTD13*
21,1,0.05118,0.05118,0,0,0.0*
21,1,0.00000,0.10236,0,0,0.0*
1,1,0.05118,0.00000,-0.02559*
1,1,0.05118,0.00000,-0.02559*
1,1,0.05118,0.00000,0.02559*
1,1,0.05118,0.00000,0.02559*
%
%ADD13ROUNDEDRECTD13*%
%ADD14C,0.02362*%
G04:AMPARAMS|DCode=15|XSize=33.47mil|YSize=23.62mil|CornerRadius=11.81mil|HoleSize=0mil|Usage=FLASHONLY|Rotation=0.000|XOffset=0mil|YOffset=0mil|HoleType=Round|Shape=RoundedRectangle|*
%AMROUNDEDRECTD15*
21,1,0.03347,0.00000,0,0,0.0*
21,1,0.00984,0.02362,0,0,0.0*
1,1,0.02362,0.00492,0.00000*
1,1,0.02362,-0.00492,0.00000*
1,1,0.02362,-0.00492,0.00000*
1,1,0.02362,0.00492,0.00000*
%
%ADD15ROUNDEDRECTD15*%
%ADD16C,0.16291*%
%ADD17C,0.12402*%
%ADD18C,0.07291*%
%ADD19C,0.24213*%
%ADD20C,0.20276*%
%ADD27R,0.04724X0.01181*%
%ADD28R,0.02047X0.03937*%
%ADD29R,0.01063X0.03937*%
%ADD30R,0.03937X0.07000*%
%ADD34R,0.03150X0.03543*%
%ADD36R,0.02410X0.07107*%
%ADD37R,0.02756X0.05118*%
%ADD38R,0.01181X0.04724*%
%ADD40R,0.03543X0.03150*%
%ADD41R,0.02559X0.03543*%
%ADD42R,0.03543X0.02559*%
%ADD43R,0.04600X0.01800*%
%ADD44R,0.02756X0.03937*%
%ADD45R,0.03937X0.03937*%
%ADD46R,0.01400X0.02900*%
%ADD48R,0.04091X0.04591*%
%ADD49R,0.10630X0.10433*%
%ADD50R,0.04528X0.04410*%
%ADD51R,0.13858X0.09921*%
%ADD52R,0.02559X0.02953*%
D12*
X128303Y342421D02*
D03*
X162319D02*
D03*
D13*
X128303Y357480D02*
D03*
X162319D02*
D03*
D14*
X133500Y345276D02*
D03*
D15*
X157122D02*
D03*
D16*
X761860Y180610D02*
D03*
X133735Y30610D02*
D03*
X855610Y330610D02*
D03*
X58735Y180610D02*
D03*
X424360Y105610D02*
D03*
X508735Y30610D02*
D03*
X1071235D02*
D03*
X977485D02*
D03*
X883735D02*
D03*
X789985D02*
D03*
X227485D02*
D03*
X39985D02*
D03*
X499360Y105610D02*
D03*
X349360D02*
D03*
X274360D02*
D03*
X199360D02*
D03*
X77485D02*
D03*
X799360D02*
D03*
X724360D02*
D03*
X1014985D02*
D03*
X874360D02*
D03*
X649360D02*
D03*
X574360D02*
D03*
X686860Y180610D02*
D03*
X1033735D02*
D03*
X911860D02*
D03*
X836860D02*
D03*
X461860D02*
D03*
X386860D02*
D03*
X311860D02*
D03*
X236860D02*
D03*
X161860D02*
D03*
X536860D02*
D03*
X611860D02*
D03*
X668110Y255610D02*
D03*
X593110D02*
D03*
X518110D02*
D03*
X443110D02*
D03*
X368110D02*
D03*
X143110D02*
D03*
X293110D02*
D03*
X49360D02*
D03*
X218110D02*
D03*
X893110D02*
D03*
X818110D02*
D03*
X743110D02*
D03*
X1061860D02*
D03*
X968110D02*
D03*
X930610Y330610D02*
D03*
X1043110D02*
D03*
X630610D02*
D03*
X555610D02*
D03*
X480610D02*
D03*
X405610D02*
D03*
X330610D02*
D03*
X705610D02*
D03*
X780610D02*
D03*
X255610D02*
D03*
X180610D02*
D03*
X105610D02*
D03*
X30610D02*
D03*
D17*
X751860Y160610D02*
D03*
X776860Y170610D02*
D03*
X123735Y10610D02*
D03*
X148735Y20610D02*
D03*
X845610Y310610D02*
D03*
X870610Y320610D02*
D03*
X73735Y170610D02*
D03*
X48735Y160610D02*
D03*
X439360Y95610D02*
D03*
X414360Y85610D02*
D03*
X523735Y20610D02*
D03*
X498735Y10610D02*
D03*
X1086235Y20610D02*
D03*
X1061235Y10610D02*
D03*
X992485Y20610D02*
D03*
X967485Y10610D02*
D03*
X898735Y20610D02*
D03*
X873735Y10610D02*
D03*
X804985Y20610D02*
D03*
X779985Y10610D02*
D03*
X242485Y20610D02*
D03*
X217485Y10610D02*
D03*
X54985Y20610D02*
D03*
X29985Y10610D02*
D03*
X514360Y95610D02*
D03*
X489360Y85610D02*
D03*
X364360Y95610D02*
D03*
X339360Y85610D02*
D03*
X289360Y95610D02*
D03*
X264360Y85610D02*
D03*
X214360Y95610D02*
D03*
X189360Y85610D02*
D03*
X92485Y95610D02*
D03*
X67485Y85610D02*
D03*
X814360Y95610D02*
D03*
X789360Y85610D02*
D03*
X739360Y95610D02*
D03*
X714360Y85610D02*
D03*
X1029985Y95610D02*
D03*
X1004985Y85610D02*
D03*
X889360Y95610D02*
D03*
X864360Y85610D02*
D03*
X664360Y95610D02*
D03*
X639360Y85610D02*
D03*
X589360Y95610D02*
D03*
X564360Y85610D02*
D03*
X701860Y170610D02*
D03*
X676860Y160610D02*
D03*
X1048735Y170610D02*
D03*
X1023735Y160610D02*
D03*
X926860Y170610D02*
D03*
X901860Y160610D02*
D03*
X851860Y170610D02*
D03*
X826860Y160610D02*
D03*
X476860Y170610D02*
D03*
X451860Y160610D02*
D03*
X401860Y170610D02*
D03*
X376860Y160610D02*
D03*
X326860Y170610D02*
D03*
X301860Y160610D02*
D03*
X251860Y170610D02*
D03*
X226860Y160610D02*
D03*
X176860Y170610D02*
D03*
X151860Y160610D02*
D03*
X551860Y170610D02*
D03*
X526860Y160610D02*
D03*
X626860Y170610D02*
D03*
X601860Y160610D02*
D03*
X683110Y245610D02*
D03*
X658110Y235610D02*
D03*
X608110Y245610D02*
D03*
X583110Y235610D02*
D03*
X533110Y245610D02*
D03*
X508110Y235610D02*
D03*
X458110Y245610D02*
D03*
X433110Y235610D02*
D03*
X383110Y245610D02*
D03*
X358110Y235610D02*
D03*
X158110Y245610D02*
D03*
X133110Y235610D02*
D03*
X308110Y245610D02*
D03*
X283110Y235610D02*
D03*
X64360Y245610D02*
D03*
X39360Y235610D02*
D03*
X233110Y245610D02*
D03*
X208110Y235610D02*
D03*
X908110Y245610D02*
D03*
X883110Y235610D02*
D03*
X833110Y245610D02*
D03*
X808110Y235610D02*
D03*
X758110Y245610D02*
D03*
X733110Y235610D02*
D03*
X1076860Y245610D02*
D03*
X1051860Y235610D02*
D03*
X983110Y245610D02*
D03*
X958110Y235610D02*
D03*
X945610Y320610D02*
D03*
X920610Y310610D02*
D03*
X1058110Y320610D02*
D03*
X1033110Y310610D02*
D03*
X645610Y320610D02*
D03*
X620610Y310610D02*
D03*
X570610Y320610D02*
D03*
X545610Y310610D02*
D03*
X495610Y320610D02*
D03*
X470610Y310610D02*
D03*
X420610Y320610D02*
D03*
X395610Y310610D02*
D03*
X345610Y320610D02*
D03*
X320610Y310610D02*
D03*
X720610Y320610D02*
D03*
X695610Y310610D02*
D03*
X795610Y320610D02*
D03*
X770610Y310610D02*
D03*
X270610Y320610D02*
D03*
X245610Y310610D02*
D03*
X195610Y320610D02*
D03*
X170610Y310610D02*
D03*
X120610Y320610D02*
D03*
X95610Y310610D02*
D03*
X45610Y320610D02*
D03*
X20610Y310610D02*
D03*
D18*
X781860Y180610D02*
D03*
X741860D02*
D03*
X153735Y30610D02*
D03*
X113735D02*
D03*
X875610Y330610D02*
D03*
X835610D02*
D03*
X38735Y180610D02*
D03*
X78735D02*
D03*
X404360Y105610D02*
D03*
X444360D02*
D03*
X488735Y30610D02*
D03*
X528735D02*
D03*
X1051235D02*
D03*
X1091235D02*
D03*
X957485D02*
D03*
X997485D02*
D03*
X863735D02*
D03*
X903735D02*
D03*
X769985D02*
D03*
X809985D02*
D03*
X207485D02*
D03*
X247485D02*
D03*
X19985D02*
D03*
X59985D02*
D03*
X479360Y105610D02*
D03*
X519360D02*
D03*
X329360D02*
D03*
X369360D02*
D03*
X254360D02*
D03*
X294360D02*
D03*
X179360D02*
D03*
X219360D02*
D03*
X57485D02*
D03*
X97485D02*
D03*
X779360D02*
D03*
X819360D02*
D03*
X704360D02*
D03*
X744360D02*
D03*
X994985D02*
D03*
X1034985D02*
D03*
X854360D02*
D03*
X894360D02*
D03*
X629360D02*
D03*
X669360D02*
D03*
X554360D02*
D03*
X594360D02*
D03*
X666860Y180610D02*
D03*
X706860D02*
D03*
X1013735D02*
D03*
X1053735D02*
D03*
X891860D02*
D03*
X931860D02*
D03*
X816860D02*
D03*
X856860D02*
D03*
X441860D02*
D03*
X481860D02*
D03*
X366860D02*
D03*
X406860D02*
D03*
X291860D02*
D03*
X331860D02*
D03*
X216860D02*
D03*
X256860D02*
D03*
X141860D02*
D03*
X181860D02*
D03*
X516860D02*
D03*
X556860D02*
D03*
X591860D02*
D03*
X631860D02*
D03*
X648110Y255610D02*
D03*
X688110D02*
D03*
X573110D02*
D03*
X613110D02*
D03*
X498110D02*
D03*
X538110D02*
D03*
X423110D02*
D03*
X463110D02*
D03*
X348110D02*
D03*
X388110D02*
D03*
X123110D02*
D03*
X163110D02*
D03*
X273110D02*
D03*
X313110D02*
D03*
X29360D02*
D03*
X69360D02*
D03*
X198110D02*
D03*
X238110D02*
D03*
X873110D02*
D03*
X913110D02*
D03*
X798110D02*
D03*
X838110D02*
D03*
X723110D02*
D03*
X763110D02*
D03*
X1041860D02*
D03*
X1081860D02*
D03*
X948110D02*
D03*
X988110D02*
D03*
X910610Y330610D02*
D03*
X950610D02*
D03*
X1023110D02*
D03*
X1063110D02*
D03*
X610610D02*
D03*
X650610D02*
D03*
X535610D02*
D03*
X575610D02*
D03*
X460610D02*
D03*
X500610D02*
D03*
X385610D02*
D03*
X425610D02*
D03*
X310610D02*
D03*
X350610D02*
D03*
X685610D02*
D03*
X725610D02*
D03*
X760610D02*
D03*
X800610D02*
D03*
X235610D02*
D03*
X275610D02*
D03*
X160610D02*
D03*
X200610D02*
D03*
X85610D02*
D03*
X125610D02*
D03*
X10610D02*
D03*
X50610D02*
D03*
D19*
X181143Y59862D02*
D03*
X96150Y284828D02*
D03*
X1014517Y284803D02*
D03*
X931182Y59922D02*
D03*
D20*
X82310Y54165D02*
D03*
X95856Y243236D02*
D03*
X1014517Y243296D02*
D03*
X574222Y206602D02*
D03*
X1030681Y53971D02*
D03*
D27*
X361232Y45327D02*
D03*
X327768D02*
D03*
Y43358D02*
D03*
Y41390D02*
D03*
Y39421D02*
D03*
Y37453D02*
D03*
Y35484D02*
D03*
Y33516D02*
D03*
Y31547D02*
D03*
Y29579D02*
D03*
Y27610D02*
D03*
Y25642D02*
D03*
Y23673D02*
D03*
X361232D02*
D03*
Y25642D02*
D03*
Y27610D02*
D03*
Y29579D02*
D03*
Y31547D02*
D03*
Y33516D02*
D03*
Y35484D02*
D03*
Y37453D02*
D03*
Y39421D02*
D03*
Y41390D02*
D03*
Y43358D02*
D03*
D28*
X133106Y340945D02*
D03*
X136059D02*
D03*
X157515D02*
D03*
X154563D02*
D03*
D29*
X138421D02*
D03*
X140389D02*
D03*
X142358D02*
D03*
X144326D02*
D03*
X146295D02*
D03*
X148263D02*
D03*
X150232D02*
D03*
X152200D02*
D03*
D30*
X150811Y356543D02*
D03*
X139811D02*
D03*
D34*
X373789Y23758D02*
D03*
X367884D02*
D03*
Y35759D02*
D03*
X373789D02*
D03*
X557953Y128500D02*
D03*
X552047D02*
D03*
X632953D02*
D03*
X627047D02*
D03*
X707953D02*
D03*
X702047D02*
D03*
X951453Y278500D02*
D03*
X945547D02*
D03*
X782953Y128500D02*
D03*
X777047D02*
D03*
X1045453Y278500D02*
D03*
X1039547D02*
D03*
X857453Y128500D02*
D03*
X851547D02*
D03*
X998453D02*
D03*
X992547D02*
D03*
X1059547Y347500D02*
D03*
X1065453D02*
D03*
X947047D02*
D03*
X952953D02*
D03*
X1050047Y197500D02*
D03*
X1055953D02*
D03*
X872047Y347500D02*
D03*
X877953D02*
D03*
X928547Y197500D02*
D03*
X934453D02*
D03*
X797047Y347500D02*
D03*
X802953D02*
D03*
X853547Y197500D02*
D03*
X859453D02*
D03*
X412453Y46500D02*
D03*
X406547D02*
D03*
X525547Y47000D02*
D03*
X531453D02*
D03*
X201000Y278000D02*
D03*
X195095D02*
D03*
X244047Y47500D02*
D03*
X249953D02*
D03*
X276453Y278500D02*
D03*
X270547D02*
D03*
X150047Y47500D02*
D03*
X155953D02*
D03*
X350953Y279000D02*
D03*
X345047D02*
D03*
X651453Y278500D02*
D03*
X645547D02*
D03*
X56547Y47500D02*
D03*
X62453D02*
D03*
X426500Y278500D02*
D03*
X420595D02*
D03*
X60953Y128000D02*
D03*
X55047D02*
D03*
X501000Y278500D02*
D03*
X495094D02*
D03*
X576453Y279000D02*
D03*
X570547D02*
D03*
X181953Y128000D02*
D03*
X176047D02*
D03*
X257953D02*
D03*
X252047D02*
D03*
X330953Y58500D02*
D03*
X325047D02*
D03*
X332953Y128500D02*
D03*
X327047D02*
D03*
X726453Y278500D02*
D03*
X720547D02*
D03*
X407953Y128500D02*
D03*
X402047D02*
D03*
X801453Y278500D02*
D03*
X795547D02*
D03*
X272047Y347500D02*
D03*
X277953D02*
D03*
X478500Y197500D02*
D03*
X484406D02*
D03*
X197047Y347500D02*
D03*
X202953D02*
D03*
X403547Y197000D02*
D03*
X409453D02*
D03*
X328547D02*
D03*
X334453D02*
D03*
X47047Y347500D02*
D03*
X52953D02*
D03*
X778547Y197000D02*
D03*
X784453D02*
D03*
X647047Y347500D02*
D03*
X652953D02*
D03*
X572047Y348000D02*
D03*
X577953D02*
D03*
X703547Y197000D02*
D03*
X709453D02*
D03*
X497047Y347500D02*
D03*
X502953D02*
D03*
X628547Y197500D02*
D03*
X634453D02*
D03*
X422047Y347500D02*
D03*
X427953D02*
D03*
X347047D02*
D03*
X352953D02*
D03*
X553547Y197000D02*
D03*
X559453D02*
D03*
X876453Y278500D02*
D03*
X870547D02*
D03*
X253547Y197000D02*
D03*
X259453D02*
D03*
X482953Y128000D02*
D03*
X477047D02*
D03*
X1087547Y47500D02*
D03*
X1093453D02*
D03*
X178547Y197000D02*
D03*
X184453D02*
D03*
X994047Y47500D02*
D03*
X999953D02*
D03*
X75500Y197000D02*
D03*
X81406D02*
D03*
X900047Y47500D02*
D03*
X905953D02*
D03*
X32789Y278107D02*
D03*
X26884D02*
D03*
X806547Y47500D02*
D03*
X812453D02*
D03*
X126453Y278500D02*
D03*
X120547D02*
D03*
X356047Y58000D02*
D03*
X361953D02*
D03*
X722047Y347500D02*
D03*
X727953D02*
D03*
X332953Y11500D02*
D03*
X327047D02*
D03*
D36*
X439760Y27470D02*
D03*
X447240D02*
D03*
Y36529D02*
D03*
X443500D02*
D03*
X439760D02*
D03*
D37*
Y19500D02*
D03*
X447240D02*
D03*
X439760Y44500D02*
D03*
X447240D02*
D03*
D38*
X355327Y51232D02*
D03*
X353358D02*
D03*
X351390D02*
D03*
X349421D02*
D03*
X347453D02*
D03*
X345484D02*
D03*
X343516D02*
D03*
X341547D02*
D03*
X339579D02*
D03*
X337610D02*
D03*
X335642D02*
D03*
X333673D02*
D03*
Y17768D02*
D03*
X335642D02*
D03*
X337610D02*
D03*
X339579D02*
D03*
X341547D02*
D03*
X343516D02*
D03*
X345484D02*
D03*
X347453D02*
D03*
X349421D02*
D03*
X351390D02*
D03*
X353358D02*
D03*
X355327D02*
D03*
D40*
X321000Y46047D02*
D03*
Y51953D02*
D03*
X117500Y341453D02*
D03*
Y335547D02*
D03*
X368000Y45547D02*
D03*
Y51453D02*
D03*
D41*
X423854Y46500D02*
D03*
X418146D02*
D03*
X138354Y330000D02*
D03*
X132646D02*
D03*
X418146Y52000D02*
D03*
X423854D02*
D03*
D42*
X350000Y57000D02*
D03*
Y62709D02*
D03*
X151000Y331000D02*
D03*
Y325291D02*
D03*
X374500Y50854D02*
D03*
Y45146D02*
D03*
D43*
X344350Y62059D02*
D03*
Y56941D02*
D03*
X336650Y59500D02*
D03*
D44*
X409717Y40311D02*
D03*
Y16689D02*
D03*
X424284Y40311D02*
D03*
Y16689D02*
D03*
D45*
X1078457Y115000D02*
D03*
X1085543D02*
D03*
D46*
X141441Y300100D02*
D03*
X144000D02*
D03*
X146559D02*
D03*
Y291900D02*
D03*
X144000D02*
D03*
X141441D02*
D03*
D48*
X694810Y353610D02*
D03*
Y347610D02*
D03*
X716410D02*
D03*
Y353610D02*
D03*
X1082035Y53610D02*
D03*
Y47610D02*
D03*
X1060435D02*
D03*
Y53610D02*
D03*
X988285D02*
D03*
Y47610D02*
D03*
X966685D02*
D03*
Y53610D02*
D03*
X894535D02*
D03*
Y47610D02*
D03*
X872935D02*
D03*
Y53610D02*
D03*
X800785D02*
D03*
Y47610D02*
D03*
X779185D02*
D03*
Y53610D02*
D03*
X519535D02*
D03*
Y47610D02*
D03*
X497935D02*
D03*
Y53610D02*
D03*
X238285D02*
D03*
Y47610D02*
D03*
X216685D02*
D03*
Y53610D02*
D03*
X144535D02*
D03*
Y47610D02*
D03*
X122935D02*
D03*
Y53610D02*
D03*
X50785D02*
D03*
Y47610D02*
D03*
X29185D02*
D03*
Y53610D02*
D03*
X66685Y122610D02*
D03*
Y128610D02*
D03*
X88285D02*
D03*
Y122610D02*
D03*
X188560D02*
D03*
Y128610D02*
D03*
X210160D02*
D03*
Y122610D02*
D03*
X263560D02*
D03*
Y128610D02*
D03*
X285160D02*
D03*
Y122610D02*
D03*
X338560D02*
D03*
Y128610D02*
D03*
X360160D02*
D03*
Y122610D02*
D03*
X413560D02*
D03*
Y128610D02*
D03*
X435160D02*
D03*
Y122610D02*
D03*
X488560D02*
D03*
Y128610D02*
D03*
X510160D02*
D03*
Y122610D02*
D03*
X563560D02*
D03*
Y128610D02*
D03*
X585160D02*
D03*
Y122610D02*
D03*
X638560D02*
D03*
Y128610D02*
D03*
X660160D02*
D03*
Y122610D02*
D03*
X713560D02*
D03*
Y128610D02*
D03*
X735160D02*
D03*
Y122610D02*
D03*
X788560D02*
D03*
Y128610D02*
D03*
X810160D02*
D03*
Y122610D02*
D03*
X863560D02*
D03*
Y128610D02*
D03*
X885160D02*
D03*
Y122610D02*
D03*
X1004185D02*
D03*
Y128610D02*
D03*
X1025785D02*
D03*
Y122610D02*
D03*
X1044535Y203610D02*
D03*
Y197610D02*
D03*
X1022935D02*
D03*
Y203610D02*
D03*
X922660D02*
D03*
Y197610D02*
D03*
X901060D02*
D03*
Y203610D02*
D03*
X847660D02*
D03*
Y197610D02*
D03*
X826060D02*
D03*
Y203610D02*
D03*
X772660D02*
D03*
Y197610D02*
D03*
X751060D02*
D03*
Y203610D02*
D03*
X697660D02*
D03*
Y197610D02*
D03*
X676060D02*
D03*
Y203610D02*
D03*
X622660D02*
D03*
Y197610D02*
D03*
X601060D02*
D03*
Y203610D02*
D03*
X547660D02*
D03*
Y197610D02*
D03*
X526060D02*
D03*
Y203610D02*
D03*
X472660D02*
D03*
Y197610D02*
D03*
X451060D02*
D03*
Y203610D02*
D03*
X397660D02*
D03*
Y197610D02*
D03*
X376060D02*
D03*
Y203610D02*
D03*
X322660D02*
D03*
Y197610D02*
D03*
X301060D02*
D03*
Y203610D02*
D03*
X247660D02*
D03*
Y197610D02*
D03*
X226060D02*
D03*
Y203610D02*
D03*
X172660D02*
D03*
Y197610D02*
D03*
X151060D02*
D03*
Y203610D02*
D03*
X69535D02*
D03*
Y197610D02*
D03*
X47935D02*
D03*
Y203610D02*
D03*
X38560Y272610D02*
D03*
Y278610D02*
D03*
X60160D02*
D03*
Y272610D02*
D03*
X132310D02*
D03*
Y278610D02*
D03*
X153910D02*
D03*
Y272610D02*
D03*
X207310D02*
D03*
Y278610D02*
D03*
X228910D02*
D03*
Y272610D02*
D03*
X282310D02*
D03*
Y278610D02*
D03*
X303910D02*
D03*
Y272610D02*
D03*
X357310D02*
D03*
Y278610D02*
D03*
X378910D02*
D03*
Y272610D02*
D03*
X432310D02*
D03*
Y278610D02*
D03*
X453910D02*
D03*
Y272610D02*
D03*
X507310D02*
D03*
Y278610D02*
D03*
X528910D02*
D03*
Y272610D02*
D03*
X582310D02*
D03*
Y278610D02*
D03*
X603910D02*
D03*
Y272610D02*
D03*
X657310D02*
D03*
Y278610D02*
D03*
X678910D02*
D03*
Y272610D02*
D03*
X732310D02*
D03*
Y278610D02*
D03*
X753910D02*
D03*
Y272610D02*
D03*
X807310D02*
D03*
Y278610D02*
D03*
X828910D02*
D03*
Y272610D02*
D03*
X882310D02*
D03*
Y278610D02*
D03*
X903910D02*
D03*
Y272610D02*
D03*
X957310D02*
D03*
Y278610D02*
D03*
X978910D02*
D03*
Y272610D02*
D03*
X1051060D02*
D03*
Y278610D02*
D03*
X1072660D02*
D03*
Y272610D02*
D03*
X1053910Y353610D02*
D03*
Y347610D02*
D03*
X1032310D02*
D03*
Y353610D02*
D03*
X941410D02*
D03*
Y347610D02*
D03*
X919810D02*
D03*
Y353610D02*
D03*
X866410D02*
D03*
Y347610D02*
D03*
X844810D02*
D03*
Y353610D02*
D03*
X791410D02*
D03*
Y347610D02*
D03*
X769810D02*
D03*
Y353610D02*
D03*
X641410D02*
D03*
Y347610D02*
D03*
X619810D02*
D03*
Y353610D02*
D03*
X566410D02*
D03*
Y347610D02*
D03*
X544810D02*
D03*
Y353610D02*
D03*
X491410D02*
D03*
Y347610D02*
D03*
X469810D02*
D03*
Y353610D02*
D03*
X416410D02*
D03*
Y347610D02*
D03*
X394810D02*
D03*
Y353610D02*
D03*
X341410D02*
D03*
Y347610D02*
D03*
X319810D02*
D03*
Y353610D02*
D03*
X266410D02*
D03*
Y347610D02*
D03*
X244810D02*
D03*
Y353610D02*
D03*
X191410D02*
D03*
Y347610D02*
D03*
X169810D02*
D03*
Y353610D02*
D03*
X116410D02*
D03*
Y347610D02*
D03*
X94810D02*
D03*
Y353610D02*
D03*
X41410D02*
D03*
Y347610D02*
D03*
X19810D02*
D03*
Y353610D02*
D03*
D49*
X790837Y170610D02*
D03*
X737884Y160610D02*
D03*
X162712Y20610D02*
D03*
X109759Y10610D02*
D03*
X884587Y320610D02*
D03*
X831634Y310610D02*
D03*
X34759Y160610D02*
D03*
X87712Y170610D02*
D03*
X400384Y85610D02*
D03*
X453337Y95610D02*
D03*
X484759Y10610D02*
D03*
X537712Y20610D02*
D03*
X1047259Y10610D02*
D03*
X1100212Y20610D02*
D03*
X953509Y10610D02*
D03*
X1006462Y20610D02*
D03*
X859759Y10610D02*
D03*
X912712Y20610D02*
D03*
X766009Y10610D02*
D03*
X818962Y20610D02*
D03*
X203509Y10610D02*
D03*
X256462Y20610D02*
D03*
X16009Y10610D02*
D03*
X68962Y20610D02*
D03*
X475384Y85610D02*
D03*
X528337Y95610D02*
D03*
X325384Y85610D02*
D03*
X378337Y95610D02*
D03*
X250384Y85610D02*
D03*
X303337Y95610D02*
D03*
X175384Y85610D02*
D03*
X228337Y95610D02*
D03*
X53509Y85610D02*
D03*
X106462Y95610D02*
D03*
X775384Y85610D02*
D03*
X828337Y95610D02*
D03*
X700384Y85610D02*
D03*
X753337Y95610D02*
D03*
X991009Y85610D02*
D03*
X1043962Y95610D02*
D03*
X850384Y85610D02*
D03*
X903337Y95610D02*
D03*
X625384Y85610D02*
D03*
X678337Y95610D02*
D03*
X550384Y85610D02*
D03*
X603337Y95610D02*
D03*
X662884Y160610D02*
D03*
X715837Y170610D02*
D03*
X1009759Y160610D02*
D03*
X1062712Y170610D02*
D03*
X887884Y160610D02*
D03*
X940837Y170610D02*
D03*
X812884Y160610D02*
D03*
X865837Y170610D02*
D03*
X437884Y160610D02*
D03*
X490837Y170610D02*
D03*
X362884Y160610D02*
D03*
X415837Y170610D02*
D03*
X287884Y160610D02*
D03*
X340837Y170610D02*
D03*
X212884Y160610D02*
D03*
X265837Y170610D02*
D03*
X137884Y160610D02*
D03*
X190837Y170610D02*
D03*
X512884Y160610D02*
D03*
X565837Y170610D02*
D03*
X587884Y160610D02*
D03*
X640837Y170610D02*
D03*
X644134Y235610D02*
D03*
X697087Y245610D02*
D03*
X569134Y235610D02*
D03*
X622087Y245610D02*
D03*
X494134Y235610D02*
D03*
X547087Y245610D02*
D03*
X419134Y235610D02*
D03*
X472087Y245610D02*
D03*
X344134Y235610D02*
D03*
X397087Y245610D02*
D03*
X119134Y235610D02*
D03*
X172087Y245610D02*
D03*
X269134Y235610D02*
D03*
X322087Y245610D02*
D03*
X25384Y235610D02*
D03*
X78337Y245610D02*
D03*
X194134Y235610D02*
D03*
X247087Y245610D02*
D03*
X869134Y235610D02*
D03*
X922087Y245610D02*
D03*
X794134Y235610D02*
D03*
X847087Y245610D02*
D03*
X719134Y235610D02*
D03*
X772087Y245610D02*
D03*
X1037884Y235610D02*
D03*
X1090837Y245610D02*
D03*
X944134Y235610D02*
D03*
X997087Y245610D02*
D03*
X906634Y310610D02*
D03*
X959587Y320610D02*
D03*
X1019134Y310610D02*
D03*
X1072087Y320610D02*
D03*
X606634Y310610D02*
D03*
X659587Y320610D02*
D03*
X531634Y310610D02*
D03*
X584587Y320610D02*
D03*
X456634Y310610D02*
D03*
X509587Y320610D02*
D03*
X381634Y310610D02*
D03*
X434587Y320610D02*
D03*
X306634Y310610D02*
D03*
X359587Y320610D02*
D03*
X681634Y310610D02*
D03*
X734587Y320610D02*
D03*
X756634Y310610D02*
D03*
X809587Y320610D02*
D03*
X231634Y310610D02*
D03*
X284587Y320610D02*
D03*
X156634Y310610D02*
D03*
X209587Y320610D02*
D03*
X81634Y310610D02*
D03*
X134587Y320610D02*
D03*
X6634Y310610D02*
D03*
X59587Y320610D02*
D03*
D50*
X367943Y29759D02*
D03*
X373730D02*
D03*
D51*
X1085500Y81032D02*
D03*
Y99968D02*
D03*
D52*
X1043500Y80543D02*
D03*
Y86457D02*
D03*
X1100000Y6043D02*
D03*
Y11957D02*
D03*
X1006000Y6543D02*
D03*
Y12457D02*
D03*
X818500Y6043D02*
D03*
Y11957D02*
D03*
X912500Y6043D02*
D03*
Y11957D02*
D03*
X537500Y6000D02*
D03*
Y11913D02*
D03*
X162000Y6043D02*
D03*
Y11957D02*
D03*
X255500Y6043D02*
D03*
Y11957D02*
D03*
X68500Y6043D02*
D03*
Y11957D02*
D03*
X697000Y230543D02*
D03*
Y236457D02*
D03*
X472000Y230543D02*
D03*
Y236457D02*
D03*
X547000Y231043D02*
D03*
Y236957D02*
D03*
X622000Y230543D02*
D03*
Y236457D02*
D03*
X397500Y230543D02*
D03*
Y236457D02*
D03*
X190500Y155543D02*
D03*
Y161457D02*
D03*
X302500Y81043D02*
D03*
Y86957D02*
D03*
X227500Y81043D02*
D03*
Y86957D02*
D03*
X87500Y155543D02*
D03*
Y161457D02*
D03*
X640500Y155543D02*
D03*
Y161457D02*
D03*
X565500Y155543D02*
D03*
Y161457D02*
D03*
X415500Y155543D02*
D03*
Y161457D02*
D03*
X340500Y155543D02*
D03*
Y161457D02*
D03*
X265500Y155543D02*
D03*
Y161457D02*
D03*
X490500Y155543D02*
D03*
Y161457D02*
D03*
X134000Y305543D02*
D03*
Y311457D02*
D03*
X359500Y305543D02*
D03*
Y311457D02*
D03*
X584500Y305543D02*
D03*
Y311457D02*
D03*
X509500Y305543D02*
D03*
Y311457D02*
D03*
X659500Y305543D02*
D03*
Y311457D02*
D03*
X434500Y305543D02*
D03*
Y311457D02*
D03*
X209500Y305543D02*
D03*
Y311457D02*
D03*
X959500Y305543D02*
D03*
Y311457D02*
D03*
X809500Y305543D02*
D03*
Y311457D02*
D03*
X734500Y305543D02*
D03*
Y311457D02*
D03*
X884500Y305543D02*
D03*
Y311457D02*
D03*
X1072000Y305543D02*
D03*
Y311457D02*
D03*
X247500Y230543D02*
D03*
Y236457D02*
D03*
X172000Y231043D02*
D03*
Y236957D02*
D03*
X78000Y230543D02*
D03*
Y236457D02*
D03*
X922000Y230543D02*
D03*
Y236457D02*
D03*
X847000Y230543D02*
D03*
Y236457D02*
D03*
X772500Y230543D02*
D03*
Y236457D02*
D03*
X997000Y230543D02*
D03*
Y236457D02*
D03*
X1090500Y230543D02*
D03*
Y236457D02*
D03*
X453000Y81043D02*
D03*
Y86957D02*
D03*
X603000Y80543D02*
D03*
Y86457D02*
D03*
X528000Y80543D02*
D03*
Y86457D02*
D03*
X753000Y80543D02*
D03*
Y86457D02*
D03*
X678000Y80543D02*
D03*
Y86457D02*
D03*
X377500Y81043D02*
D03*
Y86957D02*
D03*
X59000Y305543D02*
D03*
Y311457D02*
D03*
X322000Y230543D02*
D03*
Y236457D02*
D03*
X284500Y305543D02*
D03*
Y311457D02*
D03*
X106000Y81043D02*
D03*
Y86957D02*
D03*
X1062500Y155543D02*
D03*
Y161457D02*
D03*
X940500Y155543D02*
D03*
Y161457D02*
D03*
X865500Y156043D02*
D03*
Y161957D02*
D03*
X790500Y155543D02*
D03*
Y161457D02*
D03*
X715500Y155543D02*
D03*
Y161457D02*
D03*
X828000Y80543D02*
D03*
Y86457D02*
D03*
X903500Y80543D02*
D03*
Y86457D02*
D03*
M02*
