G04*
G04 #@! TF.GenerationSoftware,Altium Limited,Altium Designer,23.0.1 (38)*
G04*
G04 Layer_Color=8388736*
%FSLAX25Y25*%
%MOIN*%
G70*
G04*
G04 #@! TF.SameCoordinates,E578997C-71E1-4784-AB86-DF19E58CE9B1*
G04*
G04*
G04 #@! TF.FilePolarity,Negative*
G04*
G01*
G75*
G04:AMPARAMS|DCode=12|XSize=51.18mil|YSize=90.55mil|CornerRadius=25.59mil|HoleSize=0mil|Usage=FLASHONLY|Rotation=0.000|XOffset=0mil|YOffset=0mil|HoleType=Round|Shape=RoundedRectangle|*
%AMROUNDEDRECTD12*
21,1,0.05118,0.03937,0,0,0.0*
21,1,0.00000,0.09055,0,0,0.0*
1,1,0.05118,0.00000,-0.01968*
1,1,0.05118,0.00000,-0.01968*
1,1,0.05118,0.00000,0.01968*
1,1,0.05118,0.00000,0.01968*
%
%ADD12ROUNDEDRECTD12*%
G04:AMPARAMS|DCode=13|XSize=51.18mil|YSize=102.36mil|CornerRadius=25.59mil|HoleSize=0mil|Usage=FLASHONLY|Rotation=0.000|XOffset=0mil|YOffset=0mil|HoleType=Round|Shape=RoundedRectangle|*
%AMROUNDEDRECTD13*
21,1,0.05118,0.05118,0,0,0.0*
21,1,0.00000,0.10236,0,0,0.0*
1,1,0.05118,0.00000,-0.02559*
1,1,0.05118,0.00000,-0.02559*
1,1,0.05118,0.00000,0.02559*
1,1,0.05118,0.00000,0.02559*
%
%ADD13ROUNDEDRECTD13*%
%ADD14C,0.02362*%
G04:AMPARAMS|DCode=15|XSize=33.47mil|YSize=23.62mil|CornerRadius=11.81mil|HoleSize=0mil|Usage=FLASHONLY|Rotation=0.000|XOffset=0mil|YOffset=0mil|HoleType=Round|Shape=RoundedRectangle|*
%AMROUNDEDRECTD15*
21,1,0.03347,0.00000,0,0,0.0*
21,1,0.00984,0.02362,0,0,0.0*
1,1,0.02362,0.00492,0.00000*
1,1,0.02362,-0.00492,0.00000*
1,1,0.02362,-0.00492,0.00000*
1,1,0.02362,0.00492,0.00000*
%
%ADD15ROUNDEDRECTD15*%
%ADD16C,0.16291*%
%ADD17C,0.12402*%
%ADD18C,0.07291*%
%ADD19C,0.24213*%
%ADD20C,0.20276*%
D12*
X128303Y342421D02*
D03*
X162319D02*
D03*
D13*
X128303Y357480D02*
D03*
X162319D02*
D03*
D14*
X133500Y345276D02*
D03*
D15*
X157122D02*
D03*
D16*
X761860Y180610D02*
D03*
X133735Y30610D02*
D03*
X855610Y330610D02*
D03*
X58735Y180610D02*
D03*
X424360Y105610D02*
D03*
X508735Y30610D02*
D03*
X1071235D02*
D03*
X977485D02*
D03*
X883735D02*
D03*
X789985D02*
D03*
X227485D02*
D03*
X39985D02*
D03*
X499360Y105610D02*
D03*
X349360D02*
D03*
X274360D02*
D03*
X199360D02*
D03*
X77485D02*
D03*
X799360D02*
D03*
X724360D02*
D03*
X1014985D02*
D03*
X874360D02*
D03*
X649360D02*
D03*
X574360D02*
D03*
X686860Y180610D02*
D03*
X1033735D02*
D03*
X911860D02*
D03*
X836860D02*
D03*
X461860D02*
D03*
X386860D02*
D03*
X311860D02*
D03*
X236860D02*
D03*
X161860D02*
D03*
X536860D02*
D03*
X611860D02*
D03*
X668110Y255610D02*
D03*
X593110D02*
D03*
X518110D02*
D03*
X443110D02*
D03*
X368110D02*
D03*
X143110D02*
D03*
X293110D02*
D03*
X49360D02*
D03*
X218110D02*
D03*
X893110D02*
D03*
X818110D02*
D03*
X743110D02*
D03*
X1061860D02*
D03*
X968110D02*
D03*
X930610Y330610D02*
D03*
X1043110D02*
D03*
X630610D02*
D03*
X555610D02*
D03*
X480610D02*
D03*
X405610D02*
D03*
X330610D02*
D03*
X705610D02*
D03*
X780610D02*
D03*
X255610D02*
D03*
X180610D02*
D03*
X105610D02*
D03*
X30610D02*
D03*
D17*
X751860Y160610D02*
D03*
X776860Y170610D02*
D03*
X123735Y10610D02*
D03*
X148735Y20610D02*
D03*
X845610Y310610D02*
D03*
X870610Y320610D02*
D03*
X73735Y170610D02*
D03*
X48735Y160610D02*
D03*
X439360Y95610D02*
D03*
X414360Y85610D02*
D03*
X523735Y20610D02*
D03*
X498735Y10610D02*
D03*
X1086235Y20610D02*
D03*
X1061235Y10610D02*
D03*
X992485Y20610D02*
D03*
X967485Y10610D02*
D03*
X898735Y20610D02*
D03*
X873735Y10610D02*
D03*
X804985Y20610D02*
D03*
X779985Y10610D02*
D03*
X242485Y20610D02*
D03*
X217485Y10610D02*
D03*
X54985Y20610D02*
D03*
X29985Y10610D02*
D03*
X514360Y95610D02*
D03*
X489360Y85610D02*
D03*
X364360Y95610D02*
D03*
X339360Y85610D02*
D03*
X289360Y95610D02*
D03*
X264360Y85610D02*
D03*
X214360Y95610D02*
D03*
X189360Y85610D02*
D03*
X92485Y95610D02*
D03*
X67485Y85610D02*
D03*
X814360Y95610D02*
D03*
X789360Y85610D02*
D03*
X739360Y95610D02*
D03*
X714360Y85610D02*
D03*
X1029985Y95610D02*
D03*
X1004985Y85610D02*
D03*
X889360Y95610D02*
D03*
X864360Y85610D02*
D03*
X664360Y95610D02*
D03*
X639360Y85610D02*
D03*
X589360Y95610D02*
D03*
X564360Y85610D02*
D03*
X701860Y170610D02*
D03*
X676860Y160610D02*
D03*
X1048735Y170610D02*
D03*
X1023735Y160610D02*
D03*
X926860Y170610D02*
D03*
X901860Y160610D02*
D03*
X851860Y170610D02*
D03*
X826860Y160610D02*
D03*
X476860Y170610D02*
D03*
X451860Y160610D02*
D03*
X401860Y170610D02*
D03*
X376860Y160610D02*
D03*
X326860Y170610D02*
D03*
X301860Y160610D02*
D03*
X251860Y170610D02*
D03*
X226860Y160610D02*
D03*
X176860Y170610D02*
D03*
X151860Y160610D02*
D03*
X551860Y170610D02*
D03*
X526860Y160610D02*
D03*
X626860Y170610D02*
D03*
X601860Y160610D02*
D03*
X683110Y245610D02*
D03*
X658110Y235610D02*
D03*
X608110Y245610D02*
D03*
X583110Y235610D02*
D03*
X533110Y245610D02*
D03*
X508110Y235610D02*
D03*
X458110Y245610D02*
D03*
X433110Y235610D02*
D03*
X383110Y245610D02*
D03*
X358110Y235610D02*
D03*
X158110Y245610D02*
D03*
X133110Y235610D02*
D03*
X308110Y245610D02*
D03*
X283110Y235610D02*
D03*
X64360Y245610D02*
D03*
X39360Y235610D02*
D03*
X233110Y245610D02*
D03*
X208110Y235610D02*
D03*
X908110Y245610D02*
D03*
X883110Y235610D02*
D03*
X833110Y245610D02*
D03*
X808110Y235610D02*
D03*
X758110Y245610D02*
D03*
X733110Y235610D02*
D03*
X1076860Y245610D02*
D03*
X1051860Y235610D02*
D03*
X983110Y245610D02*
D03*
X958110Y235610D02*
D03*
X945610Y320610D02*
D03*
X920610Y310610D02*
D03*
X1058110Y320610D02*
D03*
X1033110Y310610D02*
D03*
X645610Y320610D02*
D03*
X620610Y310610D02*
D03*
X570610Y320610D02*
D03*
X545610Y310610D02*
D03*
X495610Y320610D02*
D03*
X470610Y310610D02*
D03*
X420610Y320610D02*
D03*
X395610Y310610D02*
D03*
X345610Y320610D02*
D03*
X320610Y310610D02*
D03*
X720610Y320610D02*
D03*
X695610Y310610D02*
D03*
X795610Y320610D02*
D03*
X770610Y310610D02*
D03*
X270610Y320610D02*
D03*
X245610Y310610D02*
D03*
X195610Y320610D02*
D03*
X170610Y310610D02*
D03*
X120610Y320610D02*
D03*
X95610Y310610D02*
D03*
X45610Y320610D02*
D03*
X20610Y310610D02*
D03*
D18*
X781860Y180610D02*
D03*
X741860D02*
D03*
X153735Y30610D02*
D03*
X113735D02*
D03*
X875610Y330610D02*
D03*
X835610D02*
D03*
X38735Y180610D02*
D03*
X78735D02*
D03*
X404360Y105610D02*
D03*
X444360D02*
D03*
X488735Y30610D02*
D03*
X528735D02*
D03*
X1051235D02*
D03*
X1091235D02*
D03*
X957485D02*
D03*
X997485D02*
D03*
X863735D02*
D03*
X903735D02*
D03*
X769985D02*
D03*
X809985D02*
D03*
X207485D02*
D03*
X247485D02*
D03*
X19985D02*
D03*
X59985D02*
D03*
X479360Y105610D02*
D03*
X519360D02*
D03*
X329360D02*
D03*
X369360D02*
D03*
X254360D02*
D03*
X294360D02*
D03*
X179360D02*
D03*
X219360D02*
D03*
X57485D02*
D03*
X97485D02*
D03*
X779360D02*
D03*
X819360D02*
D03*
X704360D02*
D03*
X744360D02*
D03*
X994985D02*
D03*
X1034985D02*
D03*
X854360D02*
D03*
X894360D02*
D03*
X629360D02*
D03*
X669360D02*
D03*
X554360D02*
D03*
X594360D02*
D03*
X666860Y180610D02*
D03*
X706860D02*
D03*
X1013735D02*
D03*
X1053735D02*
D03*
X891860D02*
D03*
X931860D02*
D03*
X816860D02*
D03*
X856860D02*
D03*
X441860D02*
D03*
X481860D02*
D03*
X366860D02*
D03*
X406860D02*
D03*
X291860D02*
D03*
X331860D02*
D03*
X216860D02*
D03*
X256860D02*
D03*
X141860D02*
D03*
X181860D02*
D03*
X516860D02*
D03*
X556860D02*
D03*
X591860D02*
D03*
X631860D02*
D03*
X648110Y255610D02*
D03*
X688110D02*
D03*
X573110D02*
D03*
X613110D02*
D03*
X498110D02*
D03*
X538110D02*
D03*
X423110D02*
D03*
X463110D02*
D03*
X348110D02*
D03*
X388110D02*
D03*
X123110D02*
D03*
X163110D02*
D03*
X273110D02*
D03*
X313110D02*
D03*
X29360D02*
D03*
X69360D02*
D03*
X198110D02*
D03*
X238110D02*
D03*
X873110D02*
D03*
X913110D02*
D03*
X798110D02*
D03*
X838110D02*
D03*
X723110D02*
D03*
X763110D02*
D03*
X1041860D02*
D03*
X1081860D02*
D03*
X948110D02*
D03*
X988110D02*
D03*
X910610Y330610D02*
D03*
X950610D02*
D03*
X1023110D02*
D03*
X1063110D02*
D03*
X610610D02*
D03*
X650610D02*
D03*
X535610D02*
D03*
X575610D02*
D03*
X460610D02*
D03*
X500610D02*
D03*
X385610D02*
D03*
X425610D02*
D03*
X310610D02*
D03*
X350610D02*
D03*
X685610D02*
D03*
X725610D02*
D03*
X760610D02*
D03*
X800610D02*
D03*
X235610D02*
D03*
X275610D02*
D03*
X160610D02*
D03*
X200610D02*
D03*
X85610D02*
D03*
X125610D02*
D03*
X10610D02*
D03*
X50610D02*
D03*
D19*
X181143Y59862D02*
D03*
X96150Y284828D02*
D03*
X1014517Y284803D02*
D03*
X931182Y59922D02*
D03*
D20*
X82310Y54165D02*
D03*
X95856Y243236D02*
D03*
X1014517Y243296D02*
D03*
X574222Y206602D02*
D03*
X1030681Y53971D02*
D03*
M02*
