G04*
G04 #@! TF.GenerationSoftware,Altium Limited,Altium Designer,23.0.1 (38)*
G04*
G04 Layer_Color=16711935*
%FSLAX25Y25*%
%MOIN*%
G70*
G04*
G04 #@! TF.SameCoordinates,E4A113DE-ECFE-4A07-A5C3-D06B327C1F19*
G04*
G04*
G04 #@! TF.FilePolarity,Negative*
G04*
G01*
G75*
G04:AMPARAMS|DCode=12|XSize=51.18mil|YSize=90.55mil|CornerRadius=25.59mil|HoleSize=0mil|Usage=FLASHONLY|Rotation=0.000|XOffset=0mil|YOffset=0mil|HoleType=Round|Shape=RoundedRectangle|*
%AMROUNDEDRECTD12*
21,1,0.05118,0.03937,0,0,0.0*
21,1,0.00000,0.09055,0,0,0.0*
1,1,0.05118,0.00000,-0.01968*
1,1,0.05118,0.00000,-0.01968*
1,1,0.05118,0.00000,0.01968*
1,1,0.05118,0.00000,0.01968*
%
%ADD12ROUNDEDRECTD12*%
G04:AMPARAMS|DCode=13|XSize=51.18mil|YSize=102.36mil|CornerRadius=25.59mil|HoleSize=0mil|Usage=FLASHONLY|Rotation=0.000|XOffset=0mil|YOffset=0mil|HoleType=Round|Shape=RoundedRectangle|*
%AMROUNDEDRECTD13*
21,1,0.05118,0.05118,0,0,0.0*
21,1,0.00000,0.10236,0,0,0.0*
1,1,0.05118,0.00000,-0.02559*
1,1,0.05118,0.00000,-0.02559*
1,1,0.05118,0.00000,0.02559*
1,1,0.05118,0.00000,0.02559*
%
%ADD13ROUNDEDRECTD13*%
%ADD14C,0.02362*%
G04:AMPARAMS|DCode=15|XSize=33.47mil|YSize=23.62mil|CornerRadius=11.81mil|HoleSize=0mil|Usage=FLASHONLY|Rotation=0.000|XOffset=0mil|YOffset=0mil|HoleType=Round|Shape=RoundedRectangle|*
%AMROUNDEDRECTD15*
21,1,0.03347,0.00000,0,0,0.0*
21,1,0.00984,0.02362,0,0,0.0*
1,1,0.02362,0.00492,0.00000*
1,1,0.02362,-0.00492,0.00000*
1,1,0.02362,-0.00492,0.00000*
1,1,0.02362,0.00492,0.00000*
%
%ADD15ROUNDEDRECTD15*%
%ADD16C,0.16291*%
%ADD17C,0.12402*%
%ADD18C,0.07291*%
%ADD19C,0.24213*%
%ADD20C,0.20276*%
%ADD27R,0.02047X0.03937*%
%ADD28R,0.01063X0.03937*%
%ADD29R,0.03937X0.07000*%
%ADD33R,0.03150X0.03543*%
%ADD35R,0.02410X0.07107*%
%ADD36R,0.02756X0.05118*%
%ADD37R,0.01181X0.04724*%
%ADD38R,0.04724X0.01181*%
%ADD40R,0.03543X0.03150*%
%ADD41R,0.02559X0.03543*%
%ADD42R,0.03543X0.02559*%
%ADD43R,0.04600X0.01800*%
%ADD44R,0.02756X0.03937*%
%ADD45R,0.03937X0.03937*%
%ADD46R,0.01400X0.02900*%
%ADD48R,0.04091X0.04591*%
%ADD49R,0.10630X0.10433*%
%ADD50R,0.04528X0.04410*%
%ADD51R,0.13858X0.09921*%
%ADD52R,0.02559X0.02953*%
D12*
X129012Y341634D02*
D03*
X163028D02*
D03*
D13*
X129012Y356693D02*
D03*
X163028D02*
D03*
D14*
X134209Y344488D02*
D03*
D15*
X157831D02*
D03*
D16*
X759842Y180118D02*
D03*
X133366Y30512D02*
D03*
X853347Y329724D02*
D03*
X58563Y180118D02*
D03*
X423228Y105315D02*
D03*
X507382Y30512D02*
D03*
X1068406D02*
D03*
X974902D02*
D03*
X881398D02*
D03*
X787894D02*
D03*
X226870D02*
D03*
X39862D02*
D03*
X498032Y105315D02*
D03*
X348425D02*
D03*
X273622D02*
D03*
X198819D02*
D03*
X77264D02*
D03*
X797244D02*
D03*
X722441D02*
D03*
X1012303D02*
D03*
X872047D02*
D03*
X647638D02*
D03*
X572835D02*
D03*
X685039Y180118D02*
D03*
X1031004D02*
D03*
X909449D02*
D03*
X834646D02*
D03*
X460630D02*
D03*
X385827D02*
D03*
X311024D02*
D03*
X236221D02*
D03*
X161417D02*
D03*
X535433D02*
D03*
X610236D02*
D03*
X666339Y254921D02*
D03*
X591535D02*
D03*
X516732D02*
D03*
X441929D02*
D03*
X367126D02*
D03*
X142717D02*
D03*
X292323D02*
D03*
X49213D02*
D03*
X217520D02*
D03*
X890748D02*
D03*
X815945D02*
D03*
X741142D02*
D03*
X1059055D02*
D03*
X965551D02*
D03*
X928150Y329724D02*
D03*
X1040354D02*
D03*
X628937D02*
D03*
X554134D02*
D03*
X479331D02*
D03*
X404528D02*
D03*
X329724D02*
D03*
X703740D02*
D03*
X778543D02*
D03*
X254921D02*
D03*
X180118D02*
D03*
X105315D02*
D03*
X30512D02*
D03*
D17*
X749843Y160118D02*
D03*
X774843Y170118D02*
D03*
X123366Y10512D02*
D03*
X148366Y20512D02*
D03*
X843347Y309724D02*
D03*
X868347Y319724D02*
D03*
X73563Y170118D02*
D03*
X48563Y160118D02*
D03*
X438228Y95315D02*
D03*
X413228Y85315D02*
D03*
X522382Y20512D02*
D03*
X497382Y10512D02*
D03*
X1083405Y20512D02*
D03*
X1058405Y10512D02*
D03*
X989902Y20512D02*
D03*
X964902Y10512D02*
D03*
X896398Y20512D02*
D03*
X871398Y10512D02*
D03*
X802894Y20512D02*
D03*
X777894Y10512D02*
D03*
X241870Y20512D02*
D03*
X216870Y10512D02*
D03*
X54862Y20512D02*
D03*
X29862Y10512D02*
D03*
X513031Y95315D02*
D03*
X488031Y85315D02*
D03*
X363425Y95315D02*
D03*
X338425Y85315D02*
D03*
X288622Y95315D02*
D03*
X263622Y85315D02*
D03*
X213819Y95315D02*
D03*
X188819Y85315D02*
D03*
X92264Y95315D02*
D03*
X67264Y85315D02*
D03*
X812244Y95315D02*
D03*
X787244Y85315D02*
D03*
X737441Y95315D02*
D03*
X712441Y85315D02*
D03*
X1027303Y95315D02*
D03*
X1002303Y85315D02*
D03*
X887047Y95315D02*
D03*
X862047Y85315D02*
D03*
X662638Y95315D02*
D03*
X637638Y85315D02*
D03*
X587835Y95315D02*
D03*
X562835Y85315D02*
D03*
X700039Y170118D02*
D03*
X675039Y160118D02*
D03*
X1046004Y170118D02*
D03*
X1021004Y160118D02*
D03*
X924449Y170118D02*
D03*
X899449Y160118D02*
D03*
X849646Y170118D02*
D03*
X824646Y160118D02*
D03*
X475630Y170118D02*
D03*
X450630Y160118D02*
D03*
X400827Y170118D02*
D03*
X375827Y160118D02*
D03*
X326024Y170118D02*
D03*
X301024Y160118D02*
D03*
X251220Y170118D02*
D03*
X226220Y160118D02*
D03*
X176417Y170118D02*
D03*
X151417Y160118D02*
D03*
X550433Y170118D02*
D03*
X525433Y160118D02*
D03*
X625236Y170118D02*
D03*
X600236Y160118D02*
D03*
X681339Y244921D02*
D03*
X656339Y234921D02*
D03*
X606535Y244921D02*
D03*
X581535Y234921D02*
D03*
X531732Y244921D02*
D03*
X506732Y234921D02*
D03*
X456929Y244921D02*
D03*
X431929Y234921D02*
D03*
X382126Y244921D02*
D03*
X357126Y234921D02*
D03*
X157717Y244921D02*
D03*
X132717Y234921D02*
D03*
X307323Y244921D02*
D03*
X282323Y234921D02*
D03*
X64213Y244921D02*
D03*
X39213Y234921D02*
D03*
X232520Y244921D02*
D03*
X207520Y234921D02*
D03*
X905748Y244921D02*
D03*
X880748Y234921D02*
D03*
X830945Y244921D02*
D03*
X805945Y234921D02*
D03*
X756142Y244921D02*
D03*
X731142Y234921D02*
D03*
X1074055Y244921D02*
D03*
X1049055Y234921D02*
D03*
X980551Y244921D02*
D03*
X955551Y234921D02*
D03*
X943150Y319724D02*
D03*
X918150Y309724D02*
D03*
X1055354Y319724D02*
D03*
X1030354Y309724D02*
D03*
X643937Y319724D02*
D03*
X618937Y309724D02*
D03*
X569134Y319724D02*
D03*
X544134Y309724D02*
D03*
X494331Y319724D02*
D03*
X469331Y309724D02*
D03*
X419528Y319724D02*
D03*
X394528Y309724D02*
D03*
X344724Y319724D02*
D03*
X319724Y309724D02*
D03*
X718740Y319724D02*
D03*
X693740Y309724D02*
D03*
X793543Y319724D02*
D03*
X768543Y309724D02*
D03*
X269921Y319724D02*
D03*
X244921Y309724D02*
D03*
X195118Y319724D02*
D03*
X170118Y309724D02*
D03*
X120315Y319724D02*
D03*
X95315Y309724D02*
D03*
X45512Y319724D02*
D03*
X20512Y309724D02*
D03*
D18*
X779843Y180118D02*
D03*
X739843D02*
D03*
X153366Y30512D02*
D03*
X113366D02*
D03*
X873347Y329724D02*
D03*
X833346D02*
D03*
X38563Y180118D02*
D03*
X78563D02*
D03*
X403228Y105315D02*
D03*
X443228D02*
D03*
X487382Y30512D02*
D03*
X527382D02*
D03*
X1048405D02*
D03*
X1088406D02*
D03*
X954902D02*
D03*
X994902D02*
D03*
X861398D02*
D03*
X901398D02*
D03*
X767894D02*
D03*
X807894D02*
D03*
X206870D02*
D03*
X246870D02*
D03*
X19862D02*
D03*
X59862D02*
D03*
X478031Y105315D02*
D03*
X518032D02*
D03*
X328425D02*
D03*
X368425D02*
D03*
X253622D02*
D03*
X293622D02*
D03*
X178819D02*
D03*
X218819D02*
D03*
X57264D02*
D03*
X97264D02*
D03*
X777244D02*
D03*
X817244D02*
D03*
X702441D02*
D03*
X742441D02*
D03*
X992303D02*
D03*
X1032303D02*
D03*
X852047D02*
D03*
X892047D02*
D03*
X627638D02*
D03*
X667638D02*
D03*
X552835D02*
D03*
X592835D02*
D03*
X665039Y180118D02*
D03*
X705039D02*
D03*
X1011004D02*
D03*
X1051004D02*
D03*
X889449D02*
D03*
X929449D02*
D03*
X814646D02*
D03*
X854646D02*
D03*
X440630D02*
D03*
X480630D02*
D03*
X365827D02*
D03*
X405827D02*
D03*
X291024D02*
D03*
X331024D02*
D03*
X216220D02*
D03*
X256221D02*
D03*
X141417D02*
D03*
X181417D02*
D03*
X515433D02*
D03*
X555433D02*
D03*
X590236D02*
D03*
X630236D02*
D03*
X646339Y254921D02*
D03*
X686339D02*
D03*
X571535D02*
D03*
X611535D02*
D03*
X496732D02*
D03*
X536732D02*
D03*
X421929D02*
D03*
X461929D02*
D03*
X347126D02*
D03*
X387126D02*
D03*
X122716D02*
D03*
X162716D02*
D03*
X272323D02*
D03*
X312323D02*
D03*
X29213D02*
D03*
X69213D02*
D03*
X197520D02*
D03*
X237520D02*
D03*
X870748D02*
D03*
X910748D02*
D03*
X795945D02*
D03*
X835945D02*
D03*
X721142D02*
D03*
X761142D02*
D03*
X1039055D02*
D03*
X1079055D02*
D03*
X945551D02*
D03*
X985551D02*
D03*
X908150Y329724D02*
D03*
X948150D02*
D03*
X1020354D02*
D03*
X1060354D02*
D03*
X608937D02*
D03*
X648937D02*
D03*
X534134D02*
D03*
X574134D02*
D03*
X459331D02*
D03*
X499331D02*
D03*
X384528D02*
D03*
X424528D02*
D03*
X309724D02*
D03*
X349724D02*
D03*
X683740D02*
D03*
X723740D02*
D03*
X758543D02*
D03*
X798543D02*
D03*
X234921D02*
D03*
X274921D02*
D03*
X160118D02*
D03*
X200118D02*
D03*
X85315D02*
D03*
X125315D02*
D03*
X10512D02*
D03*
X50512D02*
D03*
D19*
X180315Y60079D02*
D03*
X95492Y285214D02*
D03*
X1012374Y284637D02*
D03*
X927953Y60052D02*
D03*
D20*
X81862Y54415D02*
D03*
X94884Y242758D02*
D03*
X1012139D02*
D03*
X572943Y206065D02*
D03*
X1027307Y54415D02*
D03*
D27*
X133815Y340158D02*
D03*
X136768D02*
D03*
X158224D02*
D03*
X155272D02*
D03*
D28*
X139130D02*
D03*
X141098D02*
D03*
X143067D02*
D03*
X145036D02*
D03*
X147004D02*
D03*
X148972D02*
D03*
X150941D02*
D03*
X152910D02*
D03*
D29*
X151520Y355756D02*
D03*
X140520D02*
D03*
D33*
X373789Y23758D02*
D03*
X367884D02*
D03*
Y35759D02*
D03*
X373789D02*
D03*
X556453Y128000D02*
D03*
X550547D02*
D03*
X631453D02*
D03*
X625547D02*
D03*
X705953D02*
D03*
X700047D02*
D03*
X948953Y278000D02*
D03*
X943047D02*
D03*
X780453Y128000D02*
D03*
X774547D02*
D03*
X1042453Y277500D02*
D03*
X1036547D02*
D03*
X855453Y128000D02*
D03*
X849547D02*
D03*
X995953D02*
D03*
X990047D02*
D03*
X1057047Y346500D02*
D03*
X1062953D02*
D03*
X944547D02*
D03*
X950453D02*
D03*
X1047547Y197000D02*
D03*
X1053453D02*
D03*
X870047Y346500D02*
D03*
X875953D02*
D03*
X926047Y197000D02*
D03*
X931953D02*
D03*
X795047Y346500D02*
D03*
X800953D02*
D03*
X851547Y197000D02*
D03*
X857453D02*
D03*
X412453Y46500D02*
D03*
X406547D02*
D03*
X524547Y47000D02*
D03*
X530453D02*
D03*
X200953Y277500D02*
D03*
X195047D02*
D03*
X244047Y47500D02*
D03*
X249953D02*
D03*
X275953Y277500D02*
D03*
X270047D02*
D03*
X150547Y47500D02*
D03*
X156453D02*
D03*
X350453Y278000D02*
D03*
X344547D02*
D03*
X649953Y277500D02*
D03*
X644047D02*
D03*
X57047Y47500D02*
D03*
X62953D02*
D03*
X425453Y277500D02*
D03*
X419547D02*
D03*
X60453Y128000D02*
D03*
X54547D02*
D03*
X500453Y277500D02*
D03*
X494547D02*
D03*
X574953D02*
D03*
X569047D02*
D03*
X181953Y128000D02*
D03*
X176047D02*
D03*
X256953D02*
D03*
X251047D02*
D03*
X330953Y58500D02*
D03*
X325047D02*
D03*
X331953Y128000D02*
D03*
X326047D02*
D03*
X724953Y278000D02*
D03*
X719047D02*
D03*
X406453Y128000D02*
D03*
X400547D02*
D03*
X799453Y277500D02*
D03*
X793547D02*
D03*
X272047Y346500D02*
D03*
X277953D02*
D03*
X477047Y197000D02*
D03*
X482953D02*
D03*
X197047Y346500D02*
D03*
X202953D02*
D03*
X402547Y197000D02*
D03*
X408453D02*
D03*
X328047D02*
D03*
X333953D02*
D03*
X47047Y346500D02*
D03*
X52953D02*
D03*
X776547Y197000D02*
D03*
X782453D02*
D03*
X645547Y346500D02*
D03*
X651453D02*
D03*
X571047D02*
D03*
X576953D02*
D03*
X702047Y197000D02*
D03*
X707953D02*
D03*
X496547Y346500D02*
D03*
X502453D02*
D03*
X627547Y197000D02*
D03*
X633453D02*
D03*
X421547Y346500D02*
D03*
X427453D02*
D03*
X346547D02*
D03*
X352453D02*
D03*
X552547Y197000D02*
D03*
X558453D02*
D03*
X874453Y277500D02*
D03*
X868547D02*
D03*
X253047Y197000D02*
D03*
X258953D02*
D03*
X481453Y128000D02*
D03*
X475547D02*
D03*
X1085547Y47000D02*
D03*
X1091453D02*
D03*
X178047Y197000D02*
D03*
X183953D02*
D03*
X992047Y47500D02*
D03*
X997953D02*
D03*
X75047Y197000D02*
D03*
X80953D02*
D03*
X898547Y47500D02*
D03*
X904453D02*
D03*
X32789Y278107D02*
D03*
X26884D02*
D03*
X805047Y47500D02*
D03*
X810953D02*
D03*
X126453Y278000D02*
D03*
X120547D02*
D03*
X356047Y58000D02*
D03*
X361953D02*
D03*
X720547Y346500D02*
D03*
X726453D02*
D03*
X332953Y11500D02*
D03*
X327047D02*
D03*
D35*
X439760Y27470D02*
D03*
X447240D02*
D03*
Y36529D02*
D03*
X443500D02*
D03*
X439760D02*
D03*
D36*
Y19500D02*
D03*
X447240D02*
D03*
X439760Y44500D02*
D03*
X447240D02*
D03*
D37*
X355327Y51232D02*
D03*
X353358D02*
D03*
X351390D02*
D03*
X349421D02*
D03*
X347453D02*
D03*
X345484D02*
D03*
X343516D02*
D03*
X341547D02*
D03*
X339579D02*
D03*
X337610D02*
D03*
X335642D02*
D03*
X333673D02*
D03*
Y17768D02*
D03*
X335642D02*
D03*
X337610D02*
D03*
X339579D02*
D03*
X341547D02*
D03*
X343516D02*
D03*
X345484D02*
D03*
X347453D02*
D03*
X349421D02*
D03*
X351390D02*
D03*
X353358D02*
D03*
X355327D02*
D03*
D38*
X327768Y45327D02*
D03*
Y43358D02*
D03*
Y41390D02*
D03*
Y39421D02*
D03*
Y37453D02*
D03*
Y35484D02*
D03*
Y33516D02*
D03*
Y31547D02*
D03*
Y29579D02*
D03*
Y27610D02*
D03*
Y25642D02*
D03*
Y23673D02*
D03*
X361232D02*
D03*
Y25642D02*
D03*
Y27610D02*
D03*
Y29579D02*
D03*
Y31547D02*
D03*
Y33516D02*
D03*
Y35484D02*
D03*
Y37453D02*
D03*
Y39421D02*
D03*
Y41390D02*
D03*
Y43358D02*
D03*
Y45327D02*
D03*
D40*
X321000Y46047D02*
D03*
Y51953D02*
D03*
X117837Y341060D02*
D03*
Y335154D02*
D03*
X368000Y46047D02*
D03*
Y51953D02*
D03*
D41*
X423854Y46500D02*
D03*
X418146D02*
D03*
X138354Y329000D02*
D03*
X132646D02*
D03*
X418146Y52000D02*
D03*
X423854D02*
D03*
D42*
X350000Y57000D02*
D03*
Y62709D02*
D03*
X152000Y330854D02*
D03*
Y325146D02*
D03*
X374500Y50854D02*
D03*
Y45146D02*
D03*
D43*
X344350Y62059D02*
D03*
Y56941D02*
D03*
X336650Y59500D02*
D03*
D44*
X409717Y40311D02*
D03*
Y16689D02*
D03*
X424284Y40311D02*
D03*
Y16689D02*
D03*
D45*
X1078457Y115000D02*
D03*
X1085543D02*
D03*
D46*
X141441Y300100D02*
D03*
X144000D02*
D03*
X146559D02*
D03*
Y291900D02*
D03*
X144000D02*
D03*
X141441D02*
D03*
D48*
X692940Y352724D02*
D03*
Y346724D02*
D03*
X714540D02*
D03*
Y352724D02*
D03*
X1079206Y53512D02*
D03*
Y47512D02*
D03*
X1057605D02*
D03*
Y53512D02*
D03*
X985702D02*
D03*
Y47512D02*
D03*
X964102D02*
D03*
Y53512D02*
D03*
X892198D02*
D03*
Y47512D02*
D03*
X870598D02*
D03*
Y53512D02*
D03*
X798694D02*
D03*
Y47512D02*
D03*
X777094D02*
D03*
Y53512D02*
D03*
X518182D02*
D03*
Y47512D02*
D03*
X496582D02*
D03*
Y53512D02*
D03*
X237670D02*
D03*
Y47512D02*
D03*
X216070D02*
D03*
Y53512D02*
D03*
X144166D02*
D03*
Y47512D02*
D03*
X122566D02*
D03*
Y53512D02*
D03*
X50662D02*
D03*
Y47512D02*
D03*
X29062D02*
D03*
Y53512D02*
D03*
X66464Y122315D02*
D03*
Y128315D02*
D03*
X88064D02*
D03*
Y122315D02*
D03*
X188019D02*
D03*
Y128315D02*
D03*
X209619D02*
D03*
Y122315D02*
D03*
X262822D02*
D03*
Y128315D02*
D03*
X284422D02*
D03*
Y122315D02*
D03*
X337625D02*
D03*
Y128315D02*
D03*
X359225D02*
D03*
Y122315D02*
D03*
X412428D02*
D03*
Y128315D02*
D03*
X434028D02*
D03*
Y122315D02*
D03*
X487231D02*
D03*
Y128315D02*
D03*
X508832D02*
D03*
Y122315D02*
D03*
X562035D02*
D03*
Y128315D02*
D03*
X583635D02*
D03*
Y122315D02*
D03*
X636838D02*
D03*
Y128315D02*
D03*
X658438D02*
D03*
Y122315D02*
D03*
X711641D02*
D03*
Y128315D02*
D03*
X733241D02*
D03*
Y122315D02*
D03*
X786444D02*
D03*
Y128315D02*
D03*
X808044D02*
D03*
Y122315D02*
D03*
X861247D02*
D03*
Y128315D02*
D03*
X882847D02*
D03*
Y122315D02*
D03*
X1001503D02*
D03*
Y128315D02*
D03*
X1023103D02*
D03*
Y122315D02*
D03*
X1041804Y203118D02*
D03*
Y197118D02*
D03*
X1020204D02*
D03*
Y203118D02*
D03*
X920249D02*
D03*
Y197118D02*
D03*
X898649D02*
D03*
Y203118D02*
D03*
X845446D02*
D03*
Y197118D02*
D03*
X823846D02*
D03*
Y203118D02*
D03*
X770643D02*
D03*
Y197118D02*
D03*
X749043D02*
D03*
Y203118D02*
D03*
X695839D02*
D03*
Y197118D02*
D03*
X674239D02*
D03*
Y203118D02*
D03*
X621036D02*
D03*
Y197118D02*
D03*
X599436D02*
D03*
Y203118D02*
D03*
X546233D02*
D03*
Y197118D02*
D03*
X524633D02*
D03*
Y203118D02*
D03*
X471430D02*
D03*
Y197118D02*
D03*
X449830D02*
D03*
Y203118D02*
D03*
X396627D02*
D03*
Y197118D02*
D03*
X375027D02*
D03*
Y203118D02*
D03*
X321824D02*
D03*
Y197118D02*
D03*
X300224D02*
D03*
Y203118D02*
D03*
X247021D02*
D03*
Y197118D02*
D03*
X225420D02*
D03*
Y203118D02*
D03*
X172217D02*
D03*
Y197118D02*
D03*
X150617D02*
D03*
Y203118D02*
D03*
X69363D02*
D03*
Y197118D02*
D03*
X47763D02*
D03*
Y203118D02*
D03*
X38413Y271921D02*
D03*
Y277921D02*
D03*
X60013D02*
D03*
Y271921D02*
D03*
X131916D02*
D03*
Y277921D02*
D03*
X153516D02*
D03*
Y271921D02*
D03*
X206720D02*
D03*
Y277921D02*
D03*
X228320D02*
D03*
Y271921D02*
D03*
X281523D02*
D03*
Y277921D02*
D03*
X303123D02*
D03*
Y271921D02*
D03*
X356326D02*
D03*
Y277921D02*
D03*
X377926D02*
D03*
Y271921D02*
D03*
X431129D02*
D03*
Y277921D02*
D03*
X452729D02*
D03*
Y271921D02*
D03*
X505932D02*
D03*
Y277921D02*
D03*
X527532D02*
D03*
Y271921D02*
D03*
X580735D02*
D03*
Y277921D02*
D03*
X602335D02*
D03*
Y271921D02*
D03*
X655539D02*
D03*
Y277921D02*
D03*
X677139D02*
D03*
Y271921D02*
D03*
X730342D02*
D03*
Y277921D02*
D03*
X751942D02*
D03*
Y271921D02*
D03*
X805145D02*
D03*
Y277921D02*
D03*
X826745D02*
D03*
Y271921D02*
D03*
X879948D02*
D03*
Y277921D02*
D03*
X901548D02*
D03*
Y271921D02*
D03*
X954751D02*
D03*
Y277921D02*
D03*
X976351D02*
D03*
Y271921D02*
D03*
X1048255D02*
D03*
Y277921D02*
D03*
X1069855D02*
D03*
Y271921D02*
D03*
X1051154Y352724D02*
D03*
Y346724D02*
D03*
X1029554D02*
D03*
Y352724D02*
D03*
X938950D02*
D03*
Y346724D02*
D03*
X917350D02*
D03*
Y352724D02*
D03*
X864147D02*
D03*
Y346724D02*
D03*
X842546D02*
D03*
Y352724D02*
D03*
X789343D02*
D03*
Y346724D02*
D03*
X767743D02*
D03*
Y352724D02*
D03*
X639737D02*
D03*
Y346724D02*
D03*
X618137D02*
D03*
Y352724D02*
D03*
X564934D02*
D03*
Y346724D02*
D03*
X543334D02*
D03*
Y352724D02*
D03*
X490131D02*
D03*
Y346724D02*
D03*
X468531D02*
D03*
Y352724D02*
D03*
X415328D02*
D03*
Y346724D02*
D03*
X393728D02*
D03*
Y352724D02*
D03*
X340524D02*
D03*
Y346724D02*
D03*
X318924D02*
D03*
Y352724D02*
D03*
X265721D02*
D03*
Y346724D02*
D03*
X244121D02*
D03*
Y352724D02*
D03*
X190918D02*
D03*
Y346724D02*
D03*
X169318D02*
D03*
Y352724D02*
D03*
X116115D02*
D03*
Y346724D02*
D03*
X94515D02*
D03*
Y352724D02*
D03*
X41312D02*
D03*
Y346724D02*
D03*
X19712D02*
D03*
Y352724D02*
D03*
D49*
X788819Y170118D02*
D03*
X735866Y160118D02*
D03*
X162343Y20512D02*
D03*
X109390Y10512D02*
D03*
X882323Y319724D02*
D03*
X829370Y309724D02*
D03*
X34587Y160118D02*
D03*
X87539Y170118D02*
D03*
X399252Y85315D02*
D03*
X452205Y95315D02*
D03*
X483405Y10512D02*
D03*
X536358Y20512D02*
D03*
X1044429Y10512D02*
D03*
X1097382Y20512D02*
D03*
X950925Y10512D02*
D03*
X1003878Y20512D02*
D03*
X857421Y10512D02*
D03*
X910374Y20512D02*
D03*
X763917Y10512D02*
D03*
X816870Y20512D02*
D03*
X202894Y10512D02*
D03*
X255847Y20512D02*
D03*
X15886Y10512D02*
D03*
X68839Y20512D02*
D03*
X474055Y85315D02*
D03*
X527008Y95315D02*
D03*
X324449Y85315D02*
D03*
X377402Y95315D02*
D03*
X249646Y85315D02*
D03*
X302598Y95315D02*
D03*
X174843Y85315D02*
D03*
X227795Y95315D02*
D03*
X53287Y85315D02*
D03*
X106240Y95315D02*
D03*
X773268Y85315D02*
D03*
X826221Y95315D02*
D03*
X698465Y85315D02*
D03*
X751417Y95315D02*
D03*
X988327Y85315D02*
D03*
X1041280Y95315D02*
D03*
X848071Y85315D02*
D03*
X901024Y95315D02*
D03*
X623661Y85315D02*
D03*
X676614Y95315D02*
D03*
X548858Y85315D02*
D03*
X601811Y95315D02*
D03*
X661063Y160118D02*
D03*
X714016Y170118D02*
D03*
X1007028Y160118D02*
D03*
X1059980Y170118D02*
D03*
X885472Y160118D02*
D03*
X938425Y170118D02*
D03*
X810669Y160118D02*
D03*
X863622Y170118D02*
D03*
X436654Y160118D02*
D03*
X489606Y170118D02*
D03*
X361850Y160118D02*
D03*
X414803Y170118D02*
D03*
X287047Y160118D02*
D03*
X340000Y170118D02*
D03*
X212244Y160118D02*
D03*
X265197Y170118D02*
D03*
X137441Y160118D02*
D03*
X190394Y170118D02*
D03*
X511457Y160118D02*
D03*
X564409Y170118D02*
D03*
X586260Y160118D02*
D03*
X639213Y170118D02*
D03*
X642362Y234921D02*
D03*
X695315Y244921D02*
D03*
X567559Y234921D02*
D03*
X620512Y244921D02*
D03*
X492756Y234921D02*
D03*
X545709Y244921D02*
D03*
X417953Y234921D02*
D03*
X470905Y244921D02*
D03*
X343150Y234921D02*
D03*
X396102Y244921D02*
D03*
X118740Y234921D02*
D03*
X171693Y244921D02*
D03*
X268347Y234921D02*
D03*
X321299Y244921D02*
D03*
X25236Y234921D02*
D03*
X78189Y244921D02*
D03*
X193543Y234921D02*
D03*
X246496Y244921D02*
D03*
X866772Y234921D02*
D03*
X919724Y244921D02*
D03*
X791968Y234921D02*
D03*
X844921Y244921D02*
D03*
X717165Y234921D02*
D03*
X770118Y244921D02*
D03*
X1035079Y234921D02*
D03*
X1088031Y244921D02*
D03*
X941575Y234921D02*
D03*
X994528Y244921D02*
D03*
X904173Y309724D02*
D03*
X957126Y319724D02*
D03*
X1016378Y309724D02*
D03*
X1069331Y319724D02*
D03*
X604961Y309724D02*
D03*
X657913Y319724D02*
D03*
X530158Y309724D02*
D03*
X583110Y319724D02*
D03*
X455354Y309724D02*
D03*
X508307Y319724D02*
D03*
X380551Y309724D02*
D03*
X433504Y319724D02*
D03*
X305748Y309724D02*
D03*
X358701Y319724D02*
D03*
X679764Y309724D02*
D03*
X732717Y319724D02*
D03*
X754567Y309724D02*
D03*
X807520Y319724D02*
D03*
X230945Y309724D02*
D03*
X283898Y319724D02*
D03*
X156142Y309724D02*
D03*
X209095Y319724D02*
D03*
X81339Y309724D02*
D03*
X134291Y319724D02*
D03*
X6535Y309724D02*
D03*
X59488Y319724D02*
D03*
D50*
X367943Y29759D02*
D03*
X373730D02*
D03*
D51*
X1085500Y81032D02*
D03*
Y99968D02*
D03*
D52*
X1040500Y81043D02*
D03*
Y86957D02*
D03*
X1096500Y6043D02*
D03*
Y11957D02*
D03*
X1003000Y6543D02*
D03*
Y12457D02*
D03*
X816000Y6043D02*
D03*
Y11957D02*
D03*
X909500Y7000D02*
D03*
Y12913D02*
D03*
X535500Y6043D02*
D03*
Y11957D02*
D03*
X161500Y6043D02*
D03*
Y11957D02*
D03*
X255000Y6043D02*
D03*
Y11957D02*
D03*
X68000Y6543D02*
D03*
Y12457D02*
D03*
X694500Y230543D02*
D03*
Y236457D02*
D03*
X470000Y230543D02*
D03*
Y236457D02*
D03*
X545000Y230543D02*
D03*
Y236457D02*
D03*
X619500Y230543D02*
D03*
Y236457D02*
D03*
X395500Y230543D02*
D03*
Y236457D02*
D03*
X189500Y155543D02*
D03*
Y161457D02*
D03*
X302000Y81043D02*
D03*
Y86957D02*
D03*
X227000Y81043D02*
D03*
Y86957D02*
D03*
X87000Y155543D02*
D03*
Y161457D02*
D03*
X638500Y155543D02*
D03*
Y161457D02*
D03*
X563500Y155543D02*
D03*
Y161457D02*
D03*
X414000Y155543D02*
D03*
Y161457D02*
D03*
X339500Y155543D02*
D03*
Y161457D02*
D03*
X264500Y155543D02*
D03*
Y161457D02*
D03*
X489000Y155543D02*
D03*
Y161457D02*
D03*
X133500Y305543D02*
D03*
Y311457D02*
D03*
X358000Y305543D02*
D03*
Y311457D02*
D03*
X582500Y305543D02*
D03*
Y311457D02*
D03*
X507500Y305543D02*
D03*
Y311457D02*
D03*
X657000Y305043D02*
D03*
Y310957D02*
D03*
X433000Y305543D02*
D03*
Y311457D02*
D03*
X208000Y305543D02*
D03*
Y311457D02*
D03*
X956500Y305043D02*
D03*
Y310957D02*
D03*
X807000Y305043D02*
D03*
Y310957D02*
D03*
X732000Y305043D02*
D03*
Y310957D02*
D03*
X881500Y305043D02*
D03*
Y310957D02*
D03*
X1068500Y305043D02*
D03*
Y310957D02*
D03*
X246000Y230543D02*
D03*
Y236457D02*
D03*
X171000Y230543D02*
D03*
Y236457D02*
D03*
X77500Y230543D02*
D03*
Y236457D02*
D03*
X919000Y230543D02*
D03*
Y236457D02*
D03*
X844000Y230543D02*
D03*
Y236457D02*
D03*
X769500Y230543D02*
D03*
Y236457D02*
D03*
X994000Y230543D02*
D03*
Y236457D02*
D03*
X1087500Y230543D02*
D03*
Y236457D02*
D03*
X451500Y81043D02*
D03*
Y86957D02*
D03*
X601000Y80543D02*
D03*
Y86457D02*
D03*
X526500Y80543D02*
D03*
Y86457D02*
D03*
X750500Y80543D02*
D03*
Y86457D02*
D03*
X676000Y80543D02*
D03*
Y86457D02*
D03*
X377000Y81043D02*
D03*
Y86957D02*
D03*
X58500Y305543D02*
D03*
Y311457D02*
D03*
X320500Y230543D02*
D03*
Y236457D02*
D03*
X283000Y305543D02*
D03*
Y311457D02*
D03*
X105500Y81043D02*
D03*
Y86957D02*
D03*
X1059000Y155543D02*
D03*
Y161457D02*
D03*
X937500Y155543D02*
D03*
Y161457D02*
D03*
X863000Y156043D02*
D03*
Y161957D02*
D03*
X788000Y155543D02*
D03*
Y161457D02*
D03*
X713000Y155543D02*
D03*
Y161457D02*
D03*
X825500Y80543D02*
D03*
Y86457D02*
D03*
X900000Y80543D02*
D03*
Y86457D02*
D03*
M02*
