G04*
G04 #@! TF.GenerationSoftware,Altium Limited,Altium Designer,23.0.1 (38)*
G04*
G04 Layer_Color=65535*
%FSLAX25Y25*%
%MOIN*%
G70*
G04*
G04 #@! TF.SameCoordinates,E4A113DE-ECFE-4A07-A5C3-D06B327C1F19*
G04*
G04*
G04 #@! TF.FilePolarity,Positive*
G04*
G01*
G75*
%ADD10C,0.01200*%
%ADD11C,0.01000*%
G36*
X293129Y76948D02*
X293758D01*
Y78206D01*
X295645D01*
Y77577D01*
X296483D01*
Y76948D01*
X297950D01*
Y76319D01*
X298579D01*
Y75481D01*
X299837D01*
Y74014D01*
X301933D01*
Y73385D01*
X301304D01*
Y72546D01*
X302771D01*
Y72127D01*
X301304D01*
Y70031D01*
X301933D01*
Y71499D01*
X303400D01*
Y72127D01*
X304238D01*
Y72546D01*
X304657D01*
Y71499D01*
X305496D01*
Y70660D01*
X306124D01*
Y71499D01*
X305496D01*
Y72546D01*
X306124D01*
Y72127D01*
X306753D01*
Y72546D01*
X307592D01*
Y71499D01*
X308220D01*
Y72127D01*
X309059D01*
Y71499D01*
X309478D01*
Y70031D01*
X310316D01*
Y67726D01*
X310945D01*
Y66678D01*
X311574D01*
Y65211D01*
X310316D01*
Y64372D01*
X309478D01*
Y65211D01*
X309059D01*
Y64372D01*
X309478D01*
Y63743D01*
X309059D01*
Y64372D01*
X308220D01*
Y62905D01*
X306753D01*
Y63743D01*
X307592D01*
Y65211D01*
X306753D01*
Y65839D01*
X306124D01*
Y67097D01*
X305496D01*
Y65839D01*
X306124D01*
Y65211D01*
X306753D01*
Y64372D01*
X306124D01*
Y65211D01*
X305496D01*
Y65839D01*
X304657D01*
Y68564D01*
X304238D01*
Y67097D01*
X303400D01*
Y69193D01*
X302771D01*
Y67726D01*
X301933D01*
Y69193D01*
X301304D01*
Y68564D01*
X300465D01*
Y70031D01*
X299208D01*
Y70660D01*
X298579D01*
Y71499D01*
X297950D01*
Y70660D01*
X296483D01*
Y70031D01*
X297112D01*
Y65839D01*
X297950D01*
Y65630D01*
Y65211D01*
X298579D01*
Y64372D01*
X299208D01*
Y63743D01*
X299837D01*
Y64372D01*
X299208D01*
Y65211D01*
X298579D01*
Y65839D01*
X297950D01*
Y69193D01*
X298579D01*
Y70031D01*
X299208D01*
Y68564D01*
X300465D01*
Y67307D01*
Y67097D01*
X301304D01*
Y66678D01*
X301933D01*
Y65839D01*
X302771D01*
Y64372D01*
X303400D01*
Y63743D01*
Y63534D01*
Y62905D01*
X304238D01*
Y61857D01*
X304657D01*
Y62905D01*
X304238D01*
Y64372D01*
X303400D01*
Y66678D01*
X304238D01*
Y66049D01*
Y65839D01*
Y64372D01*
X305496D01*
Y63953D01*
Y63743D01*
X304657D01*
Y62905D01*
X306124D01*
Y62276D01*
X305496D01*
Y60390D01*
X306124D01*
Y58923D01*
X306753D01*
Y56198D01*
X306124D01*
Y56827D01*
Y57036D01*
Y58923D01*
X305496D01*
Y60390D01*
X304657D01*
Y61019D01*
X304238D01*
Y61857D01*
X303400D01*
Y62276D01*
Y62486D01*
Y62905D01*
X302771D01*
Y64372D01*
X301933D01*
Y65839D01*
X301304D01*
Y66678D01*
X300465D01*
Y67097D01*
X299837D01*
Y67726D01*
X299208D01*
Y68564D01*
X298579D01*
Y67726D01*
X299208D01*
Y67097D01*
X299837D01*
Y66678D01*
X300465D01*
Y65839D01*
X301304D01*
Y64372D01*
X301933D01*
Y62905D01*
X302771D01*
Y61857D01*
X303400D01*
Y61019D01*
X304238D01*
Y60390D01*
X304657D01*
Y59552D01*
Y59342D01*
Y58923D01*
X305496D01*
Y57246D01*
Y57036D01*
Y56198D01*
X306124D01*
Y55569D01*
X305496D01*
Y56198D01*
X304657D01*
Y58923D01*
X304238D01*
Y60390D01*
X303400D01*
Y58923D01*
X304238D01*
Y56198D01*
X304657D01*
Y55569D01*
X305496D01*
Y54940D01*
Y54731D01*
X306124D01*
Y54102D01*
X305496D01*
Y54731D01*
X304657D01*
Y55569D01*
X304238D01*
Y56198D01*
X303400D01*
Y57455D01*
X302771D01*
Y58084D01*
X301933D01*
Y58923D01*
X301304D01*
Y59552D01*
X300465D01*
Y58923D01*
X301304D01*
Y58084D01*
X301933D01*
Y57455D01*
X302771D01*
Y56198D01*
X303400D01*
Y55569D01*
X304238D01*
Y54731D01*
X304657D01*
Y54521D01*
Y53264D01*
X306124D01*
Y51377D01*
X307592D01*
Y50748D01*
X308220D01*
Y49910D01*
X306753D01*
Y48443D01*
X306124D01*
Y47605D01*
Y47395D01*
Y46976D01*
X305496D01*
Y48443D01*
X304657D01*
Y46976D01*
X305496D01*
Y46556D01*
X304657D01*
Y46976D01*
X304238D01*
Y47814D01*
X303400D01*
Y48443D01*
X302771D01*
Y49281D01*
X301933D01*
Y49910D01*
X299837D01*
Y49281D01*
X299208D01*
Y49910D01*
X298579D01*
Y50748D01*
X297950D01*
Y51377D01*
X296483D01*
Y49910D01*
X295645D01*
Y49281D01*
X296483D01*
Y49072D01*
Y48862D01*
Y48443D01*
X295645D01*
Y49281D01*
X295016D01*
Y47814D01*
X294178D01*
Y49281D01*
X293758D01*
Y46976D01*
X293129D01*
Y46556D01*
X294178D01*
Y45928D01*
X295016D01*
Y46556D01*
X294178D01*
Y46976D01*
X295645D01*
Y47814D01*
X296483D01*
Y46976D01*
X297112D01*
Y49281D01*
X297950D01*
Y48443D01*
X299208D01*
Y47814D01*
X299837D01*
Y46556D01*
X300465D01*
Y46976D01*
X301304D01*
Y46556D01*
X302771D01*
Y43622D01*
X303400D01*
Y41736D01*
X302771D01*
Y41107D01*
X305496D01*
Y40269D01*
X304657D01*
Y38802D01*
X305496D01*
Y39640D01*
X306753D01*
Y38173D01*
X307592D01*
Y37334D01*
X308220D01*
Y38173D01*
X309059D01*
Y36705D01*
X309478D01*
Y36077D01*
X308220D01*
Y35448D01*
X306124D01*
Y36705D01*
X304657D01*
Y36077D01*
X305496D01*
Y35448D01*
X306124D01*
Y34819D01*
X305496D01*
Y33981D01*
X306124D01*
Y33352D01*
X304657D01*
Y32514D01*
X303400D01*
Y33981D01*
X302771D01*
Y34819D01*
X303400D01*
Y36077D01*
X304238D01*
Y35448D01*
X304657D01*
Y36077D01*
X304238D01*
Y36705D01*
X303400D01*
Y37334D01*
X304238D01*
Y38802D01*
X303400D01*
Y38173D01*
X301933D01*
Y37334D01*
X301304D01*
Y35448D01*
X301933D01*
Y34819D01*
X301304D01*
Y33981D01*
X301933D01*
Y32514D01*
X303400D01*
Y31885D01*
X302771D01*
Y30627D01*
X301304D01*
Y31256D01*
X300465D01*
Y30627D01*
X299837D01*
Y29998D01*
X301304D01*
Y29160D01*
X300465D01*
Y28531D01*
X301304D01*
Y27064D01*
X301933D01*
Y24339D01*
X302771D01*
Y27064D01*
X301933D01*
Y28531D01*
X302771D01*
Y27064D01*
X303400D01*
Y24968D01*
X304238D01*
Y24339D01*
X304657D01*
Y24968D01*
X304238D01*
Y26226D01*
X304657D01*
Y27693D01*
X304238D01*
Y28531D01*
X303400D01*
Y29160D01*
X304238D01*
Y28531D01*
X304657D01*
Y27902D01*
Y27693D01*
X305496D01*
Y25806D01*
X306124D01*
Y24968D01*
X306753D01*
Y25806D01*
X306124D01*
Y28531D01*
X304657D01*
Y29160D01*
X306124D01*
Y28531D01*
X306753D01*
Y27693D01*
X307592D01*
Y28531D01*
X306753D01*
Y29160D01*
X306124D01*
Y29998D01*
X305496D01*
Y30627D01*
X306124D01*
Y29998D01*
X306753D01*
Y29160D01*
X307592D01*
Y28531D01*
X308220D01*
Y29160D01*
X307592D01*
Y29789D01*
Y29998D01*
X306753D01*
Y30208D01*
Y30627D01*
X306124D01*
Y30837D01*
Y31046D01*
Y31256D01*
X305496D01*
Y31885D01*
X306124D01*
Y31675D01*
Y31466D01*
Y31256D01*
X306753D01*
Y30627D01*
X307592D01*
Y29998D01*
X308220D01*
Y29160D01*
X309059D01*
Y29998D01*
X308220D01*
Y30627D01*
X307592D01*
Y31256D01*
X306753D01*
Y31885D01*
X307592D01*
Y31466D01*
Y31256D01*
X308220D01*
Y30627D01*
X309059D01*
Y29998D01*
X309478D01*
Y29160D01*
X310316D01*
Y28531D01*
X310945D01*
Y29160D01*
X310316D01*
Y29998D01*
X309478D01*
Y30627D01*
X309059D01*
Y32514D01*
X309478D01*
Y31466D01*
Y31256D01*
Y30627D01*
X310316D01*
Y29998D01*
X310945D01*
Y29160D01*
X311574D01*
Y29998D01*
X310945D01*
Y30208D01*
Y30418D01*
Y30627D01*
X310316D01*
Y31885D01*
X310945D01*
Y31046D01*
Y30837D01*
Y30627D01*
X311574D01*
Y29998D01*
X313879D01*
Y27064D01*
X314299D01*
Y28531D01*
X315137D01*
Y25806D01*
X315766D01*
Y24968D01*
X315137D01*
Y24339D01*
X315766D01*
Y23711D01*
X315137D01*
Y24339D01*
X314299D01*
Y22872D01*
X315137D01*
Y22243D01*
X313879D01*
Y20986D01*
X313041D01*
Y19519D01*
X312412D01*
Y18052D01*
X311574D01*
Y17423D01*
X310945D01*
Y16584D01*
X308220D01*
Y16165D01*
X307592D01*
Y16584D01*
X306753D01*
Y16165D01*
X305496D01*
Y16584D01*
X304657D01*
Y16165D01*
X304238D01*
Y16584D01*
X303400D01*
Y16165D01*
X302771D01*
Y16584D01*
X299837D01*
Y17423D01*
X297950D01*
Y18680D01*
X297112D01*
Y18052D01*
X296483D01*
Y18680D01*
X295645D01*
Y20147D01*
X295016D01*
Y21405D01*
X294178D01*
Y22034D01*
Y22243D01*
Y24339D01*
X295016D01*
Y21405D01*
X295645D01*
Y21195D01*
Y20986D01*
Y20147D01*
X296483D01*
Y21405D01*
X295645D01*
Y24339D01*
X295016D01*
Y24968D01*
X294178D01*
Y25806D01*
X295016D01*
Y24968D01*
X295645D01*
Y24339D01*
X296483D01*
Y21405D01*
X297112D01*
Y24339D01*
X296483D01*
Y24968D01*
X297112D01*
Y26226D01*
X296483D01*
Y27064D01*
X295645D01*
Y28531D01*
X295016D01*
Y30627D01*
X295645D01*
Y31256D01*
X296483D01*
Y27064D01*
X297112D01*
Y26226D01*
X297950D01*
Y23711D01*
X298579D01*
Y27693D01*
X299208D01*
Y24339D01*
X299837D01*
Y23711D01*
X300465D01*
Y24339D01*
X299837D01*
Y26435D01*
Y26645D01*
Y27064D01*
X300465D01*
Y24339D01*
X301304D01*
Y27064D01*
X300465D01*
Y27693D01*
Y27902D01*
Y28531D01*
X299837D01*
Y29160D01*
X298579D01*
Y29998D01*
X297950D01*
Y30627D01*
X298579D01*
Y31885D01*
X300465D01*
Y32514D01*
X301304D01*
Y33981D01*
X300465D01*
Y34819D01*
X299208D01*
Y35448D01*
X298579D01*
Y33981D01*
X296483D01*
Y35448D01*
X295645D01*
Y33981D01*
X295016D01*
Y33352D01*
X294178D01*
Y33981D01*
X293758D01*
Y35448D01*
X293129D01*
Y36077D01*
X293758D01*
Y36705D01*
X292291D01*
Y36077D01*
X291662D01*
Y36705D01*
X290824D01*
Y38173D01*
X291662D01*
Y38802D01*
X290824D01*
Y41107D01*
X291662D01*
Y42155D01*
X292291D01*
Y43622D01*
X291662D01*
Y44461D01*
X292291D01*
Y45089D01*
X290824D01*
Y47814D01*
X290195D01*
Y48443D01*
X290824D01*
Y47814D01*
X291662D01*
Y48443D01*
X290824D01*
Y49281D01*
X291662D01*
Y48443D01*
X293129D01*
Y49910D01*
X293758D01*
Y51796D01*
X294178D01*
Y52635D01*
X293758D01*
Y53264D01*
X294178D01*
Y52635D01*
X295645D01*
Y53264D01*
X294178D01*
Y54102D01*
X295016D01*
Y54731D01*
X295645D01*
Y54102D01*
X297112D01*
Y54731D01*
X297950D01*
Y53264D01*
X299208D01*
Y52635D01*
X297950D01*
Y51796D01*
X299837D01*
Y50748D01*
X300465D01*
Y51377D01*
X301304D01*
Y51796D01*
X299837D01*
Y54102D01*
X300465D01*
Y55569D01*
X299837D01*
Y56198D01*
X299208D01*
Y57455D01*
X298579D01*
Y60390D01*
X297950D01*
Y61019D01*
X297112D01*
Y61857D01*
X296483D01*
Y62276D01*
X295645D01*
Y62905D01*
X295016D01*
Y64372D01*
X294178D01*
Y65211D01*
X293758D01*
Y67097D01*
X293129D01*
Y67516D01*
Y67726D01*
X292291D01*
Y68564D01*
X291662D01*
Y70031D01*
X290824D01*
Y68564D01*
X291662D01*
Y67726D01*
X290824D01*
Y67097D01*
X290195D01*
Y68564D01*
X289357D01*
Y67097D01*
X290195D01*
Y66678D01*
X290824D01*
Y65839D01*
X291662D01*
Y65211D01*
X292291D01*
Y64372D01*
X293129D01*
Y61857D01*
X293758D01*
Y61019D01*
X294178D01*
Y60390D01*
X295016D01*
Y60180D01*
Y59971D01*
Y57455D01*
X295645D01*
Y57036D01*
X295016D01*
Y57455D01*
X294178D01*
Y60390D01*
X293758D01*
Y60809D01*
Y61019D01*
X293129D01*
Y61647D01*
Y61857D01*
X292291D01*
Y62905D01*
X291662D01*
Y63324D01*
Y63534D01*
Y63743D01*
X290824D01*
Y64372D01*
X290195D01*
Y65211D01*
X289357D01*
Y65839D01*
X290195D01*
Y65211D01*
X290824D01*
Y65001D01*
Y64372D01*
X291662D01*
Y64163D01*
Y63953D01*
Y63743D01*
X292291D01*
Y64372D01*
X291662D01*
Y64791D01*
Y65001D01*
Y65211D01*
X290824D01*
Y65839D01*
X290195D01*
Y66678D01*
X289357D01*
Y67097D01*
X288938D01*
Y65839D01*
X288309D01*
Y67726D01*
X287470D01*
Y67097D01*
X286842D01*
Y67726D01*
X286003D01*
Y66678D01*
X286842D01*
Y65839D01*
X287470D01*
Y65211D01*
X286842D01*
Y65839D01*
X286003D01*
Y66678D01*
X285374D01*
Y65839D01*
X286003D01*
Y65211D01*
X286842D01*
Y64372D01*
X286003D01*
Y65211D01*
X285374D01*
Y64372D01*
X286003D01*
Y63743D01*
X284536D01*
Y62905D01*
X285374D01*
Y62695D01*
Y62276D01*
X284536D01*
Y62905D01*
X283907D01*
Y63743D01*
X282650D01*
Y62905D01*
X283907D01*
Y61857D01*
X284536D01*
Y61647D01*
Y61019D01*
X283907D01*
Y61857D01*
X283488D01*
Y62276D01*
X282650D01*
Y61857D01*
X283488D01*
Y61228D01*
Y61019D01*
X282650D01*
Y61857D01*
X282021D01*
Y62905D01*
X281183D01*
Y63743D01*
X280554D01*
Y65211D01*
X279715D01*
Y65839D01*
X279087D01*
Y67097D01*
X278667D01*
Y65839D01*
X279087D01*
Y65211D01*
X279715D01*
Y63743D01*
X280554D01*
Y63534D01*
Y62905D01*
X281183D01*
Y62276D01*
Y62067D01*
Y61857D01*
X282021D01*
Y61647D01*
Y61019D01*
X281183D01*
Y61857D01*
X280554D01*
Y62905D01*
X279715D01*
Y63743D01*
X279087D01*
Y65211D01*
X278667D01*
Y65420D01*
Y65839D01*
X277829D01*
Y67097D01*
X277200D01*
Y67726D01*
X277829D01*
Y69193D01*
X279715D01*
Y70660D01*
X280554D01*
Y70031D01*
X281183D01*
Y70660D01*
X282021D01*
Y72127D01*
X283488D01*
Y72546D01*
X283907D01*
Y73385D01*
X285374D01*
Y74852D01*
X286003D01*
Y75481D01*
X286842D01*
Y76319D01*
X288309D01*
Y76948D01*
X288938D01*
Y77577D01*
X289357D01*
Y78206D01*
X290195D01*
Y77577D01*
X290824D01*
Y78834D01*
X291662D01*
Y78206D01*
X292291D01*
Y78834D01*
X293129D01*
Y76948D01*
D02*
G37*
G36*
X305496Y71499D02*
D01*
D01*
D01*
D01*
D02*
G37*
G36*
X291662Y68564D02*
D01*
D01*
D01*
D01*
D02*
G37*
G36*
X302771Y66678D02*
X301933D01*
Y67097D01*
X302771D01*
Y66678D01*
D02*
G37*
G36*
X315137Y63743D02*
X317233D01*
Y62905D01*
X319329D01*
Y61857D01*
X319958D01*
Y62276D01*
X322054D01*
Y61857D01*
X322682D01*
Y59552D01*
X323521D01*
Y57036D01*
X322682D01*
Y56198D01*
X323521D01*
Y54731D01*
X322682D01*
Y55779D01*
Y55988D01*
Y56198D01*
X322054D01*
Y57036D01*
X321425D01*
Y56198D01*
X322054D01*
Y54731D01*
X322682D01*
Y54521D01*
Y54102D01*
X322054D01*
Y54731D01*
X321425D01*
Y55988D01*
Y56198D01*
X319329D01*
Y57036D01*
X318700D01*
Y56198D01*
X317862D01*
Y57455D01*
X317233D01*
Y57036D01*
X316604D01*
Y56198D01*
X315766D01*
Y57036D01*
X315137D01*
Y56198D01*
X313879D01*
Y57455D01*
X313041D01*
Y56198D01*
X313879D01*
Y55569D01*
X313041D01*
Y56198D01*
X312412D01*
Y55569D01*
X310945D01*
Y56198D01*
X310316D01*
Y55569D01*
X310945D01*
Y54102D01*
X310316D01*
Y55569D01*
X309478D01*
Y54731D01*
Y54521D01*
Y54102D01*
X309059D01*
Y54731D01*
X307592D01*
Y55569D01*
X309059D01*
Y56198D01*
X308220D01*
Y57455D01*
X307592D01*
Y58084D01*
X308220D01*
Y57875D01*
Y57665D01*
Y57455D01*
X309059D01*
Y56407D01*
Y56198D01*
X309478D01*
Y57455D01*
X309059D01*
Y59552D01*
X308220D01*
Y60390D01*
X309059D01*
Y59552D01*
X309478D01*
Y60390D01*
X309059D01*
Y61647D01*
Y61857D01*
X308220D01*
Y62276D01*
X309059D01*
Y61857D01*
X309478D01*
Y60390D01*
X310316D01*
Y61857D01*
X309478D01*
Y62276D01*
X309059D01*
Y62486D01*
Y62695D01*
Y62905D01*
X309478D01*
Y62276D01*
X310316D01*
Y61857D01*
X310945D01*
Y62276D01*
X310316D01*
Y63743D01*
X311574D01*
Y64372D01*
X312412D01*
Y63743D01*
X313041D01*
Y64372D01*
X313879D01*
Y63743D01*
X314299D01*
Y64372D01*
X315137D01*
Y63743D01*
D02*
G37*
G36*
X283907Y62905D02*
D01*
D01*
D01*
D01*
D02*
G37*
G36*
X308220Y61647D02*
Y61019D01*
X307592D01*
Y61857D01*
X308220D01*
Y61647D01*
D02*
G37*
G36*
X306753Y61228D02*
Y61019D01*
X306124D01*
Y61857D01*
X306753D01*
Y61228D01*
D02*
G37*
G36*
X287470Y60390D02*
X286842D01*
Y60599D01*
Y61019D01*
X287470D01*
Y60390D01*
D02*
G37*
G36*
X277200Y65839D02*
X277829D01*
Y65211D01*
X278667D01*
Y63743D01*
X279087D01*
Y62905D01*
X279715D01*
Y61857D01*
X280554D01*
Y60390D01*
X279715D01*
Y60599D01*
Y60809D01*
Y61857D01*
X279087D01*
Y62905D01*
X278667D01*
Y63115D01*
Y63743D01*
X277829D01*
Y63953D01*
Y65211D01*
X277200D01*
Y65420D01*
Y65630D01*
Y65839D01*
X276362D01*
Y67097D01*
X277200D01*
Y65839D01*
D02*
G37*
G36*
X276362Y64372D02*
X277200D01*
Y64163D01*
Y63743D01*
X277829D01*
Y62905D01*
X278667D01*
Y62695D01*
Y62486D01*
Y61857D01*
X279087D01*
Y60390D01*
X278667D01*
Y61857D01*
X277829D01*
Y62905D01*
X277200D01*
Y63743D01*
X276362D01*
Y64372D01*
X275733D01*
Y64582D01*
Y65839D01*
X276362D01*
Y64372D01*
D02*
G37*
G36*
Y63115D02*
Y62905D01*
X277200D01*
Y62067D01*
Y61857D01*
X277829D01*
Y60390D01*
X278667D01*
Y59552D01*
X277829D01*
Y60390D01*
X277200D01*
Y61857D01*
X276362D01*
Y62905D01*
X275733D01*
Y63743D01*
X276362D01*
Y63115D01*
D02*
G37*
G36*
X274895Y60390D02*
X275733D01*
Y59552D01*
X274895D01*
Y60390D01*
X274266D01*
Y61019D01*
X274895D01*
Y60390D01*
D02*
G37*
G36*
X308220Y58923D02*
X307592D01*
Y59552D01*
X308220D01*
Y58923D01*
D02*
G37*
G36*
X288309D02*
X287470D01*
Y59342D01*
Y59552D01*
X288309D01*
Y58923D01*
D02*
G37*
G36*
Y63534D02*
Y62905D01*
X288938D01*
Y61857D01*
X289357D01*
Y61019D01*
X290195D01*
Y60390D01*
X290824D01*
Y58084D01*
X290195D01*
Y59552D01*
Y59761D01*
Y60390D01*
X289357D01*
Y61019D01*
X288938D01*
Y61228D01*
Y61857D01*
X288309D01*
Y62905D01*
X287470D01*
Y63743D01*
X288309D01*
Y63534D01*
D02*
G37*
G36*
X286842Y58084D02*
X286003D01*
Y58923D01*
X286842D01*
Y58084D01*
D02*
G37*
G36*
X283907Y59552D02*
X283488D01*
Y58923D01*
X283907D01*
Y58084D01*
X284536D01*
Y56198D01*
X285374D01*
Y53264D01*
X286003D01*
Y52635D01*
X286842D01*
Y51796D01*
X287470D01*
Y50748D01*
X288309D01*
Y49281D01*
X287470D01*
Y50748D01*
X286842D01*
Y51796D01*
X286003D01*
Y52425D01*
Y52635D01*
X285374D01*
Y53264D01*
X284536D01*
Y52635D01*
X285374D01*
Y51796D01*
X286003D01*
Y51377D01*
Y51168D01*
Y49910D01*
X286842D01*
Y49491D01*
Y49281D01*
X287470D01*
Y48443D01*
X288938D01*
Y47814D01*
X289357D01*
Y46976D01*
X288938D01*
Y46556D01*
X289357D01*
Y45928D01*
X290195D01*
Y42993D01*
X288938D01*
Y42155D01*
X288309D01*
Y41736D01*
X288938D01*
Y39640D01*
X289357D01*
Y38173D01*
X288938D01*
Y36705D01*
X289357D01*
Y36077D01*
X290195D01*
Y35448D01*
X290824D01*
Y34819D01*
X290195D01*
Y33981D01*
X291662D01*
Y33352D01*
X290195D01*
Y33981D01*
X289357D01*
Y33352D01*
X288938D01*
Y34819D01*
X287470D01*
Y35448D01*
X286003D01*
Y36077D01*
X288309D01*
Y36705D01*
X286842D01*
Y38173D01*
X285374D01*
Y38802D01*
X286003D01*
Y39640D01*
X286842D01*
Y41736D01*
X285374D01*
Y42993D01*
X286842D01*
Y43622D01*
X286003D01*
Y44461D01*
X286842D01*
Y46556D01*
X286003D01*
Y48443D01*
X286842D01*
Y49281D01*
X286003D01*
Y49910D01*
X285374D01*
Y51796D01*
X284536D01*
Y52635D01*
X283907D01*
Y54102D01*
X283488D01*
Y52635D01*
X283907D01*
Y51796D01*
X284536D01*
Y50329D01*
Y50120D01*
Y49910D01*
X285374D01*
Y48443D01*
X284536D01*
Y49491D01*
Y49700D01*
Y49910D01*
X283907D01*
Y51796D01*
X283488D01*
Y52635D01*
X282650D01*
Y51796D01*
X283488D01*
Y50329D01*
Y50120D01*
Y49910D01*
X283907D01*
Y49281D01*
X283488D01*
Y49491D01*
Y49700D01*
Y49910D01*
X282650D01*
Y51796D01*
X282021D01*
Y53264D01*
X281183D01*
Y54521D01*
Y54731D01*
X280554D01*
Y56198D01*
X279715D01*
Y57455D01*
X279087D01*
Y58084D01*
X278667D01*
Y58923D01*
X279087D01*
Y58084D01*
X279715D01*
Y59552D01*
X280554D01*
Y58923D01*
X281183D01*
Y58084D01*
X282021D01*
Y58923D01*
X281183D01*
Y59552D01*
X282650D01*
Y60390D01*
X283907D01*
Y59552D01*
D02*
G37*
G36*
X288938Y57455D02*
X288309D01*
Y58084D01*
X288938D01*
Y57455D01*
D02*
G37*
G36*
X274895Y58923D02*
X275733D01*
Y57455D01*
X274895D01*
Y58084D01*
Y58294D01*
Y58923D01*
X274266D01*
Y59552D01*
X274895D01*
Y58923D01*
D02*
G37*
G36*
X291662Y57036D02*
X292291D01*
Y56198D01*
X291662D01*
Y57036D01*
X290824D01*
Y57455D01*
X291662D01*
Y57036D01*
D02*
G37*
G36*
X289357Y65001D02*
Y64791D01*
Y64372D01*
X290195D01*
Y63953D01*
Y63743D01*
X290824D01*
Y62905D01*
X291662D01*
Y61857D01*
X292291D01*
Y61019D01*
X293129D01*
Y60390D01*
X293758D01*
Y57455D01*
X294178D01*
Y57036D01*
X295016D01*
Y55569D01*
X294178D01*
Y57036D01*
X293758D01*
Y57246D01*
Y57455D01*
X293129D01*
Y57665D01*
Y60390D01*
X292291D01*
Y60809D01*
Y61019D01*
X291662D01*
Y61228D01*
Y61438D01*
Y61857D01*
X290824D01*
Y62905D01*
X290195D01*
Y63743D01*
X289357D01*
Y64372D01*
X288938D01*
Y65211D01*
X289357D01*
Y65001D01*
D02*
G37*
G36*
X287470Y62067D02*
Y61857D01*
X288309D01*
Y61438D01*
Y61228D01*
Y61019D01*
X288938D01*
Y60390D01*
X289357D01*
Y58713D01*
Y58504D01*
Y58084D01*
X290195D01*
Y57036D01*
X290824D01*
Y56198D01*
X291662D01*
Y55569D01*
X290824D01*
Y55988D01*
Y56198D01*
X290195D01*
Y57036D01*
X289357D01*
Y58084D01*
X288938D01*
Y60390D01*
X288309D01*
Y61019D01*
X287470D01*
Y61857D01*
X286842D01*
Y62276D01*
X287470D01*
Y62067D01*
D02*
G37*
G36*
X271541Y56198D02*
X272379D01*
Y55569D01*
X271541D01*
Y56198D01*
X270912D01*
Y57036D01*
X271541D01*
Y56198D01*
D02*
G37*
G36*
X270074D02*
X270912D01*
Y55150D01*
Y54940D01*
Y54102D01*
X271541D01*
Y53264D01*
X272379D01*
Y52635D01*
X271541D01*
Y52844D01*
Y53054D01*
Y53264D01*
X270912D01*
Y54102D01*
X270074D01*
Y54731D01*
X269445D01*
Y55569D01*
X268607D01*
Y54731D01*
X269445D01*
Y54102D01*
X270074D01*
Y53264D01*
X270912D01*
Y52635D01*
X271541D01*
Y51796D01*
X272379D01*
Y51377D01*
X271541D01*
Y51796D01*
X270912D01*
Y52635D01*
X270074D01*
Y53264D01*
X269445D01*
Y54102D01*
X268607D01*
Y53264D01*
X269445D01*
Y52635D01*
X270074D01*
Y51796D01*
X270912D01*
Y50748D01*
X271541D01*
Y49910D01*
X270912D01*
Y50748D01*
X270074D01*
Y51796D01*
X269445D01*
Y52006D01*
Y52635D01*
X268607D01*
Y53264D01*
X268188D01*
Y54102D01*
X267559D01*
Y53264D01*
X268188D01*
Y52635D01*
X268607D01*
Y51796D01*
X269445D01*
Y50748D01*
X268607D01*
Y51796D01*
X268188D01*
Y50748D01*
X268607D01*
Y50539D01*
Y49281D01*
X268188D01*
Y50748D01*
X267559D01*
Y53264D01*
X266720D01*
Y50748D01*
X267559D01*
Y49281D01*
X268188D01*
Y48443D01*
X267559D01*
Y49281D01*
X266720D01*
Y50748D01*
X266092D01*
Y51377D01*
X265253D01*
Y51796D01*
X264624D01*
Y51377D01*
X265253D01*
Y50748D01*
X266092D01*
Y49281D01*
X266720D01*
Y48443D01*
X266092D01*
Y49281D01*
X265253D01*
Y50120D01*
Y50329D01*
Y50748D01*
X264624D01*
Y51377D01*
X263786D01*
Y50748D01*
X264624D01*
Y49700D01*
Y49491D01*
Y49281D01*
X265253D01*
Y48443D01*
X266092D01*
Y48024D01*
Y47814D01*
X266720D01*
Y47605D01*
Y46976D01*
X266092D01*
Y47814D01*
X265253D01*
Y48443D01*
X264624D01*
Y48862D01*
Y49072D01*
Y49281D01*
X263367D01*
Y49910D01*
X262738D01*
Y49281D01*
X263367D01*
Y48443D01*
X264624D01*
Y47814D01*
X265253D01*
Y46556D01*
X266092D01*
Y46137D01*
Y45928D01*
X265253D01*
Y46556D01*
X264624D01*
Y46766D01*
Y47814D01*
X263367D01*
Y48233D01*
Y48443D01*
X261900D01*
Y47814D01*
X263367D01*
Y46976D01*
X263786D01*
Y46556D01*
X264624D01*
Y45928D01*
X263786D01*
Y46556D01*
X263367D01*
Y46976D01*
X262738D01*
Y46766D01*
Y46556D01*
X263367D01*
Y45928D01*
X262738D01*
Y46556D01*
X261900D01*
Y47814D01*
X261271D01*
Y46556D01*
X261900D01*
Y45928D01*
X262738D01*
Y45089D01*
X264624D01*
Y42993D01*
X263786D01*
Y44461D01*
X262738D01*
Y43622D01*
X263367D01*
Y42155D01*
X263786D01*
Y41736D01*
X263367D01*
Y41945D01*
Y42155D01*
X262738D01*
Y43622D01*
X261900D01*
Y42155D01*
X262738D01*
Y40269D01*
X263367D01*
Y38173D01*
X262738D01*
Y38802D01*
Y39011D01*
Y40269D01*
X261900D01*
Y42155D01*
X261271D01*
Y42993D01*
X260433D01*
Y42155D01*
X261271D01*
Y41736D01*
X260433D01*
Y41107D01*
X261271D01*
Y40269D01*
X261900D01*
Y38173D01*
X262738D01*
Y36705D01*
X263367D01*
Y36077D01*
X263786D01*
Y35658D01*
Y35448D01*
X263367D01*
Y36077D01*
X262738D01*
Y36286D01*
Y36496D01*
Y36705D01*
X261900D01*
Y38173D01*
X261271D01*
Y40059D01*
Y40269D01*
X260433D01*
Y38173D01*
X261271D01*
Y36705D01*
X261900D01*
Y35448D01*
X261271D01*
Y36705D01*
X260433D01*
Y38173D01*
X259804D01*
Y39640D01*
X258965D01*
Y41107D01*
X258337D01*
Y41736D01*
X257708D01*
Y42993D01*
X257079D01*
Y44461D01*
X256450D01*
Y45928D01*
X255612D01*
Y47814D01*
X256450D01*
Y48443D01*
X257079D01*
Y49281D01*
X257708D01*
Y49910D01*
X258337D01*
Y50748D01*
X258965D01*
Y49910D01*
X259804D01*
Y50748D01*
X258965D01*
Y51377D01*
X259804D01*
Y50748D01*
X260433D01*
Y51377D01*
X259804D01*
Y51587D01*
Y51796D01*
X260433D01*
Y51377D01*
X261271D01*
Y51796D01*
X260433D01*
Y52635D01*
X261271D01*
Y54102D01*
X261900D01*
Y54731D01*
X263367D01*
Y55569D01*
X263786D01*
Y56198D01*
X264624D01*
Y55569D01*
X265253D01*
Y56198D01*
X268188D01*
Y57036D01*
X268607D01*
Y56198D01*
X269445D01*
Y55569D01*
X270074D01*
Y56198D01*
X269445D01*
Y57036D01*
X270074D01*
Y56198D01*
D02*
G37*
G36*
X293129Y66259D02*
Y66049D01*
Y65211D01*
X293758D01*
Y65001D01*
Y64791D01*
Y64372D01*
X294178D01*
Y62905D01*
X295016D01*
Y62276D01*
X295645D01*
Y61857D01*
X296483D01*
Y61019D01*
X297112D01*
Y60390D01*
X297950D01*
Y57455D01*
X298579D01*
Y56198D01*
X299208D01*
Y55569D01*
X299837D01*
Y54731D01*
X299208D01*
Y55569D01*
X298579D01*
Y56198D01*
X297950D01*
Y57455D01*
X297112D01*
Y60390D01*
X296483D01*
Y60809D01*
Y61019D01*
X295645D01*
Y61857D01*
X295016D01*
Y62067D01*
Y62276D01*
X294178D01*
Y61857D01*
X295016D01*
Y61019D01*
X295645D01*
Y60390D01*
X296483D01*
Y57455D01*
X297112D01*
Y56198D01*
X297950D01*
Y55569D01*
X298579D01*
Y54731D01*
X299208D01*
Y54102D01*
X298579D01*
Y54731D01*
X297950D01*
Y55569D01*
X297112D01*
Y56198D01*
X296483D01*
Y56827D01*
Y57036D01*
Y57455D01*
X295645D01*
Y60180D01*
Y60390D01*
X295016D01*
Y61019D01*
X294178D01*
Y61647D01*
Y61857D01*
X293758D01*
Y64372D01*
X293129D01*
Y65211D01*
X292291D01*
Y65839D01*
X291662D01*
Y66678D01*
X292291D01*
Y67097D01*
X293129D01*
Y66259D01*
D02*
G37*
G36*
X296483Y54731D02*
X295645D01*
Y56198D01*
X296483D01*
Y54731D01*
D02*
G37*
G36*
X288938Y63953D02*
Y63743D01*
X289357D01*
Y63534D01*
Y63324D01*
Y62905D01*
X290195D01*
Y62695D01*
Y61857D01*
X290824D01*
Y61019D01*
X291662D01*
Y60390D01*
X292291D01*
Y59342D01*
Y59132D01*
Y57455D01*
X293129D01*
Y57036D01*
X293758D01*
Y56827D01*
Y55569D01*
X294178D01*
Y54731D01*
X293758D01*
Y55360D01*
Y55569D01*
X293129D01*
Y57036D01*
X292291D01*
Y57455D01*
X291662D01*
Y60390D01*
X290824D01*
Y61019D01*
X290195D01*
Y61857D01*
X289357D01*
Y62905D01*
X288938D01*
Y63743D01*
X288309D01*
Y64372D01*
X288938D01*
Y63953D01*
D02*
G37*
G36*
X293129Y54731D02*
X293758D01*
Y54312D01*
Y54102D01*
X293129D01*
Y54731D01*
X292291D01*
Y55569D01*
X293129D01*
Y54731D01*
D02*
G37*
G36*
X292291Y54102D02*
X291662D01*
Y54521D01*
Y54731D01*
X292291D01*
Y54102D01*
D02*
G37*
G36*
X272379D02*
X271541D01*
Y54521D01*
Y54731D01*
X272379D01*
Y54102D01*
D02*
G37*
G36*
X309059Y53264D02*
X307592D01*
Y54102D01*
X309059D01*
Y53264D01*
D02*
G37*
G36*
X307592Y52635D02*
X306753D01*
Y53264D01*
X307592D01*
Y52635D01*
D02*
G37*
G36*
X293129D02*
X292291D01*
Y52844D01*
Y53054D01*
Y53264D01*
X293129D01*
Y52635D01*
D02*
G37*
G36*
X287470Y56198D02*
X288309D01*
Y53473D01*
Y53264D01*
X288938D01*
Y52635D01*
X288309D01*
Y53264D01*
X287470D01*
Y56198D01*
X286842D01*
Y57455D01*
X287470D01*
Y56198D01*
D02*
G37*
G36*
X320587Y51796D02*
D01*
D01*
D01*
D01*
D02*
G37*
G36*
X299837D02*
D01*
D01*
D01*
D01*
D02*
G37*
G36*
X324779Y60390D02*
X325407D01*
Y59552D01*
X326246D01*
Y58923D01*
X326874D01*
Y56198D01*
X327713D01*
Y55569D01*
X328342D01*
Y54731D01*
X328970D01*
Y53264D01*
X329809D01*
Y54731D01*
X328970D01*
Y55569D01*
X328342D01*
Y56198D01*
X327713D01*
Y58923D01*
X326874D01*
Y59552D01*
X326246D01*
Y60390D01*
X326874D01*
Y59552D01*
X327713D01*
Y58923D01*
X328342D01*
Y57036D01*
X328970D01*
Y58923D01*
X328342D01*
Y59342D01*
Y59552D01*
X328970D01*
Y58923D01*
X331066D01*
Y57455D01*
X331695D01*
Y58923D01*
X332534D01*
Y57455D01*
X333162D01*
Y58084D01*
X333791D01*
Y56198D01*
X334630D01*
Y57036D01*
X335049D01*
Y56198D01*
X335887D01*
Y54731D01*
X336516D01*
Y54102D01*
X337354D01*
Y53264D01*
X336516D01*
Y51796D01*
X335887D01*
Y50748D01*
X335049D01*
Y49281D01*
X335887D01*
Y48443D01*
X335049D01*
Y46976D01*
X334630D01*
Y46556D01*
X333791D01*
Y45928D01*
X333162D01*
Y44461D01*
X332534D01*
Y45089D01*
X331695D01*
Y44461D01*
X332534D01*
Y43622D01*
X331695D01*
Y43832D01*
Y44461D01*
X331066D01*
Y45928D01*
X330228D01*
Y44461D01*
X331066D01*
Y43622D01*
X331695D01*
Y42155D01*
X332534D01*
Y41736D01*
X331695D01*
Y42155D01*
X331066D01*
Y43413D01*
Y43622D01*
X330228D01*
Y44461D01*
X329809D01*
Y43622D01*
X330228D01*
Y42155D01*
X331066D01*
Y41736D01*
X331695D01*
Y41107D01*
X332534D01*
Y40269D01*
X331695D01*
Y41107D01*
X331066D01*
Y39640D01*
X331695D01*
Y39430D01*
Y39221D01*
Y38802D01*
X331066D01*
Y39640D01*
X330228D01*
Y42155D01*
X329809D01*
Y43622D01*
X328970D01*
Y45089D01*
X327713D01*
Y44461D01*
X328342D01*
Y43622D01*
X328970D01*
Y42155D01*
X329809D01*
Y39640D01*
X330228D01*
Y38802D01*
X331066D01*
Y37334D01*
X330228D01*
Y38802D01*
X329809D01*
Y39640D01*
X328970D01*
Y42155D01*
X328342D01*
Y43413D01*
Y43622D01*
X327713D01*
Y44461D01*
X326874D01*
Y45089D01*
X326246D01*
Y44461D01*
X326874D01*
Y43622D01*
X327713D01*
Y42155D01*
X328342D01*
Y41736D01*
X327713D01*
Y42155D01*
X326874D01*
Y43622D01*
X326246D01*
Y44461D01*
X325407D01*
Y43622D01*
X324779D01*
Y45089D01*
X325407D01*
Y46976D01*
X324779D01*
Y45928D01*
X324150D01*
Y43622D01*
X323521D01*
Y42993D01*
X322682D01*
Y42155D01*
X323521D01*
Y41736D01*
X322054D01*
Y41107D01*
X322682D01*
Y39640D01*
X322054D01*
Y41107D01*
X321425D01*
Y41736D01*
X320587D01*
Y41107D01*
X321425D01*
Y39640D01*
X322054D01*
Y38802D01*
X321425D01*
Y39640D01*
X320587D01*
Y38802D01*
X321425D01*
Y38173D01*
X320587D01*
Y38802D01*
X319329D01*
Y41107D01*
X318700D01*
Y41736D01*
X317862D01*
Y41107D01*
X318700D01*
Y39640D01*
X317862D01*
Y40269D01*
X317233D01*
Y41107D01*
X316604D01*
Y41736D01*
X315766D01*
Y41107D01*
X316604D01*
Y40269D01*
X315766D01*
Y41107D01*
X315137D01*
Y42993D01*
Y43203D01*
Y43622D01*
X314299D01*
Y45089D01*
X313879D01*
Y46976D01*
X313041D01*
Y49491D01*
Y49700D01*
Y49910D01*
X312412D01*
Y51377D01*
X311574D01*
Y54102D01*
X312412D01*
Y51796D01*
Y51587D01*
Y51377D01*
X313041D01*
Y50329D01*
Y50120D01*
Y49910D01*
X313879D01*
Y51377D01*
X313041D01*
Y54731D01*
X313879D01*
Y51796D01*
X314299D01*
Y50748D01*
X315137D01*
Y49910D01*
X315766D01*
Y50748D01*
X315137D01*
Y51796D01*
X314299D01*
Y55569D01*
X315137D01*
Y54102D01*
Y53892D01*
Y53264D01*
X315766D01*
Y52635D01*
X316604D01*
Y53264D01*
X315766D01*
Y55569D01*
X318700D01*
Y54731D01*
X319329D01*
Y53264D01*
X319958D01*
Y51796D01*
X320587D01*
Y51377D01*
X321425D01*
Y51796D01*
X320587D01*
Y53264D01*
X319958D01*
Y54731D01*
X319329D01*
Y55569D01*
X319958D01*
Y55360D01*
Y54731D01*
X320587D01*
Y53892D01*
Y53683D01*
Y53264D01*
X322682D01*
Y52635D01*
X322054D01*
Y51796D01*
X323521D01*
Y51377D01*
X324150D01*
Y50748D01*
X324779D01*
Y49281D01*
X325407D01*
Y48443D01*
X326246D01*
Y47814D01*
X326874D01*
Y49281D01*
X326246D01*
Y49910D01*
X326874D01*
Y50748D01*
X324779D01*
Y51377D01*
X324150D01*
Y51796D01*
X323521D01*
Y53264D01*
X324150D01*
Y52844D01*
Y52635D01*
Y51796D01*
X324779D01*
Y51377D01*
X325407D01*
Y51796D01*
X324779D01*
Y53264D01*
X324150D01*
Y55569D01*
X324779D01*
Y56198D01*
X324150D01*
Y57036D01*
X324779D01*
Y57455D01*
X324150D01*
Y58084D01*
X324779D01*
Y58923D01*
X324150D01*
Y59552D01*
X323521D01*
Y61019D01*
X324779D01*
Y60390D01*
D02*
G37*
G36*
X285374Y58084D02*
X286003D01*
Y56198D01*
X286842D01*
Y53892D01*
Y53683D01*
Y53264D01*
X287470D01*
Y53054D01*
Y52635D01*
X288309D01*
Y52425D01*
Y51796D01*
X288938D01*
Y51587D01*
Y51377D01*
X288309D01*
Y51796D01*
X287470D01*
Y52635D01*
X286842D01*
Y53264D01*
X286003D01*
Y56198D01*
X285374D01*
Y57875D01*
Y58084D01*
X284536D01*
Y58713D01*
Y58923D01*
Y60390D01*
X285374D01*
Y58084D01*
D02*
G37*
G36*
X309478Y51377D02*
X310316D01*
Y50748D01*
X309478D01*
Y51377D01*
X309059D01*
Y52006D01*
Y52216D01*
Y52635D01*
X309478D01*
Y51377D01*
D02*
G37*
G36*
X289357Y56198D02*
X290195D01*
Y55779D01*
Y55569D01*
Y54731D01*
X290824D01*
Y51796D01*
X291662D01*
Y49910D01*
X290195D01*
Y50748D01*
X289357D01*
Y52635D01*
X290195D01*
Y54731D01*
X289357D01*
Y56198D01*
X288938D01*
Y57036D01*
X289357D01*
Y56198D01*
D02*
G37*
G36*
X297950Y49910D02*
X298579D01*
Y49281D01*
X297950D01*
Y49700D01*
Y49910D01*
X297112D01*
Y50748D01*
X297950D01*
Y49910D01*
D02*
G37*
G36*
X289357D02*
X290195D01*
Y49281D01*
X289357D01*
Y49910D01*
X288938D01*
Y50748D01*
X289357D01*
Y49910D01*
D02*
G37*
G36*
X270074Y49281D02*
X269445D01*
Y49910D01*
X270074D01*
Y49281D01*
D02*
G37*
G36*
X301933Y48443D02*
X301304D01*
Y48652D01*
Y49281D01*
X301933D01*
Y48443D01*
D02*
G37*
G36*
X289357D02*
X288938D01*
Y49281D01*
X289357D01*
Y48443D01*
D02*
G37*
G36*
X275733Y61857D02*
X276362D01*
Y61228D01*
Y61019D01*
Y60390D01*
X277200D01*
Y59971D01*
Y59761D01*
Y58923D01*
X277829D01*
Y58294D01*
Y58084D01*
X278667D01*
Y57455D01*
X279087D01*
Y56198D01*
X279715D01*
Y54731D01*
X280554D01*
Y53264D01*
X281183D01*
Y51796D01*
X282021D01*
Y49910D01*
X282650D01*
Y49281D01*
X283488D01*
Y48443D01*
X282650D01*
Y49281D01*
X282021D01*
Y49910D01*
X281183D01*
Y50748D01*
Y50958D01*
Y51796D01*
X280554D01*
Y52635D01*
X279715D01*
Y54731D01*
X279087D01*
Y52635D01*
X279715D01*
Y51796D01*
X280554D01*
Y50958D01*
Y50748D01*
Y49910D01*
X281183D01*
Y49281D01*
X282021D01*
Y48443D01*
X281183D01*
Y49281D01*
X280554D01*
Y49491D01*
Y49910D01*
X279715D01*
Y51796D01*
X279087D01*
Y49910D01*
X279715D01*
Y49281D01*
X280554D01*
Y48443D01*
X281183D01*
Y47814D01*
X282021D01*
Y47395D01*
Y47185D01*
Y46556D01*
X282650D01*
Y45928D01*
X282021D01*
Y46137D01*
Y46347D01*
Y46556D01*
X281183D01*
Y47814D01*
X280554D01*
Y48443D01*
X279715D01*
Y49281D01*
X279087D01*
Y49910D01*
X278667D01*
Y53264D01*
X277829D01*
Y49910D01*
X278667D01*
Y49281D01*
X279087D01*
Y48443D01*
X279715D01*
Y48024D01*
Y47814D01*
X280554D01*
Y46556D01*
X281183D01*
Y42155D01*
X282021D01*
Y41736D01*
X281183D01*
Y42155D01*
X280554D01*
Y46556D01*
X279715D01*
Y47814D01*
X279087D01*
Y48443D01*
X278667D01*
Y49281D01*
X277829D01*
Y49910D01*
X277200D01*
Y49281D01*
X277829D01*
Y48443D01*
X278667D01*
Y47814D01*
X279087D01*
Y46556D01*
X279715D01*
Y42155D01*
X280554D01*
Y41107D01*
X281183D01*
Y40269D01*
X280554D01*
Y40478D01*
Y41107D01*
X279715D01*
Y41317D01*
Y42155D01*
X279087D01*
Y45928D01*
Y46137D01*
Y46556D01*
X278667D01*
Y47185D01*
Y47395D01*
Y47814D01*
X277829D01*
Y48024D01*
Y48443D01*
X276362D01*
Y47814D01*
X277829D01*
Y46556D01*
X278667D01*
Y42155D01*
X279087D01*
Y41736D01*
Y41526D01*
Y41107D01*
X279715D01*
Y40269D01*
X280554D01*
Y39849D01*
Y39640D01*
X279715D01*
Y40269D01*
X279087D01*
Y41107D01*
X278667D01*
Y42155D01*
X277829D01*
Y42993D01*
X277200D01*
Y42155D01*
X277829D01*
Y41107D01*
X278667D01*
Y40269D01*
X279087D01*
Y40059D01*
Y39640D01*
X279715D01*
Y38802D01*
X279087D01*
Y39011D01*
Y39640D01*
X278667D01*
Y40269D01*
X277829D01*
Y39640D01*
X278667D01*
Y38802D01*
X279087D01*
Y38592D01*
Y38173D01*
X279715D01*
Y36077D01*
X279087D01*
Y35448D01*
X279715D01*
Y34819D01*
X279087D01*
Y35448D01*
X278667D01*
Y33981D01*
X277829D01*
Y33352D01*
X276362D01*
Y32514D01*
X277200D01*
Y31885D01*
X275733D01*
Y31256D01*
X276362D01*
Y30627D01*
X274895D01*
Y29998D01*
X273428D01*
Y30627D01*
X274266D01*
Y31256D01*
X273008D01*
Y31885D01*
X273428D01*
Y32514D01*
X273008D01*
Y33981D01*
X272379D01*
Y35448D01*
X271541D01*
Y36705D01*
X270912D01*
Y38173D01*
X270074D01*
Y38802D01*
X269445D01*
Y39640D01*
X268607D01*
Y41107D01*
X267559D01*
Y42155D01*
X266720D01*
Y43622D01*
X267559D01*
Y42993D01*
X268188D01*
Y44461D01*
X268607D01*
Y45089D01*
X269445D01*
Y45928D01*
X270074D01*
Y43622D01*
X270912D01*
Y45718D01*
Y45928D01*
X271541D01*
Y42993D01*
X272379D01*
Y42574D01*
Y42365D01*
Y42155D01*
X273008D01*
Y41736D01*
X272379D01*
Y41945D01*
Y42155D01*
X271541D01*
Y42993D01*
X270912D01*
Y42155D01*
X271541D01*
Y41736D01*
X272379D01*
Y41107D01*
X273428D01*
Y39640D01*
X275733D01*
Y38802D01*
X277200D01*
Y38173D01*
X278667D01*
Y36705D01*
X279087D01*
Y38173D01*
X278667D01*
Y38802D01*
X277829D01*
Y39640D01*
X277200D01*
Y41107D01*
X276362D01*
Y42155D01*
X275733D01*
Y43622D01*
X274895D01*
Y42155D01*
X275733D01*
Y41107D01*
X276362D01*
Y40269D01*
X275733D01*
Y40478D01*
Y41107D01*
X274895D01*
Y41736D01*
Y41945D01*
Y42155D01*
X274266D01*
Y43622D01*
X273428D01*
Y44461D01*
X274266D01*
Y45089D01*
X273008D01*
Y45928D01*
X273428D01*
Y46556D01*
X273008D01*
Y48443D01*
X273428D01*
Y49281D01*
X273008D01*
Y49910D01*
X272379D01*
Y50748D01*
X273008D01*
Y49910D01*
X273428D01*
Y50748D01*
X273008D01*
Y51377D01*
X273428D01*
Y51796D01*
X273008D01*
Y52635D01*
X273428D01*
Y54731D01*
X274266D01*
Y55569D01*
X275733D01*
Y57036D01*
X277200D01*
Y57455D01*
X277829D01*
Y58084D01*
X277200D01*
Y58923D01*
X276362D01*
Y60390D01*
X275733D01*
Y61857D01*
X274895D01*
Y62905D01*
X275733D01*
Y61857D01*
D02*
G37*
G36*
X284536Y47814D02*
X283907D01*
Y48443D01*
X284536D01*
Y47814D01*
D02*
G37*
G36*
X301304D02*
X301933D01*
Y46976D01*
X301304D01*
Y47185D01*
Y47395D01*
Y47814D01*
X300465D01*
Y48443D01*
X301304D01*
Y47814D01*
D02*
G37*
G36*
X283488Y46976D02*
X282650D01*
Y47814D01*
X283488D01*
Y46976D01*
D02*
G37*
G36*
X294178Y46556D02*
D01*
D01*
D01*
D01*
D02*
G37*
G36*
X310316Y45928D02*
X309478D01*
Y46556D01*
X310316D01*
Y45928D01*
D02*
G37*
G36*
X283907D02*
X283488D01*
Y46556D01*
X283907D01*
Y45928D01*
D02*
G37*
G36*
X309059Y50748D02*
X309478D01*
Y49281D01*
X310316D01*
Y49910D01*
X310945D01*
Y48443D01*
X309478D01*
Y46976D01*
X308220D01*
Y46556D01*
X309059D01*
Y45089D01*
X308220D01*
Y46347D01*
Y46556D01*
X306753D01*
Y46976D01*
X307592D01*
Y48443D01*
X308220D01*
Y48652D01*
Y48862D01*
Y49281D01*
X309059D01*
Y50748D01*
X308220D01*
Y50958D01*
Y51168D01*
Y51377D01*
X309059D01*
Y50748D01*
D02*
G37*
G36*
X304238Y44461D02*
X303400D01*
Y45089D01*
X304238D01*
Y44461D01*
D02*
G37*
G36*
X283488D02*
X282021D01*
Y45089D01*
X283488D01*
Y44461D01*
D02*
G37*
G36*
X310316Y43622D02*
X309478D01*
Y45089D01*
X310316D01*
Y43622D01*
D02*
G37*
G36*
X282650Y42993D02*
X282021D01*
Y43622D01*
X282650D01*
Y42993D01*
D02*
G37*
G36*
X273008D02*
X272379D01*
Y43413D01*
Y43622D01*
X273008D01*
Y42993D01*
D02*
G37*
G36*
X266092Y43413D02*
Y43203D01*
Y42993D01*
X265253D01*
Y43622D01*
X266092D01*
Y43413D01*
D02*
G37*
G36*
X311574Y43203D02*
Y42993D01*
Y42155D01*
X310945D01*
Y43622D01*
X311574D01*
Y43203D01*
D02*
G37*
G36*
X277829Y42155D02*
D01*
D01*
D01*
D01*
D02*
G37*
G36*
X261271D02*
D01*
D01*
D01*
D01*
D02*
G37*
G36*
X310945Y46976D02*
X311574D01*
Y45089D01*
X312412D01*
Y44041D01*
Y43832D01*
Y43622D01*
X313041D01*
Y43413D01*
Y41736D01*
X312412D01*
Y43622D01*
X311574D01*
Y45089D01*
X310945D01*
Y46556D01*
Y46766D01*
Y46976D01*
X310316D01*
Y47814D01*
X310945D01*
Y46976D01*
D02*
G37*
G36*
X304657Y41736D02*
X304238D01*
Y42365D01*
Y42574D01*
Y43622D01*
X304657D01*
Y41736D01*
D02*
G37*
G36*
X310945Y51377D02*
X311574D01*
Y49910D01*
X312412D01*
Y46976D01*
X313041D01*
Y45089D01*
X313879D01*
Y43622D01*
X314299D01*
Y43413D01*
Y41107D01*
X313879D01*
Y43622D01*
X313041D01*
Y45089D01*
X312412D01*
Y46556D01*
Y46766D01*
Y46976D01*
X311574D01*
Y47814D01*
Y48024D01*
Y49910D01*
X310945D01*
Y51168D01*
Y51377D01*
X310316D01*
Y52216D01*
Y52425D01*
Y53264D01*
X310945D01*
Y51377D01*
D02*
G37*
G36*
X321425Y41107D02*
D01*
D01*
D01*
D01*
D02*
G37*
G36*
X318700D02*
D01*
D01*
D01*
D01*
D02*
G37*
G36*
X282650Y40269D02*
X282021D01*
Y41107D01*
X282650D01*
Y40269D01*
D02*
G37*
G36*
X304238Y46766D02*
Y46556D01*
X304657D01*
Y45928D01*
X305496D01*
Y45089D01*
X306124D01*
Y43622D01*
X306753D01*
Y45089D01*
X306124D01*
Y46137D01*
Y46347D01*
Y46556D01*
X306753D01*
Y45089D01*
X307592D01*
Y42993D01*
X310316D01*
Y42155D01*
X310945D01*
Y41107D01*
X310316D01*
Y40688D01*
Y40478D01*
Y40269D01*
X309059D01*
Y39640D01*
X306753D01*
Y40269D01*
X308220D01*
Y41107D01*
X306753D01*
Y41736D01*
X306124D01*
Y41107D01*
X305496D01*
Y42993D01*
X306124D01*
Y43622D01*
X304657D01*
Y45089D01*
X304238D01*
Y46556D01*
X303400D01*
Y46976D01*
X304238D01*
Y46766D01*
D02*
G37*
G36*
X283907Y39849D02*
Y39640D01*
X283488D01*
Y40269D01*
X283907D01*
Y39849D01*
D02*
G37*
G36*
X326246Y42155D02*
X326874D01*
Y41736D01*
X327713D01*
Y41107D01*
X328342D01*
Y39640D01*
X328970D01*
Y38173D01*
X329809D01*
Y37334D01*
X328970D01*
Y37963D01*
Y38173D01*
X328342D01*
Y39640D01*
X327713D01*
Y38173D01*
X328342D01*
Y37334D01*
X328970D01*
Y36705D01*
X330228D01*
Y36077D01*
X328970D01*
Y36705D01*
X328342D01*
Y36077D01*
X328970D01*
Y35867D01*
Y35448D01*
X329809D01*
Y34819D01*
X328970D01*
Y35448D01*
X328342D01*
Y36077D01*
X327713D01*
Y36705D01*
X326874D01*
Y36077D01*
X327713D01*
Y35448D01*
X328342D01*
Y33981D01*
X328970D01*
Y33771D01*
Y33562D01*
Y33352D01*
X328342D01*
Y33981D01*
X327713D01*
Y34190D01*
Y34400D01*
Y35448D01*
X326874D01*
Y36077D01*
X326246D01*
Y37334D01*
X327713D01*
Y38173D01*
X325407D01*
Y38802D01*
X324779D01*
Y39640D01*
X324150D01*
Y40269D01*
X323521D01*
Y41107D01*
X324150D01*
Y40897D01*
Y40688D01*
Y40269D01*
X324779D01*
Y39640D01*
X325407D01*
Y39430D01*
Y39221D01*
Y38802D01*
X326874D01*
Y40269D01*
X326246D01*
Y40478D01*
Y41107D01*
X325407D01*
Y42155D01*
X324779D01*
Y41107D01*
X325407D01*
Y40269D01*
X326246D01*
Y39640D01*
X325407D01*
Y40269D01*
X324779D01*
Y40478D01*
Y41107D01*
X324150D01*
Y42993D01*
X326246D01*
Y42155D01*
D02*
G37*
G36*
X310316Y38802D02*
X309478D01*
Y39221D01*
Y39430D01*
Y39640D01*
X310316D01*
Y38802D01*
D02*
G37*
G36*
X282021Y39221D02*
Y39011D01*
Y38802D01*
X281183D01*
Y39640D01*
X282021D01*
Y39221D01*
D02*
G37*
G36*
X324150Y38173D02*
X323521D01*
Y38382D01*
Y39640D01*
X324150D01*
Y38173D01*
D02*
G37*
G36*
X311574D02*
X310945D01*
Y39640D01*
X311574D01*
Y38173D01*
D02*
G37*
G36*
X309478Y38382D02*
Y38173D01*
X309059D01*
Y38802D01*
X309478D01*
Y38382D01*
D02*
G37*
G36*
X283907D02*
Y38173D01*
X283488D01*
Y38802D01*
X283907D01*
Y38382D01*
D02*
G37*
G36*
X281183Y38173D02*
X280554D01*
Y38802D01*
X281183D01*
Y38173D01*
D02*
G37*
G36*
X315766Y39849D02*
Y39640D01*
X316604D01*
Y38592D01*
Y38382D01*
Y38173D01*
X317233D01*
Y39640D01*
X317862D01*
Y35448D01*
X318700D01*
Y38592D01*
Y38802D01*
X319329D01*
Y36705D01*
X320587D01*
Y36077D01*
X319329D01*
Y35448D01*
X320587D01*
Y33981D01*
X321425D01*
Y33352D01*
X320587D01*
Y32514D01*
X321425D01*
Y29998D01*
X322054D01*
Y29160D01*
X321425D01*
Y29998D01*
X320587D01*
Y29160D01*
X321425D01*
Y28531D01*
X322054D01*
Y27693D01*
X321425D01*
Y27064D01*
X322054D01*
Y25806D01*
X322682D01*
Y24968D01*
X323521D01*
Y25806D01*
X322682D01*
Y27693D01*
X323521D01*
Y28531D01*
X324150D01*
Y28741D01*
Y29160D01*
X325407D01*
Y28531D01*
X326246D01*
Y27064D01*
X326874D01*
Y25806D01*
X327713D01*
Y21405D01*
X326874D01*
Y22243D01*
X326246D01*
Y21405D01*
X326874D01*
Y20986D01*
X327713D01*
Y20776D01*
Y20567D01*
Y20147D01*
X326874D01*
Y20986D01*
X326246D01*
Y21405D01*
X325407D01*
Y22243D01*
X324779D01*
Y22872D01*
X324150D01*
Y22243D01*
X324779D01*
Y21615D01*
Y21405D01*
X325407D01*
Y20986D01*
X326246D01*
Y20147D01*
X326874D01*
Y19519D01*
X327713D01*
Y19309D01*
Y19099D01*
Y18680D01*
X328342D01*
Y17423D01*
X328970D01*
Y16584D01*
X328342D01*
Y17423D01*
X327713D01*
Y16584D01*
X328342D01*
Y16165D01*
X328970D01*
Y13860D01*
X323521D01*
Y13231D01*
X321425D01*
Y12602D01*
X318700D01*
Y11764D01*
X317862D01*
Y13231D01*
X317233D01*
Y16584D01*
X316604D01*
Y16794D01*
Y17423D01*
X315766D01*
Y18052D01*
X316604D01*
Y17423D01*
X317233D01*
Y16584D01*
X317862D01*
Y17423D01*
X317233D01*
Y18052D01*
X316604D01*
Y18471D01*
Y18680D01*
X317233D01*
Y18052D01*
X317862D01*
Y17423D01*
X318700D01*
Y18052D01*
X317862D01*
Y20147D01*
X318700D01*
Y18052D01*
X319329D01*
Y16584D01*
X319958D01*
Y18052D01*
X319329D01*
Y20147D01*
X319958D01*
Y19519D01*
Y19309D01*
Y18052D01*
X320587D01*
Y17423D01*
X321425D01*
Y16584D01*
X322054D01*
Y17423D01*
X321425D01*
Y18052D01*
X320587D01*
Y20147D01*
X319958D01*
Y20986D01*
X320587D01*
Y20357D01*
Y20147D01*
X321425D01*
Y18052D01*
X322054D01*
Y17423D01*
X322682D01*
Y18052D01*
X322054D01*
Y18261D01*
Y18471D01*
Y20147D01*
X321425D01*
Y20986D01*
X320587D01*
Y21405D01*
X321425D01*
Y20986D01*
X322054D01*
Y20567D01*
Y20357D01*
Y20147D01*
X322682D01*
Y18052D01*
X323521D01*
Y17423D01*
X324150D01*
Y16165D01*
X324779D01*
Y17423D01*
X324150D01*
Y18052D01*
X323521D01*
Y19309D01*
Y19519D01*
Y20147D01*
X322682D01*
Y20986D01*
X322054D01*
Y21405D01*
X321425D01*
Y22243D01*
X320587D01*
Y24339D01*
X319958D01*
Y24968D01*
X319329D01*
Y25806D01*
X318700D01*
Y26226D01*
X317862D01*
Y27064D01*
X316604D01*
Y27693D01*
X317862D01*
Y28531D01*
X315766D01*
Y29160D01*
X315137D01*
Y29998D01*
X314299D01*
Y31885D01*
X313879D01*
Y32514D01*
X313041D01*
Y31885D01*
X313879D01*
Y31256D01*
X313041D01*
Y31885D01*
X312412D01*
Y33352D01*
X311574D01*
Y33981D01*
X310945D01*
Y35448D01*
X310316D01*
Y36077D01*
X311574D01*
Y33981D01*
X312412D01*
Y33352D01*
X313041D01*
Y33981D01*
X312412D01*
Y36077D01*
X311574D01*
Y36496D01*
Y36705D01*
X310945D01*
Y37334D01*
X310316D01*
Y38173D01*
X310945D01*
Y37334D01*
X311574D01*
Y36705D01*
X312412D01*
Y36077D01*
X313041D01*
Y33981D01*
X313879D01*
Y32514D01*
X314299D01*
Y32304D01*
Y31885D01*
X315137D01*
Y32514D01*
X314299D01*
Y33981D01*
X313879D01*
Y36077D01*
X313041D01*
Y36705D01*
X312412D01*
Y37544D01*
Y37753D01*
Y40269D01*
X313041D01*
Y36705D01*
X313879D01*
Y36077D01*
X314299D01*
Y36705D01*
X313879D01*
Y36915D01*
Y37125D01*
Y38802D01*
X314299D01*
Y39640D01*
X313879D01*
Y40269D01*
X314299D01*
Y40059D01*
Y39640D01*
X315137D01*
Y38173D01*
X315766D01*
Y37334D01*
X316604D01*
Y38173D01*
X315766D01*
Y39640D01*
X315137D01*
Y40269D01*
X315766D01*
Y39849D01*
D02*
G37*
G36*
X325407Y37334D02*
Y37125D01*
Y36705D01*
X324779D01*
Y38173D01*
X325407D01*
Y37334D01*
D02*
G37*
G36*
X310316Y36705D02*
X309478D01*
Y37334D01*
X310316D01*
Y36705D01*
D02*
G37*
G36*
X282650D02*
X282021D01*
Y37334D01*
X282650D01*
Y36705D01*
D02*
G37*
G36*
X281183Y36286D02*
Y36077D01*
X280554D01*
Y37334D01*
X281183D01*
Y36286D01*
D02*
G37*
G36*
X264624Y36077D02*
X263786D01*
Y36705D01*
X264624D01*
Y36077D01*
D02*
G37*
G36*
X613463Y38082D02*
X613683D01*
Y37861D01*
X613794D01*
Y35544D01*
X614456D01*
Y35434D01*
X615007D01*
Y35324D01*
X615449D01*
Y35213D01*
X615669D01*
Y35103D01*
X615779D01*
Y34993D01*
X616000D01*
Y34882D01*
X616110D01*
Y34772D01*
X616221D01*
Y34662D01*
X616441D01*
Y34441D01*
X616552D01*
Y34331D01*
X616662D01*
Y34220D01*
X616772D01*
Y34110D01*
X616883D01*
Y33890D01*
X616993D01*
Y33669D01*
X617103D01*
Y33338D01*
X617214D01*
Y33007D01*
X617324D01*
Y31904D01*
X619861D01*
Y31683D01*
X619972D01*
Y30690D01*
X619861D01*
Y30580D01*
X619751D01*
Y30470D01*
X617324D01*
Y28925D01*
X619861D01*
Y28705D01*
X619972D01*
Y27712D01*
X619861D01*
Y27602D01*
X619751D01*
Y27491D01*
X617324D01*
Y25947D01*
X619861D01*
Y25726D01*
X619972D01*
Y24733D01*
X619861D01*
Y24623D01*
X619751D01*
Y24513D01*
X617324D01*
Y22968D01*
X619861D01*
Y22748D01*
X619972D01*
Y21755D01*
X619861D01*
Y21644D01*
X619751D01*
Y21534D01*
X617324D01*
Y19990D01*
X619861D01*
Y19769D01*
X619972D01*
Y18776D01*
X619861D01*
Y18666D01*
X619751D01*
Y18555D01*
X617324D01*
Y17563D01*
X617214D01*
Y17121D01*
X617103D01*
Y16790D01*
X616993D01*
Y16570D01*
X616883D01*
Y16349D01*
X616772D01*
Y16239D01*
X616662D01*
Y16128D01*
X616552D01*
Y16018D01*
X616441D01*
Y15908D01*
X616331D01*
Y15798D01*
X616221D01*
Y15687D01*
X616110D01*
Y15577D01*
X616000D01*
Y15467D01*
X615779D01*
Y15356D01*
X615559D01*
Y15246D01*
X615338D01*
Y15136D01*
X615007D01*
Y15025D01*
X613794D01*
Y12598D01*
X613683D01*
Y12488D01*
X613573D01*
Y12378D01*
X612360D01*
Y12598D01*
X612249D01*
Y15025D01*
X610815D01*
Y12598D01*
X610705D01*
Y12488D01*
X610595D01*
Y12378D01*
X609381D01*
Y12598D01*
X609271D01*
Y15025D01*
X607837D01*
Y12598D01*
X607726D01*
Y12488D01*
X607616D01*
Y12378D01*
X606402D01*
Y12598D01*
X606292D01*
Y15025D01*
X604858D01*
Y12598D01*
X604748D01*
Y12488D01*
X604637D01*
Y12378D01*
X603424D01*
Y12598D01*
X603314D01*
Y15025D01*
X601879D01*
Y12598D01*
X601769D01*
Y12488D01*
X601659D01*
Y12378D01*
X600445D01*
Y12598D01*
X600335D01*
Y15025D01*
X599122D01*
Y15136D01*
X598791D01*
Y15246D01*
X598570D01*
Y15356D01*
X598349D01*
Y15467D01*
X598129D01*
Y15577D01*
X598018D01*
Y15687D01*
X597908D01*
Y15798D01*
X597687D01*
Y15908D01*
X597577D01*
Y16128D01*
X597467D01*
Y16239D01*
X597356D01*
Y16349D01*
X597246D01*
Y16570D01*
X597136D01*
Y16790D01*
X597025D01*
Y17011D01*
X596915D01*
Y17342D01*
X596805D01*
Y18555D01*
X594378D01*
Y18666D01*
X594268D01*
Y18776D01*
X594157D01*
Y19879D01*
X594268D01*
Y19990D01*
X596805D01*
Y21534D01*
X594378D01*
Y21644D01*
X594268D01*
Y21755D01*
X594157D01*
Y22858D01*
X594268D01*
Y22968D01*
X596805D01*
Y24513D01*
X594268D01*
Y24623D01*
X594157D01*
Y25836D01*
X594268D01*
Y25947D01*
X596805D01*
Y27491D01*
X594268D01*
Y27602D01*
X594157D01*
Y28815D01*
X594268D01*
Y28925D01*
X596805D01*
Y30470D01*
X594268D01*
Y30580D01*
X594157D01*
Y31793D01*
X594268D01*
Y31904D01*
X596805D01*
Y33117D01*
X596915D01*
Y33448D01*
X597025D01*
Y33669D01*
X597136D01*
Y33890D01*
X597246D01*
Y34110D01*
X597356D01*
Y34220D01*
X597467D01*
Y34441D01*
X597577D01*
Y34552D01*
X597687D01*
Y34662D01*
X597798D01*
Y34772D01*
X598018D01*
Y34882D01*
X598129D01*
Y34993D01*
X598239D01*
Y35103D01*
X598460D01*
Y35213D01*
X598680D01*
Y35324D01*
X599011D01*
Y35434D01*
X599673D01*
Y35544D01*
X600335D01*
Y37971D01*
X600445D01*
Y38082D01*
X600666D01*
Y38192D01*
X601548D01*
Y38082D01*
X601769D01*
Y37861D01*
X601879D01*
Y35544D01*
X603314D01*
Y37971D01*
X603424D01*
Y38082D01*
X603645D01*
Y38192D01*
X604527D01*
Y38082D01*
X604748D01*
Y37861D01*
X604858D01*
Y35544D01*
X606292D01*
Y37971D01*
X606402D01*
Y38082D01*
X606623D01*
Y38192D01*
X607506D01*
Y38082D01*
X607726D01*
Y37861D01*
X607837D01*
Y35544D01*
X609271D01*
Y37971D01*
X609381D01*
Y38082D01*
X609602D01*
Y38192D01*
X610484D01*
Y38082D01*
X610705D01*
Y37861D01*
X610815D01*
Y35544D01*
X612249D01*
Y37971D01*
X612360D01*
Y38082D01*
X612580D01*
Y38192D01*
X613463D01*
Y38082D01*
D02*
G37*
G36*
X324150Y36705D02*
X324779D01*
Y36496D01*
Y35448D01*
X324150D01*
Y36705D01*
X323521D01*
Y37334D01*
X324150D01*
Y36705D01*
D02*
G37*
G36*
X265253Y34819D02*
X264624D01*
Y35448D01*
X265253D01*
Y34819D01*
D02*
G37*
G36*
X667739Y36979D02*
X667849D01*
Y28925D01*
X667739D01*
Y28815D01*
X667077D01*
Y28925D01*
X666967D01*
Y29036D01*
X666856D01*
Y29587D01*
X666746D01*
Y29477D01*
X666636D01*
Y29367D01*
X666526D01*
Y29256D01*
X666415D01*
Y29146D01*
X666194D01*
Y29036D01*
X666084D01*
Y28925D01*
X665753D01*
Y28815D01*
X665202D01*
Y28705D01*
X664871D01*
Y28815D01*
X664319D01*
Y28925D01*
X664099D01*
Y29036D01*
X663878D01*
Y29146D01*
X663767D01*
Y29256D01*
X663657D01*
Y29367D01*
X663547D01*
Y29477D01*
X663437D01*
Y29587D01*
X663326D01*
Y29808D01*
X663216D01*
Y30029D01*
X663106D01*
Y30359D01*
X662995D01*
Y30801D01*
X662885D01*
Y32456D01*
X662995D01*
Y32897D01*
X663106D01*
Y33228D01*
X663216D01*
Y33448D01*
X663326D01*
Y33669D01*
X663437D01*
Y33890D01*
X663547D01*
Y34000D01*
X663657D01*
Y34110D01*
X663767D01*
Y34220D01*
X663988D01*
Y34331D01*
X664099D01*
Y34441D01*
X664319D01*
Y34552D01*
X664650D01*
Y34662D01*
X665643D01*
Y34552D01*
X665974D01*
Y34441D01*
X666194D01*
Y34331D01*
X666305D01*
Y34220D01*
X666526D01*
Y34110D01*
X666636D01*
Y34000D01*
X666746D01*
Y36537D01*
Y36647D01*
Y36979D01*
X666856D01*
Y37089D01*
X667739D01*
Y36979D01*
D02*
G37*
G36*
X324150Y34610D02*
Y33981D01*
X323521D01*
Y34819D01*
X324150D01*
Y34610D01*
D02*
G37*
G36*
X310316Y33981D02*
X309478D01*
Y35448D01*
X310316D01*
Y33981D01*
D02*
G37*
G36*
X655935Y34552D02*
X656156D01*
Y34441D01*
X656266D01*
Y33559D01*
X655825D01*
Y33669D01*
X655163D01*
Y33559D01*
X654942D01*
Y33448D01*
X654832D01*
Y33338D01*
X654721D01*
Y33228D01*
X654611D01*
Y33117D01*
X654501D01*
Y32897D01*
X654390D01*
Y32786D01*
X654280D01*
Y32676D01*
X654170D01*
Y32014D01*
Y31904D01*
Y28925D01*
X654060D01*
Y28815D01*
X653287D01*
Y28925D01*
X653177D01*
Y29036D01*
X653067D01*
Y34331D01*
X653177D01*
Y34552D01*
X653949D01*
Y34441D01*
X654060D01*
Y33779D01*
X654170D01*
Y33890D01*
X654280D01*
Y34000D01*
X654390D01*
Y34110D01*
X654501D01*
Y34220D01*
X654611D01*
Y34331D01*
X654721D01*
Y34441D01*
X654942D01*
Y34552D01*
X655163D01*
Y34662D01*
X655935D01*
Y34552D01*
D02*
G37*
G36*
X326246Y35867D02*
Y35658D01*
Y35448D01*
X326874D01*
Y33981D01*
X327713D01*
Y33352D01*
X326874D01*
Y33981D01*
X326246D01*
Y35029D01*
Y35238D01*
Y35448D01*
X325407D01*
Y36077D01*
X326246D01*
Y35867D01*
D02*
G37*
G36*
X323521Y33352D02*
X322682D01*
Y33981D01*
X323521D01*
Y33352D01*
D02*
G37*
G36*
X284536D02*
X283907D01*
Y33981D01*
X284536D01*
Y33352D01*
D02*
G37*
G36*
X266092Y33562D02*
Y33352D01*
X265253D01*
Y33981D01*
X266092D01*
Y33562D01*
D02*
G37*
G36*
X311574Y32514D02*
X310945D01*
Y32723D01*
Y33352D01*
X311574D01*
Y32514D01*
D02*
G37*
G36*
X286003D02*
X285374D01*
Y33981D01*
X286003D01*
Y32514D01*
D02*
G37*
G36*
X325407Y33981D02*
X326246D01*
Y32514D01*
X326874D01*
Y32094D01*
Y31885D01*
X326246D01*
Y32514D01*
X325407D01*
Y33981D01*
X324779D01*
Y34819D01*
X325407D01*
Y33981D01*
D02*
G37*
G36*
X308220Y31885D02*
X307592D01*
Y32514D01*
X308220D01*
Y31885D01*
D02*
G37*
G36*
X293129D02*
X292291D01*
Y32514D01*
X293129D01*
Y31885D01*
D02*
G37*
G36*
X266720D02*
X266092D01*
Y32514D01*
X266720D01*
Y31885D01*
D02*
G37*
G36*
X263367Y34819D02*
X263786D01*
Y33981D01*
X264624D01*
Y32514D01*
X265253D01*
Y31885D01*
X264624D01*
Y32094D01*
Y32514D01*
X263786D01*
Y32723D01*
Y32933D01*
Y33981D01*
X263367D01*
Y34610D01*
Y34819D01*
X262738D01*
Y35448D01*
X263367D01*
Y34819D01*
D02*
G37*
G36*
X324779Y31256D02*
X324150D01*
Y31675D01*
Y31885D01*
Y32514D01*
X324779D01*
Y31256D01*
D02*
G37*
G36*
X304657D02*
X304238D01*
Y31466D01*
Y31675D01*
Y31885D01*
X304657D01*
Y31256D01*
D02*
G37*
G36*
X294178D02*
X293758D01*
Y31885D01*
X294178D01*
Y31256D01*
D02*
G37*
G36*
X287470D02*
X286842D01*
Y32304D01*
Y32514D01*
X287470D01*
Y31256D01*
D02*
G37*
G36*
X285374D02*
X284536D01*
Y32514D01*
X285374D01*
Y31256D01*
D02*
G37*
G36*
X324150Y30627D02*
X323521D01*
Y31256D01*
X324150D01*
Y30627D01*
D02*
G37*
G36*
X322682D02*
X322054D01*
Y31256D01*
X322682D01*
Y30627D01*
D02*
G37*
G36*
X312412D02*
X311574D01*
Y31256D01*
X312412D01*
Y30627D01*
D02*
G37*
G36*
X288938D02*
X288309D01*
Y31256D01*
X288938D01*
Y30627D01*
D02*
G37*
G36*
X266720D02*
X266092D01*
Y31256D01*
X266720D01*
Y30627D01*
D02*
G37*
G36*
X682963Y34441D02*
X683073D01*
Y34110D01*
X682963D01*
Y33779D01*
X682853D01*
Y33448D01*
X682742D01*
Y33228D01*
X682632D01*
Y32897D01*
X682521D01*
Y32566D01*
X682411D01*
Y32235D01*
X682301D01*
Y32014D01*
X682191D01*
Y31683D01*
X682080D01*
Y31352D01*
X681970D01*
Y31021D01*
X681860D01*
Y30801D01*
X681749D01*
Y30470D01*
X681639D01*
Y30139D01*
X681529D01*
Y29808D01*
X681418D01*
Y29477D01*
X681308D01*
Y29256D01*
X681198D01*
Y28925D01*
X681087D01*
Y28594D01*
X680977D01*
Y28263D01*
X680867D01*
Y28043D01*
X680756D01*
Y27712D01*
X680646D01*
Y27381D01*
X680536D01*
Y27050D01*
X680426D01*
Y26829D01*
X680315D01*
Y26719D01*
X679322D01*
Y27160D01*
X679433D01*
Y27491D01*
X679543D01*
Y27712D01*
X679653D01*
Y27822D01*
Y28043D01*
X679764D01*
Y28263D01*
X679874D01*
Y28594D01*
X679984D01*
Y28925D01*
X679874D01*
Y29256D01*
X679764D01*
Y29587D01*
X679653D01*
Y29808D01*
X679543D01*
Y30139D01*
X679433D01*
Y30470D01*
X679322D01*
Y30690D01*
X679212D01*
Y31021D01*
X679102D01*
Y31352D01*
X678991D01*
Y31573D01*
X678881D01*
Y31904D01*
X678771D01*
Y32235D01*
X678660D01*
Y32456D01*
X678550D01*
Y32786D01*
X678440D01*
Y33117D01*
X678329D01*
Y33338D01*
X678219D01*
Y33669D01*
X678109D01*
Y34000D01*
X677998D01*
Y34552D01*
X678991D01*
Y34331D01*
X679102D01*
Y34110D01*
X679212D01*
Y33779D01*
X679322D01*
Y33448D01*
X679433D01*
Y33117D01*
X679543D01*
Y32786D01*
X679653D01*
Y32456D01*
X679764D01*
Y32235D01*
X679874D01*
Y31904D01*
X679984D01*
Y31573D01*
X680094D01*
Y31242D01*
X680205D01*
Y30911D01*
X680315D01*
Y30690D01*
X680426D01*
Y30359D01*
X680536D01*
Y30249D01*
X680646D01*
Y30580D01*
X680756D01*
Y30801D01*
X680867D01*
Y31132D01*
X680977D01*
Y31463D01*
X681087D01*
Y31793D01*
X681198D01*
Y32125D01*
X681308D01*
Y32456D01*
X681418D01*
Y32786D01*
X681529D01*
Y33117D01*
X681639D01*
Y33448D01*
X681749D01*
Y33779D01*
X681860D01*
Y34110D01*
X681970D01*
Y34331D01*
X682080D01*
Y34552D01*
X682963D01*
Y34441D01*
D02*
G37*
G36*
X646006Y34000D02*
X645896D01*
Y33559D01*
X645786D01*
Y33228D01*
X645676D01*
Y32897D01*
X645565D01*
Y32566D01*
X645455D01*
Y32235D01*
X645344D01*
Y31793D01*
X645234D01*
Y31463D01*
X645124D01*
Y31132D01*
X645014D01*
Y30801D01*
X644903D01*
Y30359D01*
X644793D01*
Y30029D01*
X644683D01*
Y29697D01*
X644572D01*
Y29367D01*
X644462D01*
Y29036D01*
X644352D01*
Y28925D01*
X644241D01*
Y28815D01*
X643249D01*
Y28925D01*
X643138D01*
Y29036D01*
X643028D01*
Y29367D01*
X642917D01*
Y29697D01*
X642807D01*
Y30029D01*
X642697D01*
Y30470D01*
X642587D01*
Y30801D01*
X642476D01*
Y31242D01*
X642366D01*
Y31573D01*
X642256D01*
Y32014D01*
X642145D01*
Y32345D01*
X642035D01*
Y32786D01*
X641925D01*
Y32566D01*
X641814D01*
Y32125D01*
X641704D01*
Y31683D01*
X641594D01*
Y31352D01*
X641483D01*
Y30911D01*
X641373D01*
Y30470D01*
X641263D01*
Y30029D01*
X641152D01*
Y29697D01*
X641042D01*
Y29256D01*
X640932D01*
Y28925D01*
X640711D01*
Y28815D01*
X639718D01*
Y28925D01*
X639608D01*
Y29036D01*
X639498D01*
Y29367D01*
X639387D01*
Y29808D01*
X639277D01*
Y30139D01*
X639167D01*
Y30470D01*
X639056D01*
Y30801D01*
X638946D01*
Y31242D01*
X638836D01*
Y31573D01*
X638726D01*
Y31904D01*
X638615D01*
Y32235D01*
X638505D01*
Y32676D01*
X638394D01*
Y33007D01*
X638284D01*
Y33338D01*
X638174D01*
Y33669D01*
X638064D01*
Y34110D01*
X637953D01*
Y34552D01*
X638946D01*
Y34441D01*
X639056D01*
Y34110D01*
X639167D01*
Y33669D01*
X639277D01*
Y33338D01*
X639387D01*
Y32897D01*
X639498D01*
Y32566D01*
X639608D01*
Y32235D01*
X639718D01*
Y31793D01*
X639829D01*
Y31463D01*
X639939D01*
Y31021D01*
X640049D01*
Y30690D01*
X640160D01*
Y30359D01*
X640270D01*
Y30139D01*
X640380D01*
Y30580D01*
X640490D01*
Y31021D01*
X640601D01*
Y31352D01*
X640711D01*
Y31793D01*
X640822D01*
Y32235D01*
X640932D01*
Y32676D01*
X641042D01*
Y33007D01*
X641152D01*
Y33448D01*
X641263D01*
Y33890D01*
X641373D01*
Y34331D01*
X641483D01*
Y34552D01*
X642476D01*
Y34331D01*
X642587D01*
Y33890D01*
X642697D01*
Y33669D01*
Y33559D01*
X642807D01*
Y33117D01*
X642917D01*
Y32786D01*
X643028D01*
Y32345D01*
X643138D01*
Y32014D01*
X643249D01*
Y31573D01*
X643359D01*
Y31242D01*
X643469D01*
Y30911D01*
X643579D01*
Y30470D01*
X643690D01*
Y30139D01*
X643800D01*
Y30359D01*
X643910D01*
Y30801D01*
X644021D01*
Y31132D01*
X644131D01*
Y31573D01*
X644241D01*
Y31904D01*
X644352D01*
Y32345D01*
X644462D01*
Y32676D01*
X644572D01*
Y33117D01*
X644683D01*
Y33448D01*
X644793D01*
Y33779D01*
X644903D01*
Y34220D01*
X645014D01*
Y34441D01*
X645124D01*
Y34552D01*
X646006D01*
Y34000D01*
D02*
G37*
G36*
X304657Y29998D02*
X304238D01*
Y30627D01*
X304657D01*
Y29998D01*
D02*
G37*
G36*
X273008D02*
X272379D01*
Y30627D01*
X273008D01*
Y29998D01*
D02*
G37*
G36*
X293758Y29370D02*
Y29160D01*
X293129D01*
Y29998D01*
X293758D01*
Y29370D01*
D02*
G37*
G36*
X291662Y29160D02*
X290195D01*
Y29998D01*
X289357D01*
Y30627D01*
X290195D01*
Y30837D01*
Y31885D01*
X290824D01*
Y32514D01*
X291662D01*
Y29160D01*
D02*
G37*
G36*
X282650Y33981D02*
X283488D01*
Y33352D01*
X283907D01*
Y31256D01*
X284536D01*
Y30627D01*
X285374D01*
Y29998D01*
X286003D01*
Y28531D01*
X286842D01*
Y27064D01*
X287470D01*
Y28531D01*
X286842D01*
Y29998D01*
X286003D01*
Y30418D01*
Y30627D01*
Y31256D01*
X286842D01*
Y29998D01*
X287470D01*
Y29789D01*
Y28531D01*
X288309D01*
Y27064D01*
X288938D01*
Y27693D01*
X289357D01*
Y29160D01*
X290195D01*
Y26226D01*
X290824D01*
Y28531D01*
X291662D01*
Y25806D01*
X292291D01*
Y29160D01*
X293129D01*
Y25806D01*
X293758D01*
Y24968D01*
X293129D01*
Y24339D01*
X293758D01*
Y23711D01*
X293129D01*
Y22872D01*
X293758D01*
Y22243D01*
X293129D01*
Y21405D01*
X293758D01*
Y20147D01*
X294178D01*
Y19519D01*
X293758D01*
Y18680D01*
X294178D01*
Y18052D01*
X293758D01*
Y17423D01*
X293129D01*
Y18052D01*
X291662D01*
Y17632D01*
Y17423D01*
X290824D01*
Y18052D01*
X288309D01*
Y18680D01*
X284536D01*
Y20147D01*
X283488D01*
Y20986D01*
X282650D01*
Y21405D01*
X281183D01*
Y22872D01*
X278667D01*
Y24339D01*
X277829D01*
Y25806D01*
X277200D01*
Y26226D01*
X277829D01*
Y27064D01*
X277200D01*
Y28531D01*
X276362D01*
Y29160D01*
X277829D01*
Y31885D01*
X279087D01*
Y32514D01*
X278667D01*
Y33352D01*
X279715D01*
Y30627D01*
X280554D01*
Y33352D01*
X279715D01*
Y33981D01*
X280554D01*
Y33352D01*
X281183D01*
Y31256D01*
X282021D01*
Y30627D01*
X282650D01*
Y28531D01*
X283488D01*
Y30627D01*
X282650D01*
Y31046D01*
Y31256D01*
X282021D01*
Y33352D01*
X281183D01*
Y33981D01*
X280554D01*
Y34819D01*
X281183D01*
Y33981D01*
X282021D01*
Y33352D01*
X282650D01*
Y31256D01*
X283488D01*
Y30627D01*
X283907D01*
Y29998D01*
X284536D01*
Y29160D01*
X285374D01*
Y29998D01*
X284536D01*
Y30208D01*
Y30418D01*
Y30627D01*
X283907D01*
Y31256D01*
X283488D01*
Y33352D01*
X282650D01*
Y33981D01*
X282021D01*
Y35029D01*
Y35238D01*
Y35448D01*
X282650D01*
Y33981D01*
D02*
G37*
G36*
X262738Y34190D02*
Y33981D01*
X263367D01*
Y32514D01*
X263786D01*
Y31885D01*
X264624D01*
Y31256D01*
X265253D01*
Y31046D01*
Y30627D01*
X266092D01*
Y29998D01*
X266720D01*
Y29160D01*
X266092D01*
Y29998D01*
X265253D01*
Y30627D01*
X264624D01*
Y31256D01*
X263786D01*
Y31885D01*
X263367D01*
Y32514D01*
X262738D01*
Y33981D01*
X261900D01*
Y34819D01*
X262738D01*
Y34190D01*
D02*
G37*
G36*
X629238Y36427D02*
X629679D01*
Y36317D01*
X629900D01*
Y36206D01*
X630121D01*
Y36096D01*
X630231D01*
Y35986D01*
X630341D01*
Y35875D01*
X630452D01*
Y35765D01*
X630562D01*
Y35655D01*
X630672D01*
Y35544D01*
X630783D01*
Y35324D01*
X630893D01*
Y34993D01*
X631003D01*
Y33559D01*
X630893D01*
Y33228D01*
X630783D01*
Y33007D01*
X630672D01*
Y32786D01*
X630562D01*
Y32676D01*
X630452D01*
Y32566D01*
X630341D01*
Y32456D01*
X630231D01*
Y32345D01*
X630121D01*
Y32235D01*
X629900D01*
Y32125D01*
X629679D01*
Y32014D01*
X629459D01*
Y31904D01*
X629017D01*
Y31793D01*
X627363D01*
Y28925D01*
X627252D01*
Y28815D01*
X626370D01*
Y28925D01*
X626260D01*
Y36317D01*
X626370D01*
Y36427D01*
X626480D01*
Y36537D01*
X629238D01*
Y36427D01*
D02*
G37*
G36*
X673144Y37089D02*
X673365D01*
Y33890D01*
X673476D01*
Y34000D01*
X673586D01*
Y34110D01*
X673806D01*
Y34220D01*
X673917D01*
Y34331D01*
X674137D01*
Y34441D01*
X674358D01*
Y34552D01*
X674689D01*
Y34662D01*
X675682D01*
Y34552D01*
X675903D01*
Y34441D01*
X676123D01*
Y34331D01*
X676344D01*
Y34220D01*
X676454D01*
Y34110D01*
X676564D01*
Y34000D01*
X676675D01*
Y33890D01*
X676785D01*
Y33669D01*
X676895D01*
Y33448D01*
X677006D01*
Y33228D01*
X677116D01*
Y32897D01*
X677226D01*
Y32014D01*
X677337D01*
Y31463D01*
X677226D01*
Y30690D01*
X677116D01*
Y30249D01*
X677006D01*
Y30029D01*
X676895D01*
Y29808D01*
X676785D01*
Y29587D01*
X676675D01*
Y29477D01*
X676564D01*
Y29367D01*
X676454D01*
Y29256D01*
X676344D01*
Y29146D01*
X676233D01*
Y29036D01*
X676013D01*
Y28925D01*
X675682D01*
Y28815D01*
X675241D01*
Y28705D01*
X674799D01*
Y28815D01*
X674248D01*
Y28925D01*
X674027D01*
Y29036D01*
X673917D01*
Y29146D01*
X673696D01*
Y29256D01*
X673586D01*
Y29367D01*
X673476D01*
Y29477D01*
X673365D01*
Y29587D01*
X673255D01*
Y28925D01*
X673144D01*
Y28815D01*
X672483D01*
Y28925D01*
X672372D01*
Y37089D01*
X672593D01*
Y37199D01*
X673144D01*
Y37089D01*
D02*
G37*
G36*
X660017Y34552D02*
X660348D01*
Y34441D01*
X660568D01*
Y34331D01*
X660789D01*
Y34220D01*
X661010D01*
Y34110D01*
X661120D01*
Y34000D01*
X661230D01*
Y33890D01*
X661341D01*
Y33669D01*
X661451D01*
Y33448D01*
X661561D01*
Y33228D01*
X661671D01*
Y32786D01*
X661782D01*
Y31683D01*
X661671D01*
Y31573D01*
X661561D01*
Y31463D01*
X657921D01*
Y30911D01*
X658031D01*
Y30470D01*
X658141D01*
Y30249D01*
X658252D01*
Y30139D01*
X658362D01*
Y30029D01*
X658472D01*
Y29918D01*
X658583D01*
Y29808D01*
X658803D01*
Y29697D01*
X659134D01*
Y29587D01*
X660017D01*
Y29697D01*
X660679D01*
Y29808D01*
X661010D01*
Y29918D01*
X661341D01*
Y30029D01*
X661451D01*
Y29918D01*
X661561D01*
Y29256D01*
X661451D01*
Y29146D01*
X661341D01*
Y29036D01*
X661010D01*
Y28925D01*
X660568D01*
Y28815D01*
X659796D01*
Y28705D01*
X659244D01*
Y28815D01*
X658583D01*
Y28925D01*
X658252D01*
Y29036D01*
X658031D01*
Y29146D01*
X657810D01*
Y29256D01*
X657700D01*
Y29367D01*
X657590D01*
Y29477D01*
X657479D01*
Y29587D01*
X657369D01*
Y29808D01*
X657259D01*
Y29918D01*
X657149D01*
Y30249D01*
X657038D01*
Y30470D01*
X656928D01*
Y31021D01*
X656817D01*
Y32235D01*
X656928D01*
Y32786D01*
X657038D01*
Y33117D01*
X657149D01*
Y33338D01*
X657259D01*
Y33559D01*
X657369D01*
Y33669D01*
X657479D01*
Y33890D01*
X657590D01*
Y34000D01*
X657700D01*
Y34110D01*
X657921D01*
Y34220D01*
X658031D01*
Y34331D01*
X658252D01*
Y34441D01*
X658472D01*
Y34552D01*
X658914D01*
Y34662D01*
X660017D01*
Y34552D01*
D02*
G37*
G36*
X649978D02*
X650309D01*
Y34441D01*
X650529D01*
Y34331D01*
X650750D01*
Y34220D01*
X650860D01*
Y34110D01*
X650971D01*
Y34000D01*
X651081D01*
Y33890D01*
X651191D01*
Y33779D01*
X651302D01*
Y33559D01*
X651412D01*
Y33338D01*
X651522D01*
Y33007D01*
X651633D01*
Y32345D01*
X651743D01*
Y31793D01*
X651633D01*
Y31573D01*
X651522D01*
Y31463D01*
X647772D01*
Y31352D01*
X647882D01*
Y30580D01*
X647992D01*
Y30359D01*
X648103D01*
Y30139D01*
X648213D01*
Y30029D01*
X648323D01*
Y29918D01*
X648433D01*
Y29808D01*
X648654D01*
Y29697D01*
X649095D01*
Y29587D01*
X650088D01*
Y29697D01*
X650529D01*
Y29808D01*
X650860D01*
Y29918D01*
X651191D01*
Y30029D01*
X651302D01*
Y29918D01*
X651412D01*
Y29808D01*
X651522D01*
Y29367D01*
X651412D01*
Y29146D01*
X651191D01*
Y29036D01*
X650860D01*
Y28925D01*
X650529D01*
Y28815D01*
X649757D01*
Y28705D01*
X649206D01*
Y28815D01*
X648544D01*
Y28925D01*
X648213D01*
Y29036D01*
X647992D01*
Y29146D01*
X647772D01*
Y29256D01*
X647661D01*
Y29367D01*
X647551D01*
Y29477D01*
X647440D01*
Y29587D01*
X647330D01*
Y29697D01*
X647220D01*
Y29808D01*
X647110D01*
Y30029D01*
X646999D01*
Y30359D01*
X646889D01*
Y30690D01*
X646779D01*
Y32566D01*
X646889D01*
Y33007D01*
X646999D01*
Y33228D01*
X647110D01*
Y33448D01*
X647220D01*
Y33669D01*
X647330D01*
Y33779D01*
X647440D01*
Y33890D01*
X647551D01*
Y34000D01*
X647661D01*
Y34110D01*
X647772D01*
Y34220D01*
X647992D01*
Y34331D01*
X648103D01*
Y34441D01*
X648433D01*
Y34552D01*
X648764D01*
Y34662D01*
X649978D01*
Y34552D01*
D02*
G37*
G36*
X635195D02*
X635637D01*
Y34441D01*
X635857D01*
Y34331D01*
X636078D01*
Y34220D01*
X636188D01*
Y34110D01*
X636409D01*
Y34000D01*
X636519D01*
Y33890D01*
X636629D01*
Y33669D01*
X636740D01*
Y33559D01*
X636850D01*
Y33338D01*
X636960D01*
Y33007D01*
X637071D01*
Y32566D01*
X637181D01*
Y30911D01*
X637071D01*
Y30470D01*
X636960D01*
Y30249D01*
X636850D01*
Y30029D01*
X636740D01*
Y29808D01*
X636629D01*
Y29697D01*
X636519D01*
Y29587D01*
X636409D01*
Y29477D01*
X636299D01*
Y29367D01*
X636188D01*
Y29256D01*
X636078D01*
Y29146D01*
X635857D01*
Y29036D01*
X635637D01*
Y28925D01*
X635306D01*
Y28815D01*
X634644D01*
Y28705D01*
X634202D01*
Y28815D01*
X633540D01*
Y28925D01*
X633210D01*
Y29036D01*
X632989D01*
Y29146D01*
X632768D01*
Y29256D01*
X632658D01*
Y29367D01*
X632548D01*
Y29477D01*
X632437D01*
Y29587D01*
X632327D01*
Y29808D01*
X632217D01*
Y30029D01*
X632106D01*
Y30249D01*
X631996D01*
Y30580D01*
X631886D01*
Y31352D01*
X631776D01*
Y31463D01*
Y31904D01*
X631886D01*
Y32676D01*
X631996D01*
Y33007D01*
X632106D01*
Y33228D01*
X632217D01*
Y33448D01*
X632327D01*
Y33669D01*
X632437D01*
Y33779D01*
X632548D01*
Y33890D01*
X632658D01*
Y34000D01*
X632768D01*
Y34110D01*
X632879D01*
Y34220D01*
X633099D01*
Y34331D01*
X633320D01*
Y34441D01*
X633540D01*
Y34552D01*
X633982D01*
Y34662D01*
X635195D01*
Y34552D01*
D02*
G37*
G36*
X298579Y28531D02*
X297950D01*
Y29160D01*
X298579D01*
Y28531D01*
D02*
G37*
G36*
X288309Y29998D02*
X288938D01*
Y28531D01*
X288309D01*
Y28741D01*
Y29998D01*
X287470D01*
Y30627D01*
X288309D01*
Y29998D01*
D02*
G37*
G36*
X272379Y28531D02*
X271541D01*
Y29998D01*
X272379D01*
Y28531D01*
D02*
G37*
G36*
X268188D02*
X267559D01*
Y29160D01*
X268188D01*
Y28531D01*
D02*
G37*
G36*
X299837Y28322D02*
Y28112D01*
Y27693D01*
X299208D01*
Y28531D01*
X299837D01*
Y28322D01*
D02*
G37*
G36*
X294178Y27693D02*
X293758D01*
Y28531D01*
X294178D01*
Y27693D01*
D02*
G37*
G36*
X273428Y28322D02*
Y28112D01*
Y27693D01*
X273008D01*
Y28531D01*
X273428D01*
Y28322D01*
D02*
G37*
G36*
X304238Y27483D02*
Y27274D01*
Y27064D01*
X303400D01*
Y27693D01*
X304238D01*
Y27483D01*
D02*
G37*
G36*
X297950Y27064D02*
X297112D01*
Y27483D01*
Y27693D01*
Y28531D01*
X297950D01*
Y27064D01*
D02*
G37*
G36*
X294178Y26226D02*
X293758D01*
Y26435D01*
Y26645D01*
Y27064D01*
X294178D01*
Y26226D01*
D02*
G37*
G36*
X274266D02*
X273428D01*
Y27064D01*
X274266D01*
Y26226D01*
D02*
G37*
G36*
X306124Y25806D02*
D01*
D01*
D01*
D01*
D02*
G37*
G36*
X296483Y26016D02*
Y25806D01*
X295016D01*
Y26226D01*
X296483D01*
Y26016D01*
D02*
G37*
G36*
X275733Y25178D02*
Y24968D01*
X274895D01*
Y25806D01*
X275733D01*
Y25178D01*
D02*
G37*
G36*
X670276Y25064D02*
X670607D01*
Y24844D01*
X670717D01*
Y24513D01*
X670828D01*
Y24182D01*
X670717D01*
Y23851D01*
X670607D01*
Y23630D01*
X670276D01*
Y23520D01*
X669614D01*
Y23630D01*
X669394D01*
Y23740D01*
X669283D01*
Y23851D01*
X669173D01*
Y24844D01*
X669283D01*
Y24954D01*
X669394D01*
Y25064D01*
X669725D01*
Y25174D01*
X670276D01*
Y25064D01*
D02*
G37*
G36*
X317862Y25806D02*
X318700D01*
Y24968D01*
X319329D01*
Y24339D01*
X319958D01*
Y22663D01*
Y22453D01*
Y22243D01*
X319329D01*
Y24339D01*
X318700D01*
Y24968D01*
X317862D01*
Y25806D01*
X317233D01*
Y26226D01*
X317862D01*
Y25806D01*
D02*
G37*
G36*
X273008Y26226D02*
X273428D01*
Y25806D01*
X274266D01*
Y25178D01*
Y24968D01*
X274895D01*
Y24339D01*
X275733D01*
Y22872D01*
X276362D01*
Y22243D01*
X275733D01*
Y22872D01*
X274895D01*
Y24339D01*
X274266D01*
Y24968D01*
X273428D01*
Y25806D01*
X273008D01*
Y26016D01*
Y26226D01*
X272379D01*
Y27693D01*
X273008D01*
Y26226D01*
D02*
G37*
G36*
X713190Y22306D02*
X713631D01*
Y22196D01*
X713852D01*
Y22086D01*
X713962D01*
Y20982D01*
X713852D01*
Y20872D01*
X713631D01*
Y20982D01*
X713300D01*
Y21093D01*
X712528D01*
Y20982D01*
X712307D01*
Y20872D01*
X712087D01*
Y20762D01*
X711976D01*
Y20651D01*
X711866D01*
Y20541D01*
X711756D01*
Y20431D01*
X711645D01*
Y20210D01*
X711535D01*
Y20100D01*
X711425D01*
Y19879D01*
X711314D01*
Y19769D01*
X711204D01*
Y14915D01*
X711094D01*
Y14805D01*
X709880D01*
Y15025D01*
X709770D01*
Y20431D01*
Y20541D01*
Y22086D01*
X709880D01*
Y22196D01*
X710101D01*
Y22306D01*
X710763D01*
Y22196D01*
X710983D01*
Y21093D01*
X711094D01*
Y21203D01*
X711204D01*
Y21424D01*
X711314D01*
Y21534D01*
X711425D01*
Y21644D01*
X711535D01*
Y21755D01*
X711645D01*
Y21865D01*
X711756D01*
Y21975D01*
X711866D01*
Y22086D01*
X712087D01*
Y22196D01*
X712307D01*
Y22306D01*
X712748D01*
Y22417D01*
X713190D01*
Y22306D01*
D02*
G37*
G36*
X686714D02*
X687265D01*
Y22196D01*
X687596D01*
Y22086D01*
X687817D01*
Y21975D01*
X687927D01*
Y21865D01*
X688037D01*
Y21755D01*
X688148D01*
Y21644D01*
X688258D01*
Y21534D01*
X688368D01*
Y21424D01*
X688479D01*
Y21203D01*
X688589D01*
Y20982D01*
X688699D01*
Y20651D01*
X688810D01*
Y19990D01*
X688920D01*
Y14915D01*
X688810D01*
Y14805D01*
X687596D01*
Y15025D01*
X687486D01*
Y20210D01*
X687375D01*
Y20431D01*
X687265D01*
Y20651D01*
X687155D01*
Y20872D01*
X687044D01*
Y20982D01*
X686824D01*
Y21093D01*
X686603D01*
Y21203D01*
X685831D01*
Y21093D01*
X685610D01*
Y20982D01*
X685390D01*
Y20872D01*
X685279D01*
Y20762D01*
X685169D01*
Y20651D01*
X685059D01*
Y20541D01*
X684838D01*
Y20321D01*
X684728D01*
Y20210D01*
X684618D01*
Y20100D01*
X684507D01*
Y19990D01*
X684397D01*
Y14915D01*
X684287D01*
Y14805D01*
X683073D01*
Y15025D01*
X682963D01*
Y20100D01*
X682853D01*
Y20431D01*
X682742D01*
Y20651D01*
X682632D01*
Y20762D01*
X682521D01*
Y20872D01*
X682411D01*
Y20982D01*
X682301D01*
Y21093D01*
X682080D01*
Y21203D01*
X681308D01*
Y21093D01*
X681087D01*
Y20982D01*
X680867D01*
Y20872D01*
X680756D01*
Y20762D01*
X680646D01*
Y20651D01*
X680426D01*
Y20541D01*
X680315D01*
Y20431D01*
X680205D01*
Y20210D01*
X680094D01*
Y20100D01*
X679984D01*
Y19990D01*
X679874D01*
Y15025D01*
X679764D01*
Y14805D01*
X678550D01*
Y14915D01*
X678440D01*
Y15025D01*
Y22086D01*
X678550D01*
Y22196D01*
X678771D01*
Y22306D01*
X679433D01*
Y22196D01*
X679653D01*
Y21203D01*
X679764D01*
Y21313D01*
X679874D01*
Y21424D01*
X679984D01*
Y21534D01*
X680094D01*
Y21644D01*
X680315D01*
Y21755D01*
X680426D01*
Y21865D01*
X680536D01*
Y21975D01*
X680756D01*
Y22086D01*
X680977D01*
Y22196D01*
X681198D01*
Y22306D01*
X681749D01*
Y22417D01*
X682191D01*
Y22306D01*
X682742D01*
Y22196D01*
X683073D01*
Y22086D01*
X683294D01*
Y21975D01*
X683404D01*
Y21865D01*
X683514D01*
Y21755D01*
X683625D01*
Y21644D01*
X683735D01*
Y21534D01*
X683845D01*
Y21313D01*
X683956D01*
Y21093D01*
X684176D01*
Y21203D01*
X684287D01*
Y21313D01*
X684397D01*
Y21424D01*
X684507D01*
Y21534D01*
X684618D01*
Y21644D01*
X684838D01*
Y21755D01*
X684948D01*
Y21865D01*
X685059D01*
Y21975D01*
X685279D01*
Y22086D01*
X685500D01*
Y22196D01*
X685721D01*
Y22306D01*
X686272D01*
Y22417D01*
X686714D01*
Y22306D01*
D02*
G37*
G36*
X676344D02*
X676785D01*
Y22196D01*
X677006D01*
Y21975D01*
X677116D01*
Y21093D01*
X677006D01*
Y20982D01*
X676895D01*
Y20872D01*
X676785D01*
Y20982D01*
X676344D01*
Y21093D01*
X675571D01*
Y20982D01*
X675351D01*
Y20872D01*
X675241D01*
Y20762D01*
X675130D01*
Y20651D01*
X675020D01*
Y20541D01*
X674910D01*
Y20431D01*
X674799D01*
Y20321D01*
X674689D01*
Y20100D01*
X674579D01*
Y19990D01*
X674468D01*
Y19769D01*
X674358D01*
Y19659D01*
X674248D01*
Y14805D01*
X673034D01*
Y14915D01*
X672924D01*
Y21534D01*
Y21644D01*
Y22086D01*
X673034D01*
Y22196D01*
X673255D01*
Y22306D01*
X673917D01*
Y22196D01*
X674137D01*
Y21093D01*
X674248D01*
Y21313D01*
X674358D01*
Y21424D01*
X674468D01*
Y21534D01*
X674579D01*
Y21644D01*
X674689D01*
Y21755D01*
X674799D01*
Y21865D01*
X674910D01*
Y21975D01*
X675020D01*
Y22086D01*
X675241D01*
Y22196D01*
X675351D01*
Y22306D01*
X675903D01*
Y22417D01*
X676344D01*
Y22306D01*
D02*
G37*
G36*
X656487Y24844D02*
X656707D01*
Y24402D01*
X656597D01*
Y24292D01*
X656487D01*
Y24071D01*
X656376D01*
Y23961D01*
X656266D01*
Y23851D01*
X656156D01*
Y23740D01*
X656045D01*
Y23520D01*
X655935D01*
Y23409D01*
X655825D01*
Y23299D01*
X655714D01*
Y23189D01*
X655604D01*
Y23078D01*
X655494D01*
Y22968D01*
X655383D01*
Y22748D01*
X655273D01*
Y22637D01*
X655163D01*
Y22527D01*
X655053D01*
Y22417D01*
X654942D01*
Y22306D01*
X654832D01*
Y22086D01*
X654721D01*
Y21975D01*
X654611D01*
Y21865D01*
X654501D01*
Y21755D01*
X654390D01*
Y21644D01*
X654280D01*
Y21424D01*
X654170D01*
Y21313D01*
X654060D01*
Y21203D01*
X653949D01*
Y21093D01*
X653839D01*
Y20982D01*
X653729D01*
Y20762D01*
X653618D01*
Y20651D01*
X653508D01*
Y20541D01*
X653398D01*
Y20431D01*
X653287D01*
Y20321D01*
X653177D01*
Y20100D01*
X653287D01*
Y19990D01*
X653398D01*
Y19769D01*
X653508D01*
Y19659D01*
X653618D01*
Y19548D01*
X653729D01*
Y19328D01*
X653839D01*
Y19217D01*
X653949D01*
Y19107D01*
X654060D01*
Y18886D01*
X654170D01*
Y18776D01*
X654280D01*
Y18666D01*
X654390D01*
Y18445D01*
X654501D01*
Y18335D01*
X654611D01*
Y18225D01*
X654721D01*
Y18004D01*
X654832D01*
Y17894D01*
X654942D01*
Y17783D01*
X655053D01*
Y17673D01*
X655163D01*
Y17452D01*
X655273D01*
Y17342D01*
X655383D01*
Y17232D01*
X655494D01*
Y17011D01*
X655604D01*
Y16901D01*
X655714D01*
Y16790D01*
X655825D01*
Y16570D01*
X655935D01*
Y16459D01*
X656045D01*
Y16349D01*
X656156D01*
Y16128D01*
X656266D01*
Y16018D01*
X656376D01*
Y15908D01*
X656487D01*
Y15687D01*
X656597D01*
Y15577D01*
X656707D01*
Y15467D01*
X656817D01*
Y15246D01*
X656928D01*
Y14915D01*
X656817D01*
Y14805D01*
X655494D01*
Y14915D01*
X655383D01*
Y15025D01*
X655273D01*
Y15246D01*
X655163D01*
Y15356D01*
X655053D01*
Y15467D01*
X654942D01*
Y15687D01*
X654832D01*
Y15798D01*
X654721D01*
Y15908D01*
X654611D01*
Y16128D01*
X654501D01*
Y16239D01*
X654390D01*
Y16349D01*
X654280D01*
Y16570D01*
X654170D01*
Y16680D01*
X654060D01*
Y16790D01*
X653949D01*
Y17011D01*
X653839D01*
Y17121D01*
X653729D01*
Y17342D01*
X653618D01*
Y17452D01*
X653508D01*
Y17563D01*
X653398D01*
Y17783D01*
X653287D01*
Y17894D01*
X653177D01*
Y18004D01*
X653067D01*
Y18225D01*
X652956D01*
Y18335D01*
X652846D01*
Y18445D01*
X652736D01*
Y18666D01*
X652626D01*
Y18776D01*
X652515D01*
Y18997D01*
X652405D01*
Y19107D01*
X652294D01*
Y19217D01*
X652184D01*
Y19438D01*
X652074D01*
Y19548D01*
X651964D01*
Y19659D01*
X651853D01*
Y19879D01*
X651743D01*
Y14915D01*
X651633D01*
Y14805D01*
X650419D01*
Y14915D01*
X650309D01*
Y24733D01*
X650419D01*
Y24844D01*
X650640D01*
Y24954D01*
X651412D01*
Y24844D01*
X651633D01*
Y24733D01*
X651743D01*
Y20431D01*
X651853D01*
Y20541D01*
X651964D01*
Y20651D01*
X652074D01*
Y20762D01*
X652184D01*
Y20982D01*
X652294D01*
Y21093D01*
X652405D01*
Y21203D01*
X652515D01*
Y21313D01*
X652626D01*
Y21534D01*
X652736D01*
Y21644D01*
X652846D01*
Y21755D01*
X652956D01*
Y21865D01*
X653067D01*
Y22086D01*
X653177D01*
Y22196D01*
X653287D01*
Y22306D01*
X653398D01*
Y22417D01*
X653508D01*
Y22637D01*
X653618D01*
Y22748D01*
X653729D01*
Y22858D01*
X653839D01*
Y22968D01*
X653949D01*
Y23189D01*
X654060D01*
Y23299D01*
X654170D01*
Y23409D01*
X654280D01*
Y23520D01*
X654390D01*
Y23740D01*
X654501D01*
Y23851D01*
X654611D01*
Y23961D01*
X654721D01*
Y24182D01*
X654832D01*
Y24292D01*
X654942D01*
Y24402D01*
X655053D01*
Y24513D01*
X655163D01*
Y24733D01*
X655273D01*
Y24844D01*
X655604D01*
Y24954D01*
X656487D01*
Y24844D01*
D02*
G37*
G36*
X270912Y28531D02*
X271541D01*
Y26226D01*
X272379D01*
Y25806D01*
X273008D01*
Y24968D01*
X273428D01*
Y24339D01*
X274266D01*
Y24130D01*
Y23920D01*
Y22872D01*
X274895D01*
Y22243D01*
X275733D01*
Y21405D01*
X276362D01*
Y20986D01*
Y20776D01*
Y20147D01*
X275733D01*
Y21405D01*
X274895D01*
Y21615D01*
Y21824D01*
Y22243D01*
X274266D01*
Y21405D01*
X274895D01*
Y20147D01*
X274266D01*
Y20357D01*
Y21405D01*
X272379D01*
Y22243D01*
X271541D01*
Y22872D01*
X270074D01*
Y23711D01*
X268607D01*
Y24339D01*
X268188D01*
Y25806D01*
X268607D01*
Y26226D01*
X269445D01*
Y27693D01*
X270912D01*
Y28531D01*
X270074D01*
Y28741D01*
Y29160D01*
X270912D01*
Y28531D01*
D02*
G37*
G36*
X269445Y21405D02*
X270074D01*
Y20147D01*
X269445D01*
Y21195D01*
Y21405D01*
X268607D01*
Y22243D01*
X269445D01*
Y21405D01*
D02*
G37*
G36*
X317233Y19938D02*
Y19519D01*
X316604D01*
Y20147D01*
X317233D01*
Y19938D01*
D02*
G37*
G36*
X271541Y19519D02*
X270912D01*
Y19728D01*
Y20147D01*
X271541D01*
Y19519D01*
D02*
G37*
G36*
X315766Y18680D02*
X315137D01*
Y20147D01*
X315766D01*
Y18680D01*
D02*
G37*
G36*
X314299Y18890D02*
Y18680D01*
X313879D01*
Y19519D01*
X314299D01*
Y18890D01*
D02*
G37*
G36*
X313879Y18052D02*
X313041D01*
Y18680D01*
X313879D01*
Y18052D01*
D02*
G37*
G36*
X270912Y18680D02*
X271541D01*
Y18052D01*
X270912D01*
Y18680D01*
X270074D01*
Y18890D01*
Y19099D01*
Y19519D01*
X270912D01*
Y18680D01*
D02*
G37*
G36*
X324150Y17423D02*
D01*
D01*
D01*
D01*
D02*
G37*
G36*
X647440Y24733D02*
X647551D01*
Y24623D01*
X647661D01*
Y24292D01*
X647772D01*
Y15025D01*
X647661D01*
Y14805D01*
X646448D01*
Y14915D01*
X646337D01*
Y23520D01*
X646227D01*
Y23299D01*
X646117D01*
Y22968D01*
X646006D01*
Y22748D01*
X645896D01*
Y22417D01*
X645786D01*
Y22196D01*
X645676D01*
Y21865D01*
X645565D01*
Y21644D01*
X645455D01*
Y21313D01*
X645344D01*
Y21093D01*
X645234D01*
Y20762D01*
X645124D01*
Y20541D01*
X645014D01*
Y20210D01*
X644903D01*
Y19990D01*
X644793D01*
Y19659D01*
X644683D01*
Y19438D01*
X644572D01*
Y19107D01*
X644462D01*
Y18886D01*
X644352D01*
Y18555D01*
X644241D01*
Y18335D01*
X644131D01*
Y18114D01*
X644021D01*
Y17783D01*
X643910D01*
Y17563D01*
X643800D01*
Y17232D01*
X643690D01*
Y17011D01*
X643579D01*
Y16680D01*
X643469D01*
Y16459D01*
X643359D01*
Y16128D01*
X643249D01*
Y15908D01*
X643138D01*
Y15577D01*
X643028D01*
Y15356D01*
X642917D01*
Y15025D01*
X642807D01*
Y14915D01*
X642697D01*
Y14805D01*
X641594D01*
Y14915D01*
X641483D01*
Y15136D01*
X641373D01*
Y15356D01*
X641263D01*
Y15687D01*
X641152D01*
Y15908D01*
X641042D01*
Y16239D01*
X640932D01*
Y16570D01*
X640822D01*
Y16790D01*
X640711D01*
Y17121D01*
X640601D01*
Y17342D01*
X640490D01*
Y17673D01*
X640380D01*
Y18004D01*
X640270D01*
Y18225D01*
X640160D01*
Y18555D01*
X640049D01*
Y18776D01*
X639939D01*
Y19107D01*
X639829D01*
Y19438D01*
X639718D01*
Y19659D01*
X639608D01*
Y19990D01*
X639498D01*
Y20210D01*
X639387D01*
Y20541D01*
X639277D01*
Y20872D01*
X639167D01*
Y21093D01*
X639056D01*
Y21424D01*
X638946D01*
Y21644D01*
X638836D01*
Y21975D01*
X638726D01*
Y22306D01*
X638615D01*
Y22527D01*
X638505D01*
Y22858D01*
X638394D01*
Y23078D01*
X638284D01*
Y23409D01*
X638174D01*
Y19990D01*
Y19879D01*
Y14915D01*
X638064D01*
Y14805D01*
X636850D01*
Y14915D01*
X636740D01*
Y24513D01*
X636850D01*
Y24733D01*
X636960D01*
Y24844D01*
X638726D01*
Y24733D01*
X638946D01*
Y24623D01*
X639056D01*
Y24513D01*
X639167D01*
Y24402D01*
X639277D01*
Y24071D01*
X639387D01*
Y23851D01*
X639498D01*
Y23520D01*
X639608D01*
Y23299D01*
X639718D01*
Y22968D01*
X639829D01*
Y22748D01*
X639939D01*
Y22417D01*
X640049D01*
Y22196D01*
X640160D01*
Y21865D01*
X640270D01*
Y21644D01*
X640380D01*
Y21313D01*
X640490D01*
Y21093D01*
X640601D01*
Y20762D01*
X640711D01*
Y20541D01*
X640822D01*
Y20210D01*
X640932D01*
Y19990D01*
X641042D01*
Y19659D01*
X641152D01*
Y19438D01*
X641263D01*
Y19107D01*
X641373D01*
Y18776D01*
X641483D01*
Y18555D01*
X641594D01*
Y18225D01*
X641704D01*
Y18004D01*
X641814D01*
Y17673D01*
X641925D01*
Y17452D01*
X642035D01*
Y17121D01*
X642145D01*
Y16901D01*
X642256D01*
Y17011D01*
X642366D01*
Y17342D01*
X642476D01*
Y17563D01*
X642587D01*
Y17894D01*
X642697D01*
Y18114D01*
X642807D01*
Y18335D01*
X642917D01*
Y18666D01*
X643028D01*
Y18886D01*
X643138D01*
Y19217D01*
X643249D01*
Y19438D01*
X643359D01*
Y19769D01*
X643469D01*
Y19990D01*
X643579D01*
Y20210D01*
X643690D01*
Y20541D01*
X643800D01*
Y20762D01*
X643910D01*
Y21093D01*
X644021D01*
Y21313D01*
X644131D01*
Y21644D01*
X644241D01*
Y21865D01*
X644352D01*
Y22086D01*
X644462D01*
Y22417D01*
X644572D01*
Y22637D01*
X644683D01*
Y22968D01*
X644793D01*
Y23189D01*
X644903D01*
Y23520D01*
X645014D01*
Y23740D01*
X645124D01*
Y23961D01*
X645234D01*
Y24292D01*
X645344D01*
Y24402D01*
X645455D01*
Y24623D01*
X645565D01*
Y24733D01*
X645786D01*
Y24844D01*
X647440D01*
Y24733D01*
D02*
G37*
G36*
X700614Y22196D02*
X700834D01*
Y21644D01*
X700724D01*
Y21203D01*
X700614D01*
Y20872D01*
X700503D01*
Y20541D01*
X700393D01*
Y20210D01*
X700283D01*
Y19769D01*
X700172D01*
Y19438D01*
X700062D01*
Y19107D01*
X699952D01*
Y18776D01*
X699841D01*
Y18445D01*
X699731D01*
Y18004D01*
X699621D01*
Y17673D01*
X699510D01*
Y17342D01*
X699400D01*
Y17011D01*
X699290D01*
Y16570D01*
X699179D01*
Y16239D01*
X699069D01*
Y15908D01*
X698959D01*
Y15577D01*
X698848D01*
Y15136D01*
X698738D01*
Y14915D01*
X698628D01*
Y14805D01*
X697083D01*
Y14915D01*
X696973D01*
Y15246D01*
X696863D01*
Y15577D01*
X696753D01*
Y16018D01*
X696642D01*
Y16349D01*
X696532D01*
Y16680D01*
X696421D01*
Y17121D01*
X696311D01*
Y17452D01*
X696201D01*
Y17894D01*
X696091D01*
Y18225D01*
X695980D01*
Y18666D01*
X695870D01*
Y18997D01*
X695760D01*
Y19438D01*
X695649D01*
Y19769D01*
X695539D01*
Y19990D01*
X695429D01*
Y19548D01*
X695318D01*
Y19107D01*
X695208D01*
Y18666D01*
X695098D01*
Y18335D01*
X694987D01*
Y17894D01*
X694877D01*
Y17452D01*
X694767D01*
Y17011D01*
X694656D01*
Y16680D01*
X694546D01*
Y16239D01*
X694436D01*
Y15798D01*
X694325D01*
Y15467D01*
X694215D01*
Y15025D01*
X694105D01*
Y14915D01*
X693995D01*
Y14805D01*
X692560D01*
Y14915D01*
X692450D01*
Y15025D01*
X692340D01*
Y15356D01*
X692229D01*
Y15687D01*
X692119D01*
Y16128D01*
X692009D01*
Y16459D01*
X691898D01*
Y16790D01*
X691788D01*
Y17121D01*
X691678D01*
Y17563D01*
X691568D01*
Y17894D01*
X691457D01*
Y18225D01*
X691347D01*
Y18555D01*
X691237D01*
Y18997D01*
X691126D01*
Y19328D01*
X691016D01*
Y19659D01*
X690906D01*
Y19990D01*
X690795D01*
Y20431D01*
X690685D01*
Y20762D01*
X690575D01*
Y21093D01*
X690464D01*
Y21424D01*
X690354D01*
Y21865D01*
X690244D01*
Y22086D01*
X690354D01*
Y22196D01*
X690575D01*
Y22306D01*
X691347D01*
Y22196D01*
X691568D01*
Y22086D01*
X691678D01*
Y21865D01*
X691788D01*
Y21424D01*
X691898D01*
Y21093D01*
X692009D01*
Y20651D01*
X692119D01*
Y20321D01*
X692229D01*
Y19879D01*
X692340D01*
Y19548D01*
X692450D01*
Y19217D01*
X692560D01*
Y18776D01*
X692671D01*
Y18445D01*
X692781D01*
Y18004D01*
X692891D01*
Y17673D01*
X693002D01*
Y17232D01*
X693112D01*
Y16901D01*
X693222D01*
Y16570D01*
X693333D01*
Y16459D01*
X693443D01*
Y16901D01*
X693553D01*
Y17342D01*
X693664D01*
Y17673D01*
X693774D01*
Y18114D01*
X693884D01*
Y18555D01*
X693995D01*
Y18886D01*
X694105D01*
Y19328D01*
X694215D01*
Y19769D01*
X694325D01*
Y20210D01*
X694436D01*
Y20541D01*
X694546D01*
Y20982D01*
X694656D01*
Y21424D01*
X694767D01*
Y21865D01*
X694877D01*
Y22086D01*
X694987D01*
Y22196D01*
X695208D01*
Y22306D01*
X695870D01*
Y22196D01*
X696201D01*
Y21975D01*
X696311D01*
Y21534D01*
X696421D01*
Y21203D01*
X696532D01*
Y20762D01*
X696642D01*
Y20431D01*
X696753D01*
Y19990D01*
X696863D01*
Y19659D01*
X696973D01*
Y19217D01*
X697083D01*
Y18886D01*
X697194D01*
Y18555D01*
X697304D01*
Y18114D01*
X697414D01*
Y17783D01*
X697525D01*
Y17342D01*
X697635D01*
Y17011D01*
X697745D01*
Y16570D01*
X697856D01*
Y16459D01*
X697966D01*
Y16790D01*
X698076D01*
Y17121D01*
X698187D01*
Y17563D01*
X698297D01*
Y17894D01*
X698407D01*
Y18335D01*
X698518D01*
Y18666D01*
X698628D01*
Y19107D01*
X698738D01*
Y19438D01*
X698848D01*
Y19879D01*
X698959D01*
Y20210D01*
X699069D01*
Y20651D01*
X699179D01*
Y20982D01*
X699290D01*
Y21424D01*
X699400D01*
Y21755D01*
X699510D01*
Y22086D01*
X699621D01*
Y22196D01*
X699841D01*
Y22306D01*
X700614D01*
Y22196D01*
D02*
G37*
G36*
X315137Y16165D02*
X314299D01*
Y16584D01*
X315137D01*
Y16165D01*
D02*
G37*
G36*
X312412Y16375D02*
Y16165D01*
X311574D01*
Y16584D01*
X312412D01*
Y16375D01*
D02*
G37*
G36*
X311574Y15327D02*
X310945D01*
Y15536D01*
Y15746D01*
Y16165D01*
X311574D01*
Y15327D01*
D02*
G37*
G36*
X309478D02*
X309059D01*
Y15956D01*
Y16165D01*
X309478D01*
Y15327D01*
D02*
G37*
G36*
X297112Y16165D02*
X297950D01*
Y15327D01*
X298579D01*
Y14698D01*
X299208D01*
Y15327D01*
X298579D01*
Y16165D01*
X299208D01*
Y15956D01*
Y15327D01*
X299837D01*
Y14698D01*
X300465D01*
Y13231D01*
X301304D01*
Y14698D01*
X301933D01*
Y12602D01*
X301304D01*
Y11764D01*
X298579D01*
Y12602D01*
X297950D01*
Y13231D01*
X296483D01*
Y12602D01*
X295016D01*
Y11764D01*
X294178D01*
Y11135D01*
X293129D01*
Y10506D01*
X292291D01*
Y11764D01*
X290824D01*
Y12602D01*
X290195D01*
Y13231D01*
X288938D01*
Y13860D01*
X290195D01*
Y14698D01*
X289357D01*
Y15327D01*
X290195D01*
Y15117D01*
Y14698D01*
X290824D01*
Y13440D01*
Y13231D01*
Y12602D01*
X291662D01*
Y14698D01*
X290824D01*
Y14908D01*
Y16165D01*
X291662D01*
Y14698D01*
X292291D01*
Y13860D01*
X293129D01*
Y14698D01*
X292291D01*
Y16165D01*
X293129D01*
Y15327D01*
X293758D01*
Y16165D01*
X293129D01*
Y16584D01*
X293758D01*
Y16165D01*
X294178D01*
Y15327D01*
X295016D01*
Y16165D01*
X294178D01*
Y16584D01*
X297112D01*
Y16165D01*
D02*
G37*
G36*
X705137Y22306D02*
X705909D01*
Y22196D01*
X706240D01*
Y22086D01*
X706460D01*
Y21975D01*
X706571D01*
Y21865D01*
X706791D01*
Y21755D01*
X706902D01*
Y21644D01*
X707012D01*
Y21534D01*
X707122D01*
Y21313D01*
X707233D01*
Y21093D01*
X707343D01*
Y20872D01*
X707453D01*
Y20210D01*
X707564D01*
Y14915D01*
X707453D01*
Y14805D01*
X706460D01*
Y14915D01*
X706350D01*
Y15577D01*
X706240D01*
Y15467D01*
X706129D01*
Y15356D01*
X706019D01*
Y15246D01*
X705798D01*
Y15136D01*
X705688D01*
Y15025D01*
X705468D01*
Y14915D01*
X705247D01*
Y14805D01*
X704916D01*
Y14694D01*
X703371D01*
Y14805D01*
X703041D01*
Y14915D01*
X702820D01*
Y15025D01*
X702599D01*
Y15136D01*
X702489D01*
Y15246D01*
X702379D01*
Y15356D01*
X702268D01*
Y15467D01*
X702158D01*
Y15577D01*
X702048D01*
Y15798D01*
X701937D01*
Y16018D01*
X701827D01*
Y16459D01*
X701717D01*
Y17011D01*
X701827D01*
Y17563D01*
X701937D01*
Y17783D01*
X702048D01*
Y18004D01*
X702158D01*
Y18114D01*
X702268D01*
Y18225D01*
X702379D01*
Y18335D01*
X702489D01*
Y18445D01*
X702599D01*
Y18555D01*
X702710D01*
Y18666D01*
X702930D01*
Y18776D01*
X703151D01*
Y18886D01*
X703592D01*
Y18997D01*
X704033D01*
Y19107D01*
X706129D01*
Y19217D01*
X706240D01*
Y19879D01*
X706129D01*
Y20431D01*
X706019D01*
Y20651D01*
X705909D01*
Y20872D01*
X705798D01*
Y20982D01*
X705688D01*
Y21093D01*
X705468D01*
Y21203D01*
X704806D01*
Y21313D01*
X704364D01*
Y21203D01*
X703702D01*
Y21093D01*
X703371D01*
Y20982D01*
X703151D01*
Y20872D01*
X702930D01*
Y20762D01*
X702710D01*
Y20651D01*
X702489D01*
Y20541D01*
X702268D01*
Y20651D01*
X702158D01*
Y20872D01*
X702048D01*
Y21313D01*
X702158D01*
Y21534D01*
X702268D01*
Y21644D01*
X702379D01*
Y21755D01*
X702489D01*
Y21865D01*
X702710D01*
Y21975D01*
X703041D01*
Y22086D01*
X703261D01*
Y22196D01*
X703702D01*
Y22306D01*
X704475D01*
Y22417D01*
X705137D01*
Y22306D01*
D02*
G37*
G36*
X670276Y22196D02*
X670607D01*
Y14805D01*
X669394D01*
Y14915D01*
X669283D01*
Y15798D01*
Y15908D01*
Y22086D01*
X669394D01*
Y22196D01*
X669614D01*
Y22306D01*
X670276D01*
Y22196D01*
D02*
G37*
G36*
X667408Y24623D02*
X667518D01*
Y23961D01*
X667408D01*
Y23740D01*
X663547D01*
Y22196D01*
Y22086D01*
Y20321D01*
X667187D01*
Y20100D01*
X667298D01*
Y19438D01*
X667187D01*
Y19217D01*
X663547D01*
Y14915D01*
X663437D01*
Y14805D01*
X662223D01*
Y15025D01*
X662113D01*
Y24402D01*
X662223D01*
Y24733D01*
X662333D01*
Y24844D01*
X667408D01*
Y24623D01*
D02*
G37*
G36*
X310945Y14908D02*
Y14698D01*
X310316D01*
Y15327D01*
X310945D01*
Y14908D01*
D02*
G37*
G36*
X309059D02*
Y14698D01*
X308220D01*
Y15327D01*
X309059D01*
Y14908D01*
D02*
G37*
G36*
X282021Y14698D02*
X281183D01*
Y15327D01*
X282021D01*
Y14698D01*
D02*
G37*
G36*
X718264Y22306D02*
X719037D01*
Y22196D01*
X719368D01*
Y22086D01*
X719588D01*
Y21975D01*
X719809D01*
Y21865D01*
X720029D01*
Y21755D01*
X720140D01*
Y21644D01*
X720250D01*
Y21534D01*
X720360D01*
Y21424D01*
X720471D01*
Y21313D01*
X720581D01*
Y21093D01*
X720691D01*
Y20872D01*
X720802D01*
Y20651D01*
X720912D01*
Y20431D01*
X721022D01*
Y19879D01*
X721133D01*
Y18445D01*
X721022D01*
Y18335D01*
X720912D01*
Y18225D01*
X716058D01*
Y17673D01*
X716168D01*
Y17121D01*
X716279D01*
Y16790D01*
X716389D01*
Y16570D01*
X716499D01*
Y16459D01*
X716610D01*
Y16349D01*
X716720D01*
Y16239D01*
X716830D01*
Y16128D01*
X717051D01*
Y16018D01*
X717161D01*
Y15908D01*
X717492D01*
Y15798D01*
X719257D01*
Y15908D01*
X719698D01*
Y16018D01*
X720029D01*
Y16128D01*
X720360D01*
Y16239D01*
X720802D01*
Y16018D01*
X720912D01*
Y15577D01*
X720802D01*
Y15246D01*
X720691D01*
Y15136D01*
X720471D01*
Y15025D01*
X720140D01*
Y14915D01*
X719809D01*
Y14805D01*
X719257D01*
Y14694D01*
X717272D01*
Y14805D01*
X716830D01*
Y14915D01*
X716499D01*
Y15025D01*
X716279D01*
Y15136D01*
X716058D01*
Y15246D01*
X715948D01*
Y15356D01*
X715837D01*
Y15467D01*
X715727D01*
Y15577D01*
X715617D01*
Y15687D01*
X715506D01*
Y15798D01*
X715396D01*
Y15908D01*
X715286D01*
Y16128D01*
X715175D01*
Y16349D01*
X715065D01*
Y16570D01*
X714955D01*
Y16790D01*
X714845D01*
Y17342D01*
X714734D01*
Y17894D01*
Y18004D01*
Y19548D01*
X714845D01*
Y19990D01*
X714955D01*
Y20321D01*
X715065D01*
Y20541D01*
X715175D01*
Y20762D01*
X715286D01*
Y20982D01*
X715396D01*
Y21093D01*
X715506D01*
Y21313D01*
X715617D01*
Y21424D01*
X715727D01*
Y21534D01*
X715837D01*
Y21644D01*
X715948D01*
Y21755D01*
X716168D01*
Y21865D01*
X716279D01*
Y21975D01*
X716499D01*
Y22086D01*
X716720D01*
Y22196D01*
X717161D01*
Y22306D01*
X717823D01*
Y22417D01*
X718264D01*
Y22306D01*
D02*
G37*
G36*
X303400Y13860D02*
X302771D01*
Y14698D01*
X303400D01*
Y13860D01*
D02*
G37*
G36*
X283488Y14279D02*
Y14069D01*
Y13860D01*
X282650D01*
Y14698D01*
X283488D01*
Y14279D01*
D02*
G37*
G36*
X280554Y14698D02*
X281183D01*
Y13860D01*
X280554D01*
Y14698D01*
X279715D01*
Y15327D01*
X280554D01*
Y14698D01*
D02*
G37*
G36*
X630452Y24954D02*
X631334D01*
Y24844D01*
X631776D01*
Y24733D01*
X632106D01*
Y24623D01*
X632327D01*
Y24513D01*
X632437D01*
Y24402D01*
X632658D01*
Y24292D01*
X632879D01*
Y24182D01*
X632989D01*
Y24071D01*
X633099D01*
Y23961D01*
X633210D01*
Y23851D01*
X633320D01*
Y23740D01*
X633430D01*
Y23630D01*
X633540D01*
Y23409D01*
X633651D01*
Y23299D01*
X633761D01*
Y23078D01*
X633872D01*
Y22968D01*
X633982D01*
Y22637D01*
X634092D01*
Y22417D01*
X634202D01*
Y22086D01*
X634313D01*
Y21644D01*
X634423D01*
Y20982D01*
X634533D01*
Y18997D01*
X634423D01*
Y18225D01*
X634313D01*
Y17783D01*
X634202D01*
Y17452D01*
X634092D01*
Y17232D01*
X633982D01*
Y16901D01*
X633872D01*
Y16680D01*
X633761D01*
Y16570D01*
X633651D01*
Y16349D01*
X633540D01*
Y16239D01*
X633430D01*
Y16128D01*
X633320D01*
Y15908D01*
X633430D01*
Y15798D01*
X633540D01*
Y15687D01*
X633651D01*
Y15577D01*
X633872D01*
Y15467D01*
X633982D01*
Y15356D01*
X634202D01*
Y15246D01*
X634313D01*
Y15136D01*
X634533D01*
Y15025D01*
X634754D01*
Y14915D01*
X634975D01*
Y14805D01*
X635195D01*
Y14694D01*
X635416D01*
Y14584D01*
X635637D01*
Y14363D01*
X635747D01*
Y13481D01*
X635637D01*
Y13371D01*
X634975D01*
Y13481D01*
X634754D01*
Y13591D01*
X634533D01*
Y13701D01*
X634313D01*
Y13812D01*
X634092D01*
Y13922D01*
X633872D01*
Y14032D01*
X633761D01*
Y14143D01*
X633540D01*
Y14253D01*
X633320D01*
Y14363D01*
X633210D01*
Y14474D01*
X633099D01*
Y14584D01*
X632879D01*
Y14694D01*
X632768D01*
Y14805D01*
X632658D01*
Y14915D01*
X632548D01*
Y15025D01*
X632437D01*
Y15136D01*
X631996D01*
Y15025D01*
X631665D01*
Y14915D01*
X631445D01*
Y14805D01*
X631003D01*
Y14694D01*
X628797D01*
Y14805D01*
X628356D01*
Y14915D01*
X628025D01*
Y15025D01*
X627804D01*
Y15136D01*
X627583D01*
Y15246D01*
X627363D01*
Y15356D01*
X627142D01*
Y15467D01*
X627032D01*
Y15577D01*
X626922D01*
Y15687D01*
X626811D01*
Y15798D01*
X626701D01*
Y15908D01*
X626590D01*
Y16018D01*
X626480D01*
Y16239D01*
X626370D01*
Y16349D01*
X626260D01*
Y16570D01*
X626149D01*
Y16680D01*
X626039D01*
Y17011D01*
X625929D01*
Y17342D01*
X625818D01*
Y17673D01*
X625708D01*
Y18225D01*
X625598D01*
Y19107D01*
X625487D01*
Y20431D01*
X625598D01*
Y21313D01*
X625708D01*
Y21865D01*
X625818D01*
Y22196D01*
X625929D01*
Y22417D01*
X626039D01*
Y22748D01*
X626149D01*
Y22968D01*
X626260D01*
Y23078D01*
X626370D01*
Y23299D01*
X626480D01*
Y23409D01*
X626590D01*
Y23630D01*
X626701D01*
Y23740D01*
X626811D01*
Y23851D01*
X627032D01*
Y23961D01*
X627142D01*
Y24071D01*
X627252D01*
Y24182D01*
X627363D01*
Y24292D01*
X627583D01*
Y24402D01*
X627694D01*
Y24513D01*
X627914D01*
Y24623D01*
X628135D01*
Y24733D01*
X628466D01*
Y24844D01*
X628797D01*
Y24954D01*
X629459D01*
Y25064D01*
X630452D01*
Y24954D01*
D02*
G37*
G36*
X306753Y13440D02*
Y13231D01*
X306124D01*
Y13860D01*
X306753D01*
Y13440D01*
D02*
G37*
G36*
X315137Y17423D02*
X315766D01*
Y16584D01*
X316604D01*
Y13231D01*
X317233D01*
Y11764D01*
X317862D01*
Y11135D01*
X317233D01*
Y11764D01*
X316604D01*
Y11135D01*
X315766D01*
Y12602D01*
X315137D01*
Y13231D01*
X314299D01*
Y13440D01*
Y14698D01*
X313879D01*
Y16165D01*
X313041D01*
Y17004D01*
Y17213D01*
Y17423D01*
X313879D01*
Y16165D01*
X314299D01*
Y15117D01*
Y14908D01*
Y14698D01*
X315137D01*
Y13231D01*
X315766D01*
Y12602D01*
X316604D01*
Y13231D01*
X315766D01*
Y14069D01*
Y14279D01*
Y14698D01*
X315137D01*
Y15327D01*
X315766D01*
Y16584D01*
X315137D01*
Y17423D01*
X314299D01*
Y17842D01*
Y18052D01*
X315137D01*
Y17423D01*
D02*
G37*
G36*
X308220Y12602D02*
X307592D01*
Y13231D01*
Y13440D01*
Y13860D01*
X308220D01*
Y12602D01*
D02*
G37*
G36*
X306124D02*
X305496D01*
Y13231D01*
X306124D01*
Y12602D01*
D02*
G37*
G36*
X303400D02*
X302771D01*
Y13231D01*
X303400D01*
Y12602D01*
D02*
G37*
G36*
X286003Y13231D02*
X286842D01*
Y12602D01*
X286003D01*
Y13231D01*
X285374D01*
Y13860D01*
X286003D01*
Y13231D01*
D02*
G37*
G36*
X309478Y11764D02*
X309059D01*
Y12602D01*
X309478D01*
Y11764D01*
D02*
G37*
G36*
X307592D02*
X306753D01*
Y12602D01*
X307592D01*
Y11764D01*
D02*
G37*
G36*
X313041Y14698D02*
X313879D01*
Y13231D01*
X314299D01*
Y12602D01*
X315137D01*
Y11135D01*
X314299D01*
Y12602D01*
X313879D01*
Y12812D01*
Y13231D01*
X313041D01*
Y14698D01*
X312412D01*
Y14908D01*
Y15117D01*
Y15327D01*
X313041D01*
Y14698D01*
D02*
G37*
G36*
X309478Y13231D02*
X310316D01*
Y13021D01*
Y12602D01*
X310945D01*
Y11135D01*
X310316D01*
Y11764D01*
Y11973D01*
Y12602D01*
X309478D01*
Y13231D01*
X309059D01*
Y13650D01*
Y13860D01*
X309478D01*
Y13231D01*
D02*
G37*
G36*
X309059Y11135D02*
X308220D01*
Y11764D01*
X309059D01*
Y11135D01*
D02*
G37*
G36*
X304238D02*
X303400D01*
Y11764D01*
X304238D01*
Y11135D01*
D02*
G37*
G36*
X312412Y13231D02*
X313041D01*
Y12602D01*
X313879D01*
Y11135D01*
X314299D01*
Y10506D01*
X313879D01*
Y11135D01*
X313041D01*
Y12602D01*
X312412D01*
Y12812D01*
Y13231D01*
X311574D01*
Y14698D01*
X312412D01*
Y13231D01*
D02*
G37*
G36*
X310316Y13860D02*
X310945D01*
Y13650D01*
Y13440D01*
Y13231D01*
X311574D01*
Y12602D01*
X312412D01*
Y11135D01*
X313041D01*
Y10506D01*
X312412D01*
Y11135D01*
X311574D01*
Y11344D01*
Y12602D01*
X310945D01*
Y12812D01*
Y13021D01*
Y13231D01*
X310316D01*
Y13860D01*
X309478D01*
Y14069D01*
Y14279D01*
Y14698D01*
X310316D01*
Y13860D01*
D02*
G37*
G36*
X303400Y10925D02*
Y9877D01*
X302771D01*
Y11135D01*
X303400D01*
Y10925D01*
D02*
G37*
G36*
X301933Y9877D02*
X301304D01*
Y11135D01*
X301933D01*
Y9877D01*
D02*
G37*
G36*
X300465D02*
X299837D01*
Y10087D01*
Y10506D01*
X300465D01*
Y9877D01*
D02*
G37*
G36*
X299837Y9039D02*
X299208D01*
Y9877D01*
X299837D01*
Y9039D01*
D02*
G37*
G36*
X298579Y8620D02*
Y8410D01*
X297950D01*
Y9877D01*
X298579D01*
Y8620D01*
D02*
G37*
G36*
X297112Y8410D02*
X296483D01*
Y9668D01*
Y9877D01*
X297112D01*
Y8410D01*
D02*
G37*
G36*
X295645Y8620D02*
Y8410D01*
X296483D01*
Y7572D01*
X295645D01*
Y7781D01*
Y7991D01*
Y8410D01*
X295016D01*
Y9877D01*
X295645D01*
Y8620D01*
D02*
G37*
G36*
X294178Y8410D02*
X295016D01*
Y7572D01*
X294178D01*
Y8410D01*
X293758D01*
Y9877D01*
X294178D01*
Y8410D01*
D02*
G37*
G36*
X273008Y15327D02*
X273428D01*
Y17423D01*
X274266D01*
Y15327D01*
X274895D01*
Y14698D01*
X275733D01*
Y15327D01*
X274895D01*
Y17423D01*
X275733D01*
Y15327D01*
X276362D01*
Y14698D01*
X277200D01*
Y13860D01*
X277829D01*
Y13231D01*
X278667D01*
Y13860D01*
X277829D01*
Y14698D01*
X277200D01*
Y15327D01*
X276362D01*
Y16375D01*
Y16584D01*
X277200D01*
Y15327D01*
X277829D01*
Y14698D01*
X278667D01*
Y13860D01*
X279087D01*
Y13231D01*
X279715D01*
Y12602D01*
X280554D01*
Y13231D01*
X279715D01*
Y13860D01*
X279087D01*
Y14698D01*
X278667D01*
Y15117D01*
Y15327D01*
X277829D01*
Y16165D01*
X278667D01*
Y15327D01*
X279087D01*
Y14698D01*
X279715D01*
Y14488D01*
Y13860D01*
X280554D01*
Y13231D01*
X282021D01*
Y12602D01*
X281183D01*
Y11764D01*
X282650D01*
Y10506D01*
X283488D01*
Y9877D01*
X283907D01*
Y10506D01*
X283488D01*
Y11764D01*
X282650D01*
Y13231D01*
X282021D01*
Y13860D01*
X282650D01*
Y13231D01*
X283488D01*
Y11764D01*
X283907D01*
Y11554D01*
Y11344D01*
Y10506D01*
X284536D01*
Y11764D01*
X283907D01*
Y13231D01*
Y13440D01*
Y13860D01*
X284536D01*
Y11764D01*
X285374D01*
Y11135D01*
X286003D01*
Y11764D01*
X285374D01*
Y12602D01*
X286003D01*
Y12183D01*
Y11973D01*
Y11764D01*
X288938D01*
Y11344D01*
Y11135D01*
X286842D01*
Y10506D01*
X290824D01*
Y9877D01*
X290195D01*
Y9039D01*
X291662D01*
Y8410D01*
X292291D01*
Y8829D01*
Y9039D01*
X291662D01*
Y9668D01*
Y9877D01*
Y10506D01*
X292291D01*
Y9039D01*
X293129D01*
Y8410D01*
X293758D01*
Y7572D01*
X294178D01*
Y6943D01*
X293758D01*
Y7572D01*
X291662D01*
Y8410D01*
X290824D01*
Y7572D01*
X290195D01*
Y8410D01*
X286842D01*
Y9039D01*
X283907D01*
Y8410D01*
X283488D01*
Y9877D01*
X282650D01*
Y10087D01*
Y10506D01*
X282021D01*
Y10716D01*
Y11135D01*
X281183D01*
Y11764D01*
X280554D01*
Y11135D01*
X281183D01*
Y10506D01*
X282021D01*
Y9877D01*
X282650D01*
Y8410D01*
X282021D01*
Y7572D01*
X281183D01*
Y8410D01*
X280554D01*
Y9877D01*
X279715D01*
Y10506D01*
X277829D01*
Y11135D01*
X277200D01*
Y10925D01*
Y10506D01*
X276362D01*
Y11764D01*
X274895D01*
Y13231D01*
X273428D01*
Y14698D01*
X273008D01*
Y15327D01*
X272379D01*
Y17004D01*
Y17213D01*
Y18680D01*
X273008D01*
Y15327D01*
D02*
G37*
G36*
X397410Y49076D02*
X397618D01*
X397889Y49055D01*
X398160Y49013D01*
X398472Y48972D01*
X399118Y48867D01*
X399785Y48680D01*
X400410Y48451D01*
X400701Y48284D01*
X400972Y48118D01*
X400993Y48097D01*
X401034Y48076D01*
X401097Y48013D01*
X401180Y47930D01*
X401284Y47826D01*
X401409Y47722D01*
X401514Y47576D01*
X401659Y47409D01*
X401784Y47201D01*
X401889Y46993D01*
X402013Y46764D01*
X402118Y46514D01*
X402201Y46243D01*
X402263Y45951D01*
X402305Y45639D01*
X402326Y45306D01*
Y45264D01*
Y45181D01*
X402305Y45035D01*
X402284Y44826D01*
X402222Y44597D01*
X402159Y44306D01*
X402055Y44014D01*
X401930Y43702D01*
X401763Y43368D01*
X401555Y43035D01*
X401284Y42681D01*
X400972Y42369D01*
X400618Y42056D01*
X400201Y41765D01*
X399701Y41515D01*
X399139Y41285D01*
X399160D01*
X399222Y41265D01*
X399326Y41244D01*
X399451Y41223D01*
X399597Y41181D01*
X399785Y41140D01*
X400201Y40994D01*
X400660Y40806D01*
X401118Y40556D01*
X401576Y40265D01*
X401993Y39890D01*
X402013Y39869D01*
X402034Y39848D01*
X402076Y39786D01*
X402159Y39702D01*
X402222Y39598D01*
X402305Y39473D01*
X402493Y39161D01*
X402680Y38765D01*
X402847Y38307D01*
X402951Y37765D01*
X402972Y37494D01*
X402992Y37182D01*
Y37161D01*
Y37078D01*
X402972Y36953D01*
Y36786D01*
X402930Y36578D01*
X402909Y36349D01*
X402847Y36099D01*
X402784Y35828D01*
X402680Y35536D01*
X402576Y35224D01*
X402430Y34911D01*
X402263Y34599D01*
X402055Y34307D01*
X401826Y34016D01*
X401555Y33724D01*
X401243Y33474D01*
X401222Y33453D01*
X401159Y33412D01*
X401055Y33349D01*
X400930Y33266D01*
X400743Y33162D01*
X400534Y33057D01*
X400264Y32932D01*
X399972Y32828D01*
X399660Y32703D01*
X399285Y32578D01*
X398889Y32474D01*
X398451Y32370D01*
X397993Y32287D01*
X397493Y32224D01*
X396952Y32183D01*
X396389Y32162D01*
X395994D01*
X395806Y32183D01*
X395327D01*
X395056Y32204D01*
X394785D01*
X394598Y32224D01*
X392078D01*
X391578Y32204D01*
X391036D01*
X390474Y32183D01*
X390432Y32703D01*
X391911Y33141D01*
X391932D01*
X391953Y33162D01*
X392057Y33224D01*
X392161Y33328D01*
X392203Y33412D01*
X392223Y33516D01*
Y33537D01*
Y33599D01*
Y33703D01*
X392244Y33828D01*
Y33995D01*
Y34161D01*
Y34578D01*
Y34599D01*
Y34682D01*
Y34807D01*
X392265Y34974D01*
Y35161D01*
Y35390D01*
Y35640D01*
Y35890D01*
Y45639D01*
Y45660D01*
Y45743D01*
Y45847D01*
Y45993D01*
Y46160D01*
Y46347D01*
X392244Y46722D01*
Y46743D01*
Y46805D01*
Y46909D01*
Y47014D01*
Y47305D01*
X392223Y47618D01*
Y47638D01*
Y47659D01*
X392182Y47784D01*
X392119Y47930D01*
X392036Y47993D01*
X391953Y48034D01*
X390453Y48513D01*
X390432Y49034D01*
X390703D01*
X390828Y49013D01*
X391390D01*
X391848Y48992D01*
X392369D01*
X392911Y48972D01*
X393723D01*
X393911Y48992D01*
X394161D01*
X394473Y49013D01*
X394848D01*
X395285Y49034D01*
X395410D01*
X395494Y49055D01*
X395702D01*
X395973Y49076D01*
X396244D01*
X396535Y49097D01*
X397223D01*
X397410Y49076D01*
D02*
G37*
G36*
X356937Y48909D02*
X356188Y44701D01*
X355708Y44618D01*
X354938Y47909D01*
X350709D01*
Y35911D01*
Y35890D01*
Y35849D01*
Y35786D01*
Y35682D01*
Y35557D01*
Y35432D01*
Y35099D01*
Y34724D01*
Y34349D01*
X350730Y33953D01*
Y33599D01*
Y33578D01*
Y33558D01*
X350772Y33453D01*
X350813Y33370D01*
X350855Y33328D01*
X350938Y33266D01*
X351043Y33224D01*
X352813Y32703D01*
X352834Y32183D01*
X352355D01*
X352167Y32204D01*
X351209D01*
X350668Y32224D01*
X348105D01*
X347543Y32204D01*
X346918D01*
X346272Y32183D01*
X346231Y32703D01*
X348001Y33224D01*
X348022D01*
X348043Y33245D01*
X348168Y33307D01*
X348272Y33412D01*
X348293Y33495D01*
X348314Y33599D01*
Y33620D01*
Y33641D01*
Y33766D01*
X348335Y33953D01*
Y34224D01*
Y34557D01*
X348355Y34953D01*
Y35411D01*
Y35911D01*
Y47909D01*
X344106D01*
X343044Y44701D01*
X342565Y44618D01*
X342252Y48909D01*
X342336Y49013D01*
X343106D01*
X343419Y48992D01*
X345023D01*
X345481Y48972D01*
X353313D01*
X353750Y48992D01*
X355771D01*
X356875Y49013D01*
X356937Y48909D01*
D02*
G37*
G36*
X446631Y42848D02*
X446610D01*
X446569Y42827D01*
X446527D01*
X446444Y42806D01*
X446215Y42744D01*
X445965Y42660D01*
X445673Y42577D01*
X445381Y42473D01*
X445111Y42389D01*
X444882Y42285D01*
X444861Y42264D01*
X444798Y42244D01*
X444673Y42181D01*
X444527Y42098D01*
X444361Y41973D01*
X444153Y41806D01*
X443903Y41619D01*
X443653Y41390D01*
X441091Y39036D01*
X444944Y34203D01*
X444965Y34161D01*
X445048Y34078D01*
X445173Y33932D01*
X445319Y33766D01*
X445652Y33412D01*
X445819Y33266D01*
X445965Y33141D01*
X445986Y33120D01*
X446027Y33099D01*
X446131Y33037D01*
X446256Y32974D01*
X446423Y32912D01*
X446652Y32828D01*
X446902Y32766D01*
X447194Y32683D01*
X447215Y32183D01*
X446819D01*
X446673Y32204D01*
X445923D01*
X445527Y32224D01*
X444048D01*
X443778Y32204D01*
X443465D01*
X443444Y32245D01*
X443382Y32329D01*
X443298Y32474D01*
X443174Y32662D01*
X443007Y32891D01*
X442840Y33162D01*
X442632Y33453D01*
X442403Y33766D01*
X442382Y33787D01*
X442319Y33870D01*
X442236Y33995D01*
X442111Y34161D01*
X441965Y34370D01*
X441778Y34620D01*
X441570Y34891D01*
X441340Y35203D01*
X441091Y35536D01*
X440820Y35890D01*
X440216Y36640D01*
X439549Y37453D01*
X438841Y38286D01*
X443174Y42494D01*
X441840Y42869D01*
X441799Y43348D01*
X442174D01*
X442319Y43327D01*
X443028D01*
X443403Y43306D01*
X444798D01*
X444986Y43327D01*
X445944D01*
X446256Y43348D01*
X446590D01*
X446631Y42848D01*
D02*
G37*
G36*
X430092Y43597D02*
X430238D01*
X430426Y43577D01*
X430634Y43556D01*
X430863Y43535D01*
X431384Y43431D01*
X431967Y43306D01*
X432571Y43139D01*
X433196Y42889D01*
Y42869D01*
X433175Y42827D01*
X433154Y42723D01*
X433134Y42619D01*
X433092Y42473D01*
X433050Y42285D01*
X433008Y42098D01*
X432967Y41869D01*
X432842Y41390D01*
X432738Y40827D01*
X432613Y40223D01*
X432488Y39598D01*
X432029Y39536D01*
X431050Y42410D01*
X431030D01*
X430946Y42452D01*
X430842Y42473D01*
X430696Y42514D01*
X430509Y42556D01*
X430301Y42577D01*
X430051Y42619D01*
X429634D01*
X429509Y42598D01*
X429363Y42577D01*
X429176Y42556D01*
X428780Y42473D01*
X428343Y42306D01*
X428093Y42223D01*
X427864Y42098D01*
X427634Y41952D01*
X427426Y41785D01*
X427197Y41598D01*
X427009Y41369D01*
X426989Y41348D01*
X426968Y41306D01*
X426926Y41244D01*
X426864Y41140D01*
X426780Y41015D01*
X426697Y40869D01*
X426614Y40681D01*
X426510Y40494D01*
X426426Y40265D01*
X426322Y40015D01*
X426239Y39744D01*
X426176Y39452D01*
X426093Y39119D01*
X426051Y38786D01*
X426030Y38432D01*
X426010Y38057D01*
Y38036D01*
Y37953D01*
Y37828D01*
X426030Y37661D01*
X426051Y37453D01*
X426072Y37224D01*
X426114Y36974D01*
X426156Y36703D01*
X426280Y36119D01*
X426489Y35536D01*
X426614Y35245D01*
X426759Y34974D01*
X426947Y34724D01*
X427135Y34495D01*
X427155Y34474D01*
X427197Y34453D01*
X427259Y34391D01*
X427343Y34307D01*
X427468Y34224D01*
X427634Y34141D01*
X427801Y34036D01*
X428009Y33932D01*
X428259Y33807D01*
X428530Y33703D01*
X428822Y33620D01*
X429155Y33537D01*
X429509Y33453D01*
X429884Y33391D01*
X430301Y33370D01*
X430759Y33349D01*
X431050D01*
X431176Y33370D01*
X431488D01*
X431842Y33412D01*
X432259Y33453D01*
X432717Y33495D01*
X433196Y33578D01*
X433258Y33057D01*
X433217Y33037D01*
X433134Y32974D01*
X432967Y32891D01*
X432738Y32766D01*
X432467Y32641D01*
X432155Y32495D01*
X431800Y32349D01*
X431405Y32224D01*
X431384D01*
X431363Y32204D01*
X431300D01*
X431217Y32183D01*
X431009Y32120D01*
X430738Y32058D01*
X430405Y31995D01*
X430030Y31953D01*
X429634Y31912D01*
X429238Y31891D01*
X429134D01*
X428988Y31912D01*
X428801D01*
X428593Y31933D01*
X428343Y31974D01*
X428051Y32016D01*
X427759Y32078D01*
X427426Y32162D01*
X427093Y32266D01*
X426739Y32370D01*
X426405Y32516D01*
X426051Y32703D01*
X425718Y32891D01*
X425406Y33120D01*
X425093Y33391D01*
X425072Y33412D01*
X425031Y33453D01*
X424947Y33558D01*
X424843Y33662D01*
X424739Y33828D01*
X424614Y34016D01*
X424468Y34224D01*
X424322Y34474D01*
X424177Y34745D01*
X424031Y35057D01*
X423906Y35390D01*
X423802Y35745D01*
X423698Y36140D01*
X423614Y36557D01*
X423572Y36994D01*
X423552Y37453D01*
Y37494D01*
Y37578D01*
X423572Y37723D01*
Y37911D01*
X423614Y38140D01*
X423635Y38411D01*
X423698Y38702D01*
X423781Y39036D01*
X423864Y39369D01*
X423989Y39744D01*
X424114Y40098D01*
X424281Y40473D01*
X424489Y40848D01*
X424718Y41202D01*
X424989Y41556D01*
X425301Y41889D01*
X425322Y41910D01*
X425385Y41973D01*
X425489Y42056D01*
X425614Y42160D01*
X425801Y42285D01*
X426010Y42431D01*
X426239Y42598D01*
X426510Y42764D01*
X426822Y42910D01*
X427155Y43077D01*
X427530Y43223D01*
X427926Y43348D01*
X428363Y43452D01*
X428801Y43535D01*
X429280Y43597D01*
X429780Y43618D01*
X429947D01*
X430092Y43597D01*
D02*
G37*
G36*
X438591Y50201D02*
Y50180D01*
Y50117D01*
Y50013D01*
Y49867D01*
X438570Y49680D01*
Y49451D01*
Y49180D01*
Y48867D01*
X438549Y48513D01*
Y48097D01*
Y47659D01*
Y47159D01*
X438528Y46639D01*
Y46055D01*
Y45430D01*
Y44764D01*
Y36911D01*
Y36890D01*
Y36828D01*
Y36744D01*
Y36599D01*
Y36453D01*
Y36265D01*
Y36057D01*
Y35807D01*
Y35286D01*
Y34703D01*
X438549Y34078D01*
Y33432D01*
Y33412D01*
Y33370D01*
X438591Y33266D01*
X438695Y33120D01*
X438758Y33057D01*
X438862Y33016D01*
X440028Y32683D01*
X440049Y32183D01*
X439674D01*
X439528Y32204D01*
X438778D01*
X438341Y32224D01*
X436216D01*
X435737Y32204D01*
X435217D01*
X434633Y32183D01*
X434592Y32683D01*
X436008Y33099D01*
X436029D01*
X436050Y33120D01*
X436133Y33182D01*
X436216Y33287D01*
X436258Y33453D01*
Y33474D01*
Y33516D01*
Y33599D01*
Y33682D01*
Y33828D01*
X436279Y33974D01*
Y34141D01*
Y34349D01*
Y34786D01*
X436300Y35307D01*
Y35870D01*
Y36474D01*
Y41410D01*
Y41431D01*
Y41473D01*
Y41556D01*
Y41681D01*
Y41827D01*
Y41994D01*
Y42181D01*
Y42389D01*
Y42889D01*
Y43431D01*
Y44014D01*
Y44639D01*
X436279Y45264D01*
Y45889D01*
Y46493D01*
Y47055D01*
X436258Y47555D01*
Y47784D01*
Y47993D01*
Y48159D01*
Y48326D01*
X436237Y48451D01*
Y48555D01*
X434612Y49055D01*
X434571Y49451D01*
X434592D01*
X434675Y49472D01*
X434779Y49492D01*
X434925Y49513D01*
X435112Y49555D01*
X435342Y49597D01*
X435591Y49659D01*
X435862Y49701D01*
X436154Y49763D01*
X436466Y49826D01*
X437112Y49972D01*
X437799Y50138D01*
X438487Y50305D01*
X438591Y50201D01*
D02*
G37*
G36*
X408575D02*
Y50180D01*
Y50117D01*
Y49992D01*
Y49847D01*
X408554Y49638D01*
Y49388D01*
Y49117D01*
Y48784D01*
X408533Y48430D01*
Y48013D01*
Y47576D01*
Y47076D01*
X408512Y46555D01*
Y45993D01*
Y45389D01*
Y44764D01*
Y36953D01*
Y36932D01*
Y36849D01*
Y36744D01*
Y36599D01*
Y36411D01*
Y36203D01*
Y35974D01*
Y35724D01*
Y35161D01*
Y34599D01*
X408533Y34016D01*
Y33495D01*
Y33474D01*
Y33432D01*
X408575Y33328D01*
X408617Y33245D01*
X408679Y33182D01*
X408762Y33120D01*
X408867Y33078D01*
X410179Y32683D01*
X410200Y32183D01*
X409783D01*
X409637Y32204D01*
X408804D01*
X408346Y32224D01*
X406200D01*
X405721Y32204D01*
X405200D01*
X404617Y32183D01*
X404576Y32683D01*
X405930Y33078D01*
X405950D01*
X405971Y33099D01*
X406075Y33162D01*
X406180Y33266D01*
X406221Y33349D01*
X406242Y33453D01*
Y33474D01*
Y33516D01*
Y33599D01*
Y33682D01*
Y33828D01*
X406263Y33974D01*
Y34141D01*
Y34349D01*
Y34786D01*
X406284Y35307D01*
Y35870D01*
Y36474D01*
Y41410D01*
Y41431D01*
Y41452D01*
Y41515D01*
Y41598D01*
Y41723D01*
Y41848D01*
Y42139D01*
Y42535D01*
Y42973D01*
Y43452D01*
Y43972D01*
X406263Y44535D01*
Y45118D01*
Y46305D01*
X406242Y46889D01*
Y47472D01*
Y48034D01*
X406221Y48555D01*
X404596Y49055D01*
X404555Y49451D01*
X404576D01*
X404659Y49472D01*
X404763Y49492D01*
X404909Y49513D01*
X405096Y49555D01*
X405326Y49597D01*
X405575Y49659D01*
X405846Y49701D01*
X406138Y49763D01*
X406450Y49826D01*
X407096Y49972D01*
X407783Y50138D01*
X408471Y50305D01*
X408575Y50201D01*
D02*
G37*
G36*
X361707D02*
Y50180D01*
Y50159D01*
Y50076D01*
Y49992D01*
X361687Y49867D01*
Y49742D01*
Y49576D01*
Y49367D01*
X361666Y49159D01*
Y48909D01*
Y48659D01*
Y48368D01*
X361645Y48055D01*
Y47722D01*
Y47347D01*
Y46972D01*
Y46951D01*
Y46868D01*
Y46764D01*
Y46597D01*
Y46410D01*
Y46180D01*
Y45910D01*
Y45597D01*
Y45264D01*
Y44910D01*
Y44514D01*
Y44118D01*
Y43681D01*
Y43223D01*
Y42264D01*
X361666Y42285D01*
X361728Y42327D01*
X361853Y42389D01*
X361999Y42473D01*
X362187Y42577D01*
X362395Y42702D01*
X362645Y42806D01*
X362916Y42952D01*
X363207Y43077D01*
X363520Y43181D01*
X364165Y43410D01*
X364499Y43493D01*
X364853Y43556D01*
X365207Y43597D01*
X365540Y43618D01*
X365707D01*
X365811Y43597D01*
X365957D01*
X366123Y43577D01*
X366498Y43493D01*
X366915Y43389D01*
X367352Y43223D01*
X367790Y42993D01*
X367998Y42848D01*
X368186Y42681D01*
X368206D01*
X368227Y42639D01*
X368269Y42577D01*
X368352Y42514D01*
X368415Y42410D01*
X368498Y42285D01*
X368602Y42160D01*
X368686Y41994D01*
X368790Y41806D01*
X368873Y41598D01*
X369040Y41140D01*
X369144Y40577D01*
X369165Y40286D01*
X369185Y39952D01*
Y35724D01*
Y35703D01*
Y35661D01*
Y35599D01*
Y35495D01*
Y35370D01*
Y35245D01*
Y34932D01*
Y34578D01*
Y34203D01*
X369206Y33828D01*
Y33495D01*
Y33474D01*
Y33453D01*
X369248Y33328D01*
X369331Y33182D01*
X369394Y33120D01*
X369498Y33078D01*
X370852Y32683D01*
X370873Y32183D01*
X370477D01*
X370310Y32204D01*
X369498D01*
X369040Y32224D01*
X366936D01*
X366498Y32204D01*
X365998D01*
X365478Y32183D01*
X365436Y32683D01*
X366623Y33016D01*
X366644D01*
X366665Y33037D01*
X366769Y33099D01*
X366873Y33224D01*
X366915Y33307D01*
X366936Y33391D01*
Y33432D01*
Y33474D01*
X366957Y33558D01*
Y33641D01*
Y33787D01*
Y33932D01*
Y34141D01*
Y39369D01*
Y39390D01*
Y39432D01*
Y39515D01*
X366936Y39619D01*
Y39723D01*
X366915Y39869D01*
X366873Y40181D01*
X366769Y40536D01*
X366644Y40890D01*
X366477Y41223D01*
X366228Y41494D01*
X366186Y41515D01*
X366103Y41598D01*
X365936Y41702D01*
X365707Y41827D01*
X365415Y41931D01*
X365061Y42035D01*
X364624Y42119D01*
X364144Y42139D01*
X363936D01*
X363832Y42119D01*
X363707D01*
X363395Y42077D01*
X363020Y41994D01*
X362582Y41889D01*
X362124Y41744D01*
X361645Y41556D01*
Y36182D01*
Y36161D01*
Y36119D01*
Y36036D01*
Y35932D01*
Y35807D01*
Y35640D01*
Y35286D01*
Y34849D01*
Y34391D01*
X361666Y33932D01*
Y33453D01*
Y33432D01*
Y33391D01*
X361707Y33287D01*
X361791Y33141D01*
X361853Y33078D01*
X361957Y33037D01*
X363207Y32683D01*
X363228Y32183D01*
X362853D01*
X362686Y32204D01*
X361916D01*
X361457Y32224D01*
X359333D01*
X358854Y32204D01*
X358333D01*
X357750Y32183D01*
X357708Y32683D01*
X359062Y33078D01*
X359083D01*
X359104Y33099D01*
X359229Y33162D01*
X359333Y33266D01*
X359354Y33349D01*
X359374Y33453D01*
Y33474D01*
Y33516D01*
Y33578D01*
Y33662D01*
Y33766D01*
X359395Y33912D01*
Y34078D01*
Y34245D01*
Y34453D01*
Y34682D01*
X359416Y35182D01*
Y35745D01*
Y36390D01*
Y41410D01*
Y41431D01*
Y41515D01*
Y41640D01*
Y41827D01*
Y42035D01*
Y42285D01*
Y42556D01*
Y42869D01*
Y43181D01*
Y43535D01*
Y44264D01*
X359395Y44993D01*
Y45722D01*
Y45743D01*
Y45805D01*
Y45910D01*
Y46035D01*
Y46201D01*
Y46368D01*
Y46784D01*
Y47243D01*
X359374Y47722D01*
Y48159D01*
X359354Y48368D01*
Y48555D01*
X357729Y49055D01*
X357687Y49451D01*
X357708D01*
X357771Y49472D01*
X357875Y49492D01*
X358020Y49513D01*
X358208Y49555D01*
X358396Y49597D01*
X358645Y49638D01*
X358895Y49701D01*
X359187Y49763D01*
X359499Y49826D01*
X360166Y49972D01*
X360874Y50138D01*
X361603Y50305D01*
X361707Y50201D01*
D02*
G37*
G36*
X416886Y43597D02*
X417032D01*
X417219Y43577D01*
X417615Y43493D01*
X418094Y43389D01*
X418573Y43202D01*
X419032Y42973D01*
X419261Y42806D01*
X419469Y42639D01*
X419490Y42619D01*
X419511Y42598D01*
X419573Y42535D01*
X419636Y42473D01*
X419719Y42369D01*
X419802Y42244D01*
X419907Y42098D01*
X420011Y41931D01*
X420115Y41744D01*
X420198Y41556D01*
X420365Y41077D01*
X420490Y40515D01*
X420531Y40223D01*
Y39890D01*
X420490Y34891D01*
Y34870D01*
Y34786D01*
Y34682D01*
Y34536D01*
Y34224D01*
Y34057D01*
X420510Y33912D01*
Y33891D01*
Y33849D01*
X420531Y33787D01*
X420552Y33703D01*
X420615Y33516D01*
X420719Y33328D01*
X420760Y33307D01*
X420865Y33224D01*
X421010Y33141D01*
X421240Y33057D01*
X421302D01*
X421385Y33037D01*
X421489Y33016D01*
X421615D01*
X421781Y32995D01*
X421969Y32974D01*
X422177D01*
X422239Y32516D01*
X422219D01*
X422156Y32474D01*
X422031Y32433D01*
X421885Y32391D01*
X421698Y32329D01*
X421489Y32266D01*
X421240Y32183D01*
X420969Y32120D01*
X420948D01*
X420844Y32078D01*
X420719Y32058D01*
X420573Y32016D01*
X420240Y31953D01*
X420094Y31912D01*
X419865D01*
X419781Y31933D01*
X419573Y31974D01*
X419323Y32058D01*
X419073Y32204D01*
X418927Y32308D01*
X418802Y32412D01*
X418678Y32558D01*
X418552Y32703D01*
X418448Y32891D01*
X418365Y33099D01*
X418344Y33078D01*
X418282Y33057D01*
X418198Y32995D01*
X418073Y32912D01*
X417928Y32828D01*
X417740Y32724D01*
X417553Y32599D01*
X417323Y32495D01*
X416824Y32266D01*
X416282Y32078D01*
X416011Y31995D01*
X415720Y31953D01*
X415449Y31912D01*
X415157Y31891D01*
X414991D01*
X414886Y31912D01*
X414741D01*
X414574Y31933D01*
X414178Y31995D01*
X413762Y32099D01*
X413303Y32224D01*
X412866Y32433D01*
X412449Y32703D01*
X412429D01*
X412408Y32745D01*
X412283Y32849D01*
X412137Y33037D01*
X411949Y33307D01*
X411762Y33641D01*
X411595Y34036D01*
X411470Y34495D01*
X411449Y34766D01*
X411429Y35036D01*
Y35057D01*
Y35120D01*
X411449Y35203D01*
Y35328D01*
X411470Y35495D01*
X411512Y35661D01*
X411637Y36057D01*
X411720Y36286D01*
X411824Y36494D01*
X411970Y36724D01*
X412116Y36953D01*
X412303Y37161D01*
X412533Y37369D01*
X412783Y37578D01*
X413074Y37744D01*
X413095Y37765D01*
X413158Y37786D01*
X413241Y37828D01*
X413387Y37890D01*
X413574Y37953D01*
X413782Y38036D01*
X414032Y38119D01*
X414345Y38203D01*
X414678Y38286D01*
X415074Y38348D01*
X415490Y38432D01*
X415949Y38494D01*
X416469Y38557D01*
X417032Y38598D01*
X417615Y38640D01*
X418261D01*
Y39557D01*
Y39577D01*
Y39619D01*
Y39682D01*
Y39786D01*
X418240Y40015D01*
X418178Y40306D01*
X418094Y40640D01*
X417990Y40973D01*
X417803Y41285D01*
X417573Y41556D01*
X417532Y41577D01*
X417449Y41660D01*
X417282Y41765D01*
X417053Y41889D01*
X416761Y41994D01*
X416386Y42098D01*
X415949Y42181D01*
X415449Y42202D01*
X415261D01*
X415136Y42181D01*
X415011D01*
X414866Y42160D01*
X414699D01*
X414303Y42098D01*
X413824Y42035D01*
X413282Y41931D01*
X412699Y41785D01*
X412429Y42577D01*
X412449Y42598D01*
X412533Y42619D01*
X412658Y42681D01*
X412824Y42744D01*
X413032Y42827D01*
X413262Y42910D01*
X413532Y42993D01*
X413824Y43098D01*
X414137Y43202D01*
X414470Y43285D01*
X415157Y43452D01*
X415886Y43577D01*
X416220Y43597D01*
X416574Y43618D01*
X416740D01*
X416886Y43597D01*
D02*
G37*
G36*
X378184D02*
X378351Y43577D01*
X378559Y43556D01*
X378788Y43514D01*
X379038Y43452D01*
X379580Y43306D01*
X379850Y43202D01*
X380121Y43077D01*
X380392Y42931D01*
X380663Y42764D01*
X380913Y42577D01*
X381142Y42348D01*
X381163Y42327D01*
X381184Y42285D01*
X381246Y42223D01*
X381329Y42119D01*
X381413Y41994D01*
X381517Y41827D01*
X381621Y41640D01*
X381746Y41431D01*
X381850Y41202D01*
X381954Y40931D01*
X382058Y40640D01*
X382142Y40327D01*
X382225Y39994D01*
X382288Y39619D01*
X382308Y39244D01*
X382329Y38827D01*
Y38807D01*
Y38765D01*
Y38702D01*
Y38619D01*
X382308Y38411D01*
X382288Y38161D01*
X374726D01*
Y38140D01*
Y38057D01*
Y37911D01*
X374747Y37744D01*
X374768Y37536D01*
X374789Y37286D01*
X374830Y37015D01*
X374872Y36724D01*
X375018Y36119D01*
X375122Y35828D01*
X375247Y35515D01*
X375372Y35224D01*
X375538Y34953D01*
X375726Y34703D01*
X375934Y34474D01*
X375955Y34453D01*
X375997Y34432D01*
X376059Y34370D01*
X376164Y34307D01*
X376288Y34224D01*
X376455Y34120D01*
X376642Y34016D01*
X376872Y33932D01*
X377122Y33828D01*
X377392Y33724D01*
X377705Y33620D01*
X378038Y33537D01*
X378413Y33474D01*
X378830Y33412D01*
X379267Y33391D01*
X379725Y33370D01*
X380038D01*
X380163Y33391D01*
X380454D01*
X380829Y33412D01*
X381246Y33453D01*
X381704Y33516D01*
X382183Y33578D01*
X382246Y33057D01*
X382225D01*
X382204Y33037D01*
X382142Y32995D01*
X382079Y32953D01*
X381871Y32849D01*
X381600Y32703D01*
X381288Y32558D01*
X380933Y32412D01*
X380538Y32287D01*
X380142Y32162D01*
X380121D01*
X380100Y32141D01*
X380038D01*
X379955Y32120D01*
X379767Y32078D01*
X379496Y32037D01*
X379184Y31974D01*
X378851Y31933D01*
X378496Y31912D01*
X378142Y31891D01*
X378017D01*
X377892Y31912D01*
X377705D01*
X377476Y31933D01*
X377226Y31974D01*
X376934Y32016D01*
X376622Y32078D01*
X376288Y32162D01*
X375955Y32266D01*
X375601Y32370D01*
X375247Y32516D01*
X374893Y32703D01*
X374539Y32891D01*
X374205Y33120D01*
X373893Y33391D01*
X373872Y33412D01*
X373831Y33453D01*
X373747Y33558D01*
X373643Y33662D01*
X373518Y33828D01*
X373372Y34016D01*
X373226Y34224D01*
X373081Y34474D01*
X372935Y34766D01*
X372789Y35078D01*
X372643Y35411D01*
X372518Y35786D01*
X372414Y36182D01*
X372331Y36619D01*
X372289Y37078D01*
X372268Y37557D01*
Y37578D01*
Y37682D01*
X372289Y37807D01*
Y37994D01*
X372310Y38223D01*
X372352Y38494D01*
X372393Y38786D01*
X372456Y39098D01*
X372539Y39432D01*
X372643Y39786D01*
X372747Y40161D01*
X372893Y40515D01*
X373081Y40890D01*
X373268Y41244D01*
X373497Y41577D01*
X373768Y41910D01*
X373789Y41931D01*
X373831Y41994D01*
X373935Y42077D01*
X374039Y42181D01*
X374205Y42306D01*
X374393Y42452D01*
X374601Y42598D01*
X374851Y42764D01*
X375122Y42931D01*
X375434Y43077D01*
X375768Y43223D01*
X376122Y43348D01*
X376518Y43452D01*
X376934Y43556D01*
X377372Y43597D01*
X377830Y43618D01*
X378038D01*
X378184Y43597D01*
D02*
G37*
G36*
X352917Y26729D02*
X351417Y26250D01*
X351397D01*
X351376Y26230D01*
X351272Y26167D01*
X351188Y26021D01*
X351147Y25938D01*
X351126Y25834D01*
Y25792D01*
Y25688D01*
Y25521D01*
Y25292D01*
X351105Y25001D01*
Y24667D01*
Y24271D01*
Y23855D01*
Y14106D01*
Y14086D01*
Y14044D01*
Y13961D01*
Y13877D01*
Y13752D01*
Y13607D01*
Y13273D01*
Y12898D01*
Y12503D01*
X351126Y12107D01*
Y11732D01*
Y11711D01*
Y11690D01*
X351167Y11586D01*
X351209Y11503D01*
X351272Y11461D01*
X351355Y11399D01*
X351459Y11357D01*
X352896Y10919D01*
X352917Y10399D01*
X352501D01*
X352334Y10419D01*
X351480D01*
X350980Y10440D01*
X348585D01*
X348126Y10419D01*
X347626D01*
X347106Y10399D01*
X347064Y10919D01*
X348418Y11336D01*
X348439D01*
X348460Y11357D01*
X348564Y11419D01*
X348668Y11544D01*
X348710Y11628D01*
X348730Y11732D01*
Y11753D01*
Y11773D01*
Y11836D01*
Y11898D01*
Y12107D01*
X348751Y12398D01*
Y12732D01*
Y13148D01*
Y13607D01*
Y14106D01*
Y18752D01*
X340003D01*
Y14106D01*
Y14086D01*
Y14044D01*
Y13961D01*
Y13877D01*
Y13752D01*
Y13607D01*
Y13273D01*
X340023Y12898D01*
Y12503D01*
Y12107D01*
X340044Y11732D01*
Y11711D01*
Y11690D01*
X340086Y11565D01*
X340128Y11503D01*
X340169Y11440D01*
X340252Y11378D01*
X340357Y11336D01*
X341690Y10919D01*
X341711Y10399D01*
X341336D01*
X341190Y10419D01*
X340398D01*
X339919Y10440D01*
X337503D01*
X337003Y10419D01*
X336461D01*
X335878Y10399D01*
X335837Y10919D01*
X337316Y11357D01*
X337336D01*
X337357Y11378D01*
X337482Y11440D01*
X337586Y11544D01*
X337607Y11628D01*
X337628Y11732D01*
Y11753D01*
Y11773D01*
Y11836D01*
Y11898D01*
X337649Y12107D01*
Y12398D01*
Y12732D01*
X337670Y13148D01*
Y13607D01*
Y14106D01*
Y23855D01*
Y23876D01*
Y23917D01*
Y23980D01*
Y24063D01*
Y24271D01*
Y24542D01*
Y24855D01*
X337649Y25188D01*
Y25521D01*
X337628Y25834D01*
Y25855D01*
Y25875D01*
X337586Y26000D01*
X337524Y26146D01*
X337440Y26209D01*
X337357Y26250D01*
X335857Y26729D01*
X335837Y27250D01*
X336107D01*
X336232Y27229D01*
X336795D01*
X337232Y27209D01*
X337753D01*
X338274Y27188D01*
X339711D01*
X340148Y27209D01*
X340628D01*
X341127Y27229D01*
X341648Y27250D01*
X341711Y26729D01*
X340357Y26292D01*
X340336D01*
X340315Y26271D01*
X340211Y26230D01*
X340086Y26105D01*
X340065Y26021D01*
X340044Y25917D01*
Y25875D01*
Y25771D01*
X340023Y25584D01*
Y25355D01*
Y25042D01*
X340003Y24709D01*
Y24313D01*
Y23897D01*
Y19835D01*
X348751D01*
Y23897D01*
Y23917D01*
Y23959D01*
Y24001D01*
Y24084D01*
Y24313D01*
Y24584D01*
Y24896D01*
Y25251D01*
X348730Y25584D01*
Y25917D01*
Y25938D01*
Y25959D01*
X348689Y26084D01*
X348585Y26209D01*
X348522Y26250D01*
X348418Y26292D01*
X347085Y26729D01*
X347064Y27250D01*
X347314D01*
X347439Y27229D01*
X347980D01*
X348418Y27209D01*
X348897D01*
X349418Y27188D01*
X350855D01*
X351292Y27209D01*
X351792D01*
X352313Y27229D01*
X352875Y27250D01*
X352917Y26729D01*
D02*
G37*
G36*
X427447Y21772D02*
Y21751D01*
X427426Y21689D01*
X427405Y21584D01*
X427384Y21459D01*
X427364Y21293D01*
X427322Y21105D01*
X427280Y20876D01*
X427239Y20626D01*
X427176Y20355D01*
X427135Y20064D01*
X427009Y19439D01*
X426885Y18752D01*
X426759Y18043D01*
X426280Y17960D01*
Y17981D01*
X426260Y18002D01*
X426218Y18127D01*
X426156Y18314D01*
X426072Y18543D01*
X425968Y18814D01*
X425864Y19085D01*
X425760Y19335D01*
X425635Y19585D01*
X425614Y19605D01*
X425572Y19689D01*
X425510Y19793D01*
X425385Y19897D01*
X425260Y20022D01*
X425072Y20105D01*
X424885Y20189D01*
X424635Y20210D01*
X424510D01*
X424385Y20189D01*
X424197Y20126D01*
X423968Y20064D01*
X423677Y19960D01*
X423385Y19814D01*
X423031Y19605D01*
Y14419D01*
Y14398D01*
Y14335D01*
Y14231D01*
Y14106D01*
Y13961D01*
Y13794D01*
Y13377D01*
Y12940D01*
Y12503D01*
X423052Y12086D01*
Y11919D01*
Y11753D01*
Y11732D01*
Y11690D01*
X423093Y11586D01*
X423177Y11440D01*
X423239Y11378D01*
X423343Y11336D01*
X424947Y10899D01*
X424968Y10399D01*
X424510D01*
X424322Y10419D01*
X423406D01*
X422906Y10440D01*
X420719D01*
X420240Y10419D01*
X419719D01*
X419136Y10399D01*
X419094Y10899D01*
X420490Y11294D01*
X420510D01*
X420531Y11315D01*
X420636Y11378D01*
X420719Y11503D01*
X420760Y11586D01*
X420781Y11669D01*
Y11690D01*
Y11773D01*
Y11878D01*
X420802Y12044D01*
Y12252D01*
Y12523D01*
Y12815D01*
Y13148D01*
Y17231D01*
Y17252D01*
Y17314D01*
Y17418D01*
Y17543D01*
Y17710D01*
Y17898D01*
Y18335D01*
X420781Y18814D01*
Y19293D01*
X420760Y19751D01*
Y19960D01*
X420740Y20147D01*
X419157Y20584D01*
X419094Y21001D01*
X419115D01*
X419177Y21022D01*
X419281Y21043D01*
X419427Y21064D01*
X419615Y21105D01*
X419823Y21147D01*
X420052Y21189D01*
X420323Y21251D01*
X420594Y21314D01*
X420906Y21376D01*
X421552Y21522D01*
X422219Y21668D01*
X422906Y21834D01*
X423031Y21751D01*
Y20335D01*
X423052Y20355D01*
X423135Y20397D01*
X423239Y20480D01*
X423406Y20564D01*
X423614Y20689D01*
X423843Y20814D01*
X424114Y20939D01*
X424406Y21084D01*
X424718Y21230D01*
X425072Y21355D01*
X425801Y21605D01*
X426176Y21689D01*
X426572Y21772D01*
X426989Y21813D01*
X427384Y21834D01*
X427447Y21772D01*
D02*
G37*
G36*
X377392Y28417D02*
Y28396D01*
Y28333D01*
Y28208D01*
Y28062D01*
X377372Y27854D01*
Y27604D01*
Y27333D01*
Y27000D01*
X377351Y26646D01*
Y26230D01*
Y25792D01*
Y25292D01*
X377330Y24771D01*
Y24209D01*
Y23605D01*
Y22980D01*
Y15169D01*
Y15148D01*
Y15065D01*
Y14960D01*
Y14815D01*
Y14627D01*
Y14419D01*
Y14190D01*
Y13940D01*
Y13377D01*
Y12815D01*
X377351Y12232D01*
Y11711D01*
Y11690D01*
Y11648D01*
X377392Y11544D01*
X377434Y11461D01*
X377497Y11399D01*
X377580Y11336D01*
X377684Y11294D01*
X378996Y10899D01*
X379017Y10399D01*
X378601D01*
X378455Y10419D01*
X377622D01*
X377163Y10440D01*
X375018D01*
X374539Y10419D01*
X374018D01*
X373435Y10399D01*
X373393Y10899D01*
X374747Y11294D01*
X374768D01*
X374789Y11315D01*
X374893Y11378D01*
X374997Y11482D01*
X375039Y11565D01*
X375060Y11669D01*
Y11690D01*
Y11732D01*
Y11815D01*
Y11898D01*
Y12044D01*
X375080Y12190D01*
Y12357D01*
Y12565D01*
Y13002D01*
X375101Y13523D01*
Y14086D01*
Y14690D01*
Y19626D01*
Y19647D01*
Y19668D01*
Y19730D01*
Y19814D01*
Y19939D01*
Y20064D01*
Y20355D01*
Y20751D01*
Y21189D01*
Y21668D01*
Y22188D01*
X375080Y22751D01*
Y23334D01*
Y24521D01*
X375060Y25105D01*
Y25688D01*
Y26250D01*
X375039Y26771D01*
X373414Y27271D01*
X373372Y27667D01*
X373393D01*
X373476Y27688D01*
X373581Y27708D01*
X373726Y27729D01*
X373914Y27771D01*
X374143Y27812D01*
X374393Y27875D01*
X374664Y27917D01*
X374955Y27979D01*
X375268Y28042D01*
X375914Y28188D01*
X376601Y28354D01*
X377288Y28521D01*
X377392Y28417D01*
D02*
G37*
G36*
X370498D02*
Y28396D01*
Y28333D01*
Y28208D01*
Y28062D01*
X370477Y27854D01*
Y27604D01*
Y27333D01*
Y27000D01*
X370456Y26646D01*
Y26230D01*
Y25792D01*
Y25292D01*
X370435Y24771D01*
Y24209D01*
Y23605D01*
Y22980D01*
Y15169D01*
Y15148D01*
Y15065D01*
Y14960D01*
Y14815D01*
Y14627D01*
Y14419D01*
Y14190D01*
Y13940D01*
Y13377D01*
Y12815D01*
X370456Y12232D01*
Y11711D01*
Y11690D01*
Y11648D01*
X370498Y11544D01*
X370539Y11461D01*
X370602Y11399D01*
X370685Y11336D01*
X370789Y11294D01*
X372102Y10899D01*
X372122Y10399D01*
X371706D01*
X371560Y10419D01*
X370727D01*
X370269Y10440D01*
X368123D01*
X367644Y10419D01*
X367123D01*
X366540Y10399D01*
X366498Y10899D01*
X367852Y11294D01*
X367873D01*
X367894Y11315D01*
X367998Y11378D01*
X368102Y11482D01*
X368144Y11565D01*
X368165Y11669D01*
Y11690D01*
Y11732D01*
Y11815D01*
Y11898D01*
Y12044D01*
X368186Y12190D01*
Y12357D01*
Y12565D01*
Y13002D01*
X368206Y13523D01*
Y14086D01*
Y14690D01*
Y19626D01*
Y19647D01*
Y19668D01*
Y19730D01*
Y19814D01*
Y19939D01*
Y20064D01*
Y20355D01*
Y20751D01*
Y21189D01*
Y21668D01*
Y22188D01*
X368186Y22751D01*
Y23334D01*
Y24521D01*
X368165Y25105D01*
Y25688D01*
Y26250D01*
X368144Y26771D01*
X366519Y27271D01*
X366477Y27667D01*
X366498D01*
X366582Y27688D01*
X366686Y27708D01*
X366832Y27729D01*
X367019Y27771D01*
X367248Y27812D01*
X367498Y27875D01*
X367769Y27917D01*
X368061Y27979D01*
X368373Y28042D01*
X369019Y28188D01*
X369706Y28354D01*
X370393Y28521D01*
X370498Y28417D01*
D02*
G37*
G36*
X434675Y21813D02*
X434842Y21793D01*
X435050Y21772D01*
X435279Y21730D01*
X435529Y21668D01*
X436070Y21522D01*
X436341Y21418D01*
X436612Y21293D01*
X436883Y21147D01*
X437154Y20980D01*
X437404Y20793D01*
X437633Y20564D01*
X437654Y20543D01*
X437674Y20501D01*
X437737Y20439D01*
X437820Y20335D01*
X437904Y20210D01*
X438008Y20043D01*
X438112Y19855D01*
X438237Y19647D01*
X438341Y19418D01*
X438445Y19147D01*
X438549Y18856D01*
X438633Y18543D01*
X438716Y18210D01*
X438778Y17835D01*
X438799Y17460D01*
X438820Y17043D01*
Y17023D01*
Y16981D01*
Y16918D01*
Y16835D01*
X438799Y16627D01*
X438778Y16377D01*
X431217D01*
Y16356D01*
Y16273D01*
Y16127D01*
X431238Y15960D01*
X431259Y15752D01*
X431280Y15502D01*
X431321Y15231D01*
X431363Y14940D01*
X431509Y14335D01*
X431613Y14044D01*
X431738Y13732D01*
X431863Y13440D01*
X432029Y13169D01*
X432217Y12919D01*
X432425Y12690D01*
X432446Y12669D01*
X432488Y12648D01*
X432550Y12586D01*
X432654Y12523D01*
X432779Y12440D01*
X432946Y12336D01*
X433134Y12232D01*
X433363Y12148D01*
X433613Y12044D01*
X433883Y11940D01*
X434196Y11836D01*
X434529Y11753D01*
X434904Y11690D01*
X435321Y11628D01*
X435758Y11607D01*
X436216Y11586D01*
X436529D01*
X436654Y11607D01*
X436945D01*
X437320Y11628D01*
X437737Y11669D01*
X438195Y11732D01*
X438674Y11794D01*
X438737Y11274D01*
X438716D01*
X438695Y11253D01*
X438633Y11211D01*
X438570Y11169D01*
X438362Y11065D01*
X438091Y10919D01*
X437779Y10774D01*
X437425Y10628D01*
X437029Y10503D01*
X436633Y10378D01*
X436612D01*
X436591Y10357D01*
X436529D01*
X436446Y10336D01*
X436258Y10294D01*
X435987Y10253D01*
X435675Y10190D01*
X435342Y10149D01*
X434987Y10128D01*
X434633Y10107D01*
X434508D01*
X434383Y10128D01*
X434196D01*
X433967Y10149D01*
X433717Y10190D01*
X433425Y10232D01*
X433113Y10294D01*
X432779Y10378D01*
X432446Y10482D01*
X432092Y10586D01*
X431738Y10732D01*
X431384Y10919D01*
X431030Y11107D01*
X430696Y11336D01*
X430384Y11607D01*
X430363Y11628D01*
X430322Y11669D01*
X430238Y11773D01*
X430134Y11878D01*
X430009Y12044D01*
X429863Y12232D01*
X429717Y12440D01*
X429572Y12690D01*
X429426Y12982D01*
X429280Y13294D01*
X429134Y13627D01*
X429009Y14002D01*
X428905Y14398D01*
X428822Y14836D01*
X428780Y15294D01*
X428759Y15773D01*
Y15794D01*
Y15898D01*
X428780Y16023D01*
Y16210D01*
X428801Y16439D01*
X428842Y16710D01*
X428884Y17002D01*
X428947Y17314D01*
X429030Y17648D01*
X429134Y18002D01*
X429238Y18377D01*
X429384Y18731D01*
X429572Y19106D01*
X429759Y19460D01*
X429988Y19793D01*
X430259Y20126D01*
X430280Y20147D01*
X430322Y20210D01*
X430426Y20293D01*
X430530Y20397D01*
X430696Y20522D01*
X430884Y20668D01*
X431092Y20814D01*
X431342Y20980D01*
X431613Y21147D01*
X431925Y21293D01*
X432259Y21439D01*
X432613Y21564D01*
X433008Y21668D01*
X433425Y21772D01*
X433863Y21813D01*
X434321Y21834D01*
X434529D01*
X434675Y21813D01*
D02*
G37*
G36*
X412303D02*
X412512Y21793D01*
X412762Y21751D01*
X413032Y21709D01*
X413324Y21647D01*
X413637Y21564D01*
X413970Y21459D01*
X414303Y21334D01*
X414637Y21189D01*
X414970Y21001D01*
X415303Y20793D01*
X415616Y20564D01*
X415907Y20293D01*
X415928Y20272D01*
X415970Y20230D01*
X416053Y20126D01*
X416157Y20022D01*
X416261Y19855D01*
X416386Y19668D01*
X416532Y19460D01*
X416678Y19210D01*
X416824Y18918D01*
X416969Y18627D01*
X417094Y18293D01*
X417199Y17918D01*
X417303Y17523D01*
X417386Y17106D01*
X417428Y16669D01*
X417449Y16210D01*
Y16189D01*
Y16085D01*
Y15939D01*
X417428Y15752D01*
X417407Y15523D01*
X417365Y15252D01*
X417303Y14960D01*
X417240Y14627D01*
X417157Y14273D01*
X417053Y13919D01*
X416907Y13544D01*
X416740Y13169D01*
X416553Y12815D01*
X416324Y12440D01*
X416074Y12107D01*
X415782Y11773D01*
X415761Y11753D01*
X415699Y11711D01*
X415616Y11628D01*
X415490Y11524D01*
X415324Y11378D01*
X415136Y11253D01*
X414907Y11086D01*
X414637Y10940D01*
X414345Y10794D01*
X414032Y10628D01*
X413699Y10503D01*
X413324Y10378D01*
X412928Y10253D01*
X412512Y10170D01*
X412053Y10128D01*
X411595Y10107D01*
X411491D01*
X411345Y10128D01*
X411179D01*
X410970Y10149D01*
X410720Y10190D01*
X410450Y10232D01*
X410158Y10315D01*
X409846Y10399D01*
X409512Y10503D01*
X409179Y10628D01*
X408846Y10774D01*
X408512Y10961D01*
X408179Y11169D01*
X407867Y11419D01*
X407575Y11690D01*
X407554Y11711D01*
X407513Y11773D01*
X407429Y11857D01*
X407346Y11982D01*
X407221Y12128D01*
X407096Y12336D01*
X406950Y12544D01*
X406825Y12794D01*
X406679Y13086D01*
X406534Y13398D01*
X406409Y13732D01*
X406284Y14106D01*
X406200Y14502D01*
X406117Y14919D01*
X406075Y15377D01*
X406054Y15835D01*
Y15856D01*
Y15960D01*
X406075Y16085D01*
Y16273D01*
X406096Y16502D01*
X406138Y16752D01*
X406180Y17043D01*
X406263Y17377D01*
X406346Y17710D01*
X406450Y18043D01*
X406575Y18418D01*
X406721Y18772D01*
X406909Y19126D01*
X407117Y19480D01*
X407367Y19835D01*
X407638Y20147D01*
X407658Y20168D01*
X407721Y20230D01*
X407804Y20314D01*
X407929Y20418D01*
X408096Y20543D01*
X408283Y20689D01*
X408512Y20834D01*
X408762Y21001D01*
X409054Y21147D01*
X409387Y21293D01*
X409721Y21439D01*
X410116Y21564D01*
X410512Y21689D01*
X410950Y21772D01*
X411408Y21813D01*
X411887Y21834D01*
X412137D01*
X412303Y21813D01*
D02*
G37*
G36*
X395827Y28417D02*
Y28396D01*
Y28333D01*
Y28229D01*
Y28083D01*
X395806Y27896D01*
Y27667D01*
Y27375D01*
Y27063D01*
X395785Y26709D01*
Y26313D01*
Y25855D01*
Y25375D01*
X395764Y24855D01*
Y24271D01*
Y23667D01*
Y23001D01*
Y20584D01*
X395785Y20605D01*
X395848Y20647D01*
X395952Y20709D01*
X396098Y20772D01*
X396264Y20876D01*
X396473Y20980D01*
X396681Y21084D01*
X396931Y21209D01*
X397473Y21439D01*
X398077Y21647D01*
X398389Y21709D01*
X398702Y21772D01*
X398993Y21813D01*
X399306Y21834D01*
X399535D01*
X399680Y21813D01*
X399868Y21793D01*
X400097Y21751D01*
X400347Y21709D01*
X400597Y21647D01*
X400889Y21564D01*
X401180Y21459D01*
X401472Y21334D01*
X401784Y21189D01*
X402076Y21022D01*
X402368Y20814D01*
X402638Y20584D01*
X402888Y20314D01*
X402909Y20293D01*
X402951Y20251D01*
X403013Y20168D01*
X403097Y20043D01*
X403201Y19897D01*
X403305Y19710D01*
X403430Y19501D01*
X403555Y19251D01*
X403680Y18981D01*
X403805Y18689D01*
X403909Y18356D01*
X404013Y18002D01*
X404097Y17627D01*
X404159Y17231D01*
X404201Y16793D01*
X404221Y16356D01*
Y16314D01*
Y16231D01*
X404201Y16064D01*
Y15877D01*
X404180Y15627D01*
X404138Y15335D01*
X404076Y15023D01*
X404013Y14669D01*
X403909Y14315D01*
X403805Y13940D01*
X403659Y13544D01*
X403492Y13169D01*
X403305Y12794D01*
X403076Y12419D01*
X402805Y12086D01*
X402513Y11753D01*
X402493Y11732D01*
X402430Y11690D01*
X402347Y11607D01*
X402201Y11503D01*
X402034Y11378D01*
X401826Y11232D01*
X401576Y11086D01*
X401305Y10940D01*
X400972Y10774D01*
X400639Y10628D01*
X400243Y10482D01*
X399826Y10357D01*
X399368Y10253D01*
X398889Y10170D01*
X398368Y10128D01*
X397827Y10107D01*
X397618D01*
X397473Y10128D01*
X397285D01*
X397077Y10149D01*
X396827Y10170D01*
X396535Y10190D01*
X396223Y10232D01*
X395889Y10274D01*
X395535Y10315D01*
X395160Y10399D01*
X394348Y10544D01*
X393494Y10774D01*
Y10794D01*
Y10836D01*
Y10940D01*
Y11044D01*
Y11211D01*
X393515Y11399D01*
Y11607D01*
Y11836D01*
Y12107D01*
Y12419D01*
X393536Y12732D01*
Y13086D01*
Y13461D01*
Y13856D01*
Y14273D01*
Y14710D01*
Y21813D01*
Y21834D01*
Y21938D01*
Y22084D01*
Y22272D01*
Y22501D01*
Y22772D01*
Y23084D01*
Y23438D01*
X393515Y23813D01*
Y24188D01*
Y25021D01*
X393494Y25896D01*
X393473Y26771D01*
X391848Y27271D01*
X391807Y27667D01*
X391828D01*
X391890Y27688D01*
X391994Y27708D01*
X392140Y27729D01*
X392327Y27771D01*
X392536Y27812D01*
X392765Y27854D01*
X393036Y27917D01*
X393306Y27958D01*
X393619Y28042D01*
X394286Y28188D01*
X394973Y28333D01*
X395702Y28521D01*
X395827Y28417D01*
D02*
G37*
G36*
X386516Y21813D02*
X386683Y21793D01*
X386891Y21772D01*
X387120Y21730D01*
X387370Y21668D01*
X387912Y21522D01*
X388182Y21418D01*
X388453Y21293D01*
X388724Y21147D01*
X388995Y20980D01*
X389245Y20793D01*
X389474Y20564D01*
X389495Y20543D01*
X389515Y20501D01*
X389578Y20439D01*
X389661Y20335D01*
X389745Y20210D01*
X389849Y20043D01*
X389953Y19855D01*
X390078Y19647D01*
X390182Y19418D01*
X390286Y19147D01*
X390390Y18856D01*
X390474Y18543D01*
X390557Y18210D01*
X390619Y17835D01*
X390640Y17460D01*
X390661Y17043D01*
Y17023D01*
Y16981D01*
Y16918D01*
Y16835D01*
X390640Y16627D01*
X390619Y16377D01*
X383058D01*
Y16356D01*
Y16273D01*
Y16127D01*
X383079Y15960D01*
X383100Y15752D01*
X383121Y15502D01*
X383162Y15231D01*
X383204Y14940D01*
X383350Y14335D01*
X383454Y14044D01*
X383579Y13732D01*
X383704Y13440D01*
X383871Y13169D01*
X384058Y12919D01*
X384266Y12690D01*
X384287Y12669D01*
X384329Y12648D01*
X384391Y12586D01*
X384495Y12523D01*
X384620Y12440D01*
X384787Y12336D01*
X384975Y12232D01*
X385204Y12148D01*
X385454Y12044D01*
X385724Y11940D01*
X386037Y11836D01*
X386370Y11753D01*
X386745Y11690D01*
X387162Y11628D01*
X387599Y11607D01*
X388057Y11586D01*
X388370D01*
X388495Y11607D01*
X388786D01*
X389161Y11628D01*
X389578Y11669D01*
X390036Y11732D01*
X390515Y11794D01*
X390578Y11274D01*
X390557D01*
X390536Y11253D01*
X390474Y11211D01*
X390411Y11169D01*
X390203Y11065D01*
X389932Y10919D01*
X389620Y10774D01*
X389265Y10628D01*
X388870Y10503D01*
X388474Y10378D01*
X388453D01*
X388432Y10357D01*
X388370D01*
X388286Y10336D01*
X388099Y10294D01*
X387828Y10253D01*
X387516Y10190D01*
X387182Y10149D01*
X386828Y10128D01*
X386474Y10107D01*
X386349D01*
X386224Y10128D01*
X386037D01*
X385808Y10149D01*
X385558Y10190D01*
X385266Y10232D01*
X384954Y10294D01*
X384620Y10378D01*
X384287Y10482D01*
X383933Y10586D01*
X383579Y10732D01*
X383225Y10919D01*
X382871Y11107D01*
X382537Y11336D01*
X382225Y11607D01*
X382204Y11628D01*
X382162Y11669D01*
X382079Y11773D01*
X381975Y11878D01*
X381850Y12044D01*
X381704Y12232D01*
X381558Y12440D01*
X381413Y12690D01*
X381267Y12982D01*
X381121Y13294D01*
X380975Y13627D01*
X380850Y14002D01*
X380746Y14398D01*
X380663Y14836D01*
X380621Y15294D01*
X380600Y15773D01*
Y15794D01*
Y15898D01*
X380621Y16023D01*
Y16210D01*
X380642Y16439D01*
X380684Y16710D01*
X380725Y17002D01*
X380788Y17314D01*
X380871Y17648D01*
X380975Y18002D01*
X381079Y18377D01*
X381225Y18731D01*
X381413Y19106D01*
X381600Y19460D01*
X381829Y19793D01*
X382100Y20126D01*
X382121Y20147D01*
X382162Y20210D01*
X382267Y20293D01*
X382371Y20397D01*
X382537Y20522D01*
X382725Y20668D01*
X382933Y20814D01*
X383183Y20980D01*
X383454Y21147D01*
X383766Y21293D01*
X384100Y21439D01*
X384454Y21564D01*
X384850Y21668D01*
X385266Y21772D01*
X385704Y21813D01*
X386162Y21834D01*
X386370D01*
X386516Y21813D01*
D02*
G37*
G36*
X360958D02*
X361124Y21793D01*
X361333Y21772D01*
X361562Y21730D01*
X361812Y21668D01*
X362353Y21522D01*
X362624Y21418D01*
X362895Y21293D01*
X363165Y21147D01*
X363436Y20980D01*
X363686Y20793D01*
X363915Y20564D01*
X363936Y20543D01*
X363957Y20501D01*
X364020Y20439D01*
X364103Y20335D01*
X364186Y20210D01*
X364290Y20043D01*
X364394Y19855D01*
X364520Y19647D01*
X364624Y19418D01*
X364728Y19147D01*
X364832Y18856D01*
X364915Y18543D01*
X364999Y18210D01*
X365061Y17835D01*
X365082Y17460D01*
X365103Y17043D01*
Y17023D01*
Y16981D01*
Y16918D01*
Y16835D01*
X365082Y16627D01*
X365061Y16377D01*
X357500D01*
Y16356D01*
Y16273D01*
Y16127D01*
X357521Y15960D01*
X357541Y15752D01*
X357562Y15502D01*
X357604Y15231D01*
X357646Y14940D01*
X357791Y14335D01*
X357895Y14044D01*
X358020Y13732D01*
X358145Y13440D01*
X358312Y13169D01*
X358500Y12919D01*
X358708Y12690D01*
X358729Y12669D01*
X358770Y12648D01*
X358833Y12586D01*
X358937Y12523D01*
X359062Y12440D01*
X359229Y12336D01*
X359416Y12232D01*
X359645Y12148D01*
X359895Y12044D01*
X360166Y11940D01*
X360478Y11836D01*
X360812Y11753D01*
X361187Y11690D01*
X361603Y11628D01*
X362041Y11607D01*
X362499Y11586D01*
X362811D01*
X362936Y11607D01*
X363228D01*
X363603Y11628D01*
X364020Y11669D01*
X364478Y11732D01*
X364957Y11794D01*
X365019Y11274D01*
X364999D01*
X364978Y11253D01*
X364915Y11211D01*
X364853Y11169D01*
X364645Y11065D01*
X364374Y10919D01*
X364061Y10774D01*
X363707Y10628D01*
X363311Y10503D01*
X362916Y10378D01*
X362895D01*
X362874Y10357D01*
X362811D01*
X362728Y10336D01*
X362541Y10294D01*
X362270Y10253D01*
X361957Y10190D01*
X361624Y10149D01*
X361270Y10128D01*
X360916Y10107D01*
X360791D01*
X360666Y10128D01*
X360478D01*
X360249Y10149D01*
X359999Y10190D01*
X359708Y10232D01*
X359395Y10294D01*
X359062Y10378D01*
X358729Y10482D01*
X358375Y10586D01*
X358020Y10732D01*
X357666Y10919D01*
X357312Y11107D01*
X356979Y11336D01*
X356667Y11607D01*
X356646Y11628D01*
X356604Y11669D01*
X356521Y11773D01*
X356417Y11878D01*
X356292Y12044D01*
X356146Y12232D01*
X356000Y12440D01*
X355854Y12690D01*
X355708Y12982D01*
X355563Y13294D01*
X355417Y13627D01*
X355292Y14002D01*
X355188Y14398D01*
X355104Y14836D01*
X355063Y15294D01*
X355042Y15773D01*
Y15794D01*
Y15898D01*
X355063Y16023D01*
Y16210D01*
X355083Y16439D01*
X355125Y16710D01*
X355167Y17002D01*
X355229Y17314D01*
X355313Y17648D01*
X355417Y18002D01*
X355521Y18377D01*
X355667Y18731D01*
X355854Y19106D01*
X356042Y19460D01*
X356271Y19793D01*
X356542Y20126D01*
X356562Y20147D01*
X356604Y20210D01*
X356708Y20293D01*
X356812Y20397D01*
X356979Y20522D01*
X357167Y20668D01*
X357375Y20814D01*
X357625Y20980D01*
X357895Y21147D01*
X358208Y21293D01*
X358541Y21439D01*
X358895Y21564D01*
X359291Y21668D01*
X359708Y21772D01*
X360145Y21813D01*
X360603Y21834D01*
X360812D01*
X360958Y21813D01*
D02*
G37*
%LPC*%
G36*
X298579Y72546D02*
X297950D01*
Y72337D01*
Y72127D01*
X298579D01*
Y72546D01*
D02*
G37*
G36*
X307592Y71499D02*
X306753D01*
Y70660D01*
X307592D01*
Y71499D01*
D02*
G37*
G36*
X300465Y72127D02*
X299837D01*
Y71499D01*
X299208D01*
Y70660D01*
X300465D01*
Y72127D01*
D02*
G37*
G36*
X293758Y72546D02*
X293129D01*
Y71499D01*
X293758D01*
Y70660D01*
X294178D01*
Y71499D01*
X293758D01*
Y72546D01*
D02*
G37*
G36*
X304657Y71499D02*
X304238D01*
Y70031D01*
X304657D01*
Y71499D01*
D02*
G37*
G36*
X303400Y70660D02*
X302771D01*
Y70031D01*
X303400D01*
Y70660D01*
D02*
G37*
G36*
X295645D02*
X295016D01*
Y70031D01*
X295645D01*
Y70660D01*
D02*
G37*
G36*
X289357D02*
X288938D01*
Y70031D01*
X289357D01*
Y70241D01*
Y70451D01*
Y70660D01*
D02*
G37*
G36*
X307592Y70031D02*
X306753D01*
Y69193D01*
X307592D01*
Y70031D01*
D02*
G37*
G36*
X304238D02*
X303400D01*
Y69193D01*
X304238D01*
Y70031D01*
D02*
G37*
G36*
X282650D02*
X282021D01*
Y69193D01*
X282650D01*
Y70031D01*
D02*
G37*
G36*
X306124D02*
X305496D01*
Y69193D01*
X306124D01*
Y68564D01*
X306753D01*
Y69193D01*
X306124D01*
Y70031D01*
D02*
G37*
G36*
X293758Y70660D02*
X293129D01*
Y70031D01*
X293758D01*
Y69193D01*
X294178D01*
Y68564D01*
X293758D01*
Y68774D01*
Y68983D01*
Y69193D01*
X293129D01*
Y68564D01*
Y68354D01*
Y67726D01*
X293758D01*
Y67097D01*
X294178D01*
Y65211D01*
X295016D01*
Y67097D01*
X294178D01*
Y67726D01*
X295016D01*
Y68564D01*
X296483D01*
Y70031D01*
X295645D01*
Y69193D01*
X294178D01*
Y70031D01*
X293758D01*
Y70660D01*
D02*
G37*
G36*
X288309Y69193D02*
X287470D01*
Y68564D01*
X288309D01*
Y68983D01*
Y69193D01*
D02*
G37*
G36*
X307592Y68564D02*
X306753D01*
Y67726D01*
X307592D01*
Y68564D01*
D02*
G37*
G36*
X283488Y69193D02*
X282650D01*
Y67726D01*
X283488D01*
Y69193D01*
D02*
G37*
G36*
X279087Y68564D02*
X278667D01*
Y67726D01*
X279087D01*
Y68564D01*
D02*
G37*
G36*
X305496Y69193D02*
X304657D01*
Y68564D01*
X305496D01*
Y67726D01*
X306124D01*
Y68564D01*
X305496D01*
Y69193D01*
D02*
G37*
G36*
X282021D02*
X281183D01*
Y67726D01*
X282021D01*
Y69193D01*
D02*
G37*
G36*
X280554Y68564D02*
X279715D01*
Y67726D01*
X280554D01*
Y67097D01*
X281183D01*
Y67726D01*
X280554D01*
Y68564D01*
D02*
G37*
G36*
X284536Y69193D02*
X283907D01*
Y68564D01*
X284536D01*
Y67097D01*
X285374D01*
Y67726D01*
X286003D01*
Y68564D01*
X284536D01*
Y69193D01*
D02*
G37*
G36*
X307592Y67097D02*
X306753D01*
Y66678D01*
X307592D01*
Y66887D01*
Y67097D01*
D02*
G37*
G36*
X282650Y66678D02*
X282021D01*
Y65839D01*
X282650D01*
Y66468D01*
Y66678D01*
D02*
G37*
G36*
X310945D02*
X310316D01*
Y65839D01*
X310945D01*
Y66678D01*
D02*
G37*
G36*
X299208Y67097D02*
X298579D01*
Y66049D01*
Y65839D01*
X299208D01*
Y67097D01*
D02*
G37*
G36*
X283907Y65839D02*
X283488D01*
Y65211D01*
X283907D01*
Y65420D01*
Y65630D01*
Y65839D01*
D02*
G37*
G36*
X308220D02*
X307592D01*
Y65211D01*
X308220D01*
Y65839D01*
D02*
G37*
G36*
X279715Y67726D02*
X279087D01*
Y67097D01*
X279715D01*
Y66259D01*
Y66049D01*
Y65839D01*
X280554D01*
Y65211D01*
X281183D01*
Y65839D01*
X280554D01*
Y67097D01*
X279715D01*
Y67307D01*
Y67726D01*
D02*
G37*
G36*
X282650Y65211D02*
X282021D01*
Y64372D01*
X282650D01*
Y65211D01*
D02*
G37*
G36*
X282021Y64372D02*
X281183D01*
Y63743D01*
X282021D01*
Y64372D01*
D02*
G37*
G36*
X296483Y67726D02*
X295645D01*
Y65839D01*
X296483D01*
Y65211D01*
X297112D01*
Y62905D01*
X297950D01*
Y65211D01*
X297112D01*
Y65839D01*
X296483D01*
Y67726D01*
D02*
G37*
G36*
X300465Y65839D02*
X299837D01*
Y64372D01*
X300465D01*
Y62905D01*
X301304D01*
Y62276D01*
X301933D01*
Y62695D01*
Y62905D01*
X301304D01*
Y64372D01*
X300465D01*
Y64582D01*
Y65839D01*
D02*
G37*
G36*
X296483Y65211D02*
X295645D01*
Y62905D01*
X296483D01*
Y62486D01*
Y62276D01*
X297112D01*
Y61857D01*
X297950D01*
Y61019D01*
X298579D01*
Y61857D01*
X297950D01*
Y62276D01*
X297112D01*
Y62905D01*
X296483D01*
Y63534D01*
Y63743D01*
Y65211D01*
D02*
G37*
G36*
X302771Y61857D02*
X301933D01*
Y60390D01*
X302771D01*
Y61857D01*
D02*
G37*
G36*
X300465Y62905D02*
X299837D01*
Y62276D01*
X300465D01*
Y60390D01*
X301304D01*
Y59552D01*
X301933D01*
Y58923D01*
X302771D01*
Y58084D01*
X303400D01*
Y58923D01*
X302771D01*
Y59552D01*
X301933D01*
Y60390D01*
X301304D01*
Y62276D01*
X300465D01*
Y62905D01*
D02*
G37*
G36*
X299837Y58084D02*
X299208D01*
Y57455D01*
X299837D01*
Y57246D01*
Y56198D01*
X300465D01*
Y55569D01*
X301304D01*
Y54731D01*
X301933D01*
Y55569D01*
X301304D01*
Y55988D01*
Y56198D01*
X300465D01*
Y57455D01*
X299837D01*
Y58084D01*
D02*
G37*
G36*
X299208Y63743D02*
X298579D01*
Y61857D01*
X299208D01*
Y58923D01*
X299837D01*
Y58713D01*
Y58504D01*
Y58084D01*
X300465D01*
Y57875D01*
Y57455D01*
X301304D01*
Y56198D01*
X301933D01*
Y55569D01*
X302771D01*
Y54731D01*
X303400D01*
Y54102D01*
X301933D01*
Y53264D01*
X302771D01*
Y51796D01*
X304238D01*
Y52635D01*
X303400D01*
Y53264D01*
X304238D01*
Y53054D01*
Y52635D01*
X304657D01*
Y53264D01*
X304238D01*
Y54731D01*
X303400D01*
Y54940D01*
Y55150D01*
Y55569D01*
X302771D01*
Y56198D01*
X301933D01*
Y57455D01*
X301304D01*
Y57665D01*
Y58084D01*
X300465D01*
Y58713D01*
Y58923D01*
X299837D01*
Y61857D01*
X299208D01*
Y63743D01*
D02*
G37*
G36*
X301933Y52635D02*
X301304D01*
Y51796D01*
X301933D01*
Y52635D01*
D02*
G37*
G36*
X304238Y51377D02*
X303400D01*
Y50748D01*
X304238D01*
Y51377D01*
D02*
G37*
G36*
X306124D02*
X305496D01*
Y50748D01*
X306124D01*
Y51377D01*
D02*
G37*
G36*
X305496Y50748D02*
X304238D01*
Y49910D01*
X305496D01*
Y50748D01*
D02*
G37*
G36*
X304238Y49910D02*
X302771D01*
Y49281D01*
X304238D01*
Y49910D01*
D02*
G37*
G36*
X292291Y46976D02*
X291662D01*
Y46556D01*
X292291D01*
Y46976D01*
D02*
G37*
G36*
X298579Y46556D02*
X297950D01*
Y45928D01*
X298579D01*
Y46137D01*
Y46556D01*
D02*
G37*
G36*
Y43622D02*
X297950D01*
Y43413D01*
Y43203D01*
Y41736D01*
X298579D01*
Y43622D01*
D02*
G37*
G36*
X293129Y42155D02*
X292291D01*
Y41736D01*
X293129D01*
Y42155D01*
D02*
G37*
G36*
X297112D02*
X296483D01*
Y40269D01*
X297112D01*
Y41107D01*
X297950D01*
Y39640D01*
X298579D01*
Y40269D01*
X299837D01*
Y41107D01*
X297950D01*
Y41736D01*
X297112D01*
Y42155D01*
D02*
G37*
G36*
X307592Y37334D02*
X306124D01*
Y36705D01*
X307592D01*
Y37334D01*
D02*
G37*
G36*
X310316Y28531D02*
X309478D01*
Y27693D01*
X310316D01*
Y28531D01*
D02*
G37*
G36*
X313041Y29160D02*
X312412D01*
Y28741D01*
X312203Y28531D01*
X311574D01*
Y27693D01*
X312412D01*
Y28531D01*
X313041D01*
Y29160D01*
D02*
G37*
G36*
X309059Y28531D02*
X308220D01*
Y27693D01*
Y27483D01*
Y27064D01*
X309059D01*
Y26226D01*
X309478D01*
Y27064D01*
X309059D01*
Y28531D01*
D02*
G37*
G36*
X307592Y27064D02*
X306753D01*
Y26855D01*
Y26645D01*
Y26226D01*
X307592D01*
Y27064D01*
D02*
G37*
G36*
X305496Y25806D02*
X304657D01*
Y24968D01*
X305496D01*
Y25806D01*
D02*
G37*
G36*
X308220D02*
X307592D01*
Y24968D01*
X308220D01*
Y25387D01*
Y25597D01*
Y25806D01*
D02*
G37*
G36*
X306753Y24339D02*
X306124D01*
Y23711D01*
X306753D01*
Y24130D01*
Y24339D01*
D02*
G37*
G36*
X305496D02*
X304657D01*
Y23711D01*
X305496D01*
Y24339D01*
D02*
G37*
G36*
X299837Y23711D02*
X299208D01*
Y22872D01*
X299837D01*
Y23711D01*
D02*
G37*
G36*
X303400Y24339D02*
X302771D01*
Y22872D01*
X303400D01*
Y24339D01*
D02*
G37*
G36*
X301933Y23711D02*
X301304D01*
Y22872D01*
X301933D01*
Y23711D01*
D02*
G37*
G36*
X298579Y22872D02*
X297950D01*
Y22243D01*
X298579D01*
Y22663D01*
Y22872D01*
D02*
G37*
G36*
Y21405D02*
X297950D01*
Y20147D01*
X298579D01*
Y20567D01*
Y20776D01*
Y21405D01*
D02*
G37*
G36*
X297112Y20147D02*
X296483D01*
Y19519D01*
X297112D01*
Y20147D01*
D02*
G37*
%LPD*%
G36*
X293758Y70031D02*
D01*
D01*
D01*
D01*
D02*
G37*
%LPC*%
G36*
X311574Y62905D02*
X310945D01*
Y62276D01*
X311574D01*
Y62905D01*
D02*
G37*
G36*
X314299D02*
X313879D01*
Y62276D01*
X314299D01*
Y62695D01*
Y62905D01*
D02*
G37*
G36*
X313041D02*
X312412D01*
Y62276D01*
X313041D01*
Y62695D01*
Y62905D01*
D02*
G37*
G36*
X318700Y62276D02*
X317862D01*
Y61857D01*
X318700D01*
Y62276D01*
D02*
G37*
G36*
X322054Y61857D02*
X321425D01*
Y61019D01*
X322054D01*
Y61857D01*
D02*
G37*
G36*
X313041D02*
X312412D01*
Y61019D01*
X313041D01*
Y61857D01*
D02*
G37*
G36*
X312412Y61019D02*
X311574D01*
Y60390D01*
X312412D01*
Y61019D01*
D02*
G37*
G36*
X319958Y60390D02*
X319329D01*
Y59552D01*
X319958D01*
Y59971D01*
Y60180D01*
Y60390D01*
D02*
G37*
G36*
X311574D02*
X310945D01*
Y59552D01*
X311574D01*
Y60390D01*
D02*
G37*
G36*
X322682Y59552D02*
X322054D01*
Y58923D01*
X322682D01*
Y59552D01*
D02*
G37*
G36*
X310945D02*
X310316D01*
Y58923D01*
X310945D01*
Y59552D01*
D02*
G37*
G36*
X320587Y58923D02*
X319958D01*
Y58084D01*
X320587D01*
Y58923D01*
D02*
G37*
G36*
X314299D02*
X313879D01*
Y58084D01*
X314299D01*
Y58504D01*
Y58713D01*
Y58923D01*
D02*
G37*
G36*
X319329D02*
X318700D01*
Y58084D01*
X319329D01*
Y58923D01*
D02*
G37*
G36*
X322682Y58084D02*
X322054D01*
Y57455D01*
X322682D01*
Y58084D01*
D02*
G37*
G36*
X318700D02*
X317862D01*
Y57455D01*
X318700D01*
Y58084D01*
D02*
G37*
G36*
X312412Y58923D02*
X311574D01*
Y57455D01*
X312412D01*
Y58923D01*
D02*
G37*
G36*
X310316D02*
X309478D01*
Y57455D01*
X310316D01*
Y58923D01*
D02*
G37*
G36*
X321425Y57455D02*
X320587D01*
Y57036D01*
X321425D01*
Y57455D01*
D02*
G37*
G36*
X315137D02*
X314299D01*
Y57036D01*
X315137D01*
Y57455D01*
D02*
G37*
G36*
X319958D02*
X319329D01*
Y57036D01*
X319958D01*
Y57455D01*
D02*
G37*
G36*
X311574D02*
X310945D01*
Y56198D01*
X311574D01*
Y57455D01*
D02*
G37*
G36*
X283488Y58923D02*
X282650D01*
Y57455D01*
X283488D01*
Y57036D01*
X283907D01*
Y57455D01*
X283488D01*
Y58923D01*
D02*
G37*
G36*
X282650Y57455D02*
X282021D01*
Y57036D01*
X282650D01*
Y57455D01*
D02*
G37*
G36*
X284536Y56198D02*
X283907D01*
Y55569D01*
X284536D01*
Y56198D01*
D02*
G37*
G36*
X283488D02*
X282650D01*
Y54731D01*
X283488D01*
Y56198D01*
D02*
G37*
G36*
X284536Y54731D02*
X283907D01*
Y54102D01*
X284536D01*
Y54731D01*
D02*
G37*
G36*
X281183Y58084D02*
X280554D01*
Y57875D01*
Y57036D01*
X281183D01*
Y54731D01*
X282021D01*
Y53264D01*
X282650D01*
Y54731D01*
X282021D01*
Y57036D01*
X281183D01*
Y58084D01*
D02*
G37*
G36*
X288938Y46556D02*
X288309D01*
Y45928D01*
X288938D01*
Y46556D01*
D02*
G37*
G36*
X288309Y45928D02*
X287470D01*
Y45089D01*
X288309D01*
Y45928D01*
D02*
G37*
G36*
Y44461D02*
X287470D01*
Y43622D01*
X288309D01*
Y43832D01*
Y44041D01*
Y44461D01*
D02*
G37*
G36*
Y41736D02*
X287470D01*
Y41107D01*
X288309D01*
Y41736D01*
D02*
G37*
G36*
X288938Y38802D02*
X288309D01*
Y38173D01*
X288938D01*
Y38802D01*
D02*
G37*
G36*
X266092Y53264D02*
X265253D01*
Y51796D01*
X266092D01*
Y53264D01*
D02*
G37*
G36*
X262738Y51796D02*
X261900D01*
Y51377D01*
X262738D01*
Y50748D01*
X263367D01*
Y51377D01*
X262738D01*
Y51796D01*
D02*
G37*
G36*
X263786Y50748D02*
X263367D01*
Y49910D01*
X263786D01*
Y50748D01*
D02*
G37*
G36*
X261900D02*
X261271D01*
Y49281D01*
X261900D01*
Y50748D01*
D02*
G37*
G36*
X260433Y49910D02*
X259804D01*
Y49281D01*
X260433D01*
Y48443D01*
X261271D01*
Y49281D01*
X260433D01*
Y49910D01*
D02*
G37*
G36*
X258337Y49281D02*
X257708D01*
Y48443D01*
X258337D01*
Y49281D01*
D02*
G37*
G36*
X260433Y48443D02*
X258965D01*
Y47814D01*
X260433D01*
Y48443D01*
D02*
G37*
G36*
Y46976D02*
X258965D01*
Y46556D01*
X260433D01*
Y46976D01*
D02*
G37*
G36*
X257079Y47814D02*
X256450D01*
Y46556D01*
X257079D01*
Y47814D01*
D02*
G37*
G36*
X258337D02*
X257708D01*
Y46556D01*
X258337D01*
Y45928D01*
X258965D01*
Y46556D01*
X258337D01*
Y47814D01*
D02*
G37*
G36*
X261271Y46556D02*
X260433D01*
Y45928D01*
X261271D01*
Y45089D01*
X261900D01*
Y45928D01*
X261271D01*
Y46556D01*
D02*
G37*
G36*
X259804Y45089D02*
X258965D01*
Y44461D01*
X259804D01*
Y45089D01*
D02*
G37*
G36*
X261900Y44461D02*
X260433D01*
Y43622D01*
X261900D01*
Y44461D01*
D02*
G37*
G36*
X259804Y42993D02*
X258965D01*
Y42155D01*
X259804D01*
Y42993D01*
D02*
G37*
G36*
X330228Y58084D02*
X329809D01*
Y57455D01*
X330228D01*
Y57036D01*
X331066D01*
Y57455D01*
X330228D01*
Y58084D01*
D02*
G37*
G36*
Y57036D02*
X329809D01*
Y56198D01*
X330228D01*
Y55569D01*
X331066D01*
Y56198D01*
X330228D01*
Y57036D01*
D02*
G37*
G36*
X335049Y55569D02*
X334630D01*
Y54731D01*
X335049D01*
Y55569D01*
D02*
G37*
G36*
X329809Y56198D02*
X328970D01*
Y55779D01*
Y55569D01*
X329809D01*
Y54731D01*
X330228D01*
Y55569D01*
X329809D01*
Y56198D01*
D02*
G37*
G36*
X324779Y60390D02*
X324150D01*
Y59971D01*
Y59761D01*
Y59552D01*
X324779D01*
Y58923D01*
X325407D01*
Y58294D01*
Y58084D01*
Y54731D01*
X326246D01*
Y58923D01*
X325407D01*
Y59552D01*
X324779D01*
Y60390D01*
D02*
G37*
G36*
X335887Y54731D02*
X335049D01*
Y54102D01*
X335887D01*
Y54731D01*
D02*
G37*
G36*
X327713Y55569D02*
X326874D01*
Y54102D01*
X327713D01*
Y55569D01*
D02*
G37*
G36*
X325407Y54731D02*
X324779D01*
Y54102D01*
X325407D01*
Y54731D01*
D02*
G37*
G36*
X334630D02*
X333791D01*
Y54102D01*
X334630D01*
Y54731D01*
D02*
G37*
G36*
X332534Y56198D02*
X331695D01*
Y54731D01*
X332534D01*
Y54102D01*
X333162D01*
Y54731D01*
X332534D01*
Y56198D01*
D02*
G37*
G36*
X317233Y54731D02*
X316604D01*
Y54102D01*
X317233D01*
Y54731D01*
D02*
G37*
G36*
X331695D02*
X331066D01*
Y53264D01*
X331695D01*
Y54102D01*
Y54312D01*
Y54731D01*
D02*
G37*
G36*
X326874Y54102D02*
X326246D01*
Y53264D01*
X326874D01*
Y54102D01*
D02*
G37*
G36*
X318700Y54731D02*
X317862D01*
Y53264D01*
X318700D01*
Y54731D01*
D02*
G37*
G36*
X326246Y53264D02*
X325407D01*
Y52635D01*
X326246D01*
Y53264D01*
D02*
G37*
G36*
X317862D02*
X317233D01*
Y52635D01*
X317862D01*
Y53264D01*
D02*
G37*
G36*
X331066D02*
X330228D01*
Y52635D01*
X331066D01*
Y53264D01*
D02*
G37*
G36*
X333162Y52635D02*
X332534D01*
Y51796D01*
X333162D01*
Y52216D01*
Y52425D01*
Y52635D01*
D02*
G37*
G36*
X328342D02*
X327713D01*
Y51796D01*
X328342D01*
Y52216D01*
Y52425D01*
Y52635D01*
D02*
G37*
G36*
X319329D02*
X318700D01*
Y51796D01*
X319329D01*
Y52425D01*
Y52635D01*
D02*
G37*
G36*
X315766D02*
X315137D01*
Y51796D01*
X315766D01*
Y52635D01*
D02*
G37*
G36*
X326874Y51796D02*
X326246D01*
Y51377D01*
X326874D01*
Y51796D01*
D02*
G37*
G36*
X318700D02*
X317862D01*
Y51377D01*
X318700D01*
Y51796D01*
D02*
G37*
G36*
X331066Y51377D02*
X330228D01*
Y50748D01*
X331066D01*
Y51377D01*
D02*
G37*
G36*
X329809D02*
X328970D01*
Y50748D01*
X329809D01*
Y49910D01*
X330228D01*
Y50748D01*
X329809D01*
Y51377D01*
D02*
G37*
G36*
X328342Y50748D02*
X327713D01*
Y49910D01*
X328342D01*
Y50748D01*
D02*
G37*
G36*
X315137Y49910D02*
X314299D01*
Y49281D01*
X315137D01*
Y49910D01*
D02*
G37*
G36*
X317233Y51796D02*
X316604D01*
Y50748D01*
X317233D01*
Y49281D01*
X317862D01*
Y50748D01*
X317233D01*
Y51796D01*
D02*
G37*
G36*
X329809Y49910D02*
X328970D01*
Y49281D01*
X329809D01*
Y48443D01*
X330228D01*
Y48652D01*
Y48862D01*
Y49281D01*
X329809D01*
Y49910D01*
D02*
G37*
G36*
X328342Y49281D02*
X327713D01*
Y48443D01*
X328342D01*
Y49281D01*
D02*
G37*
G36*
X316604D02*
X315766D01*
Y48443D01*
X316604D01*
Y49281D01*
D02*
G37*
G36*
X318700Y48443D02*
X317862D01*
Y47814D01*
X318700D01*
Y48443D01*
D02*
G37*
G36*
X315766D02*
X315137D01*
Y47814D01*
X315766D01*
Y48443D01*
D02*
G37*
G36*
X327713Y47814D02*
X326874D01*
Y46976D01*
X327713D01*
Y47814D01*
D02*
G37*
G36*
X325407Y48443D02*
X324779D01*
Y47814D01*
X325407D01*
Y46976D01*
X326246D01*
Y47814D01*
X325407D01*
Y48024D01*
Y48233D01*
Y48443D01*
D02*
G37*
G36*
X314299Y49281D02*
X313879D01*
Y46976D01*
X314299D01*
Y49281D01*
D02*
G37*
G36*
X328970Y46976D02*
X328342D01*
Y46556D01*
X328970D01*
Y46976D01*
D02*
G37*
G36*
X317233Y47814D02*
X316604D01*
Y46556D01*
X317233D01*
Y47605D01*
Y47814D01*
D02*
G37*
G36*
X315766Y46976D02*
X315137D01*
Y46556D01*
X315766D01*
Y46976D01*
D02*
G37*
G36*
X328342Y46556D02*
X327713D01*
Y45928D01*
X328342D01*
Y46556D01*
D02*
G37*
G36*
X326874D02*
X326246D01*
Y45928D01*
X326874D01*
Y46137D01*
Y46556D01*
D02*
G37*
G36*
X315137D02*
X314299D01*
Y45928D01*
X315137D01*
Y46556D01*
D02*
G37*
G36*
X319958Y46976D02*
X319329D01*
Y46556D01*
X319958D01*
Y45718D01*
Y45509D01*
Y45089D01*
X320587D01*
Y46556D01*
X319958D01*
Y46976D01*
D02*
G37*
G36*
X318700Y46556D02*
X317862D01*
Y45089D01*
X318700D01*
Y46556D01*
D02*
G37*
G36*
X329809Y45928D02*
X328970D01*
Y45089D01*
X329809D01*
Y45928D01*
D02*
G37*
G36*
X322054Y45089D02*
X321425D01*
Y44880D01*
Y44670D01*
Y44461D01*
X322054D01*
Y45089D01*
D02*
G37*
G36*
X317233Y45928D02*
X316604D01*
Y44461D01*
X317233D01*
Y45928D01*
D02*
G37*
G36*
X319329Y45089D02*
X318700D01*
Y44461D01*
X319329D01*
Y45089D01*
D02*
G37*
G36*
X318700Y44461D02*
X317862D01*
Y43622D01*
X318700D01*
Y44461D01*
D02*
G37*
G36*
X320587D02*
X319958D01*
Y43622D01*
X320587D01*
Y44461D01*
D02*
G37*
G36*
X319958Y43622D02*
X319329D01*
Y42993D01*
X319958D01*
Y43622D01*
D02*
G37*
G36*
X317862D02*
X317233D01*
Y42155D01*
X317862D01*
Y43622D01*
D02*
G37*
G36*
X322054D02*
X321425D01*
Y42993D01*
X320587D01*
Y42155D01*
X321425D01*
Y42784D01*
X321635Y42993D01*
X322054D01*
Y43622D01*
D02*
G37*
G36*
X319329Y42993D02*
X318700D01*
Y42155D01*
X319329D01*
Y42993D01*
D02*
G37*
G36*
X315766Y45928D02*
X315137D01*
Y43622D01*
X315766D01*
Y42155D01*
X316604D01*
Y41736D01*
X317233D01*
Y42155D01*
X316604D01*
Y43622D01*
X315766D01*
Y45928D01*
D02*
G37*
G36*
X319958Y41736D02*
X319329D01*
Y41107D01*
X319958D01*
Y41736D01*
D02*
G37*
G36*
X320587Y40269D02*
X319958D01*
Y39640D01*
X320587D01*
Y40269D01*
D02*
G37*
G36*
X278667Y57036D02*
X277829D01*
Y56198D01*
X278667D01*
Y57036D01*
D02*
G37*
G36*
X279087Y55569D02*
X278667D01*
Y54731D01*
X279087D01*
Y55569D01*
D02*
G37*
G36*
X274895Y54731D02*
X274266D01*
Y54102D01*
X274895D01*
Y54731D01*
D02*
G37*
G36*
X277829Y55569D02*
X277200D01*
Y53264D01*
X277829D01*
Y54312D01*
Y54521D01*
Y55569D01*
D02*
G37*
G36*
X276362Y54102D02*
X275733D01*
Y53264D01*
X276362D01*
Y52635D01*
X277200D01*
Y53264D01*
X276362D01*
Y54102D01*
D02*
G37*
G36*
Y52635D02*
X275733D01*
Y51796D01*
X276362D01*
Y50748D01*
X277200D01*
Y51796D01*
X276362D01*
Y52635D01*
D02*
G37*
G36*
X275733Y51377D02*
X274895D01*
Y50748D01*
X275733D01*
Y49281D01*
X276362D01*
Y50748D01*
X275733D01*
Y51377D01*
D02*
G37*
G36*
X274266Y47814D02*
X273428D01*
Y46976D01*
X274266D01*
Y47814D01*
D02*
G37*
G36*
X277200Y46976D02*
X276362D01*
Y46766D01*
Y46556D01*
X277200D01*
Y46976D01*
D02*
G37*
G36*
X275733D02*
X274895D01*
Y46556D01*
X275733D01*
Y46976D01*
D02*
G37*
G36*
X277829Y45928D02*
X277200D01*
Y45089D01*
X277829D01*
Y45928D01*
D02*
G37*
G36*
X276362D02*
X275733D01*
Y45509D01*
Y45299D01*
Y45089D01*
X276362D01*
Y45928D01*
D02*
G37*
G36*
X277829Y44461D02*
X277200D01*
Y43622D01*
X277829D01*
Y43832D01*
Y44461D01*
D02*
G37*
G36*
X275733Y38802D02*
X274895D01*
Y38173D01*
X275733D01*
Y38802D01*
D02*
G37*
G36*
X278667Y36705D02*
X277829D01*
Y36077D01*
X278667D01*
Y36705D01*
D02*
G37*
G36*
X277829Y36077D02*
X277200D01*
Y35448D01*
X277829D01*
Y36077D01*
D02*
G37*
G36*
X276362D02*
X275733D01*
Y35867D01*
Y35658D01*
Y35448D01*
X276362D01*
Y36077D01*
D02*
G37*
G36*
X277829Y34819D02*
X277200D01*
Y33981D01*
X277829D01*
Y34819D01*
D02*
G37*
G36*
X276362D02*
X275733D01*
Y34190D01*
Y33981D01*
X276362D01*
Y34819D01*
D02*
G37*
G36*
X275733Y33352D02*
X274895D01*
Y32514D01*
X275733D01*
Y33352D01*
D02*
G37*
G36*
X274895Y32514D02*
X274266D01*
Y31256D01*
X274895D01*
Y32514D01*
D02*
G37*
G36*
X307592Y42155D02*
X306753D01*
Y41736D01*
X307592D01*
Y42155D01*
D02*
G37*
G36*
X326874Y41736D02*
X326246D01*
Y41107D01*
X326874D01*
Y40269D01*
X327713D01*
Y41107D01*
X326874D01*
Y41526D01*
Y41736D01*
D02*
G37*
G36*
X317233Y37334D02*
X316604D01*
Y36705D01*
X317233D01*
Y37334D01*
D02*
G37*
G36*
X315137Y38173D02*
X314299D01*
Y36705D01*
X315137D01*
Y38173D01*
D02*
G37*
G36*
X316604Y36705D02*
X315766D01*
Y36077D01*
X316604D01*
Y36705D01*
D02*
G37*
G36*
X315766Y36077D02*
X315137D01*
Y35448D01*
X315766D01*
Y36077D01*
D02*
G37*
G36*
X315137Y35448D02*
X314299D01*
Y34819D01*
X315137D01*
Y35448D01*
D02*
G37*
G36*
X316604Y34819D02*
X315766D01*
Y33981D01*
X316604D01*
Y34819D01*
D02*
G37*
G36*
X315766Y33981D02*
X315137D01*
Y33352D01*
X315766D01*
Y33981D01*
D02*
G37*
G36*
X316604Y32514D02*
X315766D01*
Y31256D01*
X316604D01*
Y32514D01*
D02*
G37*
G36*
X318700Y30627D02*
X317862D01*
Y29998D01*
X318700D01*
Y29160D01*
X319329D01*
Y29998D01*
X318700D01*
Y30627D01*
D02*
G37*
G36*
X315766Y31256D02*
X315137D01*
Y29998D01*
X315766D01*
Y29789D01*
Y29579D01*
Y29160D01*
X316604D01*
Y29998D01*
X315766D01*
Y31256D01*
D02*
G37*
G36*
X320587Y29160D02*
X319958D01*
Y28531D01*
X320587D01*
Y29160D01*
D02*
G37*
G36*
X325407Y28531D02*
X324779D01*
Y27693D01*
X325407D01*
Y28531D01*
D02*
G37*
G36*
X324779Y27693D02*
X324150D01*
Y27064D01*
X324779D01*
Y27693D01*
D02*
G37*
G36*
X324150Y27064D02*
X323521D01*
Y26226D01*
X324150D01*
Y27064D01*
D02*
G37*
G36*
X317233Y30627D02*
X316604D01*
Y29998D01*
X317233D01*
Y29160D01*
X317862D01*
Y28531D01*
X318700D01*
Y27693D01*
X319329D01*
Y27064D01*
X319958D01*
Y26226D01*
X320587D01*
Y27064D01*
X319958D01*
Y27693D01*
X319329D01*
Y28531D01*
X318700D01*
Y29160D01*
X317862D01*
Y29998D01*
X317233D01*
Y30627D01*
D02*
G37*
G36*
X319329Y27064D02*
X318700D01*
Y26226D01*
X319329D01*
Y25806D01*
X319958D01*
Y26226D01*
X319329D01*
Y27064D01*
D02*
G37*
G36*
X321425Y25806D02*
X320587D01*
Y24339D01*
X321425D01*
Y25806D01*
D02*
G37*
G36*
X324150Y22243D02*
X323521D01*
Y21405D01*
X324150D01*
Y20986D01*
X324779D01*
Y20147D01*
X325407D01*
Y19519D01*
X326246D01*
Y18680D01*
X326874D01*
Y18471D01*
Y18052D01*
X327713D01*
Y18680D01*
X326874D01*
Y19519D01*
X326246D01*
Y19938D01*
Y20147D01*
X325407D01*
Y20986D01*
X324779D01*
Y21405D01*
X324150D01*
Y22243D01*
D02*
G37*
G36*
X322682Y24968D02*
X322054D01*
Y24339D01*
X322682D01*
Y23711D01*
X321425D01*
Y22243D01*
X322054D01*
Y21405D01*
X322682D01*
Y20986D01*
X323521D01*
Y20147D01*
X324150D01*
Y18052D01*
X324779D01*
Y20147D01*
X324150D01*
Y20986D01*
X323521D01*
Y21405D01*
X322682D01*
Y22872D01*
X323521D01*
Y23711D01*
X324150D01*
Y24339D01*
X322682D01*
Y24968D01*
D02*
G37*
G36*
X326246Y18680D02*
X325407D01*
Y17423D01*
X326246D01*
Y18680D01*
D02*
G37*
G36*
X321425Y16584D02*
X320587D01*
Y16165D01*
X321425D01*
Y16584D01*
D02*
G37*
G36*
X319329D02*
X318700D01*
Y16165D01*
X319329D01*
Y16584D01*
D02*
G37*
G36*
X320587Y16165D02*
X319958D01*
Y15327D01*
X320587D01*
Y16165D01*
D02*
G37*
G36*
X318700D02*
X317862D01*
Y15327D01*
X318700D01*
Y16165D01*
D02*
G37*
G36*
X319958Y15327D02*
X319329D01*
Y14698D01*
X319958D01*
Y15327D01*
D02*
G37*
G36*
X318700Y14698D02*
X317862D01*
Y14279D01*
Y14069D01*
Y13860D01*
X318700D01*
Y14698D01*
D02*
G37*
G36*
X612580Y31352D02*
X611587D01*
Y31242D01*
X611367D01*
Y31132D01*
X611256D01*
Y25395D01*
X611146D01*
Y24954D01*
X611036D01*
Y24733D01*
X610925D01*
Y24513D01*
X610815D01*
Y24292D01*
X610705D01*
Y24182D01*
X610595D01*
Y23961D01*
X610484D01*
Y23851D01*
X610374D01*
Y23740D01*
X610264D01*
Y23630D01*
X610043D01*
Y23520D01*
X609933D01*
Y23409D01*
X609712D01*
Y23299D01*
X609491D01*
Y23189D01*
X609271D01*
Y23078D01*
X608829D01*
Y22968D01*
X608057D01*
Y22858D01*
X607837D01*
Y31242D01*
X607616D01*
Y31352D01*
X606513D01*
Y31242D01*
X606292D01*
Y22968D01*
X606182D01*
Y22858D01*
X606072D01*
Y22968D01*
X605299D01*
Y23078D01*
X604858D01*
Y23189D01*
X604527D01*
Y23299D01*
X604306D01*
Y23409D01*
X604196D01*
Y23520D01*
X603975D01*
Y23630D01*
X603865D01*
Y23740D01*
X603755D01*
Y23851D01*
X603645D01*
Y23961D01*
X603534D01*
Y24071D01*
X603424D01*
Y24292D01*
X603314D01*
Y24402D01*
X603203D01*
Y24623D01*
X603093D01*
Y24954D01*
X602983D01*
Y25395D01*
X602872D01*
Y26278D01*
X602762D01*
Y31242D01*
X602541D01*
Y31352D01*
X601548D01*
Y31242D01*
X601328D01*
Y31132D01*
X601218D01*
Y25616D01*
X601328D01*
Y24954D01*
X601438D01*
Y24513D01*
X601548D01*
Y24182D01*
X601659D01*
Y23961D01*
X601769D01*
Y23740D01*
X601879D01*
Y23630D01*
X601990D01*
Y23409D01*
X602100D01*
Y23299D01*
X602210D01*
Y23189D01*
X602321D01*
Y23078D01*
X602431D01*
Y22858D01*
X602541D01*
Y22748D01*
X602762D01*
Y22637D01*
X602872D01*
Y22527D01*
X602983D01*
Y22417D01*
X603203D01*
Y22306D01*
X603424D01*
Y22196D01*
X603645D01*
Y22086D01*
X603865D01*
Y21975D01*
X604086D01*
Y21865D01*
X604527D01*
Y21755D01*
X604968D01*
Y21644D01*
X606072D01*
Y21534D01*
X606292D01*
Y19107D01*
X606513D01*
Y18997D01*
X607506D01*
Y19107D01*
X607837D01*
Y21534D01*
X608057D01*
Y21644D01*
X609050D01*
Y21755D01*
X609491D01*
Y21865D01*
X609822D01*
Y21975D01*
X610153D01*
Y22086D01*
X610374D01*
Y22196D01*
X610595D01*
Y22306D01*
X610815D01*
Y22417D01*
X610925D01*
Y22527D01*
X611146D01*
Y22637D01*
X611256D01*
Y22748D01*
X611367D01*
Y22858D01*
X611477D01*
Y22968D01*
X611587D01*
Y23078D01*
X611698D01*
Y23189D01*
X611808D01*
Y23299D01*
X611918D01*
Y23409D01*
X612029D01*
Y23630D01*
X612139D01*
Y23740D01*
X612249D01*
Y23961D01*
X612360D01*
Y24182D01*
X612470D01*
Y24402D01*
X612580D01*
Y24733D01*
X612690D01*
Y25174D01*
X612801D01*
Y26278D01*
X612911D01*
Y31132D01*
X612801D01*
Y31242D01*
X612580D01*
Y31352D01*
D02*
G37*
G36*
X665422Y33779D02*
X665091D01*
Y33669D01*
X664760D01*
Y33559D01*
X664540D01*
Y33448D01*
X664429D01*
Y33228D01*
X664319D01*
Y33117D01*
X664209D01*
Y32897D01*
X664099D01*
Y32456D01*
X663988D01*
Y30911D01*
X664099D01*
Y30470D01*
X664209D01*
Y30249D01*
X664319D01*
Y30029D01*
X664429D01*
Y29918D01*
X664540D01*
Y29808D01*
X664760D01*
Y29697D01*
X665753D01*
Y29808D01*
X665974D01*
Y29918D01*
X666084D01*
Y30029D01*
X666305D01*
Y30139D01*
X666415D01*
Y30249D01*
X666526D01*
Y30359D01*
X666636D01*
Y30580D01*
X666746D01*
Y32014D01*
Y32125D01*
Y32897D01*
X666636D01*
Y33007D01*
X666526D01*
Y33117D01*
X666415D01*
Y33228D01*
X666305D01*
Y33338D01*
X666194D01*
Y33448D01*
X666084D01*
Y33559D01*
X665864D01*
Y33669D01*
X665422D01*
Y33779D01*
D02*
G37*
G36*
X282021Y30627D02*
X281183D01*
Y29998D01*
X282021D01*
Y30627D01*
D02*
G37*
G36*
X281183Y29998D02*
X280554D01*
Y29160D01*
X281183D01*
Y29998D01*
D02*
G37*
G36*
X284536Y29160D02*
X283907D01*
Y28531D01*
X284536D01*
Y29160D01*
D02*
G37*
G36*
X279087Y31256D02*
X278667D01*
Y31046D01*
Y29998D01*
X279087D01*
Y28531D01*
X279715D01*
Y29998D01*
X279087D01*
Y31256D01*
D02*
G37*
G36*
X286003Y28531D02*
X285374D01*
Y27693D01*
X286003D01*
Y28531D01*
D02*
G37*
G36*
X278667D02*
X277829D01*
Y27693D01*
X278667D01*
Y28531D01*
D02*
G37*
G36*
X285374Y27693D02*
X284536D01*
Y27064D01*
X285374D01*
Y27693D01*
D02*
G37*
G36*
X289357Y27064D02*
X288938D01*
Y25806D01*
X289357D01*
Y27064D01*
D02*
G37*
G36*
X287470Y26226D02*
X286842D01*
Y25806D01*
X287470D01*
Y26016D01*
Y26226D01*
D02*
G37*
G36*
X290824Y25806D02*
X290195D01*
Y24968D01*
X290824D01*
Y25806D01*
D02*
G37*
G36*
X292291Y24968D02*
X291662D01*
Y24339D01*
X292291D01*
Y24968D01*
D02*
G37*
G36*
X289357D02*
X288938D01*
Y24758D01*
Y24339D01*
X289357D01*
Y24968D01*
D02*
G37*
G36*
X628907Y35655D02*
X627363D01*
Y32676D01*
X628797D01*
Y32786D01*
X629128D01*
Y32897D01*
X629349D01*
Y33007D01*
X629459D01*
Y33117D01*
X629569D01*
Y33228D01*
X629679D01*
Y33448D01*
X629790D01*
Y33779D01*
X629900D01*
Y34662D01*
X629790D01*
Y34772D01*
Y34882D01*
Y34993D01*
X629679D01*
Y35103D01*
X629569D01*
Y35324D01*
X629349D01*
Y35434D01*
X629238D01*
Y35544D01*
X628907D01*
Y35655D01*
D02*
G37*
G36*
X675130Y33779D02*
X674689D01*
Y33669D01*
X674358D01*
Y33559D01*
X674137D01*
Y33448D01*
X674027D01*
Y33338D01*
X673917D01*
Y33228D01*
X673806D01*
Y33117D01*
X673696D01*
Y33007D01*
X673586D01*
Y32897D01*
X673476D01*
Y32786D01*
X673365D01*
Y32676D01*
Y30580D01*
X673476D01*
Y30470D01*
X673586D01*
Y30359D01*
X673696D01*
Y30249D01*
X673806D01*
Y30139D01*
X673917D01*
Y30029D01*
X674027D01*
Y29918D01*
X674248D01*
Y29808D01*
X674468D01*
Y29697D01*
X675351D01*
Y29808D01*
X675571D01*
Y29918D01*
X675682D01*
Y30029D01*
X675792D01*
Y30139D01*
X675903D01*
Y30359D01*
X676013D01*
Y30690D01*
X676123D01*
Y31242D01*
X676233D01*
Y32125D01*
X676123D01*
Y32786D01*
X676013D01*
Y33117D01*
X675903D01*
Y33228D01*
X675792D01*
Y33448D01*
X675571D01*
Y33559D01*
X675461D01*
Y33669D01*
X675130D01*
Y33779D01*
D02*
G37*
G36*
X660017D02*
X658803D01*
Y33669D01*
X658583D01*
Y33559D01*
X658472D01*
Y33448D01*
X658362D01*
Y33338D01*
X658252D01*
Y33117D01*
X658141D01*
Y32897D01*
X658031D01*
Y32676D01*
X657921D01*
Y32235D01*
X660789D01*
Y32566D01*
X660679D01*
Y32676D01*
Y33007D01*
X660568D01*
Y33228D01*
X660458D01*
Y33448D01*
X660348D01*
Y33559D01*
X660237D01*
Y33669D01*
X660017D01*
Y33779D01*
D02*
G37*
G36*
X649867D02*
X648764D01*
Y33669D01*
X648544D01*
Y33559D01*
X648323D01*
Y33448D01*
X648213D01*
Y33228D01*
X648103D01*
Y33117D01*
X647992D01*
Y32897D01*
X647882D01*
Y32345D01*
X647772D01*
Y32235D01*
X650640D01*
Y32456D01*
Y32566D01*
Y32897D01*
X650529D01*
Y33117D01*
X650419D01*
Y33338D01*
X650309D01*
Y33448D01*
X650199D01*
Y33559D01*
X650088D01*
Y33669D01*
X649867D01*
Y33779D01*
D02*
G37*
G36*
X634975D02*
X634092D01*
Y33669D01*
X633761D01*
Y33559D01*
X633651D01*
Y33448D01*
X633430D01*
Y33338D01*
X633320D01*
Y33117D01*
X633210D01*
Y33007D01*
X633099D01*
Y32676D01*
X632989D01*
Y32235D01*
X632879D01*
Y31352D01*
X632989D01*
Y30690D01*
X633099D01*
Y30359D01*
X633210D01*
Y30249D01*
X633320D01*
Y30029D01*
X633430D01*
Y29918D01*
X633651D01*
Y29808D01*
X633872D01*
Y29697D01*
X634313D01*
Y29587D01*
X634644D01*
Y29697D01*
X635195D01*
Y29808D01*
X635416D01*
Y29918D01*
X635526D01*
Y30029D01*
X635637D01*
Y30139D01*
X635747D01*
Y30249D01*
X635857D01*
Y30470D01*
X635967D01*
Y30801D01*
X636078D01*
Y32566D01*
X635967D01*
Y32897D01*
X635857D01*
Y33117D01*
X635747D01*
Y33228D01*
X635637D01*
Y33448D01*
X635416D01*
Y33559D01*
X635306D01*
Y33669D01*
X634975D01*
Y33779D01*
D02*
G37*
G36*
X271541Y26226D02*
X270912D01*
Y25806D01*
X271541D01*
Y26226D01*
D02*
G37*
G36*
X297112Y16165D02*
X296483D01*
Y15327D01*
X297112D01*
Y16165D01*
D02*
G37*
G36*
X706240Y18114D02*
X704144D01*
Y18004D01*
X703813D01*
Y17894D01*
X703592D01*
Y17783D01*
X703482D01*
Y17673D01*
X703371D01*
Y17563D01*
X703261D01*
Y17342D01*
X703151D01*
Y16349D01*
X703261D01*
Y16128D01*
X703371D01*
Y16018D01*
X703592D01*
Y15908D01*
X703702D01*
Y15798D01*
X704254D01*
Y15687D01*
X704585D01*
Y15798D01*
X705026D01*
Y15908D01*
X705357D01*
Y16018D01*
X705468D01*
Y16128D01*
X705578D01*
Y16239D01*
X705798D01*
Y16349D01*
X705909D01*
Y16459D01*
X706019D01*
Y16570D01*
X706129D01*
Y16680D01*
X706240D01*
Y18114D01*
D02*
G37*
G36*
X718485Y21313D02*
X717492D01*
Y21203D01*
X717161D01*
Y21093D01*
X717051D01*
Y20982D01*
X716830D01*
Y20872D01*
X716720D01*
Y20762D01*
X716610D01*
Y20651D01*
X716499D01*
Y20431D01*
X716389D01*
Y20210D01*
X716279D01*
Y19990D01*
X716168D01*
Y19548D01*
X716058D01*
Y19217D01*
X719809D01*
Y19879D01*
X719698D01*
Y20321D01*
X719588D01*
Y20541D01*
X719478D01*
Y20651D01*
X719368D01*
Y20762D01*
X719257D01*
Y20872D01*
X719147D01*
Y20982D01*
X719037D01*
Y21093D01*
X718816D01*
Y21203D01*
X718485D01*
Y21313D01*
D02*
G37*
G36*
X630452Y23851D02*
X629679D01*
Y23740D01*
X629017D01*
Y23630D01*
X628797D01*
Y23520D01*
X628576D01*
Y23409D01*
X628356D01*
Y23299D01*
X628245D01*
Y23189D01*
X628025D01*
Y22968D01*
X627914D01*
Y22858D01*
X627804D01*
Y22748D01*
X627694D01*
Y22637D01*
X627583D01*
Y22417D01*
X627473D01*
Y22196D01*
X627363D01*
Y21975D01*
X627252D01*
Y21534D01*
X627142D01*
Y21093D01*
X627032D01*
Y18555D01*
X627142D01*
Y18004D01*
X627252D01*
Y17673D01*
X627363D01*
Y17342D01*
X627473D01*
Y17121D01*
X627583D01*
Y17011D01*
X627694D01*
Y16790D01*
X627804D01*
Y16680D01*
X627914D01*
Y16570D01*
X628025D01*
Y16459D01*
X628135D01*
Y16349D01*
X628356D01*
Y16239D01*
X628466D01*
Y16128D01*
X628797D01*
Y16018D01*
X629128D01*
Y15908D01*
X630893D01*
Y16018D01*
X631224D01*
Y16128D01*
X631445D01*
Y16239D01*
X631555D01*
Y16349D01*
X631776D01*
Y16459D01*
X631886D01*
Y16570D01*
X631996D01*
Y16680D01*
X632106D01*
Y16790D01*
X632217D01*
Y16901D01*
X632327D01*
Y17011D01*
X632437D01*
Y17232D01*
X632548D01*
Y17452D01*
X632658D01*
Y17673D01*
X632768D01*
Y18004D01*
X632879D01*
Y18445D01*
X632989D01*
Y19438D01*
X633099D01*
Y20321D01*
X632989D01*
Y21313D01*
X632879D01*
Y21755D01*
X632768D01*
Y22086D01*
X632658D01*
Y22306D01*
X632548D01*
Y22527D01*
X632437D01*
Y22748D01*
X632327D01*
Y22858D01*
X632217D01*
Y22968D01*
X632106D01*
Y23189D01*
X631886D01*
Y23299D01*
X631776D01*
Y23409D01*
X631555D01*
Y23520D01*
X631334D01*
Y23630D01*
X631003D01*
Y23740D01*
X630452D01*
Y23851D01*
D02*
G37*
G36*
X279715Y12602D02*
X279087D01*
Y11764D01*
X279715D01*
Y12602D01*
D02*
G37*
G36*
X282021Y9877D02*
X281183D01*
Y9039D01*
X282021D01*
Y9877D01*
D02*
G37*
G36*
X289357D02*
X288938D01*
Y9039D01*
X289357D01*
Y9248D01*
Y9458D01*
Y9877D01*
D02*
G37*
G36*
X396098Y48097D02*
X395681D01*
X395410Y48076D01*
X395265D01*
X395181Y48055D01*
X394910Y48034D01*
X394619Y47993D01*
Y41535D01*
X396285D01*
X396410Y41556D01*
X396556D01*
X396723Y41577D01*
X397118Y41640D01*
X397556Y41744D01*
X397993Y41889D01*
X398410Y42098D01*
X398785Y42389D01*
X398806Y42410D01*
X398827Y42431D01*
X398931Y42556D01*
X399077Y42744D01*
X399243Y43014D01*
X399410Y43368D01*
X399555Y43806D01*
X399660Y44306D01*
X399701Y44576D01*
Y44868D01*
Y44889D01*
Y44952D01*
Y45035D01*
X399680Y45160D01*
Y45285D01*
X399660Y45451D01*
X399576Y45826D01*
X399472Y46243D01*
X399306Y46639D01*
X399077Y47034D01*
X398931Y47201D01*
X398764Y47347D01*
X398722Y47389D01*
X398660Y47409D01*
X398597Y47472D01*
X398493Y47513D01*
X398389Y47576D01*
X398097Y47722D01*
X397702Y47868D01*
X397243Y47972D01*
X396723Y48055D01*
X396098Y48097D01*
D02*
G37*
G36*
X396348Y40598D02*
X395098D01*
X394619Y40577D01*
Y33287D01*
X394640D01*
X394681Y33266D01*
X394765Y33245D01*
X394848Y33224D01*
X394973Y33182D01*
X395119Y33162D01*
X395431Y33120D01*
X395723D01*
X395994Y33099D01*
X396494D01*
X396639Y33120D01*
X396806D01*
X396993Y33162D01*
X397431Y33224D01*
X397910Y33349D01*
X398410Y33516D01*
X398889Y33766D01*
X399118Y33912D01*
X399326Y34078D01*
X399347Y34099D01*
X399368Y34120D01*
X399431Y34182D01*
X399493Y34266D01*
X399576Y34370D01*
X399660Y34495D01*
X399743Y34641D01*
X399847Y34807D01*
X399951Y34995D01*
X400035Y35203D01*
X400118Y35432D01*
X400201Y35703D01*
X400264Y35974D01*
X400326Y36265D01*
X400347Y36599D01*
X400368Y36932D01*
Y36953D01*
Y37015D01*
Y37119D01*
X400347Y37244D01*
X400326Y37390D01*
X400305Y37557D01*
X400243Y37973D01*
X400118Y38411D01*
X399931Y38869D01*
X399805Y39098D01*
X399660Y39307D01*
X399493Y39494D01*
X399306Y39682D01*
X399285Y39702D01*
X399264Y39723D01*
X399201Y39765D01*
X399097Y39827D01*
X398993Y39890D01*
X398847Y39973D01*
X398681Y40056D01*
X398493Y40140D01*
X398264Y40223D01*
X398035Y40306D01*
X397743Y40390D01*
X397452Y40452D01*
X397118Y40515D01*
X396743Y40556D01*
X396348Y40598D01*
D02*
G37*
G36*
X418261Y37661D02*
X417844D01*
X417636Y37640D01*
X417407D01*
X417157Y37619D01*
X416886Y37598D01*
X416303Y37536D01*
X415740Y37432D01*
X415470Y37390D01*
X415220Y37307D01*
X414991Y37224D01*
X414803Y37140D01*
X414761Y37119D01*
X414657Y37036D01*
X414511Y36911D01*
X414345Y36724D01*
X414178Y36494D01*
X414032Y36182D01*
X413928Y35828D01*
X413907Y35620D01*
X413887Y35390D01*
Y35370D01*
Y35349D01*
Y35286D01*
Y35203D01*
X413928Y35016D01*
X413970Y34766D01*
X414032Y34516D01*
X414137Y34245D01*
X414282Y33995D01*
X414491Y33787D01*
X414511Y33766D01*
X414595Y33724D01*
X414741Y33641D01*
X414928Y33558D01*
X415157Y33474D01*
X415449Y33391D01*
X415782Y33349D01*
X416157Y33328D01*
X416365D01*
X416574Y33349D01*
X416865Y33370D01*
X417178Y33432D01*
X417532Y33495D01*
X417886Y33599D01*
X418219Y33724D01*
X418261Y37661D01*
D02*
G37*
G36*
X377726Y42702D02*
X377601D01*
X377497Y42681D01*
X377247Y42639D01*
X376934Y42577D01*
X376580Y42452D01*
X376226Y42264D01*
X376059Y42139D01*
X375893Y42014D01*
X375726Y41848D01*
X375580Y41660D01*
Y41640D01*
X375559Y41619D01*
X375518Y41556D01*
X375476Y41473D01*
X375351Y41265D01*
X375205Y40952D01*
X375060Y40598D01*
X374935Y40161D01*
X374830Y39682D01*
X374768Y39161D01*
X379871D01*
Y39515D01*
Y39536D01*
Y39598D01*
Y39682D01*
Y39786D01*
X379850Y39931D01*
Y40098D01*
X379809Y40452D01*
X379746Y40869D01*
X379642Y41265D01*
X379517Y41640D01*
X379434Y41806D01*
X379330Y41952D01*
X379309Y41994D01*
X379225Y42077D01*
X379100Y42181D01*
X378934Y42327D01*
X378705Y42473D01*
X378434Y42577D01*
X378101Y42660D01*
X377726Y42702D01*
D02*
G37*
G36*
X434217Y20918D02*
X434092D01*
X433988Y20897D01*
X433738Y20855D01*
X433425Y20793D01*
X433071Y20668D01*
X432717Y20480D01*
X432550Y20355D01*
X432384Y20230D01*
X432217Y20064D01*
X432071Y19876D01*
Y19855D01*
X432050Y19835D01*
X432009Y19772D01*
X431967Y19689D01*
X431842Y19480D01*
X431696Y19168D01*
X431550Y18814D01*
X431425Y18377D01*
X431321Y17898D01*
X431259Y17377D01*
X436362D01*
Y17731D01*
Y17752D01*
Y17814D01*
Y17898D01*
Y18002D01*
X436341Y18147D01*
Y18314D01*
X436300Y18668D01*
X436237Y19085D01*
X436133Y19480D01*
X436008Y19855D01*
X435925Y20022D01*
X435821Y20168D01*
X435800Y20210D01*
X435716Y20293D01*
X435591Y20397D01*
X435425Y20543D01*
X435196Y20689D01*
X434925Y20793D01*
X434592Y20876D01*
X434217Y20918D01*
D02*
G37*
G36*
X411679Y20876D02*
X411533D01*
X411429Y20855D01*
X411304Y20834D01*
X411158Y20814D01*
X410804Y20730D01*
X410429Y20584D01*
X410241Y20501D01*
X410033Y20376D01*
X409846Y20230D01*
X409658Y20085D01*
X409491Y19897D01*
X409325Y19689D01*
Y19668D01*
X409283Y19626D01*
X409241Y19564D01*
X409200Y19460D01*
X409137Y19335D01*
X409075Y19189D01*
X408991Y19001D01*
X408929Y18793D01*
X408846Y18564D01*
X408762Y18293D01*
X408700Y18002D01*
X408637Y17668D01*
X408596Y17314D01*
X408554Y16939D01*
X408512Y16523D01*
Y16085D01*
Y16064D01*
Y15981D01*
Y15877D01*
X408533Y15710D01*
Y15523D01*
X408554Y15315D01*
X408575Y15065D01*
X408617Y14794D01*
X408721Y14211D01*
X408867Y13607D01*
X409075Y13002D01*
X409346Y12440D01*
Y12419D01*
X409387Y12377D01*
X409429Y12315D01*
X409512Y12232D01*
X409700Y12003D01*
X409971Y11753D01*
X410325Y11482D01*
X410741Y11274D01*
X410991Y11169D01*
X411241Y11107D01*
X411533Y11065D01*
X411824Y11044D01*
X411970D01*
X412074Y11065D01*
X412199Y11086D01*
X412366Y11107D01*
X412699Y11190D01*
X413074Y11336D01*
X413282Y11440D01*
X413470Y11565D01*
X413657Y11711D01*
X413845Y11878D01*
X414012Y12065D01*
X414178Y12273D01*
Y12294D01*
X414220Y12336D01*
X414261Y12398D01*
X414303Y12503D01*
X414366Y12628D01*
X414428Y12794D01*
X414511Y12982D01*
X414595Y13211D01*
X414657Y13440D01*
X414741Y13711D01*
X414803Y14023D01*
X414866Y14356D01*
X414907Y14710D01*
X414949Y15085D01*
X414991Y15502D01*
Y15939D01*
Y15960D01*
Y16044D01*
Y16169D01*
X414970Y16314D01*
Y16502D01*
X414949Y16731D01*
X414928Y16981D01*
X414886Y17252D01*
X414782Y17835D01*
X414637Y18418D01*
X414428Y19022D01*
X414282Y19293D01*
X414137Y19543D01*
Y19564D01*
X414095Y19605D01*
X414053Y19668D01*
X413970Y19751D01*
X413782Y19960D01*
X413512Y20210D01*
X413158Y20459D01*
X412741Y20668D01*
X412512Y20751D01*
X412241Y20814D01*
X411970Y20855D01*
X411679Y20876D01*
D02*
G37*
G36*
X398056Y20376D02*
X397848D01*
X397618Y20355D01*
X397327Y20314D01*
X396993Y20251D01*
X396598Y20147D01*
X396181Y20022D01*
X395764Y19855D01*
Y11440D01*
X395785D01*
X395806Y11419D01*
X395931Y11399D01*
X396119Y11357D01*
X396369Y11294D01*
X396660Y11232D01*
X396993Y11190D01*
X397348Y11169D01*
X397723Y11148D01*
X397910D01*
X398056Y11169D01*
X398222Y11190D01*
X398410Y11211D01*
X398847Y11294D01*
X399347Y11440D01*
X399597Y11544D01*
X399847Y11669D01*
X400076Y11815D01*
X400326Y11982D01*
X400534Y12169D01*
X400743Y12377D01*
X400764Y12398D01*
X400784Y12440D01*
X400847Y12503D01*
X400910Y12607D01*
X400972Y12732D01*
X401076Y12898D01*
X401159Y13065D01*
X401264Y13273D01*
X401347Y13523D01*
X401451Y13773D01*
X401534Y14065D01*
X401597Y14377D01*
X401680Y14731D01*
X401722Y15085D01*
X401743Y15481D01*
X401763Y15898D01*
Y15919D01*
Y16002D01*
Y16106D01*
X401743Y16252D01*
Y16419D01*
X401722Y16627D01*
X401680Y16856D01*
X401639Y17106D01*
X401534Y17627D01*
X401368Y18189D01*
X401139Y18710D01*
X400993Y18960D01*
X400826Y19189D01*
Y19210D01*
X400784Y19231D01*
X400722Y19293D01*
X400660Y19376D01*
X400555Y19460D01*
X400430Y19564D01*
X400285Y19668D01*
X400139Y19793D01*
X399951Y19897D01*
X399743Y20001D01*
X399514Y20105D01*
X399264Y20189D01*
X398993Y20272D01*
X398702Y20335D01*
X398389Y20355D01*
X398056Y20376D01*
D02*
G37*
G36*
X386058Y20918D02*
X385933D01*
X385829Y20897D01*
X385579Y20855D01*
X385266Y20793D01*
X384912Y20668D01*
X384558Y20480D01*
X384391Y20355D01*
X384225Y20230D01*
X384058Y20064D01*
X383912Y19876D01*
Y19855D01*
X383891Y19835D01*
X383850Y19772D01*
X383808Y19689D01*
X383683Y19480D01*
X383537Y19168D01*
X383391Y18814D01*
X383266Y18377D01*
X383162Y17898D01*
X383100Y17377D01*
X388203D01*
Y17731D01*
Y17752D01*
Y17814D01*
Y17898D01*
Y18002D01*
X388182Y18147D01*
Y18314D01*
X388141Y18668D01*
X388078Y19085D01*
X387974Y19480D01*
X387849Y19855D01*
X387766Y20022D01*
X387662Y20168D01*
X387641Y20210D01*
X387558Y20293D01*
X387433Y20397D01*
X387266Y20543D01*
X387037Y20689D01*
X386766Y20793D01*
X386433Y20876D01*
X386058Y20918D01*
D02*
G37*
G36*
X360499D02*
X360374D01*
X360270Y20897D01*
X360020Y20855D01*
X359708Y20793D01*
X359354Y20668D01*
X358999Y20480D01*
X358833Y20355D01*
X358666Y20230D01*
X358500Y20064D01*
X358354Y19876D01*
Y19855D01*
X358333Y19835D01*
X358291Y19772D01*
X358250Y19689D01*
X358125Y19480D01*
X357979Y19168D01*
X357833Y18814D01*
X357708Y18377D01*
X357604Y17898D01*
X357541Y17377D01*
X362645D01*
Y17731D01*
Y17752D01*
Y17814D01*
Y17898D01*
Y18002D01*
X362624Y18147D01*
Y18314D01*
X362582Y18668D01*
X362520Y19085D01*
X362416Y19480D01*
X362291Y19855D01*
X362207Y20022D01*
X362103Y20168D01*
X362082Y20210D01*
X361999Y20293D01*
X361874Y20397D01*
X361707Y20543D01*
X361478Y20689D01*
X361208Y20793D01*
X360874Y20876D01*
X360499Y20918D01*
D02*
G37*
%LPD*%
D10*
X567037Y50307D02*
Y55305D01*
X570369Y50307D01*
Y55305D01*
X574534D02*
X572868D01*
X572035Y54472D01*
Y51140D01*
X572868Y50307D01*
X574534D01*
X575367Y51140D01*
Y54472D01*
X574534Y55305D01*
X577033D02*
X580366D01*
X578699D01*
Y50307D01*
X587030D02*
Y53639D01*
X588696Y55305D01*
X590362Y53639D01*
Y50307D01*
Y52806D01*
X587030D01*
X595361Y55305D02*
X592029D01*
Y52806D01*
X593695D01*
X592029D01*
Y50307D01*
X600359Y55305D02*
X597027D01*
Y52806D01*
X598693D01*
X597027D01*
Y50307D01*
X602025Y55305D02*
X603691D01*
X602858D01*
Y50307D01*
X602025D01*
X603691D01*
X606190Y55305D02*
Y50307D01*
X609523D01*
X611189Y55305D02*
X612855D01*
X612022D01*
Y50307D01*
X611189D01*
X612855D01*
X615354D02*
Y53639D01*
X617020Y55305D01*
X618686Y53639D01*
Y50307D01*
Y52806D01*
X615354D01*
X620353Y55305D02*
X623685D01*
X622019D01*
Y50307D01*
X628683Y55305D02*
X625351D01*
Y50307D01*
X628683D01*
X625351Y52806D02*
X627017D01*
X630349Y55305D02*
Y50307D01*
X632849D01*
X633682Y51140D01*
Y54472D01*
X632849Y55305D01*
X630349D01*
X640346D02*
Y50307D01*
X642012Y51973D01*
X643678Y50307D01*
Y55305D01*
X645344D02*
X647011D01*
X646178D01*
Y50307D01*
X645344D01*
X647011D01*
X649510Y55305D02*
X652842D01*
X651176D01*
Y50307D01*
X654508Y55305D02*
Y50307D01*
Y52806D01*
X657840D01*
Y55305D01*
Y50307D01*
X666171D02*
X664505Y51973D01*
Y53639D01*
X666171Y55305D01*
X668670Y50307D02*
Y55305D01*
X671170D01*
X672003Y54472D01*
Y52806D01*
X671170Y51973D01*
X668670D01*
X670336D02*
X672003Y50307D01*
X673669Y55305D02*
Y50307D01*
Y51973D01*
X677001Y55305D01*
X674502Y52806D01*
X677001Y50307D01*
X683665D02*
Y55305D01*
X686165D01*
X686998Y54472D01*
Y52806D01*
X686165Y51973D01*
X683665D01*
X685332D02*
X686998Y50307D01*
X691163Y55305D02*
X689497D01*
X688664Y54472D01*
Y51140D01*
X689497Y50307D01*
X691163D01*
X691996Y51140D01*
Y54472D01*
X691163Y55305D01*
X693662D02*
Y54472D01*
X695328Y52806D01*
X696994Y54472D01*
Y55305D01*
X695328Y52806D02*
Y50307D01*
X698661D02*
Y53639D01*
X700327Y55305D01*
X701993Y53639D01*
Y50307D01*
Y52806D01*
X698661D01*
X703659Y55305D02*
Y50307D01*
X706991D01*
X713656Y55305D02*
Y50307D01*
Y51973D01*
X716988Y55305D01*
X714489Y52806D01*
X716988Y50307D01*
X718654Y55305D02*
Y50307D01*
X721986D01*
X723653Y55305D02*
Y51140D01*
X724485Y50307D01*
X726152D01*
X726985Y51140D01*
Y55305D01*
X728651D02*
Y50307D01*
X731150D01*
X731983Y51140D01*
Y54472D01*
X731150Y55305D01*
X728651D01*
X736981Y54472D02*
X736148Y55305D01*
X734482D01*
X733649Y54472D01*
Y51140D01*
X734482Y50307D01*
X736148D01*
X736981Y51140D01*
Y52806D01*
X735315D01*
X741980Y55305D02*
X738648D01*
Y50307D01*
X741980D01*
X738648Y52806D02*
X740314D01*
X743646Y50307D02*
X745312Y51973D01*
Y53639D01*
X743646Y55305D01*
X609037Y60307D02*
Y65305D01*
X611536D01*
X612369Y64472D01*
Y62806D01*
X611536Y61973D01*
X609037D01*
X610703D02*
X612369Y60307D01*
X614035Y65305D02*
Y60307D01*
Y61973D01*
X617367Y65305D01*
X614868Y62806D01*
X617367Y60307D01*
X622366Y65305D02*
X620700Y64472D01*
X619033Y62806D01*
Y61140D01*
X619866Y60307D01*
X621532D01*
X622366Y61140D01*
Y61973D01*
X621532Y62806D01*
X619033D01*
X624032Y60307D02*
X625698D01*
X624865D01*
Y65305D01*
X624032Y64472D01*
X633195Y60307D02*
Y63639D01*
X634862Y65305D01*
X636528Y63639D01*
Y60307D01*
Y62806D01*
X633195D01*
X641526Y65305D02*
X638194D01*
Y62806D01*
X639860D01*
X638194D01*
Y60307D01*
X643192Y65305D02*
X646524D01*
X644858D01*
Y60307D01*
X651523Y65305D02*
X648190D01*
Y60307D01*
X651523D01*
X648190Y62806D02*
X649857D01*
X653189Y60307D02*
Y65305D01*
X655688D01*
X656521Y64472D01*
Y62806D01*
X655688Y61973D01*
X653189D01*
X654855D02*
X656521Y60307D01*
X658187D02*
Y65305D01*
X659853Y63639D01*
X661520Y65305D01*
Y60307D01*
X663186D02*
Y63639D01*
X664852Y65305D01*
X666518Y63639D01*
Y60307D01*
Y62806D01*
X663186D01*
X668184Y60307D02*
Y65305D01*
X670683D01*
X671516Y64472D01*
Y62806D01*
X670683Y61973D01*
X668184D01*
X669850D02*
X671516Y60307D01*
X673182Y65305D02*
Y60307D01*
Y61973D01*
X676515Y65305D01*
X674016Y62806D01*
X676515Y60307D01*
X681513Y65305D02*
X678181D01*
Y60307D01*
X681513D01*
X678181Y62806D02*
X679847D01*
X683179Y65305D02*
X686512D01*
X684845D01*
Y60307D01*
X693176D02*
Y65305D01*
X695675D01*
X696508Y64472D01*
Y62806D01*
X695675Y61973D01*
X693176D01*
X701507Y64472D02*
X700673Y65305D01*
X699007D01*
X698174Y64472D01*
Y61140D01*
X699007Y60307D01*
X700673D01*
X701507Y61140D01*
X703173Y65305D02*
Y60307D01*
X705672D01*
X706505Y61140D01*
Y61973D01*
X705672Y62806D01*
X703173D01*
X705672D01*
X706505Y63639D01*
Y64472D01*
X705672Y65305D01*
X703173D01*
D11*
X342837Y57107D02*
Y61106D01*
X344836D01*
X345502Y60439D01*
Y59106D01*
X344836Y58440D01*
X342837D01*
X344169D02*
X345502Y57107D01*
X349501Y61106D02*
X346835D01*
Y57107D01*
X349501D01*
X346835Y59106D02*
X348168D01*
X350834Y61106D02*
Y58440D01*
X352167Y57107D01*
X353500Y58440D01*
Y61106D01*
X354833Y59773D02*
X355499D01*
Y59106D01*
X354833D01*
Y59773D01*
Y57774D02*
X355499D01*
Y57107D01*
X354833D01*
Y57774D01*
X362164Y57107D02*
X363497D01*
X362830D01*
Y61106D01*
X362164Y60439D01*
X365496Y57107D02*
Y57774D01*
X366162D01*
Y57107D01*
X365496D01*
X368828Y60439D02*
X369495Y61106D01*
X370828D01*
X371494Y60439D01*
Y57774D01*
X370828Y57107D01*
X369495D01*
X368828Y57774D01*
Y60439D01*
X372827Y57107D02*
Y57774D01*
X373493D01*
Y57107D01*
X372827D01*
X376159Y60439D02*
X376826Y61106D01*
X378158D01*
X378825Y60439D01*
Y57774D01*
X378158Y57107D01*
X376826D01*
X376159Y57774D01*
Y60439D01*
X328837Y66107D02*
Y70106D01*
X330170Y68773D01*
X331502Y70106D01*
Y66107D01*
X335501Y70106D02*
X334168D01*
X334835D01*
Y66773D01*
X334168Y66107D01*
X333502D01*
X332835Y66773D01*
X336834Y66107D02*
Y70106D01*
X338167Y68773D01*
X339500Y70106D01*
Y66107D01*
X344831Y68106D02*
X347497D01*
X355495Y66107D02*
X352829D01*
X355495Y68773D01*
Y69439D01*
X354828Y70106D01*
X353495D01*
X352829Y69439D01*
X356827D02*
X357494Y70106D01*
X358827D01*
X359493Y69439D01*
Y66773D01*
X358827Y66107D01*
X357494D01*
X356827Y66773D01*
Y69439D01*
X363492Y66107D02*
X360826D01*
X363492Y68773D01*
Y69439D01*
X362826Y70106D01*
X361493D01*
X360826Y69439D01*
X364825D02*
X365491Y70106D01*
X366824D01*
X367491Y69439D01*
Y68773D01*
X366824Y68106D01*
X366158D01*
X366824D01*
X367491Y67440D01*
Y66773D01*
X366824Y66107D01*
X365491D01*
X364825Y66773D01*
M02*
