G04*
G04 #@! TF.GenerationSoftware,Altium Limited,Altium Designer,23.0.1 (38)*
G04*
G04 Layer_Color=32896*
%FSLAX25Y25*%
%MOIN*%
G70*
G04*
G04 #@! TF.SameCoordinates,C9061E24-21D4-42B5-84E4-063FA9BFFD9C*
G04*
G04*
G04 #@! TF.FilePolarity,Positive*
G04*
G01*
G75*
%ADD11C,0.01000*%
D11*
X1111220Y357283D02*
G03*
X1107283Y361221I-3937J0D01*
G01*
Y0D02*
G03*
X1111220Y3937I0J3937D01*
G01*
X3937Y361221D02*
G03*
X0Y357283I0J-3937D01*
G01*
Y3937D02*
G03*
X3937Y0I3937J0D01*
G01*
X1107283D01*
X3937Y361221D02*
X1107283D01*
X1111220Y3937D02*
Y357283D01*
X0Y3937D02*
Y357283D01*
X23810Y343210D02*
Y358010D01*
X37410D01*
Y343210D02*
Y358010D01*
X23810Y343210D02*
X37410D01*
X98810D02*
Y358010D01*
X112410D01*
Y343210D02*
Y358010D01*
X98810Y343210D02*
X112410D01*
X173810D02*
Y358010D01*
X187410D01*
Y343210D02*
Y358010D01*
X173810Y343210D02*
X187410D01*
X248810D02*
Y358010D01*
X262410D01*
Y343210D02*
Y358010D01*
X248810Y343210D02*
X262410D01*
X323810D02*
Y358010D01*
X337410D01*
Y343210D02*
Y358010D01*
X323810Y343210D02*
X337410D01*
X398810D02*
Y358010D01*
X412410D01*
Y343210D02*
Y358010D01*
X398810Y343210D02*
X412410D01*
X473810D02*
Y358010D01*
X487410D01*
Y343210D02*
Y358010D01*
X473810Y343210D02*
X487410D01*
X548810D02*
Y358010D01*
X562410D01*
Y343210D02*
Y358010D01*
X548810Y343210D02*
X562410D01*
X623810D02*
Y358010D01*
X637410D01*
Y343210D02*
Y358010D01*
X623810Y343210D02*
X637410D01*
X773810D02*
Y358010D01*
X787410D01*
Y343210D02*
Y358010D01*
X773810Y343210D02*
X787410D01*
X848810D02*
Y358010D01*
X862410D01*
Y343210D02*
Y358010D01*
X848810Y343210D02*
X862410D01*
X923810D02*
Y358010D01*
X937410D01*
Y343210D02*
Y358010D01*
X923810Y343210D02*
X937410D01*
X1036310D02*
Y358010D01*
X1049910D01*
Y343210D02*
Y358010D01*
X1036310Y343210D02*
X1049910D01*
X1068660Y268210D02*
Y283010D01*
X1055060Y268210D02*
X1068660D01*
X1055060D02*
Y283010D01*
X1068660D01*
X974910Y268210D02*
Y283010D01*
X961310Y268210D02*
X974910D01*
X961310D02*
Y283010D01*
X974910D01*
X899910Y268210D02*
Y283010D01*
X886310Y268210D02*
X899910D01*
X886310D02*
Y283010D01*
X899910D01*
X824910Y268210D02*
Y283010D01*
X811310Y268210D02*
X824910D01*
X811310D02*
Y283010D01*
X824910D01*
X749910Y268210D02*
Y283010D01*
X736310Y268210D02*
X749910D01*
X736310D02*
Y283010D01*
X749910D01*
X674910Y268210D02*
Y283010D01*
X661310Y268210D02*
X674910D01*
X661310D02*
Y283010D01*
X674910D01*
X599910Y268210D02*
Y283010D01*
X586310Y268210D02*
X599910D01*
X586310D02*
Y283010D01*
X599910D01*
X524910Y268210D02*
Y283010D01*
X511310Y268210D02*
X524910D01*
X511310D02*
Y283010D01*
X524910D01*
X449910Y268210D02*
Y283010D01*
X436310Y268210D02*
X449910D01*
X436310D02*
Y283010D01*
X449910D01*
X374910Y268210D02*
Y283010D01*
X361310Y268210D02*
X374910D01*
X361310D02*
Y283010D01*
X374910D01*
X299910Y268210D02*
Y283010D01*
X286310Y268210D02*
X299910D01*
X286310D02*
Y283010D01*
X299910D01*
X224910Y268210D02*
Y283010D01*
X211310Y268210D02*
X224910D01*
X211310D02*
Y283010D01*
X224910D01*
X149910Y268210D02*
Y283010D01*
X136310Y268210D02*
X149910D01*
X136310D02*
Y283010D01*
X149910D01*
X56160Y268210D02*
Y283010D01*
X42560Y268210D02*
X56160D01*
X42560D02*
Y283010D01*
X56160D01*
X51935Y193210D02*
Y208010D01*
X65535D01*
Y193210D02*
Y208010D01*
X51935Y193210D02*
X65535D01*
X155060D02*
Y208010D01*
X168660D01*
Y193210D02*
Y208010D01*
X155060Y193210D02*
X168660D01*
X230060D02*
Y208010D01*
X243660D01*
Y193210D02*
Y208010D01*
X230060Y193210D02*
X243660D01*
X305060D02*
Y208010D01*
X318660D01*
Y193210D02*
Y208010D01*
X305060Y193210D02*
X318660D01*
X380060D02*
Y208010D01*
X393660D01*
Y193210D02*
Y208010D01*
X380060Y193210D02*
X393660D01*
X455060D02*
Y208010D01*
X468660D01*
Y193210D02*
Y208010D01*
X455060Y193210D02*
X468660D01*
X530060D02*
Y208010D01*
X543660D01*
Y193210D02*
Y208010D01*
X530060Y193210D02*
X543660D01*
X605060D02*
Y208010D01*
X618660D01*
Y193210D02*
Y208010D01*
X605060Y193210D02*
X618660D01*
X680060D02*
Y208010D01*
X693660D01*
Y193210D02*
Y208010D01*
X680060Y193210D02*
X693660D01*
X755060D02*
Y208010D01*
X768660D01*
Y193210D02*
Y208010D01*
X755060Y193210D02*
X768660D01*
X830060D02*
Y208010D01*
X843660D01*
Y193210D02*
Y208010D01*
X830060Y193210D02*
X843660D01*
X905060D02*
Y208010D01*
X918660D01*
Y193210D02*
Y208010D01*
X905060Y193210D02*
X918660D01*
X1026935D02*
Y208010D01*
X1040535D01*
Y193210D02*
Y208010D01*
X1026935Y193210D02*
X1040535D01*
X1021785Y118210D02*
Y133010D01*
X1008185Y118210D02*
X1021785D01*
X1008185D02*
Y133010D01*
X1021785D01*
X881160Y118210D02*
Y133010D01*
X867560Y118210D02*
X881160D01*
X867560D02*
Y133010D01*
X881160D01*
X806160Y118210D02*
Y133010D01*
X792560Y118210D02*
X806160D01*
X792560D02*
Y133010D01*
X806160D01*
X731160Y118210D02*
Y133010D01*
X717560Y118210D02*
X731160D01*
X717560D02*
Y133010D01*
X731160D01*
X656160Y118210D02*
Y133010D01*
X642560Y118210D02*
X656160D01*
X642560D02*
Y133010D01*
X656160D01*
X581160Y118210D02*
Y133010D01*
X567560Y118210D02*
X581160D01*
X567560D02*
Y133010D01*
X581160D01*
X506160Y118210D02*
Y133010D01*
X492560Y118210D02*
X506160D01*
X492560D02*
Y133010D01*
X506160D01*
X431160Y118210D02*
Y133010D01*
X417560Y118210D02*
X431160D01*
X417560D02*
Y133010D01*
X431160D01*
X356160Y118210D02*
Y133010D01*
X342560Y118210D02*
X356160D01*
X342560D02*
Y133010D01*
X356160D01*
X281160Y118210D02*
Y133010D01*
X267560Y118210D02*
X281160D01*
X267560D02*
Y133010D01*
X281160D01*
X206160Y118210D02*
Y133010D01*
X192560Y118210D02*
X206160D01*
X192560D02*
Y133010D01*
X206160D01*
X84285Y118210D02*
Y133010D01*
X70685Y118210D02*
X84285D01*
X70685D02*
Y133010D01*
X84285D01*
X33185Y43210D02*
Y58010D01*
X46785D01*
Y43210D02*
Y58010D01*
X33185Y43210D02*
X46785D01*
X126935D02*
Y58010D01*
X140535D01*
Y43210D02*
Y58010D01*
X126935Y43210D02*
X140535D01*
X220685D02*
Y58010D01*
X234285D01*
Y43210D02*
Y58010D01*
X220685Y43210D02*
X234285D01*
X501935D02*
Y58010D01*
X515535D01*
Y43210D02*
Y58010D01*
X501935Y43210D02*
X515535D01*
X783185D02*
Y58010D01*
X796785D01*
Y43210D02*
Y58010D01*
X783185Y43210D02*
X796785D01*
X876935D02*
Y58010D01*
X890535D01*
Y43210D02*
Y58010D01*
X876935Y43210D02*
X890535D01*
X970685D02*
Y58010D01*
X984285D01*
Y43210D02*
Y58010D01*
X970685Y43210D02*
X984285D01*
X1064435D02*
Y58010D01*
X1078035D01*
Y43210D02*
Y58010D01*
X1064435Y43210D02*
X1078035D01*
X698810Y343210D02*
Y358010D01*
X712410D01*
Y343210D02*
Y358010D01*
X698810Y343210D02*
X712410D01*
M02*
