G04*
G04 #@! TF.GenerationSoftware,Altium Limited,Altium Designer,23.1.1 (15)*
G04*
G04 Layer_Color=16711935*
%FSLAX25Y25*%
%MOIN*%
G70*
G04*
G04 #@! TF.SameCoordinates,2B387D3F-2690-41C2-BDA0-AF5B162F5435*
G04*
G04*
G04 #@! TF.FilePolarity,Positive*
G04*
G01*
G75*
%ADD63C,0.00100*%
%ADD64R,0.16000X0.16000*%
D63*
X7300Y4000D02*
G03*
X7300Y4000I-3300J0D01*
G01*
X1110300Y357000D02*
G03*
X1110300Y357000I-3300J0D01*
G01*
D64*
X1071235Y50610D02*
D03*
X977485D02*
D03*
X883735D02*
D03*
X789985D02*
D03*
X508735D02*
D03*
X227485D02*
D03*
X133735D02*
D03*
X39985D02*
D03*
X77485Y125610D02*
D03*
X199360D02*
D03*
X274360D02*
D03*
X349360D02*
D03*
X424360D02*
D03*
X499360D02*
D03*
X574360D02*
D03*
X649360D02*
D03*
X724360D02*
D03*
X799360D02*
D03*
X874360D02*
D03*
X1014985D02*
D03*
X1033735Y200610D02*
D03*
X911860D02*
D03*
X836860D02*
D03*
X761860D02*
D03*
X686860D02*
D03*
X611860D02*
D03*
X536860D02*
D03*
X461860D02*
D03*
X386860D02*
D03*
X311860D02*
D03*
X236860D02*
D03*
X161860D02*
D03*
X58735D02*
D03*
X49360Y275610D02*
D03*
X143110D02*
D03*
X218110D02*
D03*
X293110D02*
D03*
X368110D02*
D03*
X443110D02*
D03*
X518110D02*
D03*
X593110D02*
D03*
X668110D02*
D03*
X743110D02*
D03*
X818110D02*
D03*
X893110D02*
D03*
X968110D02*
D03*
X1061860D02*
D03*
X1043110Y350610D02*
D03*
X930610D02*
D03*
X855610D02*
D03*
X780610D02*
D03*
X705610D02*
D03*
X630610D02*
D03*
X555610D02*
D03*
X480610D02*
D03*
X405610D02*
D03*
X330610D02*
D03*
X255610D02*
D03*
X180610D02*
D03*
X105610D02*
D03*
X30610D02*
D03*
M02*
