G04*
G04 #@! TF.GenerationSoftware,Altium Limited,Altium Designer,23.0.1 (38)*
G04*
G04 Layer_Color=32896*
%FSLAX25Y25*%
%MOIN*%
G70*
G04*
G04 #@! TF.SameCoordinates,EB104D2B-E379-4E04-930F-2E15411DD845*
G04*
G04*
G04 #@! TF.FilePolarity,Positive*
G04*
G01*
G75*
%ADD11C,0.01000*%
D11*
X0Y3937D02*
G03*
X3937Y0I3937J0D01*
G01*
X1104331D02*
G03*
X1108268Y3937I0J3937D01*
G01*
Y356299D02*
G03*
X1104331Y360236I-3937J0D01*
G01*
X3937D02*
G03*
X0Y356299I0J-3937D01*
G01*
X23712Y342324D02*
Y357124D01*
X37312D01*
Y342324D02*
Y357124D01*
X23712Y342324D02*
X37312D01*
X98515D02*
Y357124D01*
X112115D01*
Y342324D02*
Y357124D01*
X98515Y342324D02*
X112115D01*
X173318D02*
Y357124D01*
X186918D01*
Y342324D02*
Y357124D01*
X173318Y342324D02*
X186918D01*
X248121D02*
Y357124D01*
X261721D01*
Y342324D02*
Y357124D01*
X248121Y342324D02*
X261721D01*
X322924D02*
Y357124D01*
X336524D01*
Y342324D02*
Y357124D01*
X322924Y342324D02*
X336524D01*
X397728D02*
Y357124D01*
X411328D01*
Y342324D02*
Y357124D01*
X397728Y342324D02*
X411328D01*
X472531D02*
Y357124D01*
X486131D01*
Y342324D02*
Y357124D01*
X472531Y342324D02*
X486131D01*
X547334D02*
Y357124D01*
X560934D01*
Y342324D02*
Y357124D01*
X547334Y342324D02*
X560934D01*
X622137D02*
Y357124D01*
X635737D01*
Y342324D02*
Y357124D01*
X622137Y342324D02*
X635737D01*
X771743D02*
Y357124D01*
X785343D01*
Y342324D02*
Y357124D01*
X771743Y342324D02*
X785343D01*
X846546D02*
Y357124D01*
X860147D01*
Y342324D02*
Y357124D01*
X846546Y342324D02*
X860147D01*
X921350D02*
Y357124D01*
X934950D01*
Y342324D02*
Y357124D01*
X921350Y342324D02*
X934950D01*
X1033554D02*
Y357124D01*
X1047154D01*
Y342324D02*
Y357124D01*
X1033554Y342324D02*
X1047154D01*
X1065855Y267521D02*
Y282321D01*
X1052255Y267521D02*
X1065855D01*
X1052255D02*
Y282321D01*
X1065855D01*
X972351Y267521D02*
Y282321D01*
X958751Y267521D02*
X972351D01*
X958751D02*
Y282321D01*
X972351D01*
X897548Y267521D02*
Y282321D01*
X883948Y267521D02*
X897548D01*
X883948D02*
Y282321D01*
X897548D01*
X822745Y267521D02*
Y282321D01*
X809145Y267521D02*
X822745D01*
X809145D02*
Y282321D01*
X822745D01*
X747942Y267521D02*
Y282321D01*
X734342Y267521D02*
X747942D01*
X734342D02*
Y282321D01*
X747942D01*
X673139Y267521D02*
Y282321D01*
X659539Y267521D02*
X673139D01*
X659539D02*
Y282321D01*
X673139D01*
X598335Y267521D02*
Y282321D01*
X584735Y267521D02*
X598335D01*
X584735D02*
Y282321D01*
X598335D01*
X523532Y267521D02*
Y282321D01*
X509932Y267521D02*
X523532D01*
X509932D02*
Y282321D01*
X523532D01*
X448729Y267521D02*
Y282321D01*
X435129Y267521D02*
X448729D01*
X435129D02*
Y282321D01*
X448729D01*
X373926Y267521D02*
Y282321D01*
X360326Y267521D02*
X373926D01*
X360326D02*
Y282321D01*
X373926D01*
X299123Y267521D02*
Y282321D01*
X285523Y267521D02*
X299123D01*
X285523D02*
Y282321D01*
X299123D01*
X224320Y267521D02*
Y282321D01*
X210720Y267521D02*
X224320D01*
X210720D02*
Y282321D01*
X224320D01*
X149516Y267521D02*
Y282321D01*
X135916Y267521D02*
X149516D01*
X135916D02*
Y282321D01*
X149516D01*
X56013Y267521D02*
Y282321D01*
X42413Y267521D02*
X56013D01*
X42413D02*
Y282321D01*
X56013D01*
X51763Y192718D02*
Y207518D01*
X65363D01*
Y192718D02*
Y207518D01*
X51763Y192718D02*
X65363D01*
X154617D02*
Y207518D01*
X168217D01*
Y192718D02*
Y207518D01*
X154617Y192718D02*
X168217D01*
X229420D02*
Y207518D01*
X243021D01*
Y192718D02*
Y207518D01*
X229420Y192718D02*
X243021D01*
X304224D02*
Y207518D01*
X317824D01*
Y192718D02*
Y207518D01*
X304224Y192718D02*
X317824D01*
X379027D02*
Y207518D01*
X392627D01*
Y192718D02*
Y207518D01*
X379027Y192718D02*
X392627D01*
X453830D02*
Y207518D01*
X467430D01*
Y192718D02*
Y207518D01*
X453830Y192718D02*
X467430D01*
X528633D02*
Y207518D01*
X542233D01*
Y192718D02*
Y207518D01*
X528633Y192718D02*
X542233D01*
X603436D02*
Y207518D01*
X617036D01*
Y192718D02*
Y207518D01*
X603436Y192718D02*
X617036D01*
X678239D02*
Y207518D01*
X691839D01*
Y192718D02*
Y207518D01*
X678239Y192718D02*
X691839D01*
X753043D02*
Y207518D01*
X766643D01*
Y192718D02*
Y207518D01*
X753043Y192718D02*
X766643D01*
X827846D02*
Y207518D01*
X841446D01*
Y192718D02*
Y207518D01*
X827846Y192718D02*
X841446D01*
X902649D02*
Y207518D01*
X916249D01*
Y192718D02*
Y207518D01*
X902649Y192718D02*
X916249D01*
X1024204D02*
Y207518D01*
X1037804D01*
Y192718D02*
Y207518D01*
X1024204Y192718D02*
X1037804D01*
X1019103Y117915D02*
Y132715D01*
X1005503Y117915D02*
X1019103D01*
X1005503D02*
Y132715D01*
X1019103D01*
X878847Y117915D02*
Y132715D01*
X865247Y117915D02*
X878847D01*
X865247D02*
Y132715D01*
X878847D01*
X804044Y117915D02*
Y132715D01*
X790444Y117915D02*
X804044D01*
X790444D02*
Y132715D01*
X804044D01*
X729241Y117915D02*
Y132715D01*
X715641Y117915D02*
X729241D01*
X715641D02*
Y132715D01*
X729241D01*
X654438Y117915D02*
Y132715D01*
X640838Y117915D02*
X654438D01*
X640838D02*
Y132715D01*
X654438D01*
X579635Y117915D02*
Y132715D01*
X566035Y117915D02*
X579635D01*
X566035D02*
Y132715D01*
X579635D01*
X504832Y117915D02*
Y132715D01*
X491231Y117915D02*
X504832D01*
X491231D02*
Y132715D01*
X504832D01*
X430028Y117915D02*
Y132715D01*
X416428Y117915D02*
X430028D01*
X416428D02*
Y132715D01*
X430028D01*
X355225Y117915D02*
Y132715D01*
X341625Y117915D02*
X355225D01*
X341625D02*
Y132715D01*
X355225D01*
X280422Y117915D02*
Y132715D01*
X266822Y117915D02*
X280422D01*
X266822D02*
Y132715D01*
X280422D01*
X205619Y117915D02*
Y132715D01*
X192019Y117915D02*
X205619D01*
X192019D02*
Y132715D01*
X205619D01*
X84064Y117915D02*
Y132715D01*
X70464Y117915D02*
X84064D01*
X70464D02*
Y132715D01*
X84064D01*
X33062Y43112D02*
Y57912D01*
X46662D01*
Y43112D02*
Y57912D01*
X33062Y43112D02*
X46662D01*
X126566D02*
Y57912D01*
X140166D01*
Y43112D02*
Y57912D01*
X126566Y43112D02*
X140166D01*
X220070D02*
Y57912D01*
X233670D01*
Y43112D02*
Y57912D01*
X220070Y43112D02*
X233670D01*
X500582D02*
Y57912D01*
X514182D01*
Y43112D02*
Y57912D01*
X500582Y43112D02*
X514182D01*
X781094D02*
Y57912D01*
X794694D01*
Y43112D02*
Y57912D01*
X781094Y43112D02*
X794694D01*
X874598D02*
Y57912D01*
X888198D01*
Y43112D02*
Y57912D01*
X874598Y43112D02*
X888198D01*
X968102D02*
Y57912D01*
X981702D01*
Y43112D02*
Y57912D01*
X968102Y43112D02*
X981702D01*
X1061605D02*
Y57912D01*
X1075206D01*
Y43112D02*
Y57912D01*
X1061605Y43112D02*
X1075206D01*
X696940Y342324D02*
Y357124D01*
X710540D01*
Y342324D02*
Y357124D01*
X696940Y342324D02*
X710540D01*
X3937Y0D02*
X1104331D01*
X1108268Y3937D02*
Y356299D01*
X3937Y360236D02*
X1104331D01*
X0Y3937D02*
Y356299D01*
M02*
